<svg width="32" height="32" viewBox="0 0 32 32" fill="none" xmlns="http://www.w3.org/2000/svg">
<path d="M16.0004 0.00146484C12.8362 0.00146484 9.74308 0.939758 7.11215 2.69769C4.48122 4.45563 2.43065 6.95424 1.21977 9.87758C0.00888501 12.8009 -0.307938 16.0177 0.309366 19.1211C0.92667 22.2245 2.45037 25.0751 4.6878 27.3125C6.92522 29.55 9.77587 31.0737 12.8793 31.691C15.9827 32.3083 19.1994 31.9915 22.1228 30.7806C25.0461 29.5697 27.5447 27.5191 29.3026 24.8882C31.0606 22.2573 31.9989 19.1641 31.9989 15.9999C31.9944 11.7582 30.3074 7.69158 27.3081 4.69225C24.3088 1.69293 20.2421 0.00594413 16.0004 0.00146484ZM17.2311 29.4802V19.6919H20.923C21.2494 19.6919 21.5624 19.5622 21.7932 19.3314C22.024 19.1006 22.1537 18.7876 22.1537 18.4612C22.1537 18.1348 22.024 17.8218 21.7932 17.591C21.5624 17.3602 21.2494 17.2306 20.923 17.2306H17.2311V13.5386C17.2311 12.8858 17.4904 12.2598 17.952 11.7982C18.4135 11.3366 19.0396 11.0773 19.6924 11.0773H22.1537C22.48 11.0773 22.7931 10.9477 23.0239 10.7169C23.2547 10.4861 23.3843 10.1731 23.3843 9.84667C23.3843 9.52028 23.2547 9.20726 23.0239 8.97647C22.7931 8.74568 22.48 8.61602 22.1537 8.61602H19.6924C18.3868 8.61602 17.1347 9.13465 16.2116 10.0578C15.2884 10.981 14.7698 12.2331 14.7698 13.5386V17.2306H11.0778C10.7514 17.2306 10.4384 17.3602 10.2076 17.591C9.97682 17.8218 9.84716 18.1348 9.84716 18.4612C9.84716 18.7876 9.97682 19.1006 10.2076 19.3314C10.4384 19.5622 10.7514 19.6919 11.0778 19.6919H14.7698V29.4802C11.3006 29.1635 8.08697 27.5216 5.79746 24.8959C3.50795 22.2703 2.31877 18.8631 2.47728 15.3831C2.63579 11.9031 4.12979 8.6181 6.64851 6.21149C9.16723 3.80488 12.5168 2.4619 16.0004 2.4619C19.484 2.4619 22.8336 3.80488 25.3523 6.21149C27.871 8.6181 29.365 11.9031 29.5235 15.3831C29.6821 18.8631 28.4929 22.2703 26.2034 24.8959C23.9139 27.5216 20.7003 29.1635 17.2311 29.4802Z" fill="white"/>
</svg>
