<svg width="30" height="30" viewBox="0 0 30 30" fill="none" xmlns="http://www.w3.org/2000/svg">
<path d="M15 8.25C13.665 8.25 12.3599 8.64588 11.2499 9.38758C10.1399 10.1293 9.2747 11.1835 8.76381 12.4169C8.25292 13.6503 8.11925 15.0075 8.3797 16.3169C8.64015 17.6262 9.28302 18.829 10.227 19.773C11.171 20.717 12.3738 21.3599 13.6831 21.6203C14.9925 21.8808 16.3497 21.7471 17.5831 21.2362C18.8165 20.7253 19.8707 19.8601 20.6124 18.7501C21.3541 17.6401 21.75 16.335 21.75 15C21.7481 13.2104 21.0364 11.4946 19.7709 10.2291C18.5054 8.96362 16.7896 8.25186 15 8.25ZM15 19.5C14.11 19.5 13.24 19.2361 12.4999 18.7416C11.7599 18.2471 11.1831 17.5443 10.8425 16.7221C10.5019 15.8998 10.4128 14.995 10.5865 14.1221C10.7601 13.2492 11.1887 12.4474 11.818 11.818C12.4474 11.1887 13.2492 10.7601 14.1221 10.5865C14.995 10.4128 15.8998 10.5019 16.7221 10.8425C17.5443 11.1831 18.2471 11.7599 18.7416 12.4999C19.2361 13.24 19.5 14.11 19.5 15C19.5 16.1935 19.0259 17.3381 18.182 18.182C17.3381 19.0259 16.1935 19.5 15 19.5ZM21.75 0.375H8.25C6.16211 0.377233 4.16037 1.20764 2.684 2.684C1.20764 4.16037 0.377233 6.16211 0.375 8.25V21.75C0.377233 23.8379 1.20764 25.8396 2.684 27.316C4.16037 28.7924 6.16211 29.6228 8.25 29.625H21.75C23.8379 29.6228 25.8396 28.7924 27.316 27.316C28.7924 25.8396 29.6228 23.8379 29.625 21.75V8.25C29.6228 6.16211 28.7924 4.16037 27.316 2.684C25.8396 1.20764 23.8379 0.377233 21.75 0.375ZM27.375 21.75C27.375 23.2418 26.7824 24.6726 25.7275 25.7275C24.6726 26.7824 23.2418 27.375 21.75 27.375H8.25C6.75816 27.375 5.32742 26.7824 4.27252 25.7275C3.21763 24.6726 2.625 23.2418 2.625 21.75V8.25C2.625 6.75816 3.21763 5.32742 4.27252 4.27252C5.32742 3.21763 6.75816 2.625 8.25 2.625H21.75C23.2418 2.625 24.6726 3.21763 25.7275 4.27252C26.7824 5.32742 27.375 6.75816 27.375 8.25V21.75ZM24 7.6875C24 8.02126 23.901 8.34752 23.7156 8.62502C23.5302 8.90253 23.2666 9.11882 22.9583 9.24655C22.6499 9.37427 22.3106 9.40769 21.9833 9.34258C21.6559 9.27746 21.3553 9.11674 21.1193 8.88074C20.8833 8.64474 20.7225 8.34406 20.6574 8.01672C20.5923 7.68937 20.6257 7.35007 20.7535 7.04172C20.8812 6.73337 21.0975 6.46982 21.375 6.28439C21.6525 6.09897 21.9787 6 22.3125 6C22.7601 6 23.1893 6.17779 23.5057 6.49426C23.8222 6.81072 24 7.23995 24 7.6875Z" fill="white"/>
</svg>
