<svg width="32" height="30" viewBox="0 0 32 30" fill="none" xmlns="http://www.w3.org/2000/svg">
<path d="M31.3122 1.24521C31.1379 1.0947 30.9258 0.994596 30.6988 0.955691C30.4718 0.916786 30.2385 0.940552 30.024 1.02443L1.52497 12.1774C1.12107 12.3345 0.779125 12.6185 0.550611 12.9867C0.322096 13.3549 0.219381 13.7874 0.257929 14.219C0.296477 14.6507 0.474201 15.0581 0.764346 15.38C1.05449 15.7019 1.44135 15.9208 1.86669 16.0038L9.2509 17.4536V25.6872C9.24945 26.1357 9.38273 26.5743 9.63346 26.9461C9.8842 27.318 10.2408 27.6059 10.6572 27.7727C11.0728 27.9425 11.53 27.9832 11.9691 27.8896C12.4082 27.7961 12.8091 27.5726 13.1195 27.2482L16.6801 23.5554L22.329 28.4997C22.7366 28.8612 23.2622 29.0613 23.807 29.0622C24.0457 29.0621 24.283 29.0246 24.5101 28.9511C24.8813 28.8334 25.2151 28.6204 25.4784 28.3335C25.7417 28.0465 25.9251 27.6956 26.0106 27.3157L31.7186 2.48412C31.7696 2.26017 31.7588 2.02655 31.6872 1.8083C31.6156 1.59005 31.4859 1.3954 31.3122 1.24521ZM22.7143 6.30771L10.1157 15.3302L3.14075 13.9619L22.7143 6.30771ZM11.5009 25.6872V19.0104L14.987 22.0676L11.5009 25.6872ZM23.8098 26.8122L12.1829 16.6169L28.9173 4.62302L23.8098 26.8122Z" fill="white"/>
</svg>
