<svg width="32" height="32" viewBox="0 0 32 32" fill="none" xmlns="http://www.w3.org/2000/svg">
<path d="M25.1716 18.5908L20.2485 16.1292C20.0547 16.0327 19.8389 15.9889 19.6228 16.0024C19.4067 16.0159 19.198 16.0862 19.0177 16.2062L16.7577 17.7138C15.7203 17.1435 14.8665 16.2898 14.2962 15.2523L15.8039 12.9923C15.9238 12.8121 15.9941 12.6033 16.0076 12.3873C16.0211 12.1712 15.9774 11.9553 15.8808 11.7615L13.4193 6.83846C13.3173 6.63242 13.1596 6.45907 12.964 6.33807C12.7685 6.21707 12.543 6.15325 12.3131 6.15385C10.681 6.15385 9.11578 6.8022 7.96171 7.95627C6.80764 9.11034 6.15929 10.6756 6.15929 12.3077C6.16336 15.8971 7.59103 19.3383 10.1291 21.8763C12.6672 24.4144 16.1084 25.8421 19.6977 25.8462C20.5059 25.8462 21.3061 25.687 22.0527 25.3777C22.7993 25.0685 23.4777 24.6152 24.0492 24.0437C24.6206 23.4723 25.0739 22.7939 25.3832 22.0473C25.6924 21.3007 25.8516 20.5004 25.8516 19.6923C25.8517 19.4637 25.7882 19.2395 25.6681 19.0449C25.548 18.8504 25.3761 18.6931 25.1716 18.5908ZM19.6977 23.3846C16.761 23.3814 13.9454 22.2133 11.8688 20.1367C9.79216 18.06 8.62408 15.2445 8.62082 12.3077C8.62059 11.454 8.91615 10.6267 9.45723 9.96637C9.9983 9.30609 10.7515 8.85369 11.5885 8.68615L13.3547 12.2246L11.8516 14.4615C11.7393 14.63 11.6703 14.8236 11.6507 15.0252C11.6311 15.2267 11.6615 15.43 11.7393 15.6169C12.6199 17.7098 14.2848 19.3748 16.3777 20.2554C16.5653 20.3366 16.7701 20.3699 16.9737 20.3521C17.1773 20.3344 17.3732 20.2663 17.5439 20.1538L19.7916 18.6554L23.33 20.4215C23.1612 21.2596 22.7068 22.013 22.0444 22.5534C21.382 23.0938 20.5526 23.3876 19.6977 23.3846ZM16.0054 3.81039e-07C13.2431 -0.000602402 10.5276 0.713982 8.12337 2.0742C5.71912 3.43442 3.70798 5.39393 2.28571 7.762C0.86344 10.1301 0.078494 12.826 0.00727304 15.5875C-0.0639479 18.3489 0.580983 21.0818 1.87929 23.52L0.133138 28.7585C-0.0115012 29.1922 -0.0324917 29.6576 0.072519 30.1026C0.17753 30.5475 0.404392 30.9545 0.727678 31.2778C1.05096 31.6011 1.4579 31.8279 1.90287 31.9329C2.34784 32.0379 2.81327 32.0169 3.24698 31.8723L8.48544 30.1262C10.6312 31.2675 13.0088 31.9049 15.4378 31.9902C17.8667 32.0754 20.2832 31.6061 22.5037 30.618C24.7242 29.6299 26.6904 28.149 28.2531 26.2875C29.8158 24.4261 30.9339 22.2331 31.5225 19.875C32.1112 17.5169 32.1548 15.0557 31.6502 12.6782C31.1457 10.3007 30.1061 8.06944 28.6104 6.15372C27.1147 4.23799 25.2023 2.68819 23.0182 1.62193C20.8341 0.555675 18.4359 0.000997277 16.0054 3.81039e-07ZM16.0054 29.5385C13.6254 29.5401 11.2871 28.9133 9.22698 27.7215C9.07614 27.6341 8.90844 27.5796 8.73498 27.5619C8.56152 27.5441 8.38627 27.5634 8.22083 27.6185L2.46698 29.5385L4.38544 23.7846C4.44074 23.6193 4.46029 23.4441 4.44278 23.2706C4.42528 23.0972 4.37112 22.9294 4.2839 22.7785C2.79155 20.1983 2.19238 17.1978 2.57933 14.2424C2.96629 11.287 4.31774 8.54187 6.42404 6.43291C8.53034 4.32395 11.2737 2.96903 14.2287 2.57834C17.1836 2.18766 20.1848 2.78304 22.7669 4.27213C25.3489 5.76122 27.3673 8.06078 28.5091 10.8141C29.6508 13.5674 29.852 16.6205 29.0815 19.4998C28.311 22.3792 26.6118 24.9237 24.2475 26.7388C21.8832 28.5539 18.9861 29.538 16.0054 29.5385Z" fill="white"/>
</svg>
