<svg width="159" height="62" viewBox="0 0 159 62" fill="none" xmlns="http://www.w3.org/2000/svg">
<path d="M26.2819 0.159668H17.9936C9.70532 0.159668 2.57353 6.3277 2.57353 18.2783C2.57353 25.4101 6.04305 30.8071 12.0183 33.5056L0.83877 53.5517C0.453268 54.13 0.83877 54.7082 1.41702 54.7082H6.6213C7.0068 54.7082 7.39231 54.5155 7.58506 54.13L17.8009 34.4694H21.4631V54.13C21.4631 54.3227 21.6559 54.7082 22.0414 54.7082H26.6674C27.0529 54.7082 27.2457 54.5155 27.2457 54.13V0.930672C27.0529 0.352419 26.8602 0.159668 26.2819 0.159668ZM21.4631 29.8433H18.3791C5.07929 29.8433 6.04305 4.78569 17.8009 4.78569H21.6559V29.8433H21.4631Z" fill="#FF0000"/>
<path d="M54.0368 18.278H49.4108C49.0253 18.278 48.8325 18.4708 48.8325 18.8563V32.7344H40.3515V18.8563C40.3515 18.4708 40.1587 18.278 39.7732 18.278H35.34C34.9545 18.278 34.7617 18.4708 34.7617 18.8563V54.1298C34.7617 54.5153 34.9545 54.708 35.34 54.708H39.966C40.3515 54.708 40.5442 54.5153 40.5442 54.1298V37.1677H49.0253V54.1298C49.0253 54.5153 49.2181 54.708 49.6036 54.708H54.2296C54.6151 54.708 54.8078 54.5153 54.8078 54.1298V18.8563C54.6151 18.4708 54.4223 18.278 54.0368 18.278ZM158.122 49.8892C158.122 49.6965 157.93 49.6965 157.737 49.6965C155.809 49.6965 144.052 55.2863 144.052 36.7822C144.052 28.6866 147.136 17.3143 154.46 24.0606C154.653 24.2533 154.846 24.2533 155.038 24.2533C155.231 24.2533 155.424 24.0606 155.617 23.6751L157.544 20.3983C157.737 20.2056 157.737 20.0128 157.737 19.8201C157.737 19.4346 157.351 19.2418 156.966 19.0491C144.244 12.6883 137.691 24.4461 137.691 38.1314C137.691 55.8645 150.605 58.3703 157.93 52.9732C158.315 52.7805 158.315 52.395 158.315 52.2022L158.122 49.8892ZM126.511 34.6619L135.378 18.6636C135.571 18.4708 135.378 18.0853 135.185 18.0853H130.752C129.402 18.0853 129.017 18.4708 128.631 19.4346C128.246 20.3983 121.692 34.0836 120.921 34.6619V18.6636C120.921 18.4708 120.729 18.0853 120.536 18.0853H115.717C115.524 18.0853 115.332 18.278 115.332 18.6636V54.1298C115.332 54.3225 115.524 54.708 115.717 54.708H120.536C120.921 54.708 120.921 54.5153 120.921 54.1298V35.8184C121.5 36.2039 129.595 52.9732 129.788 53.5515C130.174 54.3225 130.945 54.708 131.908 54.708H136.727C137.113 54.708 137.113 54.5153 136.92 54.1298L126.511 34.6619ZM84.2988 50.082H83.335C82.1785 50.082 81.9857 49.6965 81.9857 48.7327V18.6636C81.9857 18.278 81.793 18.0853 81.6002 18.0853H66.7584C66.3729 18.0853 66.1801 18.278 66.1801 18.6636C66.1801 26.7591 66.3729 40.2517 60.9759 50.082H59.4339C59.0484 50.082 58.8556 50.2747 58.8556 50.6602V61.2615C58.8556 61.647 59.2411 61.8398 59.4339 61.8398H62.9034C63.6744 61.8398 64.0599 61.2615 64.0599 60.6833V54.708H79.6727V61.2615C79.6727 61.4543 79.8655 61.8398 80.251 61.8398H84.106C84.4915 61.8398 85.0698 61.4543 85.0698 60.6833V50.6602C84.877 50.2747 84.6843 50.082 84.2988 50.082ZM76.2032 50.082H65.4091C68.4932 45.0705 71.3844 36.9749 71.3844 22.7113H76.2032V50.082ZM99.3333 17.3143C91.4305 17.3143 87.7683 27.1446 87.7683 37.9387C87.7683 55.6718 100.104 58.3703 108.585 53.166C108.971 52.9732 108.971 52.7805 108.971 52.5877L108.393 50.082C108.393 49.8892 108.2 49.6965 107.814 49.6965C104.73 49.6965 93.9363 55.0935 93.9363 37.5532C97.7913 37.9387 97.7913 37.9387 109.356 37.9387C109.164 29.0721 108.2 17.3143 99.3333 17.3143ZM94.1291 33.5054C94.1291 19.4346 103.381 16.736 103.381 33.1199C99.3333 33.1199 97.5986 33.1199 94.1291 33.5054Z" fill="black"/>
</svg>
