<svg width="22" height="31" fill="none" xmlns="http://www.w3.org/2000/svg"><path d="M16.974 14.27A6.186 6.186 0 0 0 13.25 3.652V1.375a1.125 1.125 0 1 0-2.25 0v2.25H8.75v-2.25a1.125 1.125 0 0 0-2.25 0v2.25H2a1.125 1.125 0 0 0 0 2.25h1.125V25H2a1.125 1.125 0 1 0 0 2.25h4.5v2.25a1.125 1.125 0 0 0 2.25 0v-2.25H11v2.25a1.125 1.125 0 1 0 2.25 0v-2.25h1.125a6.75 6.75 0 0 0 2.599-12.98zm-.349-4.457a3.937 3.937 0 0 1-3.938 3.937H5.375V5.875h7.313a3.937 3.937 0 0 1 3.937 3.938zM14.375 25h-9v-9h9a4.5 4.5 0 1 1 0 9z" fill="#16161C"/></svg>