<svg width="21" height="19" fill="none" xmlns="http://www.w3.org/2000/svg"><path d="M20.708.206a.844.844 0 0 0-.859-.148L.85 7.494a1.333 1.333 0 0 0 .228 2.55L6 11.012v5.49a1.493 1.493 0 0 0 .937 1.39 1.491 1.491 0 0 0 1.642-.35l2.373-2.462 3.766 3.296a1.489 1.489 0 0 0 1.454.301 1.486 1.486 0 0 0 1-1.09L20.98 1.032a.843.843 0 0 0-.27-.826zM14.976 3.58L6.577 9.596l-4.65-.913 13.05-5.102zM7.501 16.5v-4.452l2.324 2.038L7.5 16.5zm8.206.75l-7.752-6.798 11.156-7.995-3.405 14.792z" fill="#FE7F32"/></svg>