<svg width="24" height="20" fill="none" xmlns="http://www.w3.org/2000/svg"><path d="M22.5 18.5H21V8a1.5 1.5 0 0 0-1.5-1.5h-6V2A1.5 1.5 0 0 0 11.168.752l-7.5 4.998A1.5 1.5 0 0 0 3 7.001v11.5H1.5a.75.75 0 1 0 0 1.5h21a.75.75 0 1 0 0-1.5zM19.5 8v10.5h-6V8h6zm-15-.999l7.5-5v16.5H4.5V7zm6 2.5V11A.75.75 0 1 1 9 11V9.5a.75.75 0 1 1 1.5 0zm-3 0V11A.75.75 0 1 1 6 11V9.5a.75.75 0 1 1 1.5 0zm0 5.25v1.5a.75.75 0 1 1-1.5 0v-1.5a.75.75 0 1 1 1.5 0zm3 0v1.5a.75.75 0 1 1-1.5 0v-1.5a.75.75 0 1 1 1.5 0z" fill="#FE7F32"/></svg>