<svg width="34" height="27" fill="none" xmlns="http://www.w3.org/2000/svg"><path d="M33.41 7.539a1.698 1.698 0 0 0-1.876-.24l-7.061 3.516-5.895-9.791a1.703 1.703 0 0 0-2.916 0L9.765 10.82 2.708 7.304A1.703 1.703 0 0 0 .333 9.357l5.203 15.941a1.125 1.125 0 0 0 1.643.62c.035-.022 3.63-2.093 9.942-2.093 6.311 0 9.907 2.071 9.94 2.09a1.126 1.126 0 0 0 1.646-.617L33.91 9.361a1.697 1.697 0 0 0-.5-1.822zm-6.446 15.84c-1.688-.716-5.052-1.804-9.844-1.804-4.793 0-8.157 1.088-9.844 1.804l-4.4-13.476 6.338 3.16a1.712 1.712 0 0 0 2.219-.646l5.687-9.453 5.687 9.45a1.711 1.711 0 0 0 2.217.646l6.34-3.157-4.4 13.476z" fill="#16161C"/></svg>