<svg width="175" height="40" fill="none" xmlns="http://www.w3.org/2000/svg"><path fill-rule="evenodd" clip-rule="evenodd" d="M21.213 6.748a14.668 14.668 0 0 0-6.47-1.49C6.6 5.257 0 11.857 0 20s6.6 14.743 14.743 14.743c2.321 0 4.516-.537 6.47-1.491-4.9-2.397-8.274-7.429-8.274-13.25s3.374-10.857 8.274-13.254z" fill="url(#paint0_linear_1653_6715)" filter="url(#filter0_ii_1653_6715)"/><path d="M31.174 34.743c8.142 0 14.743-6.6 14.743-14.743 0-8.142-6.6-14.743-14.743-14.743-8.142 0-14.742 6.6-14.742 14.743 0 8.142 6.6 14.743 14.742 14.743z" fill="url(#paint1_linear_1653_6715)" filter="url(#filter1_ii_1653_6715)"/><path d="M51.698 29.362c2.31 0 4.184-4.192 4.184-9.362s-1.873-9.362-4.184-9.362-4.184 4.191-4.184 9.362c0 5.17 1.873 9.362 4.184 9.362z" fill="url(#paint2_linear_1653_6715)" filter="url(#filter2_ii_1653_6715)"/><path d="M151.741 20.494a5.927 5.927 0 0 0-1.394-2.146c-1.209-1.22-2.75-1.829-4.623-1.829-1.873 0-3.416.61-4.637 1.829a5.995 5.995 0 0 0-1.395 2.146c-.282.744-.421 1.562-.421 2.454 0 .317.018.628.056.927a6.048 6.048 0 0 0 1.773 3.658c1.225 1.22 2.768 1.829 4.622 1.829s3.391-.61 4.61-1.83c1.219-1.22 1.829-2.747 1.829-4.584 0-.892-.14-1.71-.422-2.454h.002zm-3.731 4.928c-.595.637-1.355.954-2.286.954s-1.699-.317-2.299-.954c-.601-.635-.902-1.46-.902-2.476 0-1.017.293-1.821.879-2.454.009-.008.015-.016.023-.025.6-.643 1.368-.964 2.299-.964.931 0 1.691.317 2.286.952l.034.037c.576.63.866 1.447.866 2.454 0 1.006-.3 1.841-.9 2.476zm-8.322-6.387l-3.125 1.39a1.385 1.385 0 0 0-.401-.766c-.288-.29-.664-.434-1.129-.434-.525 0-.944.171-1.257.51-.307.338-.458.818-.458 1.434v4.61a3.329 3.329 0 0 1-3.328 3.328V16.774h3.328v1.588a3.03 3.03 0 0 1 1.155-1.359c.509-.321 1.115-.482 1.816-.482 1.084 0 1.944.338 2.579 1.017.397.417.67.918.818 1.497h.002zm-38.935 10.072h-3.328V16.774h3.328v1.614c.39-.61.91-1.072 1.562-1.385a4.917 4.917 0 0 1 2.184-.482c1.355 0 2.434.403 3.238 1.207.804.804 1.207 1.91 1.207 3.315v8.066h-3.328v-7.151c0-.848-.207-1.512-.623-1.994-.407-.49-.968-.737-1.689-.737-.762 0-1.38.271-1.854.812-.465.543-.699 1.29-.699 2.249v6.82l.002-.001zm-8.204-9.005a3.33 3.33 0 0 1 3.328-3.328v12.333h-3.328v-9.005zM89.8 18.35c-1.211-1.22-2.754-1.829-4.623-1.829-1.868 0-3.418.61-4.637 1.829-1.21 1.211-1.816 2.743-1.816 4.6 0 .885.14 1.701.428 2.442.302.798.77 1.51 1.403 2.143 1.225 1.219 2.768 1.829 4.622 1.829s3.391-.61 4.61-1.83c1.22-1.22 1.83-2.747 1.83-4.584 0-1.838-.606-3.389-1.815-4.6H89.8zm-2.336 7.074c-.596.637-1.355.954-2.287.954-.93 0-1.7-.317-2.299-.954-.6-.635-.901-1.46-.901-2.476 0-1.017.3-1.842.901-2.479.6-.643 1.366-.964 2.3-.964.933 0 1.69.317 2.286.952.599.636.9 1.465.9 2.49 0 1.026-.301 1.842-.9 2.477zm-9.632-1.14a8.808 8.808 0 0 1-2.415 3.107c-1.602 1.313-3.65 1.969-6.147 1.969-1.399 0-2.685-.236-3.863-.71-1.177-.476-2.167-1.128-2.97-1.957-.805-.83-1.431-1.82-1.88-2.97-.45-1.153-.674-2.393-.674-3.723a9.155 9.155 0 0 1 .697-3.67c.482-1.17 1.14-2.174 1.969-3.012a9.122 9.122 0 0 1 3.01-1.981 9.082 9.082 0 0 1 3.71-.697c1.162 0 2.227.16 3.202.482.972.313 1.803.75 2.488 1.307a7.771 7.771 0 0 1 1.73 1.931c.365.566.653 1.171.86 1.82l-3.204 1.427c-.304-1.082-.853-1.952-1.645-2.623-.923-.778-2.073-1.167-3.455-1.167-1.65 0-3.026.572-4.128 1.714-1.092 1.134-1.639 2.625-1.639 4.47 0 1.846.551 3.37 1.652 4.498 1.1 1.12 2.488 1.677 4.165 1.677s3.01-.483 4.052-1.447a6.266 6.266 0 0 0 1.278-1.673l3.207 1.232v-.004zm51.542-.002a8.81 8.81 0 0 1-2.415 3.107c-1.602 1.313-3.65 1.969-6.147 1.969-1.399 0-2.685-.236-3.863-.71-1.177-.476-2.167-1.128-2.971-1.957-.804-.83-1.43-1.82-1.879-2.97-.451-1.153-.674-2.393-.674-3.723a9.155 9.155 0 0 1 .697-3.67c.482-1.17 1.14-2.174 1.969-3.012.839-.839 1.841-1.499 3.011-1.981a9.079 9.079 0 0 1 3.71-.697c1.161 0 2.226.16 3.201.482.973.313 1.804.75 2.488 1.307a7.754 7.754 0 0 1 1.729 1.931 7.57 7.57 0 0 1 .86 1.82l-3.203 1.427c-.304-1.082-.853-1.952-1.645-2.623-.923-.778-2.073-1.167-3.455-1.167-1.65 0-3.026.572-4.128 1.715-1.092 1.133-1.639 2.624-1.639 4.47 0 1.845.551 3.37 1.652 4.497 1.1 1.12 2.488 1.677 4.165 1.677 1.676 0 3.011-.483 4.052-1.447a6.255 6.255 0 0 0 1.278-1.673l3.207 1.232v-.004zm34.179 1.104v.052c-.013 1.128-.509 2.061-1.487 2.805-.981.743-2.217 1.117-3.71 1.117-1.405 0-2.58-.284-3.53-.85-.925-.558-1.608-1.362-2.049-2.405l1.541-.685 1.146-.512c.593 1.146 1.589 1.72 2.992 1.72.627 0 1.113-.11 1.462-.33.355-.22.532-.509.532-.864 0-.438-.206-.779-.62-1.015-.376-.227-1.044-.415-2.004-.561a6.605 6.605 0 0 0-.232-.036c-2.81-.44-4.215-1.672-4.215-3.695 0-1.025.449-1.873 1.342-2.545a.267.267 0 0 1 .04-.032c.931-.687 2.04-1.029 3.328-1.029 1.288 0 2.24.22 2.984.66.741.438 1.304 1.081 1.695 1.929l-.835.372-1.775.791c-.184-.418-.459-.724-.827-.919h-.004a1.835 1.835 0 0 0-.44-.17 2.977 2.977 0 0 0-.721-.084c-.507 0-.925.098-1.257.292-.321.194-.482.449-.482.762 0 .363.194.643.585.837.206.098.501.194.889.286.347.082.764.161 1.255.236.975.153 1.781.38 2.416.679.377.18.697.384.952.616.684.618 1.029 1.478 1.029 2.578zm11.392 0v.052c-.013 1.128-.51 2.061-1.487 2.805-.981.743-2.217 1.117-3.71 1.117-1.405 0-2.581-.284-3.531-.85-.925-.558-1.608-1.362-2.048-2.405l1.541-.685 1.146-.512c.593 1.146 1.589 1.72 2.992 1.72.626 0 1.113-.11 1.462-.33.354-.22.532-.509.532-.864 0-.438-.207-.779-.62-1.015-.376-.227-1.044-.415-2.005-.561a6.544 6.544 0 0 0-.231-.036c-2.811-.44-4.216-1.672-4.216-3.695 0-1.025.449-1.873 1.343-2.545.012-.013.027-.023.039-.032.932-.687 2.04-1.029 3.329-1.029 1.288 0 2.24.22 2.983.66.741.438 1.305 1.081 1.696 1.929l-.836.372-1.774.791c-.184-.418-.46-.724-.827-.919h-.004a1.826 1.826 0 0 0-.441-.17 2.963 2.963 0 0 0-.72-.084c-.508 0-.925.098-1.257.292-.322.194-.482.449-.482.762 0 .363.194.643.584.837.207.098.501.194.89.286.346.082.764.161 1.254.236.976.153 1.781.38 2.416.679.378.18.698.384.952.616.685.618 1.03 1.478 1.03 2.578z" fill="#000"/><defs><filter id="filter0_ii_1653_6715" x="0" y="5.257" width="21.213" height="33.821" filterUnits="userSpaceOnUse" color-interpolation-filters="sRGB"><feFlood flood-opacity="0" result="BackgroundImageFix"/><feBlend in="SourceGraphic" in2="BackgroundImageFix" result="shape"/><feColorMatrix in="SourceAlpha" values="0 0 0 0 0 0 0 0 0 0 0 0 0 0 0 0 0 0 127 0" result="hardAlpha"/><feOffset dy="4.336"/><feGaussianBlur stdDeviation="2.168"/><feComposite in2="hardAlpha" operator="arithmetic" k2="-1" k3="1"/><feColorMatrix values="0 0 0 0 1 0 0 0 0 1 0 0 0 0 1 0 0 0 0.24 0"/><feBlend in2="shape" result="effect1_innerShadow_1653_6715"/><feColorMatrix in="SourceAlpha" values="0 0 0 0 0 0 0 0 0 0 0 0 0 0 0 0 0 0 127 0" result="hardAlpha"/><feOffset/><feGaussianBlur stdDeviation="8.889"/><feComposite in2="hardAlpha" operator="arithmetic" k2="-1" k3="1"/><feColorMatrix values="0 0 0 0 0.875 0 0 0 0 0.105 0 0 0 0 0.105 0 0 0 0.25 0"/><feBlend in2="effect1_innerShadow_1653_6715" result="effect2_innerShadow_1653_6715"/></filter><filter id="filter1_ii_1653_6715" x="16.432" y="5.257" width="29.485" height="33.821" filterUnits="userSpaceOnUse" color-interpolation-filters="sRGB"><feFlood flood-opacity="0" result="BackgroundImageFix"/><feBlend in="SourceGraphic" in2="BackgroundImageFix" result="shape"/><feColorMatrix in="SourceAlpha" values="0 0 0 0 0 0 0 0 0 0 0 0 0 0 0 0 0 0 127 0" result="hardAlpha"/><feOffset dy="4.336"/><feGaussianBlur stdDeviation="2.168"/><feComposite in2="hardAlpha" operator="arithmetic" k2="-1" k3="1"/><feColorMatrix values="0 0 0 0 1 0 0 0 0 1 0 0 0 0 1 0 0 0 0.24 0"/><feBlend in2="shape" result="effect1_innerShadow_1653_6715"/><feColorMatrix in="SourceAlpha" values="0 0 0 0 0 0 0 0 0 0 0 0 0 0 0 0 0 0 127 0" result="hardAlpha"/><feOffset/><feGaussianBlur stdDeviation="8.889"/><feComposite in2="hardAlpha" operator="arithmetic" k2="-1" k3="1"/><feColorMatrix values="0 0 0 0 0.875 0 0 0 0 0.105 0 0 0 0 0.105 0 0 0 0.25 0"/><feBlend in2="effect1_innerShadow_1653_6715" result="effect2_innerShadow_1653_6715"/></filter><filter id="filter2_ii_1653_6715" x="47.514" y="10.638" width="8.368" height="23.06" filterUnits="userSpaceOnUse" color-interpolation-filters="sRGB"><feFlood flood-opacity="0" result="BackgroundImageFix"/><feBlend in="SourceGraphic" in2="BackgroundImageFix" result="shape"/><feColorMatrix in="SourceAlpha" values="0 0 0 0 0 0 0 0 0 0 0 0 0 0 0 0 0 0 127 0" result="hardAlpha"/><feOffset dy="4.336"/><feGaussianBlur stdDeviation="2.168"/><feComposite in2="hardAlpha" operator="arithmetic" k2="-1" k3="1"/><feColorMatrix values="0 0 0 0 1 0 0 0 0 1 0 0 0 0 1 0 0 0 0.24 0"/><feBlend in2="shape" result="effect1_innerShadow_1653_6715"/><feColorMatrix in="SourceAlpha" values="0 0 0 0 0 0 0 0 0 0 0 0 0 0 0 0 0 0 127 0" result="hardAlpha"/><feOffset/><feGaussianBlur stdDeviation="8.889"/><feComposite in2="hardAlpha" operator="arithmetic" k2="-1" k3="1"/><feColorMatrix values="0 0 0 0 0.875 0 0 0 0 0.105 0 0 0 0 0.105 0 0 0 0.25 0"/><feBlend in2="effect1_innerShadow_1653_6715" result="effect2_innerShadow_1653_6715"/></filter><linearGradient id="paint0_linear_1653_6715" x1="-3.067" y1="28.813" x2="70.761" y2="-7.721" gradientUnits="userSpaceOnUse"><stop stop-color="#FF4E4E"/><stop offset="1" stop-color="#FCA31B"/></linearGradient><linearGradient id="paint1_linear_1653_6715" x1="10.22" y1="32.717" x2="55.707" y2="5.109" gradientUnits="userSpaceOnUse"><stop stop-color="#FF4E4E"/><stop offset="1" stop-color="#FCA31B"/></linearGradient><linearGradient id="paint2_linear_1653_6715" x1="-.094" y1="17.739" x2="79.763" y2="21.223" gradientUnits="userSpaceOnUse"><stop stop-color="#FF4E4E"/><stop offset="1" stop-color="#FCA31B"/></linearGradient></defs></svg>