<svg width="36" height="28" fill="none" xmlns="http://www.w3.org/2000/svg"><path d="M27.5 12.137a1.687 1.687 0 1 1-3.375 0 1.687 1.687 0 0 1 3.375 0zm-5.625-7.313H16.25a1.125 1.125 0 0 0 0 2.25h5.625a1.125 1.125 0 1 0 0-2.25zm13.5 6.75v4.5A3.375 3.375 0 0 1 32 19.45h-.332l-2.28 6.382a2.25 2.25 0 0 1-2.119 1.493h-1.788a2.25 2.25 0 0 1-2.12-1.493l-.27-.757h-8.057l-.27.757a2.25 2.25 0 0 1-2.12 1.493h-1.788a2.25 2.25 0 0 1-2.12-1.493L6.97 20.886a12.331 12.331 0 0 1-3.015-6.803 2.25 2.25 0 0 0-1.204 1.991 1.125 1.125 0 0 1-2.25 0 4.5 4.5 0 0 1 3.414-4.36A12.392 12.392 0 0 1 16.25.325h14.625a1.125 1.125 0 1 1 0 2.25h-3.008A12.365 12.365 0 0 1 32.285 8.2a3.375 3.375 0 0 1 3.09 3.375zm-2.25 0A1.125 1.125 0 0 0 32 10.45h-.515a1.125 1.125 0 0 1-1.074-.787 10.11 10.11 0 0 0-9.661-7.088h-4.5A10.125 10.125 0 0 0 8.784 19.54c.102.11.18.24.23.381l1.842 5.154h1.788l.538-1.503a1.126 1.126 0 0 1 1.059-.747h9.643a1.126 1.126 0 0 1 1.06.747l.537 1.503h1.788l2.547-7.128a1.125 1.125 0 0 1 1.059-.747H32a1.125 1.125 0 0 0 1.125-1.125v-4.5z" fill="#16161C"/></svg>