<svg width="96" height="16" fill="none" xmlns="http://www.w3.org/2000/svg"><path d="M14.656 7.149l-2.818 2.46.844 3.662a1 1 0 0 1-1.49 1.084l-3.194-1.937-3.188 1.937a1 1 0 0 1-1.49-1.084l.843-3.658-2.819-2.464a1 1 0 0 1 .57-1.754l3.716-.322 1.45-3.46a.997.997 0 0 1 1.84 0l1.455 3.46 3.715.322a1 1 0 0 1 .57 1.754h-.004zm20.001 0l-2.82 2.46.845 3.662a1 1 0 0 1-1.49 1.084l-3.194-1.937-3.188 1.937a1 1 0 0 1-1.49-1.084l.843-3.658-2.819-2.464a1 1 0 0 1 .57-1.754l3.716-.322 1.45-3.46a.997.997 0 0 1 1.84 0l1.455 3.46 3.715.322a1 1 0 0 1 .57 1.754h-.003zm20 0l-2.82 2.46.845 3.662a1 1 0 0 1-1.49 1.084l-3.194-1.937-3.188 1.937a1 1 0 0 1-1.49-1.084l.843-3.658-2.819-2.464a1 1 0 0 1 .57-1.754l3.716-.322 1.45-3.46a.997.997 0 0 1 1.84 0l1.455 3.46 3.715.322a1 1 0 0 1 .57 1.754h-.003zm19.999 0l-2.818 2.46.844 3.662a1 1 0 0 1-1.49 1.084l-3.194-1.937-3.188 1.937a1 1 0 0 1-1.49-1.084l.843-3.658-2.819-2.464a1 1 0 0 1 .57-1.754l3.716-.322 1.45-3.46a.997.997 0 0 1 1.84 0l1.455 3.46 3.715.322a1 1 0 0 1 .57 1.754h-.004zm20 0l-2.818 2.46.844 3.662a1 1 0 0 1-1.49 1.084l-3.194-1.937-3.188 1.937a1 1 0 0 1-1.49-1.084l.843-3.658-2.819-2.464a1 1 0 0 1 .57-1.754l3.716-.322 1.45-3.46a.997.997 0 0 1 1.84 0l1.455 3.46 3.715.322a1 1 0 0 1 .57 1.754h-.004z" fill="#FFD644"/></svg>