<svg width="41" height="40" viewBox="0 0 41 40" fill="none" xmlns="http://www.w3.org/2000/svg">
<g clip-path="url(#clip0_2057_47960)">
<rect x="0.5" width="40" height="40" rx="20" fill="white"/>
<path d="M24.3105 24.1535C23.6358 26.877 19.0633 25.4028 17.5641 25.028L18.7634 20.2056C20.2626 20.5804 25.0101 21.305 24.3105 24.1535ZM20.4125 13.6092L19.3131 17.9818C20.5625 18.2816 24.3854 19.556 25.0101 17.0823C25.6347 14.5087 21.6619 13.9091 20.4125 13.6092ZM39.9021 24.8031C37.2285 35.4974 26.3843 42.0189 15.6651 39.3703C4.97083 36.6968 -1.57565 25.8526 1.09791 15.1583C3.77148 4.43914 14.6157 -2.05738 25.3349 0.591202C36.0292 3.26477 42.5757 14.1089 39.9021 24.8031ZM13.941 23.3289C13.8411 23.6038 13.5662 24.0036 12.9416 23.8536C12.8416 23.8536 11.3424 23.4539 11.3424 23.4539L10.243 25.9525L13.0915 26.6521C13.6412 26.8021 14.1409 26.927 14.6656 27.0769L13.7661 30.7L15.9399 31.2497L16.8395 27.6516C17.4391 27.8265 18.0138 27.9514 18.5885 28.1014L17.689 31.6744L19.8878 32.2242L20.7873 28.6011C24.5353 29.3007 27.3588 29.0259 28.5332 25.6277C29.4827 22.9042 28.4832 21.33 26.5093 20.3055C27.9335 19.9807 29.0079 19.0312 29.3078 17.0823C29.7076 14.4338 27.6836 12.9846 24.9101 12.06L25.8096 8.43699L23.6108 7.88729L22.7363 11.3854C22.1616 11.2355 21.5619 11.1106 20.9623 10.9606L21.8368 7.43753L19.6629 6.88782L18.7634 10.4859C18.2887 10.3859 17.8139 10.261 17.3642 10.1611L14.3408 9.38648L13.7661 11.7352C13.7661 11.7352 15.3653 12.11 15.3653 12.135C16.2398 12.3599 16.3897 12.9346 16.3897 13.4093L13.916 23.279L13.941 23.3289Z" fill="#F7931A"/>
</g>
<defs>
<clipPath id="clip0_2057_47960">
<rect x="0.5" width="40" height="40" rx="20" fill="white"/>
</clipPath>
</defs>
</svg>
