<svg width="40" height="40" viewBox="0 0 40 40" fill="none" xmlns="http://www.w3.org/2000/svg">
<g clip-path="url(#clip0_1653_8920)">
<path d="M20 0C31.0467 0 40 8.95509 40 20C40 31.0467 31.0467 40 20 40C8.95509 40 0 31.0458 0 20C0 8.95509 8.95509 0 20 0Z" fill="#F5AC37"/>
<path d="M20.7373 21.4123H28.337C28.499 21.4123 28.5755 21.4123 28.5872 21.1999C28.6493 20.4268 28.6493 19.6492 28.5872 18.8752C28.5872 18.7249 28.5125 18.6628 28.3496 18.6628H13.2249C13.0377 18.6628 12.9873 18.7249 12.9873 18.9004V21.1252C12.9873 21.4123 12.9873 21.4123 13.287 21.4123H20.7373ZM27.7385 16.0626C27.7601 16.0059 27.7601 15.9438 27.7385 15.888C27.6116 15.6117 27.4613 15.348 27.2867 15.1005C27.0239 14.6775 26.7143 14.2878 26.3615 13.9377C26.195 13.7262 26.0024 13.5363 25.7864 13.3752C24.7046 12.4545 23.4184 11.8029 22.036 11.4753C21.3385 11.3187 20.6257 11.244 19.9111 11.2503H13.1988C13.0116 11.2503 12.9864 11.325 12.9864 11.4879V15.9249C12.9864 16.1121 12.9864 16.1625 13.224 16.1625H27.6485C27.6485 16.1625 27.7736 16.1373 27.7988 16.0626H27.7376H27.7385ZM27.7385 24.0124C27.5261 23.989 27.3119 23.989 27.0995 24.0124H13.2375C13.0503 24.0124 12.9873 24.0124 12.9873 24.2626V28.6006C12.9873 28.8005 12.9873 28.8509 13.2375 28.8509H19.6375C19.9435 28.8743 20.2495 28.8527 20.5492 28.7888C21.478 28.7222 22.3915 28.5205 23.2627 28.1884C23.5795 28.0786 23.8856 27.9355 24.1745 27.7636H24.2618C25.7621 26.9833 26.9807 25.7575 27.7493 24.2527C27.7493 24.2527 27.8366 24.0637 27.7385 24.0142V24.0124ZM10.4754 31.1V31.0253V28.1128V27.1255V24.1879C10.4754 24.025 10.4754 24.0007 10.2756 24.0007H7.56299C7.41269 24.0007 7.35059 24.0007 7.35059 23.8009V21.4258H10.2504C10.4124 21.4258 10.4754 21.4258 10.4754 21.2134V18.8635C10.4754 18.7132 10.4754 18.6763 10.2756 18.6763H7.56299C7.41269 18.6763 7.35059 18.6763 7.35059 18.4764V16.2768C7.35059 16.1391 7.35059 16.1022 7.55039 16.1022H10.2378C10.425 16.1022 10.4754 16.1022 10.4754 15.8646V9.12716C10.4754 8.92735 10.4754 8.87695 10.7256 8.87695H20.1001C20.7805 8.90395 21.4564 8.97865 22.1251 9.10196C23.503 9.35666 24.827 9.84896 26.0375 10.5519C26.8403 11.0244 27.5792 11.595 28.2371 12.252C28.7321 12.7659 29.1785 13.3221 29.5745 13.9143C29.9678 14.5146 30.2945 15.1563 30.551 15.8268C30.5825 16.0014 30.7499 16.1193 30.9245 16.0896H33.1619C33.449 16.0896 33.449 16.0896 33.4616 16.365V18.4152C33.4616 18.6151 33.3869 18.6655 33.1862 18.6655H31.4609C31.2863 18.6655 31.2359 18.6655 31.2485 18.8905C31.3169 19.6519 31.3169 20.416 31.2485 21.1774C31.2485 21.3898 31.2485 21.415 31.487 21.415H33.4607C33.548 21.5275 33.4607 21.64 33.4607 21.7534C33.4733 21.8983 33.4733 22.045 33.4607 22.1899V23.7028C33.4607 23.9152 33.3986 23.9782 33.2105 23.9782H30.848C30.6833 23.9467 30.5231 24.052 30.4853 24.2158C29.9228 25.6783 29.0228 26.9896 27.86 28.0408C27.4352 28.4233 26.9888 28.7834 26.5226 29.1155C26.0222 29.4035 25.5353 29.7032 25.0223 29.9408C24.0782 30.3656 23.0881 30.6788 22.072 30.8777C21.1072 31.0505 20.1289 31.1288 19.147 31.1153H10.4718V31.1027L10.4754 31.1Z" fill="#FEFEFD"/>
</g>
<defs>
<clipPath id="clip0_1653_8920">
<rect width="40" height="40" fill="white"/>
</clipPath>
</defs>
</svg>
