<svg width="40" height="40" viewBox="0 0 40 40" fill="none" xmlns="http://www.w3.org/2000/svg">
<rect width="40" height="40" rx="20" fill="url(#paint0_linear_1687_4410)"/>
<path fill-rule="evenodd" clip-rule="evenodd" d="M26.0691 10.9928L28.7914 8.95939C26.3033 6.91812 23.1976 5.80596 19.9965 5.81204V5.81373C18.1588 5.81171 16.3395 6.17779 14.6413 6.89032C13.0555 7.55527 11.605 8.51134 10.3626 9.70911C9.02471 10.9929 7.94915 12.5336 7.20065 14.2425C6.40687 16.0556 5.99827 18.0171 6.00001 19.9994C6.00001 20.0005 6.00001 20.0016 6.00001 20.0028C5.99827 21.8662 6.36003 23.7105 7.06358 25.4308C7.71376 27.0214 8.64473 28.4771 9.80924 29.7268C11.0836 31.1015 12.617 32.2047 14.3204 32.9713C16.0932 33.7687 18.0111 34.1832 19.9513 34.1876L20.0009 34.1876C21.8383 34.1894 23.6592 33.8233 25.3569 33.1102C26.8403 32.4871 28.205 31.6098 29.3917 30.5186L29.3935 30.5206C30.8457 29.1924 32.0064 27.5693 32.8002 25.7562C33.594 23.944 34.0026 21.9825 34 20.0002C34.0017 19.1475 33.928 18.2964 33.7796 17.4575L30.7667 19.7079V20.0002C30.7676 21.5245 30.4518 23.0322 29.8411 24.4254C29.3031 25.652 28.5456 26.7662 27.6095 27.7122L27.6081 27.7108C26.6105 28.7258 25.4246 29.5308 24.119 30.08C22.8134 30.6291 21.4141 30.9119 20.0009 30.911L20.0009 30.911C19.8331 30.911 19.6656 30.907 19.4985 30.8991L19.4621 30.8963L19.4621 30.8973C18.1424 30.8303 16.8444 30.5177 15.6338 29.9723C14.4226 29.4275 13.3232 28.6599 12.3901 27.7116L12.3919 27.7098C11.3899 26.6991 10.5952 25.4976 10.0539 24.1738C9.51171 22.8508 9.23324 21.4324 9.23411 20.0002C9.23411 19.9999 9.23411 19.9996 9.23411 19.9994C9.23411 19.985 9.23413 19.9706 9.23419 19.9562M9.23419 19.9562C9.24008 18.4467 9.55478 16.9542 10.1597 15.575C10.6984 14.3481 11.455 13.2341 12.3905 12.2883L12.3919 12.2897C13.3895 11.2748 14.5745 10.4688 15.881 9.91969C17.1853 9.37112 18.5839 9.08832 19.9965 9.08861V9.08865L20.0249 9.08865C20.1964 9.08923 20.3679 9.09594 20.5378 9.10422L20.538 9.10187C22.5148 9.20087 24.4304 9.85346 26.0691 10.9928M32.7559 14.1462C32.3066 13.1433 31.7436 12.196 31.0782 11.325L20.0035 19.5994L14.6734 16.2135V20.2873L20.0035 23.6733L32.7559 14.1462Z" fill="white"/>
<defs>
<linearGradient id="paint0_linear_1687_4410" x1="1.72131" y1="20.5589" x2="7.21383" y2="6.27151" gradientUnits="userSpaceOnUse">
<stop stop-color="#A2CC39"/>
<stop offset="0.07" stop-color="#A2CC39"/>
<stop offset="0.26" stop-color="#81C45E"/>
<stop offset="0.92" stop-color="#0FA7DF"/>
<stop offset="1" stop-color="#0FA7DF"/>
</linearGradient>
</defs>
</svg>
