<svg width="41" height="40" viewBox="0 0 41 40" fill="none" xmlns="http://www.w3.org/2000/svg">
<rect width="40" height="40" rx="20" fill="#26A17B"/>
<path d="M20.1201 40C31.1658 40 40.1201 31.0457 40.1201 20C40.1201 8.9543 31.1658 0 20.1201 0C9.07442 0 0.120117 8.9543 0.120117 20C0.120117 31.0457 9.07442 40 20.1201 40Z" fill="#26A17B"/>
<path d="M22.5831 21.9354V21.9322C22.4449 21.9419 21.731 21.9837 20.1426 21.9837C18.8725 21.9837 17.9818 21.9483 17.6667 21.9322V21.9354C12.7825 21.72 9.13941 20.8711 9.13941 19.8518C9.13941 18.8357 12.7857 17.9837 17.6667 17.7682V21.0898C17.9851 21.1123 18.9015 21.1669 20.1651 21.1669C21.6828 21.1669 22.4417 21.1026 22.5831 21.0898V17.7714C27.4577 17.9901 31.0912 18.839 31.0912 19.855C31.0912 20.8711 27.4545 21.72 22.5831 21.9386M22.5831 17.4274V14.4563H29.3838V9.92578H10.8693V14.4563H17.67V17.4274C12.1426 17.6814 7.98828 18.7747 7.98828 20.0866C7.98828 21.3984 12.1458 22.4917 17.67 22.7489V32.273H22.5864V22.7489C28.104 22.4949 32.2519 21.4017 32.2519 20.0898C32.2519 18.7811 28.104 17.6846 22.5864 17.4306" fill="white"/>
</svg>
