<svg width="41" height="40" viewBox="0 0 41 40" fill="none" xmlns="http://www.w3.org/2000/svg">
<rect x="0.5" width="40" height="40" rx="20" fill="white"/>
<g clip-path="url(#clip0_2057_47834)">
<path d="M36.1803 19.0239L36.5753 17.6965L35.2045 17.7399C34.5719 17.715 33.9606 17.5048 33.4464 17.1355C33.5096 17.1355 33.5689 17.1355 33.6321 17.1355C34.0435 17.1344 34.4464 17.0185 34.7954 16.8007C35.1444 16.5829 35.4257 16.272 35.6074 15.9029L36.1961 14.5953C35.722 14.5993 35.2482 14.5716 34.7778 14.5123C34.3294 14.406 33.9259 14.1613 33.6242 13.813C33.4215 13.5966 33.1769 13.4237 32.9052 13.3048C32.6335 13.1859 32.3405 13.1236 32.044 13.1217C31.8092 13.1227 31.576 13.16 31.3526 13.2323C31.386 13.1262 31.4124 13.0179 31.4316 12.9083C31.5243 12.1382 31.3084 11.3627 30.8311 10.7513L29.804 9.47525L29.164 10.9765C29.063 11.1895 28.9077 11.3721 28.7136 11.5059C28.6043 10.9716 28.3405 10.4812 27.9551 10.0955C27.6351 9.7675 27.2521 9.50746 26.8292 9.33096C26.4063 9.15446 25.9521 9.06514 25.4938 9.06834C25.3325 9.06752 25.1713 9.07941 25.0119 9.1039L23.7793 9.34488C23.8872 8.9266 24.0576 8.52702 24.285 8.1597L24.9645 7.07328L23.2301 7.25896L22.681 6.07377L21.6143 6.62291L20.6188 5.67871L19.643 6.65056L18.5724 6.10143L18.0232 7.25896L16.2968 7.06143L16.9842 8.1439C17.2109 8.51109 17.3801 8.91077 17.4859 9.32908L16.3008 9.09599H16.2613C16.0965 9.07104 15.9301 9.05915 15.7635 9.06044C15.3052 9.05701 14.8509 9.14623 14.428 9.32274C14.005 9.49925 13.6221 9.75941 13.3022 10.0876C12.9155 10.473 12.6504 10.9634 12.5398 11.498C12.3482 11.3675 12.1943 11.1891 12.0934 10.9804L11.4534 9.47525L10.4064 10.7592C9.9373 11.3713 9.72605 12.1426 9.8178 12.9083C9.83732 13.0179 9.86371 13.1261 9.89681 13.2323C9.67353 13.1596 9.44026 13.1223 9.20545 13.1217C8.90896 13.1239 8.61599 13.1863 8.34435 13.3051C8.0727 13.424 7.82804 13.5968 7.62521 13.813C7.32531 14.1577 6.92674 14.4018 6.48348 14.5123C6.01018 14.5824 5.53158 14.6101 5.05335 14.5953L5.64199 15.9029C5.82413 16.2717 6.10546 16.5823 6.45438 16.8001C6.80331 17.0178 7.20602 17.134 7.6173 17.1355C7.68051 17.1355 7.73977 17.1355 7.80298 17.1355C7.29018 17.509 6.67876 17.7234 6.04496 17.7518L4.65039 17.7083L5.07311 19.0357C5.22477 19.5463 5.52185 20.0016 5.92807 20.3461C6.33428 20.6906 6.83203 20.9093 7.36051 20.9755C7.30559 21.3196 7.16942 21.6457 6.96331 21.9267C6.75719 22.2077 6.48707 22.4355 6.17533 22.5913L5.13632 23.018L5.7052 24.0056C5.93508 24.3639 6.25208 24.6581 6.62656 24.8605C7.00105 25.0629 7.42076 25.1671 7.84644 25.1632C8.07216 25.1627 8.29723 25.1389 8.51804 25.092C8.56875 25.34 8.63204 25.5853 8.70767 25.8269C8.90329 26.3455 8.91721 26.9151 8.74718 27.4427L8.2336 28.5172L9.37928 28.8175C9.63757 28.8829 9.90296 28.9161 10.1694 28.9162C10.3627 28.9142 10.555 28.889 10.7422 28.8412C10.877 28.8111 11.0091 28.7701 11.1373 28.7187C11.2842 28.9833 11.4648 29.2276 11.6746 29.4456C12.4094 30.2002 13.4524 30.5834 14.7679 30.5834H15.7082L13.7645 31.3735L15.242 32.0886C15.8353 32.3827 16.4431 32.6464 17.0632 32.8787L16.8776 33.3844L17.3872 33.6175C18.2329 33.9514 19.1294 34.1385 20.038 34.1706C20.038 34.1706 20.4331 34.1706 20.6464 34.1706C20.8598 34.1706 21.2509 34.1706 21.2509 34.1706C22.154 34.1382 23.0451 33.9525 23.8859 33.6214L24.3956 33.3883L24.2099 32.8827C24.8371 32.6416 25.4515 32.3686 26.0509 32.0649L27.5008 31.3617L25.561 30.5716H26.5052C27.8247 30.5716 28.8756 30.1765 29.6025 29.4338C29.8126 29.216 29.9932 28.9716 30.1398 28.7069C30.2681 28.7578 30.4002 28.7988 30.5348 28.8293C30.7188 28.872 30.907 28.8932 31.0958 28.8925C31.3622 28.8919 31.6276 28.8587 31.8859 28.7938L33.0395 28.4896L32.5378 27.4348C32.3583 26.9011 32.3695 26.3216 32.5694 25.7953C32.6484 25.5543 32.7195 25.3093 32.7748 25.0683C32.997 25.1152 33.2234 25.139 33.4504 25.1395C33.8796 25.1426 34.3024 25.0352 34.6781 24.8277C35.0538 24.6201 35.3698 24.3193 35.5956 23.9543L36.1566 22.9785L35.1175 22.5518C34.8054 22.3966 34.535 22.1689 34.3288 21.8878C34.1226 21.6067 33.9867 21.2803 33.9324 20.936C34.4598 20.8669 34.9561 20.6472 35.3619 20.3031C35.7676 19.9591 36.0655 19.5053 36.2198 18.9962" fill="white"/>
<path d="M20.6184 9.7393C19.5162 9.7393 18.6905 10.1028 18.5127 10.5294L20.6184 11.3591L22.728 10.5255C22.5502 10.0988 21.7245 9.73535 20.6184 9.73535" fill="white"/>
<path d="M20.6464 31.7529H20.6188C19.9339 31.747 19.2523 31.6594 18.5882 31.4922L18.043 32.9381C19.7311 33.4248 21.5223 33.4248 23.2104 32.9381L22.677 31.4961C22.0129 31.6631 21.3312 31.7507 20.6464 31.7569" fill="white"/>
<path d="M24.6803 30.3223C24.102 30.6111 23.5008 30.8516 22.8828 31.0413L23.3134 32.2265C24.0027 32.0456 24.6723 31.7968 25.3124 31.4837L24.4157 31.1875L24.6803 30.3223Z" fill="white"/>
<path d="M16.5735 30.3223L16.8382 31.1875L15.9414 31.4837C16.5804 31.7962 17.2487 32.045 17.9365 32.2265L18.371 31.0413C17.7531 30.8515 17.1519 30.611 16.5735 30.3223Z" fill="white"/>
<path d="M20.6189 8.36079C21.4099 8.35257 22.1906 8.54128 22.8905 8.90992C22.958 8.68242 23.0398 8.45942 23.1354 8.24227L22.8984 8.26992L22.6495 8.29758L22.5429 8.07239L22.2268 7.40474L21.65 7.70499L21.4248 7.81955L21.255 7.65363L20.6189 7.01758L19.9987 7.65363L19.8288 7.8156L19.6036 7.70103L19.0229 7.40079L18.7108 8.06844L18.6041 8.29363L18.3552 8.26597L18.1182 8.23832C18.2134 8.45563 18.2952 8.6786 18.3631 8.90597C19.0588 8.54155 19.8336 8.3543 20.6189 8.36079Z" fill="white"/>
<path d="M33.3084 16.0965C33.4138 16.1333 33.5247 16.152 33.6363 16.1518C33.858 16.1498 34.0751 16.0883 34.2648 15.9736C34.4546 15.8589 34.61 15.6953 34.7148 15.4999C34.0217 15.386 33.3894 15.0356 32.9252 14.5083C32.8152 14.3853 32.6807 14.2867 32.5304 14.2186C32.38 14.1506 32.2171 14.1147 32.0521 14.1133C31.794 14.1181 31.5423 14.1947 31.3252 14.3345C32.4432 14.9311 32.6724 15.8871 33.3005 16.1004" fill="white"/>
<path d="M7.62162 16.1518C7.73197 16.1521 7.84155 16.1334 7.94557 16.0965C8.58557 15.8832 8.81471 14.9114 9.92088 14.3306C9.70381 14.1908 9.45211 14.1142 9.19397 14.1094C9.02829 14.1103 8.86463 14.1459 8.71357 14.2139C8.5625 14.282 8.42738 14.3809 8.31693 14.5044C7.85378 15.0309 7.22297 15.3812 6.53125 15.496C6.63607 15.6914 6.79149 15.855 6.98124 15.9697C7.17098 16.0843 7.38807 16.1459 7.60977 16.1479" fill="white"/>
<path d="M33.6083 19.9798H33.6557C34.8408 19.9798 35.2359 18.7235 35.2359 18.7235H35.2122C34.5946 18.7026 33.989 18.5472 33.4377 18.2681C32.8864 17.9891 32.4026 17.593 32.0201 17.1077C31.2102 16.0766 30.5426 15.1719 29.231 14.8163L29.1006 14.7926L29.0729 14.6623C29.0374 14.4608 29.1757 14.2672 29.468 14.0697C31.2813 12.8845 30.0487 11.3714 30.0487 11.3714C30.0487 11.3714 29.5312 12.5803 28.3737 12.5803H28.2868C28.1542 12.5778 28.0221 12.5646 27.8917 12.5408L27.6784 12.5013C27.7654 12.199 27.7679 11.8786 27.6857 11.575C27.6036 11.2713 27.4398 10.996 27.2122 10.7788C26.9848 10.5457 26.7124 10.361 26.4116 10.2361C26.1108 10.1112 25.7878 10.0485 25.4621 10.0519C25.3456 10.0505 25.2292 10.0598 25.1144 10.0795C25.5095 10.601 25.8058 11.4702 25.3436 12.0074C24.9485 12.4697 23.9688 12.4894 23.9688 13.1926C23.9688 13.485 24.2413 13.8208 24.7273 14.125C26.1929 15.0494 27.6468 16.2741 28.2552 17.9136C29.0097 19.96 28.1604 21.3191 26.9436 22.1013C27.2075 22.3238 27.5324 22.4615 27.8759 22.4963C27.9905 22.4963 28.0971 22.4963 28.1999 22.4963C28.8354 22.5223 29.4605 22.3283 29.9697 21.9472C29.8827 22.4841 29.6551 22.9885 29.31 23.4089C29.0123 23.7549 28.6401 24.0288 28.2214 24.2101C27.8026 24.3915 27.3481 24.4755 26.8922 24.4558C26.8921 24.6406 26.9315 24.8233 27.0079 24.9916C27.0842 25.1599 27.1956 25.3099 27.3347 25.4316C27.6496 25.643 28.0094 25.7783 28.3855 25.8267C28.3855 25.8267 27.0107 26.1072 26.8567 28.1378C26.8604 28.6542 26.7355 29.1633 26.4932 29.6193H26.5169C29.709 29.6193 29.626 26.8815 29.626 26.8815C29.7087 27.1331 29.8546 27.3593 30.0496 27.5384C30.2447 27.7175 30.4824 27.8437 30.7401 27.9047C30.8486 27.9318 30.9601 27.9451 31.072 27.9442C31.2531 27.9431 31.4334 27.9205 31.6092 27.8771C31.3207 27.1133 31.3207 26.2705 31.6092 25.5067C31.8339 24.8729 31.9423 24.2037 31.9292 23.5314C32.109 23.7515 32.3385 23.9258 32.5988 24.0398C32.8592 24.1538 33.1428 24.2043 33.4265 24.1872C33.6786 24.1917 33.9277 24.1325 34.1507 24.0151C34.3738 23.8977 34.5636 23.7259 34.7026 23.5156C32.5732 22.6307 32.7865 19.7823 32.7865 19.7823C33.0314 19.932 33.3133 20.0101 33.6004 20.0074M32.9604 22.9862C32.0952 22.5595 31.546 21.4257 31.4157 21.0109C31.2853 23.2391 30.1831 24.7956 28.9149 26.2968C28.5233 26.7476 28.2192 27.2674 28.0181 27.8297C28.1232 27.2628 28.3645 26.7299 28.7213 26.2771C29.9065 24.8391 31.0562 23.0494 31.1391 20.9832C31.206 19.7277 30.895 18.481 30.2463 17.404C30.4485 17.9877 30.4786 18.6173 30.3329 19.2176C30.1872 19.8179 29.8719 20.3636 29.4246 20.7897C29.4246 20.7897 31.6013 18.1625 28.5199 15.4721C27.2952 14.4489 25.952 13.8168 25.2606 13.3665C27.7534 14.1803 28.9742 13.2835 28.9742 13.2835C28.6337 13.5474 28.241 13.7357 27.822 13.8359C27.403 13.936 26.9675 13.9457 26.5446 13.8642C26.7184 13.9472 26.9001 14.0381 27.0937 14.1408C29.1954 15.2825 31.0878 17.163 31.4078 19.7665V19.7467C31.8976 22.3028 32.988 22.9586 32.988 22.9586" fill="white"/>
<path d="M12.8632 25.8029C13.2333 25.7599 13.5887 25.6329 13.9022 25.4316C14.0444 25.3121 14.1592 25.1636 14.239 24.9959C14.3187 24.8282 14.3615 24.6454 14.3644 24.4597C13.9079 24.4794 13.4529 24.3954 13.0335 24.2141C12.6141 24.0328 12.2411 23.7588 11.9427 23.4128C11.5834 22.9977 11.3407 22.4946 11.2395 21.955C11.7478 22.3379 12.3736 22.5321 13.0094 22.5042C13.116 22.5042 13.2227 22.5042 13.3373 22.5042C13.6821 22.4699 14.0084 22.3322 14.2736 22.1091C13.0568 21.319 12.2034 19.9718 12.958 17.9214C13.5625 16.2819 15.0202 15.0533 16.4859 14.1328C16.9718 13.8286 17.2444 13.4889 17.2444 13.2005C17.2444 12.513 16.2686 12.4933 15.8696 12.0153C15.4074 11.478 15.6958 10.6128 16.0948 10.0874C15.98 10.0675 15.8636 10.0583 15.7471 10.0597C15.4214 10.0563 15.0984 10.119 14.7976 10.2439C14.4968 10.3689 14.2245 10.5535 13.997 10.7866C13.7691 11.0035 13.6051 11.2789 13.5229 11.5826C13.4406 11.8864 13.4434 12.2068 13.5309 12.5091L13.3175 12.5526C13.1871 12.576 13.055 12.5892 12.9225 12.5921H12.8395C11.678 12.5921 11.1644 11.3832 11.1644 11.3832C11.1644 11.3832 9.95159 12.8844 11.7649 14.0735C12.077 14.275 12.2153 14.4686 12.16 14.6661L12.1323 14.7965L12.002 14.8202C10.6904 15.1758 10.0267 16.0805 9.21283 17.1116C8.83151 17.5924 8.35041 17.9849 7.80273 18.2618C7.25504 18.5387 6.6538 18.6935 6.04048 18.7155H6.00098C6.00098 18.7155 6.39604 19.9718 7.58122 19.9718H7.63653C7.92354 19.9744 8.20552 19.8964 8.45036 19.7466C8.45036 19.7466 8.65974 22.595 6.53036 23.48C6.66959 23.69 6.85946 23.8616 7.08247 23.979C7.30547 24.0964 7.55444 24.1557 7.80641 24.1516C8.09009 24.1687 8.37378 24.1182 8.6341 24.0041C8.89442 23.8901 9.12393 23.7159 9.30369 23.4958C9.29086 24.1681 9.39925 24.8372 9.62369 25.4711C9.91147 26.235 9.91147 27.0775 9.62369 27.8414C9.79823 27.8846 9.97723 27.9072 10.157 27.9086C10.2689 27.9096 10.3804 27.8964 10.4889 27.8691C10.7466 27.808 10.9843 27.6819 11.1793 27.5028C11.3744 27.3236 11.5202 27.0975 11.603 26.8459C11.603 26.8459 11.52 29.5837 14.7121 29.5837H14.7358C14.4956 29.127 14.3721 28.6181 14.3763 28.1022C14.2262 26.0716 12.8474 25.7911 12.8474 25.7911M12.3338 26.2849C11.0538 24.7837 9.96345 23.2271 9.80937 20.9792C9.67505 21.3743 9.12987 22.52 8.26468 22.9545C8.26468 22.9545 9.3511 22.2987 9.84493 19.7427V19.7624C10.1689 17.159 12.0573 15.2785 14.163 14.1368C14.3565 14.0301 14.5383 13.9432 14.7121 13.8602C14.2836 13.947 13.8414 13.94 13.4159 13.8397C12.9904 13.7395 12.5916 13.5484 12.2469 13.2795C12.2469 13.2795 13.4637 14.1763 15.9605 13.3624C15.281 13.8168 13.9417 14.4489 12.717 15.4721C9.65135 18.1624 11.8439 20.7896 11.8439 20.7896C11.3966 20.3635 11.0813 19.8178 10.9356 19.2175C10.7899 18.6172 10.82 17.9876 11.0222 17.4039C10.3724 18.4805 10.0613 19.7275 10.1294 20.9832C10.2123 23.0533 11.3501 24.839 12.5432 26.277C12.9014 26.7295 13.1441 27.2623 13.2504 27.8296C13.0471 27.2675 12.7417 26.7478 12.3496 26.2968" fill="white"/>
<path d="M18.2482 15.7923C18.2996 15.8476 18.3509 15.9109 18.4023 15.9701L18.4378 16.0136L18.5761 16.2032L18.6077 16.2467C18.6591 16.3257 18.7104 16.4126 18.7618 16.4955C18.9379 16.8481 19.2007 17.1501 19.5255 17.3733C19.8502 17.5965 20.2264 17.7335 20.6186 17.7716C21.0097 17.7333 21.3848 17.5965 21.7088 17.3741C22.0328 17.1516 22.2951 16.8508 22.4714 16.4995C22.5228 16.4126 22.5741 16.3257 22.6295 16.2467L22.6532 16.2111C22.7006 16.1439 22.748 16.0768 22.7954 16.0136L22.827 15.9741C22.8783 15.9109 22.9297 15.8476 22.985 15.7923L23.0087 15.7686C23.2489 15.5164 23.5536 15.3347 23.8897 15.2432L23.7317 15.1602L23.0838 14.7652L22.4201 14.3701L20.6186 15.3578L18.8408 14.3899L18.1771 14.7849L17.5292 15.18L17.3633 15.2748C17.697 15.3555 18.0027 15.5248 18.2482 15.7647L18.2759 15.7923M19.9154 15.7133H21.4087V16.2309C21.3403 16.1647 21.258 16.1148 21.1677 16.0847C21.0775 16.0546 20.9816 16.0452 20.8872 16.057V16.7997C20.8854 16.9839 20.9289 17.1657 21.0137 17.3291H20.2867C20.3772 17.1686 20.4261 16.988 20.429 16.8037V16.061C20.3346 16.0491 20.2387 16.0586 20.1485 16.0887C20.0582 16.1187 19.9759 16.1687 19.9075 16.2348L19.9154 15.7133Z" fill="white"/>
<path d="M20.4728 14.7131V11.6909L18.5488 11.0391L19.0387 13.9744L20.4728 14.7131ZM20.0777 12.4336V12.9196L19.9829 12.8761C19.8379 12.8272 19.7038 12.7508 19.5878 12.6509C19.4846 12.5857 19.3962 12.4997 19.3282 12.3983C19.2602 12.2969 19.214 12.1825 19.1928 12.0623L20.0777 12.4336Z" fill="white"/>
<path d="M22.1985 13.9753L22.7042 11.0479L20.7803 11.6997V14.7219L22.1985 13.9753ZM21.1951 12.4345L22.0682 12.0671C22.0469 12.1873 22.0008 12.3018 21.9328 12.4031C21.8647 12.5045 21.7763 12.5905 21.6731 12.6558C21.5572 12.7556 21.423 12.8321 21.278 12.8809L21.1872 12.9244L21.1951 12.4345Z" fill="white"/>
<path d="M17.7507 21.7218C17.9217 21.7774 18.1003 21.8054 18.2801 21.8048V21.7495C18.2911 21.7144 18.3004 21.6788 18.3077 21.6428C18.3362 21.485 18.352 21.3251 18.3551 21.1648C18.2474 21.1006 18.1599 21.0075 18.1023 20.8961C18.0783 20.83 18.0341 20.773 17.976 20.7333C17.9179 20.6936 17.8487 20.6732 17.7784 20.6749C17.6034 20.6896 17.4349 20.748 17.2885 20.8448C17.2643 21.0181 17.2938 21.1946 17.3729 21.3507C17.452 21.5068 17.5769 21.6349 17.731 21.7179" fill="white"/>
<path d="M22.0051 20.1182C21.6496 20.5132 20.9464 21.1848 20.9148 21.2164L20.8713 21.2599L18.6629 21.2243C18.661 21.4069 18.6371 21.5887 18.5918 21.7656V21.8367L21.219 22.3108C21.4915 22.1211 22.2461 21.568 22.5385 21.3547C22.3582 21.0782 22.2916 20.7428 22.3528 20.4184C22.2262 20.3391 22.114 20.239 22.0209 20.1221" fill="white"/>
<path d="M22.3052 17.459C22.0929 17.696 21.8328 17.8854 21.5421 18.0148C21.2513 18.1442 20.9365 18.2105 20.6183 18.2096C20.538 18.2138 20.4576 18.2138 20.3773 18.2096C20.2976 18.2031 20.2184 18.1912 20.1403 18.174C20.0985 18.3546 20.1137 18.5437 20.1837 18.7153C20.2401 18.8251 20.3182 18.9223 20.4133 19.0011C20.5084 19.0799 20.6184 19.1386 20.7368 19.1736L20.8277 19.2091V19.3079C20.8386 19.5091 20.9153 19.7011 21.0459 19.8545C21.1765 20.008 21.3538 20.1143 21.5507 20.1573C21.6652 20.0387 21.7679 19.9321 21.8469 19.8452C21.7766 19.7073 21.752 19.5506 21.7769 19.3978C21.8018 19.245 21.8747 19.1042 21.9852 18.9958C21.9532 19.2282 21.991 19.465 22.0937 19.6759C22.1963 19.8869 22.3593 20.0627 22.562 20.181L22.6726 20.2323L22.641 20.3508C22.569 20.5814 22.5893 20.831 22.6976 21.0469C22.806 21.2628 22.9939 21.4283 23.2218 21.5084L23.3679 21.5637L23.3047 21.7059C23.2096 21.92 23.2005 22.1624 23.2792 22.383C23.3578 22.6036 23.5184 22.7855 23.7274 22.8911H25.359V21.5874C25.1357 21.5583 24.9279 21.4574 24.7668 21.2999C24.6058 21.1425 24.5003 20.9369 24.4662 20.7143C24.2196 20.6822 23.9954 20.5545 23.842 20.3587C23.7543 20.2352 23.704 20.0892 23.697 19.9379C23.69 19.7866 23.7266 19.6365 23.8025 19.5054C23.8062 19.7696 23.9027 20.0242 24.0751 20.2244C24.2171 20.3723 24.4081 20.4636 24.6124 20.4812H24.7309V20.6037C24.7412 20.777 24.8083 20.9422 24.9218 21.0736C25.0353 21.205 25.189 21.2953 25.359 21.3306V18.6679C25.3745 18.2524 25.4642 17.843 25.6237 17.459H22.3052Z" fill="white"/>
<path d="M17.8931 18.6803L17.8457 20.3751L18.0393 20.4028L18.5094 18.7791L18.2724 18.2773L17.8931 18.6803Z" fill="white"/>
<path d="M23.0836 26.451H23.131C23.4233 26.5339 23.4984 27.5888 24.012 27.6836C24.0579 27.6884 24.1043 27.6884 24.1502 27.6836C24.216 27.6839 24.2808 27.6678 24.3387 27.6368C24.3967 27.6057 24.4459 27.5607 24.4821 27.5058C24.4821 27.5058 24.2253 27.1107 24.0317 26.8263C23.7749 26.4668 23.5774 26.0362 23.0954 26.0362H23.0599C22.9695 26.0395 22.8819 26.0683 22.807 26.1191C22.6473 26.0145 22.4607 25.9583 22.2697 25.9572C22.0501 25.984 21.8333 26.0302 21.6218 26.0954L20.5552 25.9888C20.4112 25.9545 20.2863 25.8652 20.2075 25.7399V25.7122C20.2075 25.6846 20.2075 25.653 20.2075 25.6253C20.2144 25.3395 20.1239 25.0599 19.9509 24.8323C19.7779 24.6048 19.5326 24.4428 19.2554 24.373C19.2554 24.373 19.2831 24.207 19.2199 24.1438L18.9828 24.4283L18.1927 24.0332L18.7458 24.6772L18.248 25.2302C18.2252 25.2523 18.2101 25.2812 18.2051 25.3125C18.2001 25.3439 18.2055 25.376 18.2204 25.4041L18.4218 25.5818L18.6786 25.4278C18.6993 25.422 18.7212 25.422 18.7418 25.4278C18.813 25.4278 18.9196 25.4278 19.0144 25.4278C19.1093 25.4278 19.208 25.4041 19.2199 25.3093C19.1883 25.6332 18.888 26.1942 19.0856 26.6367L19.2317 26.9725L18.2875 26.8381L17.853 27.5848C17.7877 27.6832 17.7529 27.7986 17.7529 27.9167C17.7529 28.0347 17.7877 28.1501 17.853 28.2485L18.0189 28.4539C18.1338 28.338 18.2298 28.2047 18.3033 28.0589L18.2283 27.9759C18.2009 27.9497 18.1838 27.9146 18.1802 27.8769C18.1766 27.8392 18.1866 27.8014 18.2085 27.7705L18.4851 27.3122L19.5991 27.573L19.6584 27.4742C19.6887 27.4213 19.7334 27.378 19.7872 27.3494C19.841 27.3207 19.9018 27.3079 19.9626 27.3122C20.0126 27.3084 20.0627 27.3084 20.1127 27.3122C20.4054 27.3714 20.703 27.4031 21.0016 27.407C21.1696 27.4238 21.3393 27.4069 21.5007 27.3574C21.6621 27.3079 21.8121 27.2267 21.9418 27.1186C22.3369 27.7191 23.1626 27.8139 23.0994 28.1181L22.8821 29.1414C23.0243 29.1414 23.1626 29.1414 23.2772 29.1097L23.4826 28.0431C23.5063 27.9285 23.526 27.7705 23.526 27.7705C23.3719 27.6401 23.2387 27.4869 23.131 27.3162C22.9848 27.0396 23.0638 26.8935 22.9295 26.526C22.9427 26.5017 22.962 26.4811 22.9856 26.4666C23.0091 26.452 23.0361 26.4439 23.0638 26.4431M18.892 24.9418C18.8792 24.9414 18.8666 24.9383 18.855 24.9328C18.8434 24.9273 18.8331 24.9195 18.8246 24.9099C18.8161 24.9003 18.8096 24.8891 18.8056 24.8769C18.8016 24.8648 18.8 24.8519 18.8011 24.8391C18.8016 24.8263 18.8047 24.8137 18.8102 24.8022C18.8157 24.7906 18.8234 24.7802 18.833 24.7717C18.8426 24.7632 18.8539 24.7568 18.866 24.7527C18.8782 24.7487 18.8911 24.7472 18.9038 24.7483C18.9295 24.7483 18.9541 24.7585 18.9723 24.7766C18.9904 24.7948 19.0006 24.8194 19.0006 24.8451C19.0006 24.8707 18.9904 24.8953 18.9723 24.9135C18.9541 24.9316 18.9295 24.9418 18.9038 24.9418" fill="white"/>
<path d="M17.391 27.4074C17.391 27.4074 17.7624 27.2533 17.7861 27.1467L17.7387 27.0242C17.7181 26.9903 17.7104 26.9501 17.7169 26.9109C17.7234 26.8718 17.7438 26.8363 17.7742 26.8109L18.1693 26.5343L18.837 26.6607C18.7618 26.5592 18.7229 26.4354 18.7263 26.3091L18.0903 26.1748L17.4898 26.5383C17.3854 26.6157 17.3099 26.7258 17.2756 26.8512C17.2412 26.9765 17.2498 27.1098 17.3002 27.2296L17.391 27.4074Z" fill="white"/>
<path d="M22.1045 29.1567H22.4996C22.4996 29.1567 22.8433 28.1532 22.863 28.1216C22.6076 28.0026 22.3584 27.8707 22.1163 27.7266C22.2191 27.8806 22.464 28.0505 22.4166 28.1848L22.1045 29.1567Z" fill="white"/>
<path d="M25.3594 23.2109H15.8779V26.7665C15.8779 28.2243 16.9327 29.1369 18.4893 29.1369C19.789 29.1369 20.1327 29.1882 20.6187 29.6662C20.77 29.5041 20.9537 29.3757 21.1579 29.2893C21.3621 29.2028 21.5822 29.1603 21.8039 29.1645V29.1092L22.116 28.1966L21.6103 27.6198C21.4068 27.6811 21.1943 27.7065 20.9821 27.6949C20.6663 27.6909 20.3516 27.6579 20.0419 27.5961C20.0091 27.5924 19.9759 27.5924 19.9431 27.5961C19.8997 27.5961 19.8997 27.5961 19.8878 27.6198L19.8285 27.7186L19.7219 27.8964L19.5164 27.849L18.6078 27.6356L18.4814 27.8411V27.8648L18.592 27.9872L18.5446 28.1453C18.4617 28.3387 18.3423 28.5144 18.193 28.6628L17.9639 28.9077L17.7584 28.647L17.6044 28.4534C17.5231 28.3468 17.4702 28.2212 17.4509 28.0885C17.4315 27.9558 17.4463 27.8203 17.4937 27.6949L17.2369 27.8016L17.1224 27.5527L17.0434 27.3749C16.9647 27.1937 16.9504 26.991 17.0029 26.8006C17.0553 26.6101 17.1714 26.4433 17.3318 26.328L18.0626 25.9329L18.7579 26.0712C18.7579 26.004 18.8014 25.767 18.8211 25.7038H18.7816L18.3866 25.8539L17.9915 25.5853C17.9722 25.5661 17.9568 25.5434 17.9463 25.5183C17.9358 25.4932 17.9304 25.4663 17.9304 25.4391C17.9304 25.4119 17.9358 25.385 17.9463 25.3599C17.9568 25.3348 17.9722 25.312 17.9915 25.2929L18.3668 24.724L17.4147 23.5388L18.8764 24.1393L18.9752 24.0208L19.1727 23.7838L19.3979 23.9971C19.4567 24.0541 19.4978 24.1268 19.5164 24.2065C19.9115 24.3645 20.6384 24.8267 20.7016 25.5774L20.4764 25.6682C20.5041 25.7057 20.5408 25.7356 20.5831 25.7551L21.6261 25.8579L21.7209 25.8302C21.898 25.7639 22.0849 25.7278 22.274 25.7235C22.4628 25.7248 22.649 25.768 22.8192 25.85C22.8941 25.8229 22.9727 25.807 23.0523 25.8025H23.1036C23.3307 25.8227 23.5484 25.9029 23.7345 26.0347C23.9205 26.1666 24.0681 26.3455 24.1624 26.5532L24.2769 26.7191C24.4705 26.9956 24.7273 27.3946 24.7352 27.4144L24.8498 27.5922L24.7076 27.7541C24.6429 27.8385 24.5599 27.907 24.4647 27.9542C24.3695 28.0015 24.2647 28.0263 24.1584 28.0267C24.0954 28.0327 24.0319 28.0327 23.9688 28.0267C23.9011 27.9997 23.8374 27.9639 23.7792 27.9201C23.7792 27.9754 23.7792 28.0425 23.7476 28.0979L23.5658 29.0499C24.087 28.9468 24.5541 28.6608 24.883 28.2435C25.2119 27.8263 25.3808 27.3052 25.3594 26.7744V23.2109Z" fill="#FCE527"/>
<path d="M15.8778 22.9228H23.2615C23.114 22.7679 23.0111 22.5759 22.9638 22.3672C22.9165 22.1586 22.9265 21.941 22.9929 21.7376C22.8929 21.6898 22.7999 21.6286 22.7164 21.5559C22.428 21.7692 21.5312 22.4092 21.3178 22.5712L21.2704 22.6028L18.3786 22.0813H18.3193C18.2259 22.0867 18.1322 22.0867 18.0388 22.0813C18.0253 22.1437 17.991 22.1996 17.9414 22.2398C17.8919 22.2801 17.8301 22.3022 17.7662 22.3025H17.7188C17.6442 22.2899 17.5775 22.2485 17.5332 22.1871C17.4888 22.1258 17.4704 22.0495 17.4818 21.9746V21.9114C17.2996 21.7791 17.1599 21.5965 17.0799 21.386C16.9999 21.1755 16.9831 20.9462 17.0314 20.7262L17.063 20.6907L17.1065 20.6591C17.1065 20.6591 17.1618 20.6196 17.2369 20.5801L17.0275 20.5485C16.99 20.5417 16.9566 20.5206 16.9345 20.4896C16.9124 20.4586 16.9032 20.4202 16.909 20.3825C16.9118 20.3637 16.9184 20.3457 16.9284 20.3295C16.9383 20.3133 16.9514 20.2993 16.9669 20.2882C16.9824 20.2772 16.9999 20.2693 17.0184 20.2652C17.037 20.261 17.0562 20.2606 17.0749 20.264L17.5766 20.343L17.624 18.581L18.3707 17.7909L18.8369 18.7707L18.3272 20.4497L18.7697 20.5208C18.8072 20.5276 18.8405 20.5487 18.8627 20.5797C18.8848 20.6107 18.894 20.6491 18.8882 20.6867C18.8826 20.7202 18.8651 20.7506 18.839 20.7723C18.8129 20.794 18.7799 20.8057 18.746 20.8052H18.7223L18.3628 20.746V20.7736C18.4027 20.8442 18.4634 20.9007 18.5366 20.9356L20.741 20.9712L21.306 20.4141C21.095 20.3412 20.9089 20.2102 20.7691 20.0362C20.6294 19.8621 20.5416 19.6522 20.5159 19.4304C20.2414 19.3261 20.0169 19.1213 19.8877 18.8576C19.7805 18.6079 19.7624 18.3289 19.8364 18.0675C19.4885 17.9312 19.1744 17.7209 18.9159 17.4512H15.625C15.7801 17.8388 15.8656 18.2507 15.8778 18.668V22.9228Z" fill="#FCE527"/>
<path d="M18.9243 24.7562C18.9116 24.7551 18.8987 24.7566 18.8865 24.7607C18.8744 24.7647 18.8632 24.7712 18.8535 24.7797C18.8439 24.7882 18.8362 24.7985 18.8307 24.8101C18.8252 24.8217 18.8221 24.8342 18.8216 24.8471C18.8205 24.8598 18.8221 24.8727 18.8261 24.8849C18.8301 24.897 18.8366 24.9082 18.8451 24.9179C18.8536 24.9275 18.8639 24.9352 18.8755 24.9407C18.8871 24.9462 18.8997 24.9493 18.9125 24.9498C18.9382 24.9498 18.9628 24.9396 18.9809 24.9214C18.9991 24.9033 19.0093 24.8787 19.0093 24.853C19.0093 24.8273 18.9991 24.8027 18.9809 24.7845C18.9628 24.7664 18.9382 24.7562 18.9125 24.7562" fill="#222220"/>
<path d="M25.3591 31.2236L24.8139 31.0142L24.964 30.4493L25.1299 29.833C24.3847 30.2148 23.604 30.5231 22.7991 30.7535C22.404 30.8641 22.1195 30.9155 22.1195 30.9155V31.3342C21.6348 31.413 21.1449 31.4553 20.6539 31.4607H20.6183C20.1273 31.4553 19.6373 31.4131 19.1526 31.3342V30.9155C19.1526 30.9155 18.8603 30.8641 18.4731 30.7535C17.6681 30.5232 16.8874 30.2149 16.1423 29.833L16.3042 30.4493L16.4583 31.0142L15.9092 31.2236L15.3008 31.4488C16.1188 31.8791 16.9727 32.2373 17.8529 32.5194L17.6435 33.0883C18.5926 33.4503 19.6028 33.6247 20.6183 33.6019H20.642C21.6615 33.6263 22.6759 33.4519 23.6287 33.0883L23.4193 32.5194C24.2969 32.2388 25.1482 31.8819 25.9635 31.4528L25.3591 31.2236ZM15.9447 31.4883L16.8415 31.192L16.5768 30.3268C17.1552 30.6156 17.7564 30.8561 18.3744 31.0458L17.9398 32.231C17.2521 32.0493 16.5838 31.8006 15.9447 31.4883ZM20.6183 33.3056C19.7473 33.2962 18.8814 33.1727 18.0425 32.9382L18.5758 31.4962C19.244 31.6629 19.9297 31.7491 20.6183 31.753H20.6618C21.3466 31.7467 22.0282 31.6591 22.6924 31.4923L23.2099 32.9382C22.3684 33.1722 21.4997 33.2944 20.6262 33.3016M23.3126 32.231L22.8781 31.0458C23.496 30.8562 24.0973 30.6157 24.6756 30.3268L24.4109 31.192L25.3077 31.4883C24.6674 31.8011 23.9978 32.0499 23.3087 32.231" fill="#222220"/>
<path d="M20.6191 8.71301C21.5132 8.68608 22.3914 8.95248 23.1199 9.47153C23.2383 8.88577 23.4618 8.32629 23.7796 7.82017L22.8828 7.92289L22.4009 6.92733L21.5001 7.38955L20.6191 6.52832L19.75 7.38955L18.8532 6.92733L18.387 7.92289L17.4902 7.82017C17.8027 8.32728 18.0209 8.88675 18.1342 9.47153C18.8585 8.9563 19.7305 8.69012 20.6191 8.71301ZM18.3475 8.27054L18.5964 8.2982L18.7031 8.07301L19.0152 7.40536L19.5959 7.7056L19.8211 7.82017L19.9989 7.65425L20.6191 7.0182L21.2552 7.65425L21.4329 7.83202L21.6581 7.71746L22.2349 7.41721L22.551 8.08486L22.6576 8.31005L22.9065 8.28239L23.1436 8.25474C23.0479 8.47189 22.9661 8.69489 22.8986 8.92239C22.1962 8.56253 21.4183 8.37486 20.629 8.37486C19.8397 8.37486 19.0618 8.56253 18.3594 8.92239C18.2915 8.69503 18.2097 8.47205 18.1144 8.25474L18.3475 8.27054Z" fill="#222220"/>
<path d="M33.6559 20.3673C35.0939 20.3673 35.5759 18.9056 35.5956 18.8424L35.7576 18.3288H35.2203C34.6591 18.3098 34.1089 18.1684 33.608 17.9145C33.1071 17.6607 32.6678 17.3005 32.3206 16.8592L32.2139 16.7248C31.4791 15.7925 30.7838 14.9036 29.5354 14.4967C29.5849 14.4531 29.6377 14.4135 29.6934 14.3782C29.986 14.2122 30.2394 13.9851 30.4365 13.7125C30.6335 13.4398 30.7695 13.1279 30.8351 12.7979C30.9021 12.1954 30.7321 11.5905 30.3611 11.111L29.966 10.6172L29.7053 11.2098C29.7053 11.2453 29.2667 12.1856 28.3818 12.1856H28.3146H28.1408C28.1631 11.8773 28.1181 11.5678 28.009 11.2785C27.8999 10.9893 27.7292 10.7273 27.5087 10.5105C27.2448 10.2413 26.9293 10.0279 26.5811 9.88337C26.2329 9.73879 25.8591 9.66589 25.4821 9.66904C25.3405 9.66841 25.1992 9.67898 25.0593 9.70065L24.4549 9.81917L24.8263 10.309C25.1186 10.7041 25.3833 11.3876 25.0712 11.751C24.9217 11.8811 24.7505 11.9841 24.5655 12.0552C24.1704 12.2409 23.6016 12.5056 23.6016 13.1693C23.6016 13.5999 23.9374 14.0503 24.5418 14.4295C26.3314 15.5555 27.4337 16.7288 27.9117 18.0246C28.6504 19.9999 27.6865 21.1574 26.7502 21.754L26.3314 22.0226L26.6988 22.3584C27.0265 22.6377 27.4318 22.81 27.8603 22.8523C27.9867 22.8523 28.1053 22.8523 28.2198 22.8523C28.5865 22.8537 28.9513 22.8005 29.3023 22.6942C29.2148 22.8471 29.113 22.9913 28.9981 23.1248C28.7353 23.4305 28.4061 23.672 28.0357 23.8308C27.6652 23.9897 27.2634 24.0617 26.8608 24.0414H26.5092L26.4816 24.393C26.48 24.6364 26.5319 24.8772 26.6337 25.0984C26.7354 25.3196 26.8844 25.5157 27.0702 25.673C27.1687 25.7595 27.2791 25.8313 27.3981 25.8863C26.8144 26.4551 26.4804 27.2324 26.4697 28.0473C26.4796 28.5084 26.3822 28.9655 26.1853 29.3826L25.7902 29.9752H26.4934C27.6523 29.9752 28.5398 29.6578 29.1561 29.0231C29.4761 28.6869 29.714 28.2813 29.8514 27.8379C30.0798 28.0304 30.3506 28.1658 30.6416 28.233C30.7802 28.265 30.922 28.2809 31.0643 28.2804C31.2772 28.2798 31.4893 28.2546 31.6964 28.2053L32.1428 28.0868L31.9453 27.6681C31.6978 27.0002 31.6978 26.2658 31.9453 25.5979C32.0918 25.1616 32.1937 24.7116 32.2495 24.2547C32.6053 24.4361 32.9998 24.5283 33.3991 24.5234C33.7198 24.5282 34.0366 24.4517 34.3198 24.3012C34.603 24.1506 34.8435 23.9307 35.0188 23.6621L35.2361 23.2671L34.8411 23.1011C33.5176 22.552 33.2253 21.0784 33.17 20.2804C33.3001 20.3068 33.4323 20.3227 33.565 20.3278L33.6559 20.3673ZM34.7028 23.4883C34.5638 23.6986 34.374 23.8704 34.1509 23.9878C33.9279 24.1052 33.6788 24.1644 33.4267 24.1599C33.1431 24.1767 32.8595 24.126 32.5992 24.012C32.339 23.898 32.1094 23.724 31.9295 23.5041C31.9412 24.1767 31.8315 24.8458 31.6055 25.4794C31.317 26.2432 31.317 27.086 31.6055 27.8498C31.4297 27.8933 31.2493 27.9158 31.0682 27.9169C30.9564 27.9178 30.8449 27.9045 30.7364 27.8774C30.4787 27.8164 30.241 27.6902 30.0459 27.5111C29.8509 27.332 29.705 27.1058 29.6223 26.8542C29.6223 26.8542 29.7053 29.592 26.5132 29.592H26.4895C26.7316 29.136 26.8565 28.6269 26.8529 28.1105C27.003 26.0799 28.3779 25.7994 28.3779 25.7994C28.0067 25.7583 27.6499 25.6326 27.3349 25.432C27.1927 25.3126 27.0779 25.164 26.9981 24.9963C26.9184 24.8287 26.8756 24.6458 26.8727 24.4602C27.3322 24.4826 27.7908 24.3996 28.2133 24.2175C28.6358 24.0353 29.0111 23.7589 29.3102 23.4093C29.6717 22.9951 29.9159 22.4918 30.0174 21.9515C29.509 22.3344 28.8833 22.5286 28.2475 22.5006C28.1448 22.5006 28.0342 22.5006 27.9235 22.5006C27.5801 22.4658 27.2551 22.3281 26.9912 22.1056C28.208 21.3155 29.0574 19.9683 28.3028 17.9179C27.6984 16.2784 26.2406 15.0498 24.7749 14.1293C24.289 13.8251 24.0164 13.4853 24.0164 13.1969C24.0164 12.5095 24.9922 12.4898 25.3912 12.0118C25.8534 11.4745 25.565 10.6093 25.1621 10.0839C25.2769 10.0641 25.3932 10.0548 25.5097 10.0562C25.8354 10.0528 26.1584 10.1155 26.4592 10.2404C26.76 10.3653 27.0324 10.55 27.2598 10.7831C27.4874 11.0003 27.6512 11.2756 27.7334 11.5793C27.8155 11.8829 27.813 12.2033 27.726 12.5056L27.9393 12.549C28.0698 12.5727 28.2019 12.5859 28.3344 12.5885H28.4213C29.5788 12.5885 30.0964 11.3797 30.0964 11.3797C30.0964 11.3797 31.325 12.8927 29.5156 14.0779C29.2035 14.2794 29.0653 14.473 29.1206 14.6705L29.1482 14.8009L29.2786 14.8246C30.5902 15.1802 31.2539 16.0848 32.0677 17.116C32.4466 17.5925 32.9235 17.9819 33.4661 18.258C34.0086 18.534 34.6042 18.6902 35.2124 18.716H35.2361C35.2361 18.716 34.8411 19.9723 33.6559 19.9723H33.6006C33.3136 19.9749 33.0316 19.8968 32.7867 19.7471C32.7867 19.7471 32.5774 22.5955 34.7028 23.4804" fill="#222220"/>
<path d="M31.139 14.6697C31.5807 14.9214 31.9633 15.2649 32.261 15.6771C32.485 16.0254 32.8065 16.3001 33.1854 16.4672C33.3293 16.5154 33.4801 16.5394 33.6318 16.5383C33.9277 16.5375 34.2177 16.4552 34.47 16.3005C34.7222 16.1458 34.927 15.9247 35.0619 15.6613L35.2911 15.1517L34.734 15.1201C34.1367 15.0118 33.5944 14.7023 33.1973 14.243C33.0507 14.0839 32.8731 13.9566 32.6753 13.8689C32.4776 13.7813 32.2639 13.7351 32.0476 13.7334C31.7109 13.7392 31.3824 13.8391 31.0995 14.0218L30.5898 14.3813L31.139 14.6697ZM32.0476 14.1087C32.2126 14.1101 32.3755 14.146 32.5259 14.2141C32.6762 14.2821 32.8107 14.3808 32.9207 14.5038C33.3849 15.031 34.0172 15.3814 34.7103 15.4954C34.6052 15.6905 34.4497 15.8538 34.26 15.9685C34.0703 16.0831 33.8534 16.1448 33.6318 16.1472C33.5202 16.1475 33.4093 16.1288 33.3039 16.0919C32.6679 15.8786 32.4387 14.9067 31.3286 14.326C31.5456 14.186 31.7973 14.1094 32.0555 14.1048" fill="#222220"/>
<path d="M31.3918 19.7466C31.0679 17.1432 29.1795 15.2627 27.0778 14.121C26.8842 14.0182 26.7025 13.9274 26.5286 13.8444C26.9577 13.9315 27.4006 13.9247 27.8268 13.8244C28.253 13.7242 28.6525 13.5329 28.9978 13.2637C28.9978 13.2637 27.781 14.1605 25.2842 13.3466C25.9755 13.7931 27.3148 14.4252 28.5434 15.4523C31.6052 18.1427 29.4165 20.7698 29.4165 20.7698C29.8639 20.3438 30.1792 19.7981 30.3249 19.1977C30.4706 18.5974 30.4405 17.9679 30.2383 17.3842C30.8867 18.4613 31.1977 19.7079 31.1311 20.9634C31.0481 23.0335 29.9104 24.8192 28.7133 26.2573C28.3565 26.7101 28.1152 27.243 28.0101 27.8098C28.2158 27.254 28.5225 26.741 28.9148 26.2968C30.1948 24.7955 31.2852 23.239 31.4353 20.9911C31.5696 21.3861 32.1148 22.5318 32.98 22.9664C32.98 22.9664 31.8896 22.3106 31.3997 19.7545" fill="#222220"/>
<path d="M15.0883 29.3824C14.8966 28.9785 14.7955 28.5376 14.792 28.0905C14.7813 27.2756 14.4473 26.4983 13.8636 25.9295C13.9827 25.8748 14.0932 25.8029 14.1915 25.7162C14.3777 25.5593 14.527 25.3632 14.6288 25.142C14.7305 24.9207 14.7822 24.6797 14.7801 24.4362L14.7564 24.0846H14.4009C13.999 24.1043 13.5979 24.032 13.2282 23.8731C12.8585 23.7143 12.5299 23.4731 12.2675 23.1681C12.14 23.0307 12.0262 22.8811 11.9278 22.7216C12.2774 22.8277 12.6409 22.881 13.0063 22.8797C13.1209 22.8797 13.2394 22.8797 13.3658 22.8797C13.7946 22.8358 14.1998 22.6622 14.5273 22.3819L14.8947 22.0461L14.4759 21.7774C13.5396 21.1769 12.5796 20.0392 13.3145 18.0481C13.7925 16.7522 14.8947 15.5789 16.6843 14.453C17.2888 14.0579 17.6206 13.6194 17.6206 13.1927C17.6206 12.529 17.0675 12.2683 16.6606 12.0787C16.4755 12.0078 16.3043 11.9048 16.1549 11.7745C15.8389 11.411 16.1036 10.7118 16.3959 10.3325L16.7712 9.84262L16.1628 9.7241C16.0243 9.70252 15.8843 9.69196 15.7441 9.6925C15.367 9.68912 14.9932 9.76191 14.6449 9.9065C14.2967 10.0511 13.9812 10.2645 13.7174 10.534C13.5048 10.7511 13.3409 11.011 13.2367 11.2964C13.1324 11.5819 13.0903 11.8863 13.113 12.1893H12.9391H12.8759C11.987 12.1893 11.5683 11.249 11.5525 11.2135L11.3036 10.6248L10.9085 11.1187C10.54 11.5992 10.3716 12.2037 10.4384 12.8056C10.5038 13.1356 10.6397 13.4476 10.8368 13.7203C11.0338 13.9931 11.2874 14.2201 11.5801 14.3858C11.636 14.4209 11.6889 14.4605 11.7382 14.5043C10.4898 14.8994 9.79445 15.8001 9.05964 16.7325L8.95297 16.8668C8.60537 17.3086 8.16536 17.6691 7.66377 17.923C7.16218 18.1769 6.61114 18.318 6.04927 18.3364L5.48828 18.3206L5.65421 18.8342C5.65421 18.8974 6.15198 20.3592 7.59001 20.3592H7.66112C7.79385 20.3538 7.92595 20.3379 8.05618 20.3118C7.99692 21.1019 7.70458 22.5834 6.38112 23.1325L5.98606 23.2984L6.20334 23.6935C6.37859 23.9634 6.61951 24.1844 6.90351 24.3357C7.18751 24.487 7.50528 24.5637 7.82705 24.5587C8.22501 24.5628 8.61806 24.4706 8.97273 24.29C9.02824 24.7469 9.13016 25.197 9.27692 25.6332C9.52441 26.3011 9.52441 27.0355 9.27692 27.7034L9.07939 28.1221L9.52976 28.2406C9.73687 28.2899 9.94897 28.3151 10.1619 28.3157C10.3041 28.3164 10.446 28.3005 10.5846 28.2683C10.8756 28.2014 11.1465 28.0659 11.3747 27.8732C11.511 28.3162 11.7476 28.7218 12.0661 29.0584C12.6824 29.6932 13.5699 30.0105 14.7288 30.0105H15.432L15.0883 29.3824ZM14.7485 29.5997C11.5564 29.5997 11.6394 26.8619 11.6394 26.8619C11.5567 27.1135 11.4108 27.3396 11.2158 27.5188C11.0207 27.6979 10.783 27.824 10.5253 27.8851C10.4168 27.9124 10.3053 27.9256 10.1935 27.9246C10.0137 27.9233 9.83465 27.9007 9.66013 27.8574C9.94791 27.0935 9.94791 26.251 9.66013 25.4871C9.43569 24.8532 9.3273 24.1841 9.34013 23.5118C9.16037 23.7319 8.93087 23.9061 8.67054 24.0201C8.41022 24.1342 8.12653 24.1847 7.84285 24.1676C7.59088 24.1717 7.34191 24.1124 7.11891 23.995C6.8959 23.8776 6.70603 23.706 6.5668 23.496C8.69223 22.611 8.4868 19.7626 8.4868 19.7626C8.24196 19.9124 7.95998 19.9904 7.67297 19.9878H7.58211C6.39692 19.9878 6.00186 18.7315 6.00186 18.7315H6.02557C6.64253 18.7103 7.24744 18.5548 7.79808 18.2757C8.34872 17.9966 8.83184 17.6007 9.21371 17.1157C10.0236 16.0846 10.6912 15.1799 12.0028 14.8243L12.1332 14.8006L12.1609 14.6703C12.1964 14.4688 12.0582 14.2752 11.7658 14.0777C9.95643 12.8925 11.1851 11.3794 11.1851 11.3794C11.1851 11.3794 11.6987 12.5883 12.8601 12.5883H12.9431C13.0756 12.5854 13.2077 12.5722 13.3382 12.5488L13.5515 12.5053C13.4641 12.2031 13.4613 11.8826 13.5435 11.5789C13.6257 11.2751 13.7897 10.9998 14.0177 10.7829C14.2451 10.5497 14.5175 10.3651 14.8183 10.2402C15.1191 10.1152 15.4421 10.0526 15.7678 10.056C15.8843 10.0545 16.0006 10.0638 16.1154 10.0836C15.7204 10.6051 15.428 11.4742 15.8903 12.0115C16.2853 12.4737 17.2651 12.4935 17.2651 13.1967C17.2651 13.489 16.9925 13.8248 16.5066 14.129C15.0409 15.0535 13.587 16.2782 12.9787 17.9177C12.2241 19.9641 13.0774 21.3231 14.2942 22.1053C14.0291 22.3284 13.7027 22.4661 13.3579 22.5004C13.2433 22.5004 13.1367 22.5004 13.03 22.5004C12.3942 22.5283 11.7685 22.3342 11.2601 21.9513C11.3614 22.4909 11.604 22.9939 11.9633 23.409C12.2618 23.7551 12.6347 24.029 13.0541 24.2103C13.4735 24.3916 13.9286 24.4756 14.3851 24.456C14.3803 24.6438 14.3347 24.8284 14.2515 24.9969C14.1683 25.1654 14.0494 25.3138 13.9031 25.4318C13.587 25.6437 13.2258 25.779 12.8483 25.8268C12.8483 25.8268 14.2231 26.1073 14.3772 28.1379C14.373 28.6538 14.4965 29.1628 14.7367 29.6194L14.7485 29.5997Z" fill="#222220"/>
<path d="M7.62117 16.5306C7.77288 16.5317 7.92373 16.5077 8.06759 16.4595C8.44662 16.2926 8.76813 16.0178 8.99204 15.6694C9.2897 15.2572 9.6723 14.9137 10.114 14.662L10.6671 14.3657L10.1535 14.0062C9.87065 13.8233 9.54217 13.7234 9.20537 13.7178C8.98907 13.7195 8.77543 13.7656 8.57768 13.8533C8.37993 13.941 8.20228 14.0683 8.05574 14.2274C7.65863 14.6866 7.11632 14.9961 6.51895 15.1044L5.96191 15.1597L6.19105 15.6694C6.32649 15.932 6.53153 16.1524 6.78375 16.3064C7.03597 16.4603 7.32566 16.542 7.62117 16.5425M8.32833 14.5158C8.43879 14.3923 8.57391 14.2933 8.72497 14.2253C8.87604 14.1572 9.03969 14.1216 9.20537 14.1207C9.46908 14.1183 9.72804 14.1909 9.95204 14.3301C8.83401 14.9267 8.60488 15.8827 7.97673 16.096C7.87271 16.1329 7.76313 16.1516 7.65278 16.1514C7.43108 16.1494 7.21399 16.0878 7.02425 15.9731C6.8345 15.8584 6.67908 15.6949 6.57426 15.4995C7.26598 15.3847 7.89679 15.0344 8.35994 14.5079" fill="#222220"/>
<path d="M10.1302 20.983C10.0621 19.7273 10.3732 18.4803 11.023 17.4037C10.8208 17.9874 10.7907 18.617 10.9364 19.2173C11.0821 19.8176 11.3974 20.3633 11.8448 20.7894C11.8448 20.7894 9.65216 18.1622 12.7178 15.4718C13.9425 14.4486 15.2818 13.8165 15.9731 13.3662C13.4803 14.18 12.2596 13.2832 12.2596 13.2832C12.6043 13.5521 13.0031 13.7432 13.4286 13.8435C13.8541 13.9437 14.2963 13.9507 14.7248 13.8639C14.5509 13.9469 14.3692 14.0378 14.1756 14.1405C12.0699 15.2822 10.1815 17.1627 9.85759 19.7662V19.7464C9.36771 22.3025 8.27734 22.9583 8.27734 22.9583C9.14253 22.5316 9.68771 21.3978 9.82204 20.983C9.96821 23.2309 11.0625 24.7874 12.3465 26.2886C12.7387 26.7397 13.044 27.2594 13.2472 27.8215C13.141 27.2542 12.8983 26.7214 12.5401 26.2689C11.3549 24.8309 10.2092 23.0412 10.1262 20.9751" fill="#222220"/>
<path d="M19.9072 15.7168V16.2343C19.9756 16.1682 20.058 16.1183 20.1482 16.0882C20.2385 16.0581 20.3343 16.0486 20.4287 16.0605V16.8032C20.4258 16.9875 20.3769 17.1681 20.2865 17.3286H21.0134C20.9237 17.1678 20.8749 16.9874 20.8712 16.8032V16.0605C20.9656 16.0486 21.0614 16.0581 21.1517 16.0882C21.2419 16.1183 21.3243 16.1682 21.3927 16.2343V15.7168H19.9072Z" fill="#222220"/>
<path d="M19.5873 12.655C19.7032 12.7549 19.8374 12.8314 19.9824 12.8802L20.0772 12.9237V12.4338L19.2041 12.0664C19.2254 12.1866 19.2715 12.3011 19.3395 12.4024C19.4075 12.5038 19.496 12.5898 19.5992 12.655" fill="#222220"/>
<path d="M21.6655 12.655C21.7689 12.59 21.8574 12.504 21.9255 12.4026C21.9935 12.3012 22.0396 12.1867 22.0606 12.0664L21.1875 12.4338V12.9197L21.2784 12.8763C21.4236 12.828 21.5579 12.7515 21.6734 12.6511" fill="#222220"/>
<path d="M23.2419 10.6759C23.2419 9.93714 22.0014 9.27344 20.6305 9.27344C19.2597 9.27344 18.0192 9.93714 18.0192 10.6759L18.0468 10.8576L18.5959 14.0181L18.0468 14.3381L16.6127 15.1599C16.6127 15.1599 16.2927 15.3258 16.1426 15.4245C15.6014 15.8196 15.4868 16.349 15.7989 16.5742C15.8367 16.3136 15.9692 16.076 16.171 15.9069C16.3729 15.7378 16.63 15.6491 16.8932 15.6576C17.1174 15.6637 17.337 15.7227 17.5341 15.8298C17.7311 15.9369 17.9001 16.0891 18.0271 16.2739C18.1044 16.3694 18.1757 16.4697 18.2404 16.5742C18.3234 16.7085 18.4063 16.827 18.4853 16.9416H14.835C15.1427 17.4723 15.3226 18.0675 15.3604 18.6799V26.7747C15.3604 28.75 16.8695 29.6744 18.5209 29.6744C19.7811 29.6744 19.951 29.6152 20.6503 30.3105C21.3416 29.6152 21.5115 29.6744 22.7757 29.6744C24.4073 29.6744 25.9164 28.7381 25.9164 26.7747V18.668C25.9542 18.0556 26.1341 17.4605 26.4419 16.9297H22.7559C22.8389 16.8152 22.9219 16.6966 23.0009 16.5623C23.0665 16.4585 23.1377 16.3582 23.2142 16.2621C23.3415 16.0775 23.5104 15.9254 23.7074 15.8184C23.9044 15.7113 24.1239 15.6521 24.348 15.6458C24.611 15.6381 24.8677 15.7272 25.0694 15.8961C25.2711 16.065 25.4038 16.3021 25.4424 16.5623C25.7584 16.3371 25.6438 15.7722 25.0987 15.4127C24.9643 15.31 24.6364 15.1599 24.6364 15.1599L23.2142 14.3302L22.6651 14.0102L23.2142 10.8497L23.2419 10.6759ZM18.5485 11.0394L20.4725 11.6912V14.7134L19.0384 13.9747L18.5485 11.0394ZM18.9436 17.4591C19.202 17.729 19.5161 17.9393 19.8641 18.0754C19.7901 18.3369 19.8083 18.6158 19.9155 18.8655C20.0443 19.1295 20.2689 19.3344 20.5436 19.4384C20.5693 19.6601 20.6571 19.8701 20.7969 20.0441C20.9367 20.2181 21.1228 20.3492 21.3337 20.4221L20.7569 20.9673L18.5525 20.9317C18.4793 20.8968 18.4186 20.8403 18.3787 20.7697V20.7421L18.7382 20.8013H18.7619C18.7958 20.8018 18.8288 20.7901 18.8549 20.7684C18.881 20.7467 18.8984 20.7163 18.9041 20.6828C18.9099 20.6452 18.9007 20.6068 18.8785 20.5758C18.8564 20.5448 18.8231 20.5237 18.7856 20.5169L18.3431 20.4458L18.833 18.751L18.3668 17.7712L17.6201 18.5613L17.5727 20.3233L17.0631 20.2443C17.0444 20.2409 17.0252 20.2413 17.0067 20.2455C16.9881 20.2496 16.9706 20.2575 16.9551 20.2685C16.9396 20.2796 16.9266 20.2936 16.9166 20.3098C16.9066 20.326 16.9 20.344 16.8972 20.3628C16.8914 20.4005 16.9006 20.4389 16.9227 20.4699C16.9449 20.5009 16.9782 20.522 17.0157 20.5287L17.2251 20.5604C17.15 20.6038 17.0987 20.6354 17.0947 20.6433L17.0631 20.6907V20.7421C17.0148 20.962 17.0316 21.1913 17.1116 21.4018C17.1916 21.6123 17.3313 21.7949 17.5135 21.9273V21.9905C17.5021 22.0653 17.5205 22.1416 17.5648 22.203C17.6092 22.2643 17.6759 22.3058 17.7505 22.3184H17.7979C17.8618 22.318 17.9236 22.2959 17.9731 22.2557C18.0227 22.2155 18.057 22.1595 18.0705 22.0971C18.1639 22.1026 18.2576 22.1026 18.351 22.0971H18.4103L21.3021 22.6186L21.3495 22.587C21.5787 22.425 22.4597 21.7969 22.748 21.5717C22.8316 21.6444 22.9247 21.7056 23.0246 21.7534C22.9582 21.9568 22.9481 22.1744 22.9954 22.3831C23.0427 22.5917 23.1456 22.7837 23.2932 22.9386H15.8779V18.668C15.8615 18.2526 15.7719 17.8434 15.6132 17.4591H18.9436ZM22.4992 21.3505C22.2068 21.5678 21.4522 22.1169 21.1797 22.3065L18.5525 21.8324V21.7613C18.5977 21.5844 18.6216 21.4027 18.6236 21.2201L20.832 21.2557L20.8755 21.2122C20.9071 21.1806 21.6103 20.5011 21.9658 20.1139C22.059 20.2306 22.1712 20.3308 22.2977 20.4102C22.2365 20.7346 22.3031 21.07 22.4834 21.3465M18.1219 20.8962C18.1794 21.0075 18.267 21.1006 18.3747 21.1648C18.3714 21.3251 18.3556 21.485 18.3273 21.6428C18.3273 21.6784 18.3273 21.7139 18.2997 21.7495V21.8048C18.1199 21.8054 17.9412 21.7774 17.7703 21.7218C17.6162 21.6388 17.4913 21.5107 17.4122 21.3546C17.3331 21.1986 17.3036 21.022 17.3278 20.8487C17.4696 20.7592 17.6308 20.705 17.7979 20.6907C17.8678 20.6892 17.9363 20.7098 17.9937 20.7495C18.0512 20.7893 18.0947 20.8461 18.1179 20.912M17.8532 20.3707L17.8967 18.6759L18.2918 18.2808L18.5288 18.7786L18.0587 20.4023L17.8532 20.3707ZM22.4992 29.149H22.1041L22.4162 28.1969C22.4636 28.0626 22.2187 27.8887 22.1159 27.7347C22.3579 27.879 22.6071 28.0109 22.8626 28.1297C22.8626 28.1613 22.4992 29.1648 22.4992 29.1648M23.4829 28.0586L23.2774 29.1253C23.1471 29.1253 23.0088 29.1529 22.8824 29.1569L23.0997 28.1337C23.1629 27.8295 22.3451 27.7386 21.9421 27.1342C21.8125 27.2424 21.6626 27.3237 21.5011 27.3732C21.3396 27.4228 21.1699 27.4395 21.0019 27.4226C20.7033 27.4186 20.4057 27.3869 20.113 27.3278C20.063 27.3238 20.0128 27.3238 19.9629 27.3278C19.9021 27.3234 19.8412 27.3363 19.7874 27.3649C19.7336 27.3936 19.689 27.4368 19.6587 27.4897L19.5994 27.5885L18.4853 27.3278L18.2088 27.786C18.1877 27.8172 18.1781 27.8548 18.1817 27.8923C18.1853 27.9298 18.2019 27.9649 18.2285 27.9915L18.3036 28.0744C18.2301 28.2202 18.1341 28.3535 18.0192 28.4695L17.8532 28.2483C17.788 28.1499 17.7532 28.0344 17.7532 27.9164C17.7532 27.7984 17.788 27.6829 17.8532 27.5845L18.2957 26.8379L19.2399 26.9722L19.0937 26.6364C18.8962 26.1939 19.1964 25.6329 19.228 25.309C19.228 25.4078 19.1253 25.4275 19.0226 25.4275C18.9199 25.4275 18.8211 25.4275 18.75 25.4275C18.7294 25.4216 18.7075 25.4216 18.6868 25.4275L18.43 25.5816L18.2483 25.4038C18.2334 25.3758 18.228 25.3436 18.233 25.3123C18.238 25.2809 18.2531 25.252 18.2759 25.23L18.7421 24.7045L18.189 24.0606L18.9792 24.4557L19.2162 24.1712C19.2794 24.2344 19.2518 24.4004 19.2518 24.4004C19.529 24.4702 19.7742 24.6322 19.9472 24.8597C20.1202 25.0873 20.2107 25.3669 20.2038 25.6527C20.2038 25.6804 20.2038 25.708 20.2038 25.7396V25.7673C20.2827 25.8926 20.4075 25.9819 20.5515 26.0162L21.6182 26.1228C21.8296 26.0577 22.0464 26.0114 22.2661 25.9846C22.4571 25.9855 22.6437 26.0417 22.8034 26.1465C22.8781 26.0955 22.9658 26.0667 23.0562 26.0636H23.0918C23.5698 26.0636 23.7713 26.4981 24.028 26.8537C24.2216 27.1263 24.4784 27.5332 24.4784 27.5332C24.4423 27.5881 24.393 27.6331 24.335 27.6642C24.2771 27.6952 24.2123 27.7113 24.1466 27.711C24.1006 27.7156 24.0543 27.7156 24.0083 27.711C23.4947 27.6162 23.4197 26.5613 23.1273 26.4784H23.0799C23.0522 26.4792 23.0252 26.4873 23.0016 26.5019C22.9781 26.5164 22.9587 26.5369 22.9456 26.5613C23.0799 26.9208 23.0009 27.067 23.1471 27.3515C23.2548 27.5222 23.388 27.6754 23.5421 27.8058C23.5421 27.8058 23.5224 27.9599 23.4987 28.0784M17.7426 27.0354L17.79 27.1579C17.7584 27.2645 17.395 27.4186 17.395 27.4186L17.3159 27.2448C17.2656 27.125 17.257 26.9917 17.2914 26.8664C17.3257 26.741 17.4012 26.6308 17.5056 26.5534L18.1061 26.19L18.7421 26.3243C18.7386 26.4506 18.7776 26.5744 18.8527 26.6759L18.1851 26.5495L17.79 26.826C17.7596 26.8515 17.7392 26.887 17.7327 26.9261C17.7262 26.9652 17.7339 27.0054 17.7545 27.0394M23.5935 29.0542L23.7792 28.0981C23.7792 28.0428 23.7989 27.9757 23.8068 27.9203C23.8601 27.9433 23.9158 27.9605 23.9727 27.9717C24.0358 27.9776 24.0993 27.9776 24.1624 27.9717C24.2686 27.9713 24.3734 27.9465 24.4686 27.8992C24.5638 27.8519 24.6469 27.7835 24.7115 27.6991L24.8537 27.5371L24.7392 27.3594C24.7392 27.3594 24.4745 26.9406 24.2809 26.6641L24.1703 26.4981C24.076 26.2905 23.9284 26.1116 23.7424 25.9797C23.5563 25.8478 23.3386 25.7677 23.1115 25.7475H23.0601C22.9805 25.7518 22.902 25.7677 22.8271 25.7949C22.657 25.7128 22.4707 25.6696 22.2819 25.6685C22.0928 25.6729 21.9059 25.7089 21.7288 25.7752L21.634 25.8028L20.591 25.7001C20.5483 25.6793 20.5116 25.6481 20.4843 25.6092L20.7095 25.5184C20.6463 24.7678 19.9194 24.3055 19.5243 24.1475C19.5065 24.0664 19.4653 23.9922 19.4058 23.9342L19.1806 23.7208L18.9831 23.9579L18.8843 24.0764L17.4226 23.4759L18.3708 24.6611L17.9955 25.23C17.9761 25.2491 17.9607 25.2718 17.9503 25.2969C17.9398 25.322 17.9344 25.349 17.9344 25.3762C17.9344 25.4033 17.9398 25.4303 17.9503 25.4554C17.9607 25.4805 17.9761 25.5032 17.9955 25.5223L18.3905 25.791L18.7856 25.6408H18.8251C18.8251 25.7001 18.7816 25.9411 18.7619 26.0083L18.0666 25.87L17.3357 26.265C17.166 26.3849 17.045 26.5618 16.995 26.7634C16.9449 26.9651 16.9691 27.178 17.0631 27.3633L17.1461 27.5411L17.2606 27.79L17.5174 27.6833C17.47 27.8087 17.4552 27.9442 17.4746 28.0769C17.4939 28.2096 17.5468 28.3352 17.628 28.4418L17.7821 28.6354L17.9876 28.8962L18.2167 28.6512C18.3663 28.5031 18.4858 28.3274 18.5683 28.1337L18.6157 27.9757L18.5051 27.8532V27.8295L18.6315 27.6241L19.5401 27.8374L19.7456 27.8848L19.8562 27.7031L19.9155 27.6043C19.9155 27.5845 19.9155 27.5806 19.9708 27.5806H20.0695C20.3792 27.6424 20.694 27.6754 21.0098 27.6794C21.2219 27.691 21.4345 27.6656 21.6379 27.6043L22.1159 28.1969L21.8038 29.1174V29.1727C21.5822 29.1685 21.3621 29.211 21.1579 29.2974C20.9537 29.3839 20.77 29.5123 20.6187 29.6744C20.1327 29.1924 19.793 29.145 18.4893 29.145C16.9327 29.145 15.8779 28.2325 15.8779 26.7747V23.2191H25.3594V26.7747C25.3812 27.3044 25.2133 27.8245 24.886 28.2416C24.5587 28.6587 24.0934 28.9454 23.5737 29.0502M25.6241 17.4591C25.4644 17.843 25.3747 18.2525 25.3594 18.668V21.3268C25.1913 21.2911 25.0395 21.2016 24.9268 21.0718C24.8142 20.9421 24.7469 20.7792 24.7352 20.6078V20.4853H24.6167C24.4124 20.4677 24.2214 20.3764 24.0794 20.2285C23.9047 20.0278 23.8067 19.7716 23.8029 19.5055C23.72 19.6409 23.6798 19.7981 23.6875 19.9567C23.6953 20.1152 23.7506 20.2678 23.8463 20.3944C23.9997 20.5902 24.2239 20.7179 24.4705 20.75C24.5044 20.972 24.6093 21.1771 24.7696 21.3345C24.9298 21.4919 25.1368 21.5932 25.3594 21.6231V22.9268H23.7278C23.5187 22.8212 23.3582 22.6393 23.2795 22.4187C23.2008 22.1981 23.21 21.9556 23.3051 21.7416L23.3683 21.5994L23.2221 21.5441C22.9942 21.4639 22.8063 21.2985 22.698 21.0826C22.5897 20.8667 22.5694 20.6171 22.6414 20.3865L22.673 20.268L22.5624 20.2166C22.3597 20.0984 22.1967 19.9226 22.094 19.7116C21.9913 19.5006 21.9536 19.2639 21.9856 19.0315C21.8751 19.1399 21.8021 19.2807 21.7772 19.4335C21.7524 19.5863 21.7769 19.743 21.8473 19.8808C21.7683 19.9678 21.6656 20.0784 21.551 20.1929C21.3535 20.1498 21.1757 20.0429 21.0451 19.8887C20.9144 19.7344 20.8381 19.5415 20.828 19.3396V19.229L20.7372 19.1934C20.6171 19.156 20.5061 19.0942 20.4109 19.012C20.3158 18.9297 20.2386 18.8288 20.1841 18.7154C20.1076 18.5328 20.0937 18.33 20.1446 18.1386C20.2227 18.1561 20.3019 18.1679 20.3816 18.1742C20.4619 18.1783 20.5423 18.1783 20.6226 18.1742C20.9388 18.1735 21.2514 18.1063 21.5399 17.9769C21.8285 17.8476 22.0867 17.6591 22.2977 17.4236L25.6241 17.4591ZM23.0759 14.7648L23.7239 15.1599L23.8858 15.2547C23.5498 15.3463 23.2452 15.528 23.0048 15.7801L22.989 15.792C22.9337 15.8512 22.8824 15.9105 22.831 15.9737L22.7994 16.0132C22.7494 16.0764 22.702 16.1422 22.6572 16.2107L22.6335 16.2463C22.5782 16.3253 22.5268 16.4122 22.4755 16.4991C22.2988 16.8509 22.0358 17.1521 21.7111 17.3746C21.3864 17.5971 21.0105 17.7335 20.6187 17.7712C20.2282 17.7323 19.854 17.5952 19.5307 17.3728C19.2075 17.1504 18.9457 16.8498 18.7698 16.4991C18.7184 16.4122 18.6671 16.3292 18.6157 16.2502L18.5841 16.2068L18.4458 16.0171L18.4103 15.9737C18.3589 15.9105 18.3076 15.8512 18.2562 15.7959L18.2483 15.7643C18.0076 15.5135 17.703 15.3332 17.3673 15.2428L17.5332 15.148L18.1811 14.7529L18.8448 14.3579L20.6187 15.3574L22.3964 14.3895L23.0759 14.7648ZM22.1989 13.9747L20.7806 14.7213V11.6912L22.7046 11.0394L22.1989 13.9747ZM20.6187 11.3673L18.513 10.5337C18.6908 10.111 19.5204 9.74356 20.6187 9.74356C21.7169 9.74356 22.5466 10.107 22.7283 10.5337L20.6187 11.3673Z" fill="#222220"/>
</g>
<defs>
<clipPath id="clip0_2057_47834">
<rect x="4.5" y="5.77734" width="32" height="28.4444" rx="14.2222" fill="white"/>
</clipPath>
</defs>
</svg>
