<svg width="210" height="46" fill="none" xmlns="http://www.w3.org/2000/svg"><g clip-path="url(#clip0_1487_69260)"><path opacity=".968" fill-rule="evenodd" clip-rule="evenodd" d="M144.219 10.297c7.382.027 10.862 3.744 10.441 11.15-.696 3.929-2.965 6.397-6.809 7.402-4.094.847-7.453-.341-10.077-3.564-2.109-3.82-2.048-7.598.181-11.332 1.616-2.047 3.704-3.266 6.264-3.656zm.182 4.935c2.605-.331 4.269.766 4.993 3.29.502 2.641-.436 4.5-2.814 5.575-2.674.405-4.338-.723-4.993-3.382-.351-2.523.587-4.35 2.814-5.483z" fill="#29AD64"/><path opacity=".971" fill-rule="evenodd" clip-rule="evenodd" d="M115.168 10.48c.85-.031 1.697 0 2.542.09l6.809 7.22 6.809-7.22a17.744 17.744 0 0 1 2.542-.09v18.278h-5.084c.03-2.986 0-5.972-.091-8.957a48.871 48.871 0 0 1-3.359 3.565 3.693 3.693 0 0 1-1.634 0l-3.359-3.748a230.175 230.175 0 0 0-.091 9.14h-5.084V10.479z" fill="#29AD64"/><path opacity=".97" fill-rule="evenodd" clip-rule="evenodd" d="M157.111 10.48c.669-.031 1.335 0 1.998.09l9.169 8.866c.091-2.924.121-5.849.091-8.774h5.084V28.94c-.729.03-1.455 0-2.179-.091l-8.988-8.682a203.354 203.354 0 0 0-.091 8.59h-5.084V10.48z" fill="#29AD64"/><path opacity=".968" fill-rule="evenodd" clip-rule="evenodd" d="M49.62 10.78c3.027-.031 6.054 0 9.08.09 4.35.575 6.015 2.982 4.992 7.22a5.228 5.228 0 0 1-1.361 1.463c2.345 1.2 3.162 3.089 2.45 5.666-.973 2.06-2.577 3.31-4.81 3.747-.93.175-1.869.266-2.815.274a69.947 69.947 0 0 1-7.535-.73V10.78zm5.085 4.569c.97-.03 1.938 0 2.905.091.836.115 1.38.572 1.634 1.371-.207.543-.57.939-1.09 1.188a32.659 32.659 0 0 1-3.45.091v-2.74zm0 6.397c1.272-.03 2.543 0 3.813.092 1.283.602 1.405 1.394.363 2.376-1.301.541-2.633.602-3.995.183a10.146 10.146 0 0 1-.181-2.65z" fill="#000"/><path opacity=".944" fill-rule="evenodd" clip-rule="evenodd" d="M67.142 10.767h13.073v4.386h-7.807v2.56h6.9v4.02h-6.9v2.56h7.807v4.57H67.142V10.766z" fill="#000"/><path opacity=".946" fill-rule="evenodd" clip-rule="evenodd" d="M82.351 10.767h13.073v4.386h-7.989v2.56h7.081v4.02h-7.08v2.56h7.988v4.57H82.351V10.766z" fill="#000"/><path opacity=".962" fill-rule="evenodd" clip-rule="evenodd" d="M97.561 10.78c2.785-.031 5.569 0 8.352.09 3.161.079 5.31 1.572 6.446 4.479.792 3.342-.389 5.657-3.541 6.945l4.721 6.398a34.854 34.854 0 0 1-6.173.091l-4.63-6.854c-.091 2.314-.121 4.63-.091 6.946h-5.084V10.779zm5.084 4.934c1.091-.03 2.181 0 3.268.092 1.295.374 1.689 1.197 1.181 2.467-1.311.982-2.734 1.165-4.267.549a13.423 13.423 0 0 1-.182-3.108z" fill="#000"/><path opacity=".948" fill-rule="evenodd" clip-rule="evenodd" d="M175.813 10.662h13.073v4.387h-7.989v2.56h7.081v4.02h-7.081v2.56h7.989v4.57h-13.073V10.661z" fill="#29AD64"/><path opacity=".956" fill-rule="evenodd" clip-rule="evenodd" d="M209.222 10.662v.731c-2.25 3.614-4.46 7.27-6.627 10.967-.091 2.132-.122 4.264-.091 6.398h-5.084c.031-2.073 0-4.145-.091-6.215a290.78 290.78 0 0 1-6.809-11.881c1.937-.03 3.875 0 5.81.091a314.3 314.3 0 0 1 3.541 6.306 106.972 106.972 0 0 0 3.541-6.306c1.935-.091 3.872-.122 5.81-.091z" fill="#29AD64"/><path opacity=".943" fill-rule="evenodd" clip-rule="evenodd" d="M107.361 30.586c5.027-.088 7.054 2.35 6.082 7.312-1.528 2.87-3.858 3.814-6.99 2.833-2.366-1.26-3.365-3.24-2.996-5.94.528-2.146 1.829-3.548 3.904-4.205zm.726 2.742c1.466-.1 2.343.57 2.633 2.01-.003 2.565-1.183 3.387-3.541 2.468-1.202-1.83-.899-3.323.908-4.478z" fill="#000"/><path opacity=".954" fill-rule="evenodd" clip-rule="evenodd" d="M143.674 30.585c.488-.03.972.001 1.453.092a56.562 56.562 0 0 0 3.722 3.93 56.562 56.562 0 0 0 3.722-3.93 5.852 5.852 0 0 1 1.453-.092v10.236h-2.905c.03-1.585 0-3.17-.091-4.752-.451.63-.965 1.21-1.543 1.736a2.253 2.253 0 0 1-1.271 0 10.465 10.465 0 0 0-1.544-1.736 62.252 62.252 0 0 0-.091 4.752h-2.905V30.585z" fill="#000"/><path opacity=".946" fill-rule="evenodd" clip-rule="evenodd" d="M92.932 30.769h7.081v2.742h-4.176v1.462h3.45v2.559h-3.45v3.29h-2.905V30.77z" fill="#000"/><path opacity=".95" fill-rule="evenodd" clip-rule="evenodd" d="M117.892 30.769a34.135 34.135 0 0 1 5.81.274c2.356.958 3.052 2.634 2.088 5.026a3.861 3.861 0 0 1-1.724 1.189l2.723 3.472c-1.21.122-2.421.122-3.631 0l-2.27-3.381a33.263 33.263 0 0 0-.091 3.473h-2.905V30.769zm2.905 2.742a5.032 5.032 0 0 1 1.998.274c.526.577.465 1.064-.182 1.462a9.105 9.105 0 0 1-1.816.091V33.51z" fill="#000"/><path opacity=".941" fill-rule="evenodd" clip-rule="evenodd" d="M130.239 30.769h2.905c-.03 2.133 0 4.266.091 6.397.21.792.725 1.158 1.543 1.097.818.06 1.333-.305 1.543-1.097.091-2.131.121-4.264.091-6.397h2.905a57.125 57.125 0 0 1-.272 7.677c-.837 1.808-2.26 2.661-4.267 2.559-2.007.102-3.43-.75-4.267-2.56a57.125 57.125 0 0 1-.272-7.676z" fill="#000"/><path opacity=".872" fill-rule="evenodd" clip-rule="evenodd" d="M50.166 35.338h35.95V36.8h-35.95v-1.462zm115.297 0h35.951V36.8h-35.951v-1.462z" fill="#29AD64"/><path d="M11.155 7.829l10.477-2.797 13.25 2.797v9.293H11.156V7.83z" fill="#29AD64"/><path d="M17.57 3.234C5.64 5.427-1.758 17.882 2.072 29.256c2.865 8.566 10.204 13.887 19.15 13.887 5.088 0 9.21-1.49 13.187-4.795l1.871-1.578 4.474 1.637c2.456.877 4.531 1.52 4.62 1.462.087-.088-1.053-2.193-2.544-4.65l-2.661-4.502.614-2.69c1.111-4.912.672-9.414-1.374-13.683a20.34 20.34 0 0 0-14.678-11.14c-2.69-.467-4.502-.467-7.163.03zm2.397 3.86c.584.262 1.198.876 1.49 1.461.264.556.907 1.199 1.58 1.55l1.11.585.469-.907c.906-1.783 3.83-2.105 5.233-.555.292.321.877.584 1.287.584 1.607.03 2.25 1.17 2.222 3.947v1.755L22.16 15.6c-6.14.03-11.17-.029-11.17-.146 0-.848.702-2.427 1.112-2.543.292-.117.643-.614.79-1.14.204-.615.584-1.053 1.198-1.346.555-.233 1.082-.818 1.462-1.608.35-.79.906-1.374 1.579-1.696 1.257-.643 1.55-.643 2.836-.029zM16.37 18.056c.38.614.965 4.328 1.491 9.473.176 1.55.117 1.813-.321 1.989-.468.175-.468.204 0 .555.555.41.994 3.947.643 5.292-.175.76-.263.79-1.988.702l-1.813-.088-.204-1.023c-.117-.556-.351-2.398-.556-4.094-.38-3.625-1.55-9.063-2.485-11.607l-.673-1.842h2.749c2.514 0 2.777.059 3.157.643zM20.64 18c0 .322.058.585.145.585.088 0 .41-.264.731-.585.731-.731 1.93-.76 2.398-.03.35.556.35.556 1.052 0 .41-.292 1.024-.555 1.374-.555 1.287 0 1.375.497.878 5.058-.234 2.34-.527 6.345-.614 8.947l-.205 4.707h-1.754l.204-4.473c.088-2.427.264-6.11.351-8.187.176-3.567.176-3.713-.38-3.713-.555 0-.585.263-.76 4.006a186.466 186.466 0 0 0-.205 8.186v4.21l-.79-.087-.818-.088-.146-8.04c-.146-7.807-.175-8.04-.73-8.04-.41 0-.556.175-.527.555.029.322.146 3.976.263 8.128l.205 7.543H19.47v-3.45c0-3.245-.702-12.718-1.053-14.472-.146-.76-.117-.79 1.023-.79.994 0 1.2.088 1.2.585zm14.793-.117c-.087.263-.263.79-.35 1.17-.176.643-.322.701-1.872.701-1.754 0-2.046.205-2.046 1.491 0 .468.204.556 1.49.556h1.492l-.205.935c-.292 1.375-.321 1.404-1.9 1.404-1.257 0-1.462.088-1.608.643-.293 1.345-.702 5.146-.907 8.187l-.204 3.157h-.819c-.468 0-.848-.146-.848-.321 0-4.269 1.55-16.724 2.222-17.748.38-.584.643-.643 3.07-.643 2.31 0 2.632.059 2.485.468zm-25.027 3.362c0 .702-.146.936-.877 1.2-.497.145-1.024.525-1.17.818-.175.292-.292 2.514-.292 4.94 0 4.708.117 5.088 1.637 5.468.526.146.702.38.702 1.024 0 .701-.117.848-.702.848-.877 0-2.543-1.14-3.011-2.047-.497-.965-.527-9.912-.03-10.935.351-.819 1.375-1.579 2.544-1.93 1.17-.38 1.199-.35 1.199.614zm19.59 17.367v1.316H13.33v-2.632h16.665v1.316z" fill="#000"/><path d="M13.71 20.542c.088.468.468 2.427.819 4.386.555 3.011.76 3.596 1.198 3.596.41 0 .497-.175.38-.818-.058-.439-.263-1.725-.438-2.836-.673-4.415-.877-5.117-1.52-5.117-.498 0-.556.146-.44.79zm1.783 11.52c.088.497.176 1.111.176 1.316 0 .234.204.41.438.41.322 0 .439-.352.439-1.316 0-1.14-.088-1.316-.614-1.316-.556 0-.614.117-.439.906z" fill="#000"/></g><defs><clipPath id="clip0_1487_69260"><path fill="#fff" transform="translate(.688 .518)" d="M0 0h208.625v44.965H0z"/></clipPath></defs></svg>