<svg width="242" height="44" fill="none" xmlns="http://www.w3.org/2000/svg"><path d="M19.978 1.54c-.185.014-.385.039-.438.063-.054.025-.263.059-.463.078-.58.044-1.433.18-1.467.23a.076.076 0 0 1-.073.033c-.063-.02-.95.166-1.14.234-.112.044-.141.054-.536.16-.2.06-.458.147-.57.2a1.433 1.433 0 0 1-.258.093c-.058 0-.95.356-1.291.512-.843.394-1.988.989-2.485 1.29-.15.093-.316.19-.37.22-.049.024-.093.063-.093.083 0 .024-.024.039-.053.039-.03 0-.205.107-.39.243-.185.132-.35.244-.37.244-.015 0-.244.175-.507.39-.263.214-.492.39-.507.39a.977.977 0 0 0-.175.17c-.083.093-.175.17-.21.17-.063 0-2.202 2.125-2.284 2.276-.035.058-.254.326-.488.604-.238.278-.448.54-.463.58a.374.374 0 0 1-.116.136c-.05.034-.088.088-.088.117 0 .024-.132.23-.292.453-.161.224-.293.42-.293.439 0 .02-.073.146-.16.282-.234.38-.254.41-.546.945-.312.57-.902 1.788-.902 1.867a.43.43 0 0 1-.073.16 2.839 2.839 0 0 0-.175.429c-.054.17-.117.331-.136.36a3.04 3.04 0 0 0-.151.415c-.059.2-.137.428-.171.511a3.194 3.194 0 0 0-.122.414 3.326 3.326 0 0 1-.083.341.782.782 0 0 0-.039.099.76.76 0 0 1-.039.097 8.606 8.606 0 0 0-.112.56c-.043.268-.097.507-.117.532-.024.024-.029.073-.014.112.014.039.005.117-.025.175-.204.419-.336 4.248-.204 5.978.068.916.156 1.627.204 1.69.025.03.04.098.035.147a.35.35 0 0 0 .02.16c.014.04.062.293.111.56.044.269.102.512.122.537.02.029.073.204.117.39.083.375.404 1.383.463 1.461.02.025.063.137.097.244.034.107.137.37.23.584.145.337.262.61.267.643 0 .015.648 1.282.804 1.574.078.146.22.39.322.541.097.151.18.292.18.312 0 .02.097.175.219.346.122.165.22.326.22.355 0 .03.024.054.048.054.03 0 .068.049.093.112.024.059.185.288.365.512.175.219.322.419.322.443 0 .024.053.088.121.141.069.054.122.122.122.156 0 .078 2.894 2.972 2.972 2.972.034 0 .102.054.156.122.054.068.117.122.141.122.025 0 .224.146.444.321.224.18.438.336.477.351.039.015.253.156.473.312.214.156.414.282.443.282.024 0 .098.04.16.093.434.336 2.593 1.398 3.48 1.71.214.078.506.185.647.239.142.058.293.102.341.102.044 0 .147.034.23.078.131.068.599.19.974.253.083.01.17.04.2.064.029.024.355.087.73.146.37.058.712.122.756.141.457.234 6.294.234 6.84.005.053-.024.419-.092.818-.15.395-.06.717-.133.717-.152 0-.024.044-.044.092-.044.137 0 .945-.195 1.004-.243.03-.02.204-.078.39-.122.19-.044.384-.112.438-.142.054-.034.22-.097.366-.146.74-.238 2.747-1.208 3.4-1.642.117-.078.23-.14.249-.14.02 0 .16-.088.312-.196.146-.107.292-.195.316-.195.03 0 .059-.014.068-.039.01-.02.112-.097.234-.175.122-.078.322-.229.453-.331.127-.107.23-.18.23-.156 0 .02.053-.024.121-.098.063-.068.132-.126.151-.126.18 0 3.528-3.347 3.528-3.533 0-.019.053-.078.121-.131.069-.054.122-.117.122-.141 0-.025.122-.2.273-.395a3.86 3.86 0 0 0 .302-.429c.015-.039.146-.238.287-.443.142-.205.259-.385.259-.404 0-.02.058-.122.136-.24.239-.37 1.203-2.27 1.3-2.567l.064-.146c.103-.224.449-1.14.449-1.184a.77.77 0 0 1 .068-.195 9.71 9.71 0 0 0 .292-1.008.27.27 0 0 1 .039-.073c.015-.03.068-.249.112-.488.044-.243.093-.472.107-.511a.349.349 0 0 0 .02-.16c-.005-.05.01-.118.039-.147.058-.073.19-1.12.233-1.846.015-.293.05-.541.074-.556.058-.039.048-3.415-.015-3.454-.03-.02-.044-.176-.039-.37.005-.186-.005-.351-.02-.37-.019-.015-.034-.113-.034-.21 0-.298-.146-1.335-.204-1.447-.03-.059-.04-.137-.025-.176.015-.039.01-.087-.014-.112-.02-.024-.078-.258-.122-.521-.049-.258-.107-.473-.132-.473-.024 0-.039-.039-.034-.087a.416.416 0 0 0-.02-.156c-.014-.04-.062-.215-.111-.39a3.983 3.983 0 0 0-.141-.463 8.16 8.16 0 0 1-.171-.472c-.058-.186-.127-.341-.151-.36-.024-.016-.044-.06-.044-.103 0-.112-.385-.975-.799-1.803-.507-1.013-.565-1.125-.818-1.515a3.262 3.262 0 0 1-.234-.38c0-.015-.098-.166-.22-.331-.121-.171-.219-.337-.219-.366 0-.03-.024-.053-.048-.053-.03 0-.069-.05-.093-.112-.024-.059-.22-.317-.434-.58-.214-.258-.384-.478-.37-.492.01-.01-.068-.103-.175-.2-.108-.098-.195-.195-.195-.22 0-.058-2.573-2.586-2.631-2.586-.03 0-.268-.176-.531-.39-.263-.215-.497-.39-.526-.39-.03 0-.064-.034-.083-.073-.015-.039-.049-.073-.078-.073-.03 0-.195-.098-.36-.22-.171-.121-.337-.219-.366-.219-.03 0-.068-.034-.083-.073-.02-.039-.049-.073-.078-.073a1.09 1.09 0 0 1-.268-.136c-.443-.268-1.603-.867-2.426-1.252-.326-.156-1.233-.512-1.296-.512-.024 0-.136-.044-.248-.097a5 5 0 0 0-.595-.195 5.07 5.07 0 0 1-.492-.141c-.117-.054-.433-.127-.828-.2a2.432 2.432 0 0 1-.39-.098c-.117-.053-.984-.185-1.52-.224-.21-.02-.41-.058-.448-.083-.064-.053-3.732-.092-4.512-.053zm3.776 4.122c.093.014.224.039.292.053.069.015.351.064.634.107.282.044.545.093.584.112a.522.522 0 0 0 .122.035c.03.004.083.019.122.034.039.014.248.063.463.107.214.049.424.097.463.112.039.02.082.034.097.039l.098.039c.039.014.214.068.39.107.175.044.37.112.438.146.068.04.263.112.438.17.176.054.414.147.536.205.122.054.331.151.463.21.56.253 1.062.511 1.374.716.117.078.22.136.239.136.02 0 .204.122.414.268.21.147.395.268.414.268.03 0 .555.39 1.106.824.775.614 1.968 1.773 2.144 2.085.034.058.224.307.428.56.697.863 1.545 2.237 2.003 3.255.243.54.282.638.282.706 0 .04.025.073.05.073.028 0 .048.03.043.059a.69.69 0 0 0 .068.243.87.87 0 0 1 .083.244c0 .039.034.117.078.175.039.059.058.108.039.108-.015 0-.01.029.014.058.03.034.078.185.113.331.034.146.082.322.112.39a.66.66 0 0 1 .053.195.3.3 0 0 0 .04.122c.014.029.063.224.106.438.044.215.093.424.112.463a.802.802 0 0 1 .04.17c.01.054.038.186.068.293.024.107.082.473.126.814.108.842.083 3.6-.044 4.375a6.24 6.24 0 0 1-.112.584.53.53 0 0 0-.034.146.449.449 0 0 1-.034.122.995.995 0 0 0-.068.268 4.305 4.305 0 0 1-.16.682.793.793 0 0 0-.035.122.214.214 0 0 1-.034.098c-.015.024-.063.2-.112.39-.044.184-.107.37-.132.399-.029.034-.039.063-.02.063.02 0 0 .049-.038.107-.034.064-.078.17-.097.244a1.433 1.433 0 0 1-.088.268l-.064.16c-.004.015-.034.088-.063.162a.85.85 0 0 0-.058.16c0 .02-.273.619-.453.994-.059.122-.18.35-.273.512-.098.16-.205.35-.249.428-.136.244-.453.736-.726 1.121-.15.21-.346.482-.433.609-.312.443-1.058 1.286-1.564 1.778-.512.492-1.335 1.204-1.394 1.204-.02 0-.122.073-.234.165-.272.22-.9.663-.945.663a1 1 0 0 0-.18.112c-.302.234-1.793 1.057-1.905 1.057-.02 0-.141.054-.273.122-.131.063-.35.151-.487.19a1.351 1.351 0 0 0-.317.132c-.039.029-.068.039-.068.02 0-.02-.03-.015-.058.009-.034.03-.185.087-.332.131-.146.05-.302.098-.34.112a.848.848 0 0 1-.122.04.776.776 0 0 0-.171.058 2.93 2.93 0 0 1-.414.112 2.66 2.66 0 0 0-.341.088.273.273 0 0 1-.073.039.33.33 0 0 0-.098.034c-.039.014-.346.073-.682.131a8.28 8.28 0 0 0-.706.146c-.478.2-4.307.2-4.775 0-.053-.024-.37-.092-.706-.15-.336-.06-.634-.127-.663-.152-.034-.024-.078-.039-.097-.034a.28.28 0 0 1-.117-.02 5.054 5.054 0 0 0-.414-.111c-.186-.044-.366-.103-.395-.127-.034-.024-.078-.039-.097-.034a.264.264 0 0 1-.117-.015c-.103-.039-.55-.19-.61-.21a.197.197 0 0 0-.072-.004.533.533 0 0 1-.147-.083.482.482 0 0 0-.195-.083c-.043 0-.185-.053-.321-.117a9.559 9.559 0 0 0-.531-.229c-.726-.292-2.11-1.125-3.084-1.866-1.613-1.222-2.7-2.387-3.82-4.097-.433-.658-1.076-1.783-1.135-1.983a1.707 1.707 0 0 0-.122-.263 4.087 4.087 0 0 1-.214-.517 4.367 4.367 0 0 0-.2-.506.697.697 0 0 1-.073-.205c0-.034-.044-.15-.097-.263-.054-.107-.083-.22-.069-.239.015-.024.01-.043-.014-.043-.02 0-.083-.18-.132-.405a2.709 2.709 0 0 0-.131-.453c-.025-.03-.03-.068-.01-.083.015-.02.005-.058-.024-.092-.025-.034-.088-.263-.132-.502a4.186 4.186 0 0 0-.112-.512c-.015-.039-.02-.092-.015-.117a.284.284 0 0 0-.039-.146c-.268-.526-.268-4.896 0-5.393a.364.364 0 0 0 .04-.156.263.263 0 0 1 .019-.132c.014-.039.063-.277.112-.526.044-.243.102-.448.131-.448.025 0 .03-.034.015-.078a.163.163 0 0 1 .01-.136c.024-.03.083-.22.131-.42.05-.2.112-.394.142-.433.029-.039.048-.073.039-.073-.01-.005-.005-.039.01-.078.014-.039.068-.205.121-.365.054-.161.132-.361.17-.439a.667.667 0 0 0 .079-.21c0-.034.039-.13.082-.219a.588.588 0 0 0 .074-.2c-.01-.024.004-.058.024-.072.044-.035.21-.376.21-.439 0-.054.628-1.174.735-1.315a.405.405 0 0 0 .093-.161c0-.03.131-.23.292-.453.16-.224.292-.42.292-.439 0-.039.512-.697.994-1.286.385-.463 1.286-1.369 1.71-1.71.8-.648 1.223-.974 1.252-.974.02 0 .22-.127.439-.283a12.812 12.812 0 0 1 1.744-1.033c.122-.054.331-.151.463-.214.575-.268.702-.322 1.023-.424.19-.064.385-.137.438-.17.054-.03.254-.098.439-.142.19-.044.365-.102.39-.122a.26.26 0 0 1 .097-.049 8.823 8.823 0 0 1 .536-.122 5.43 5.43 0 0 0 .463-.111 1.3 1.3 0 0 1 .122-.04c.063-.024.74-.15 1.12-.214a3.2 3.2 0 0 1 .439-.048.5.5 0 0 0 .22-.05c.072-.048 2.947-.038 3.312.01z" fill="#000"/><path d="M13.425 9.238c-.726.122-1.223.404-1.876 1.062-.54.546-.993 1.179-1.505 2.11a25.984 25.984 0 0 0-1.773 4.131c-.147.458-.205.575-.41.8a2.582 2.582 0 0 0-.672 1.758c0 .2.054.692.117 1.096.063.4.185 1.165.268 1.7.185 1.18.268 1.52.458 1.93.258.555.852 1.062 1.51 1.296.302.107 1.12.16 3.98.263 3.294.117 3.942.122 4.4.02a3.993 3.993 0 0 0 2.032-1.175c.555-.6.857-1.194 1.096-2.158.244-.999.507-2.012.531-2.037.059-.053.867-.024.906.04.02.033.161.564.317 1.188.15.619.331 1.277.395 1.467.482 1.373 1.559 2.353 2.942 2.68.424.097 1.145.092 4.41-.025 2.845-.102 3.62-.156 3.97-.263a2.63 2.63 0 0 0 .921-.546c.57-.511.78-.989.96-2.212.068-.443.15-.97.19-1.17.039-.199.126-.76.2-1.237.126-.862.126-.877.048-1.29-.107-.527-.307-.95-.609-1.282-.214-.234-.268-.341-.516-1.062-.712-2.046-1.545-3.795-2.407-5.067-.41-.604-1.237-1.432-1.661-1.666-.673-.36-1.32-.444-1.973-.244-.76.23-1.136.882-.873 1.51.225.541.936.829 1.423.575.151-.078.16-.078.37.044.405.239.926.882 1.408 1.735.356.633.77 1.49 1 2.065.238.595.486 1.243.481 1.248l-3.054.117c-5.038.19-5.705.224-6.042.297-.385.087-.872.37-1.179.687l-.229.234h-.955l-.95-.005-.253-.249c-.36-.35-.765-.58-1.18-.667-.204-.044-.861-.098-1.587-.127l-6.295-.234c-.61-.02-1.12-.053-1.135-.068-.044-.044.141-.536.599-1.622.044-.108.248-.536.458-.95.614-1.238 1.286-2.173 1.764-2.456.21-.122.219-.122.404-.049.697.297 1.476-.229 1.476-.989-.005-.657-.575-1.12-1.486-1.198a2.392 2.392 0 0 0-.414-.005zm-1.9 9.495c1.525.05 6.144.225 6.899.259 1.082.053 1.15.131.92 1.037l-.238.97c-.195.794-.36 1.286-.521 1.525a1.848 1.848 0 0 1-.78.658c-.22.097-.857.219-.92.18-.015-.01-1.345-.063-2.953-.117-3.381-.117-3.693-.132-3.815-.21-.166-.102-.214-.253-.35-1.13-.074-.487-.205-1.306-.288-1.827-.151-.97-.156-1.16-.01-1.286.127-.112.239-.127.74-.107.254.014.848.034 1.316.049zm22.918-.024a.464.464 0 0 1 .205.176c.083.121.083.16.005.696-.18 1.262-.487 3.109-.531 3.23-.112.298-.015.288-3.474.415-1.74.063-3.318.117-3.508.121-.648.01-1.267-.273-1.603-.735-.278-.385-.234-.249-.716-2.14-.132-.516-.239-.983-.239-1.037 0-.049.063-.16.142-.248l.14-.156.722-.04c.4-.019 2.26-.087 4.136-.155 3.108-.117 3.669-.137 4.37-.166a.998.998 0 0 1 .351.04z" fill="#000"/><path d="M65.609 32H60.57l-7.587-10.604V32H48.56V11.085h4.423v10.136l7.499-10.136h4.716l-7.616 10.048L65.609 32zm.582-15.994h4.775L73.983 25c.097.293.176.586.234.88.078.292.137.595.176.907.058.313.098.645.117.996h.088c.059-.508.137-.986.234-1.435.118-.469.244-.918.381-1.348l2.959-8.992h4.687L76.092 34.05c-.41 1.093-.947 2.011-1.611 2.753a6.24 6.24 0 0 1-2.256 1.67c-.859.37-1.796.556-2.812.556-.488 0-.918-.029-1.289-.087a9.547 9.547 0 0 1-.937-.147V35.34c.215.039.469.078.762.117.312.039.634.058.966.058.606 0 1.123-.127 1.553-.38.449-.254.82-.606 1.113-1.055.293-.43.527-.898.703-1.406l.263-.79-6.356-15.878zm28.453-.292c1.796 0 3.251.703 4.364 2.109 1.114 1.386 1.67 3.437 1.67 6.151 0 1.816-.263 3.35-.79 4.599-.528 1.23-1.25 2.158-2.168 2.783-.918.625-1.983.937-3.193.937-.762 0-1.426-.097-1.992-.293a4.827 4.827 0 0 1-1.406-.761 7.099 7.099 0 0 1-1.025-.996h-.235a11.785 11.785 0 0 1 .234 2.343v6.444H85.74V16.006h3.544l.615 2.08h.206c.293-.43.644-.82 1.054-1.171.41-.371.898-.664 1.465-.88.586-.214 1.26-.321 2.02-.321zm-1.406 3.485c-.762 0-1.367.157-1.816.47-.45.312-.781.79-.996 1.434-.195.625-.303 1.416-.322 2.373v.469c0 1.035.097 1.914.293 2.636.195.703.527 1.24.995 1.611.47.371 1.104.557 1.904.557.664 0 1.211-.186 1.64-.557.43-.37.753-.918.967-1.64.215-.723.323-1.601.323-2.636 0-1.563-.244-2.734-.733-3.516-.468-.8-1.22-1.2-2.255-1.2zm18.126 13.094c-1.581 0-2.929-.283-4.042-.85-1.113-.585-1.963-1.484-2.548-2.694-.586-1.211-.879-2.764-.879-4.658 0-1.953.332-3.544.996-4.774.664-1.23 1.582-2.139 2.753-2.725 1.191-.585 2.558-.878 4.101-.878 1.094 0 2.041.107 2.842.322.82.215 1.533.468 2.138.761l-1.289 3.37a20.958 20.958 0 0 0-1.933-.675 6.09 6.09 0 0 0-1.758-.263c-.761 0-1.396.185-1.904.556-.508.352-.888.889-1.142 1.611-.235.703-.352 1.592-.352 2.666 0 1.054.127 1.933.381 2.636.273.684.664 1.201 1.172 1.553.508.332 1.123.498 1.845.498.918 0 1.728-.117 2.431-.352a10.038 10.038 0 0 0 2.051-1.025v3.72a6.705 6.705 0 0 1-2.109.908c-.723.196-1.64.293-2.754.293z" fill="#0679D6"/><path d="M132.885 32h-12.039V11.085h12.039v3.633h-7.616v4.599h7.089v3.632h-7.089v5.39h7.616V32zm15.073-15.994h4.804l-6.327 7.675 6.883 8.32h-4.95l-6.532-8.115V32h-4.365V16.006h4.365v7.763l6.122-7.762zm14.166 16.287c-1.582 0-2.929-.283-4.042-.85-1.114-.585-1.963-1.484-2.549-2.694-.586-1.211-.879-2.764-.879-4.658 0-1.953.332-3.544.996-4.774.664-1.23 1.582-2.139 2.754-2.725 1.191-.585 2.558-.878 4.101-.878 1.093 0 2.04.107 2.841.322.82.215 1.533.468 2.138.761l-1.288 3.37a20.972 20.972 0 0 0-1.934-.675 6.084 6.084 0 0 0-1.757-.263c-.762 0-1.397.185-1.904.556-.508.352-.889.889-1.143 1.611-.234.703-.351 1.592-.351 2.666 0 1.054.127 1.933.381 2.636.273.684.664 1.201 1.171 1.553.508.332 1.123.498 1.846.498.918 0 1.728-.117 2.431-.352a10.03 10.03 0 0 0 2.05-1.025v3.72a6.685 6.685 0 0 1-2.109.908c-.722.196-1.64.293-2.753.293zm23.659-16.287V32h-4.365V19.287h-5.8V32h-4.364V16.006h14.529zm11.756-.292c1.484 0 2.753.283 3.808.85a5.933 5.933 0 0 1 2.49 2.46c.586 1.074.879 2.392.879 3.954v2.11h-10.311c.039 1.23.4 2.196 1.084 2.9.703.702 1.669 1.054 2.899 1.054 1.035 0 1.973-.098 2.813-.293a14.29 14.29 0 0 0 2.607-.967v3.369a9.878 9.878 0 0 1-2.49.85c-.86.195-1.904.292-3.135.292-1.601 0-3.017-.293-4.247-.879a6.73 6.73 0 0 1-2.9-2.724c-.703-1.21-1.054-2.734-1.054-4.57 0-1.874.312-3.427.937-4.657.644-1.25 1.533-2.187 2.666-2.812 1.132-.625 2.45-.937 3.954-.937zm.029 3.105c-.839 0-1.542.273-2.109.82-.547.547-.869 1.396-.966 2.548h6.122c0-.644-.117-1.22-.352-1.728a2.617 2.617 0 0 0-.996-1.201c-.449-.293-1.015-.44-1.699-.44zm20.178-3.105c1.796 0 3.251.703 4.364 2.109 1.113 1.386 1.67 3.437 1.67 6.151 0 1.816-.264 3.35-.791 4.599-.527 1.23-1.25 2.158-2.168 2.783-.918.625-1.982.937-3.193.937-.761 0-1.425-.097-1.992-.293a4.843 4.843 0 0 1-1.406-.761 7.133 7.133 0 0 1-1.025-.996h-.234a11.784 11.784 0 0 1 .234 2.343v6.444h-4.364V16.006h3.544l.615 2.08h.205c.293-.43.645-.82 1.055-1.171.41-.371.898-.664 1.464-.88.586-.214 1.26-.321 2.022-.321zm-1.406 3.485c-.762 0-1.367.157-1.817.47-.449.312-.781.79-.996 1.434-.195.625-.302 1.416-.322 2.373v.469c0 1.035.098 1.914.293 2.636.195.703.527 1.24.996 1.611s1.103.557 1.904.557c.664 0 1.211-.186 1.64-.557.43-.37.752-.918.967-1.64.215-.723.322-1.601.322-2.636 0-1.563-.244-2.734-.732-3.516-.469-.8-1.22-1.2-2.255-1.2zm24.577.088h-5.243V32h-4.365V19.287h-5.243v-3.28h14.851v3.28z" fill="#000"/></svg>