<svg width="208" height="54" fill="none" xmlns="http://www.w3.org/2000/svg"><g clip-path="url(#clip0_1487_69229)"><path d="M.34 33.72v-3.505l9.435-.063a.613.613 0 0 0 .606-.536l.656-5.028a.389.389 0 0 0-.437-.437 31.568 31.568 0 0 1-8.209-.099c-.446-.066-.667-.324-.662-.775l.028-2.257a.684.684 0 0 1 .684-.677l8.807-.007a.67.67 0 0 0 .67-.606c.466-4.93 1.933-9.732 7.807-10.211 5.641-.466 13.088-1.15 12.058 7.418a339 339 0 0 1-2.778 18.687c-.684 3.85-2.807 6.114-6.756 6.918-3.14.644-6.034.637-8.68-.021-3.407-.84-5.043-4.781-3.879-7.884a.494.494 0 0 0-.508-.663A35.08 35.08 0 0 1 .34 33.72zm23.57-16.917a1.65 1.65 0 0 0-1.369-1.89l-.07-.011a1.65 1.65 0 0 0-1.89 1.368l-3.053 19.065a1.65 1.65 0 0 0 1.368 1.89l.07.011a1.65 1.65 0 0 0 1.89-1.368l3.054-19.065z" fill="url(#paint0_linear_1487_69229)"/><path d="M42.509 28.417l-1.975 14.435a.077.077 0 0 1-.077.07l-7.948-.19a.079.079 0 0 1-.053-.027.079.079 0 0 1-.017-.057l5.035-33.242a.077.077 0 0 1 .077-.064l7.75.064a.078.078 0 0 1 .078.091l-2.236 13.074a.078.078 0 0 0 .05.092l.127.035a.078.078 0 0 0 .091-.042l6.255-13.222a.078.078 0 0 1 .07-.042l7.603-.022a.077.077 0 0 1 .07.113l-7.207 14.802a.077.077 0 0 0-.007.042l2.18 18.49a.077.077 0 0 1-.023.062.078.078 0 0 1-.063.022l-7.82-.098a.077.077 0 0 1-.078-.07l-1.727-14.316a.077.077 0 0 0-.078-.077.077.077 0 0 0-.077.077z" fill="url(#paint1_linear_1487_69229)"/><path d="M87.548 17.537a.17.17 0 0 0 .096.187.19.19 0 0 0 .214-.039c1.852-1.989 4.184-2.616 6.995-1.883 2.997.776 2.624 4.88 2.222 7.419a2398.106 2398.106 0 0 0-2.955 19.37c-.033.222-.162.33-.388.325l-6.607-.17c-.583-.013-.828-.307-.734-.88l2.877-17.954c.127-.79-.162-1.368-.867-1.735l-.29-.148a.768.768 0 0 0-1.12.564l-3.138 20.161c-.02.127-.092.188-.219.183l-6.41-.197a.811.811 0 0 1-.592-.288.797.797 0 0 1-.177-.629l4.81-31.98c.051-.329.244-.493.578-.493l6.255.05c.62.004.874.312.761.923l-1.311 7.214z" fill="url(#paint2_linear_1487_69229)"/><path d="M69.003 22.099a.939.939 0 0 0-1.114-.987c-.7.14-1.11.604-1.227 1.389-.72 4.677-1.462 9.325-2.229 13.941-.14.851.219 1.246 1.08 1.185l.458-.035a.856.856 0 0 0 .775-.67l.98-4.535c.043-.206.172-.31.388-.31l6.566.035c.253 0 .39.127.408.381.565 8.004-4.992 11.008-12.17 10.338-4.599-.428-6.564-3.002-5.896-7.722.578-4.061 1.25-8.11 2.017-12.143.776-4.047 3.248-6.269 7.418-6.664 6.537-.613 12.059.635 10.056 8.963-.047.198-.174.294-.38.29l-6.425-.149a.888.888 0 0 1-.643-.294.902.902 0 0 1-.231-.672l.169-2.341z" fill="url(#paint3_linear_1487_69229)"/><path d="M108.745 40.94l-1.058 1.27a1.138 1.138 0 0 1-.663.402c-2.327.515-6.621.649-7.15-2.46-.36-2.13.388-6.32 1.121-8.569 1.664-5.12 12.221-4.35 11.544-9.71a.604.604 0 0 0-.325-.473c-.366-.197-.766-.211-1.198-.042a.746.746 0 0 0-.48.536l-.592 2.32a1.143 1.143 0 0 1-.405.619c-.2.154-.444.237-.695.234l-6.058-.056c-.357-.005-.543-.183-.557-.536-.254-5.155 2.8-7.813 7.637-8.307 5.832-.606 12.045-.317 10.768 7.665a6227.423 6227.423 0 0 0-2.835 17.996 3.818 3.818 0 0 1-.134.579c-.056.192-.183.28-.38.26a103.82 103.82 0 0 0-6.939-.274c-.602-.005-.903-.405-.903-1.2 0-.733-.233-.817-.698-.253zm2.51-10.774a.386.386 0 0 0-.698-.282l-1.939 2.588a.4.4 0 0 0-.078.19l-.458 3.85a.39.39 0 0 0 .385.434c.074 0 .146-.02.207-.06l1.672-1.036a.399.399 0 0 0 .12-.122.4.4 0 0 0 .056-.16l.733-5.402z" fill="url(#paint4_linear_1487_69229)"/><path d="M131.869 17.882c3.822-3.152 10.295-2.743 9.308 4.012a1657.723 1657.723 0 0 1-3.166 20.676c-.038.235-.176.35-.416.345l-6.46-.176c-.55-.014-.785-.294-.705-.839l2.807-18.56a.78.78 0 0 0-.216-.671.789.789 0 0 0-.666-.232l-.261.035c-.761.1-1.201.53-1.318 1.29l-2.906 18.843c-.032.207-.152.308-.359.303l-6.41-.162a.816.816 0 0 1-.783-.945l3.886-25.062a.438.438 0 0 1 .15-.271.453.453 0 0 1 .294-.11l6.156.05a.615.615 0 0 1 .564.395c.108.277.139.562.092.853-.066.428.07.503.409.226z" fill="url(#paint5_linear_1487_69229)"/><path d="M156.486 18.305l.416-1.326a.89.89 0 0 1 .846-.62l6.044.028a.704.704 0 0 1 .649.453.69.69 0 0 1 .042.273 25.73 25.73 0 0 1-.261 2.652 6830.102 6830.102 0 0 1-3.251 21.338c-.62 4.027-2.454 7.292-6.911 7.525-3.229.169-6.762.155-10.598-.043a.686.686 0 0 1-.496-.249.692.692 0 0 1-.153-.534l.501-3.589c.061-.451.319-.681.775-.69l7.785-.17a.619.619 0 0 0 .55-.36 9.69 9.69 0 0 0 .861-3.279c.023-.315-.064-.35-.261-.106-2.659 3.294-9.859 3.096-9.153-2.919a222.812 222.812 0 0 1 2.517-16.205c.639-3.277 2.673-4.753 6.1-4.429 1.598.151 2.778.917 3.54 2.3.188.343.341.326.458-.05zm-.708 5.341a1.102 1.102 0 0 0-.905-1.265l-.056-.01a1.1 1.1 0 0 0-1.265.907l-1.76 10.63a1.102 1.102 0 0 0 .906 1.265l.056.009a1.102 1.102 0 0 0 1.265-.906l1.759-10.63z" fill="url(#paint6_linear_1487_69229)"/><path d="M173.714 30.921l-.952 5.782a.763.763 0 0 0 .705.889l.353.028c.794.052 1.26-.313 1.396-1.093l.649-3.632c.051-.296.228-.444.529-.444l6.537-.007a.527.527 0 0 1 .528.522c.057 2.63-.853 6.445-3.039 8.201-2.595 2.08-8.518 2.052-11.374 1.326-2.91-.738-4.17-2.727-3.78-5.966a231.584 231.584 0 0 1 2.179-14.28c1.213-6.565 6.953-6.325 12.291-6.078 4.194.188 6.004 2.449 5.43 6.784a295.68 295.68 0 0 1-1.065 7.34c-.037.221-.167.332-.388.332l-9.583-.057c-.24 0-.378.118-.416.353zm1.558-9.315l-.846 3.554a.555.555 0 0 0 .214.573.546.546 0 0 0 .195.09l.6.14c.374.09.775.002 1.115-.247.34-.248.591-.636.697-1.078l.31-1.29a1.884 1.884 0 0 0-.133-1.277c-.19-.376-.508-.637-.882-.726l-.607-.148a.551.551 0 0 0-.663.409z" fill="url(#paint7_linear_1487_69229)"/><path d="M197.274 18.2c1.119-1.383 2.585-2.09 4.4-2.123a.965.965 0 0 1 .935.678c.04.132.051.271.031.408l-.881 6.332a.528.528 0 0 1-.6.444c-4.224-.677-5.169 1.989-5.719 5.628a1297.51 1297.51 0 0 1-1.812 11.656c-.078.487-.021.79.078 1.262.056.278-.057.414-.339.41l-6.882-.1a.743.743 0 0 1-.549-.259.73.73 0 0 1-.164-.58l3.858-24.984a.734.734 0 0 1 .726-.62l5.797.042a.777.777 0 0 1 .572.262.762.762 0 0 1 .182.598l-.092.755a.248.248 0 0 0 .152.268.264.264 0 0 0 .307-.078z" fill="url(#paint8_linear_1487_69229)"/></g><defs><linearGradient id="paint0_linear_1487_69229" x1="6.629" y1="43.02" x2="20.83" y2="6.687" gradientUnits="userSpaceOnUse"><stop stop-color="#55AFC7"/><stop offset="1" stop-color="#3F62BE"/></linearGradient><linearGradient id="paint1_linear_1487_69229" x1="37.42" y1="42.923" x2="53.913" y2="9.342" gradientUnits="userSpaceOnUse"><stop stop-color="#55AFC7"/><stop offset="1" stop-color="#3F62BE"/></linearGradient><linearGradient id="paint2_linear_1487_69229" x1="80.614" y1="42.938" x2="98.818" y2="11.937" gradientUnits="userSpaceOnUse"><stop stop-color="#55AFC7"/><stop offset="1" stop-color="#3F62BE"/></linearGradient><linearGradient id="paint3_linear_1487_69229" x1="60.89" y1="42.922" x2="73.976" y2="16.099" gradientUnits="userSpaceOnUse"><stop stop-color="#55AFC7"/><stop offset="1" stop-color="#3F62BE"/></linearGradient><linearGradient id="paint4_linear_1487_69229" x1="103.973" y1="42.896" x2="116.806" y2="15.476" gradientUnits="userSpaceOnUse"><stop stop-color="#55AFC7"/><stop offset="1" stop-color="#3F62BE"/></linearGradient><linearGradient id="paint5_linear_1487_69229" x1="124.49" y1="42.916" x2="137.345" y2="15.518" gradientUnits="userSpaceOnUse"><stop stop-color="#55AFC7"/><stop offset="1" stop-color="#3F62BE"/></linearGradient><linearGradient id="paint6_linear_1487_69229" x1="147.13" y1="48.745" x2="164.314" y2="17.596" gradientUnits="userSpaceOnUse"><stop stop-color="#55AFC7"/><stop offset="1" stop-color="#3F62BE"/></linearGradient><linearGradient id="paint7_linear_1487_69229" x1="169.2" y1="42.941" x2="182.359" y2="16.029" gradientUnits="userSpaceOnUse"><stop stop-color="#55AFC7"/><stop offset="1" stop-color="#3F62BE"/></linearGradient><linearGradient id="paint8_linear_1487_69229" x1="189.131" y1="42.894" x2="203.581" y2="17.991" gradientUnits="userSpaceOnUse"><stop stop-color="#55AFC7"/><stop offset="1" stop-color="#3F62BE"/></linearGradient><clipPath id="clip0_1487_69229"><path fill="#fff" transform="translate(.34 .556)" d="M0 0h207.321v52.888H0z"/></clipPath></defs></svg>