<svg width="180" height="34" fill="none" xmlns="http://www.w3.org/2000/svg"><mask id="mask0_1487_69306" style="mask-type:alpha" maskUnits="userSpaceOnUse" x="0" y="0" width="180" height="34"><path fill-rule="evenodd" clip-rule="evenodd" d="M6.015.655c-.56.127-1.018.498-1.018.825 0 1.247-2.07 3.102-3.272 2.93C.883 4.289.392 4.612.18 5.427c-.336 1.286.426 2.179 1.028 1.205.813-1.315 1.36-.476.778 1.193-.916 2.629-.29 7.296 1.26 9.393 1.188 1.606 1.225 1.843.373 2.32-.523.292-.95.911-.95 1.376 0 .464-.262.844-.582.844-.76 0-.74 3.772.034 6.562.512 1.842 1.09 2.429 3.586 3.632 2.516 1.214 3.478 1.377 6.227 1.057 2.608-.304 3.625-.752 5.143-2.264 1.709-1.703 1.892-2.218 1.892-5.333 0-4.583-1.428-8.624-3.616-10.234l-1.74-1.279 2.242-.291c1.933-.25 2.266-.514 2.427-1.911.237-2.067-1.385-6.99-2.694-8.175-.552-.5-2.278-1.194-3.834-1.543C10.197 1.631 8.5 1.138 7.98.884S6.576.527 6.015.654zm15.898 3.857c-1.753 3.75-1.781 3.953-1.781 13.108 0 5.116.23 9.909.513 10.652.283.742 1.802 2.185 3.376 3.205 2.69 1.743 3.063 1.827 6.207 1.4 3.721-.504 6.484-2.197 6.513-3.988.01-.647.327-1.548.703-2.001.377-.454.523-1.466.327-2.25-.358-1.423-.356-1.423.911-.304.961.85 1.09 1.236.528 1.592-.592.376-.585.472.03.48.526.006.734.708.65 2.192-.153 2.747.485 4.302 1.706 4.155.522-.063 1.381.075 1.911.308.53.231 1.84.337 2.91.234l1.948-.186.166-5.676c.16-5.459.217-5.675 1.485-5.675 3.24 0 3.818-4.518.968-7.568-.96-1.028-1.746-2.075-1.746-2.326 0-.597 3.523-.997 6.112-.695 1.883.22 2.038.388 2.038 2.22 0 1.09-.327 2.536-.728 3.213-.582.986-.582 1.286 0 1.497.455.164.702 1.28.659 2.98-.059 2.31-.125 2.455-.442.97-.481-2.25-2.044-2.315-2.298-.097-.104.908.001 2.086.233 2.62.723 1.66.777 2.599.21 3.66-.734 1.371.27 1.942 1.41.802.792-.792.904-.655 1.066 1.304.14 1.705.438 2.208 1.345 2.273.64.046 1.295.14 1.455.209 1.048.453 4.49.365 5.094-.13.759-.623 1.061-8.658.352-9.368-.63-.629-.718-4.14-.123-4.861.307-.374.504-1.29.438-2.038-.29-3.282.083-5.187 1.08-5.495.56-.174 1.41-.517 1.891-.763 1.46-.748 2.36-.085 1.974 1.454-.255 1.014-.113 1.407.51 1.407 1.598 0 2.16 6.011.737 7.893-1.09 1.44-1.15 5.287-.095 5.903.44.256.767.99.728 1.63-.039.64.169 1.212.46 1.27.293.058.87.91 1.282 1.892.653 1.552 1.044 1.786 2.978 1.786 1.225 0 2.76-.373 3.412-.83.837-.586 1.43-.655 2.021-.236.67.475.627.525-.212.255-.615-.2-.901-.102-.693.235.612.99 1.39.636 2.249-1.025 1.077-2.085 1.418-4.543.61-4.398-.348.062-.632-.213-.632-.61 0-.4.454-.76 1.008-.801.766-.058 1.102.557 1.405 2.577.218 1.46.52 2.97.668 3.359.327.852 7.01 1.033 8.513.23 1.142-.61 1.418-3.765.36-4.118-.46-.153-.382-.755.253-1.984.564-1.09 1.07-4.242 1.323-8.253.226-3.569.636-6.35.912-6.18.727.45.625 11.155-.111 11.61-.403.249-.416.61-.037 1.067.315.38.655 1.994.756 3.587.157 2.493.365 2.921 1.492 3.082.721.102 1.31.528 1.31.946 0 1.15 3.496 1.662 4.607.673.794-.707 1.029-.708 1.674-.005.976 1.065 5.021 1.058 5.907-.01 1.11-1.337-.322-5.517-2.64-7.704-2.196-2.07-2.499-3.075-.961-3.176.56-.037 1.28-.128 1.6-.203a24.68 24.68 0 0 1 1.09-.224c.28-.048.217-.44-.14-.87-.356-.43-.476-.953-.266-1.163 1.112-1.112.563-3.269-1.29-5.065-2.092-2.027-2.132-2.886-.133-2.886.676 0 1.709-.434 2.294-.964 1.025-.928 1.067-.718 1.124 5.676.032 3.651.011 7.502-.047 8.556-.058 1.055.069 2.955.283 4.22.335 1.98.598 2.304 1.875 2.304.817 0 1.776.361 2.132.803.355.442 1.351.967 2.212 1.167 1.211.28 1.772.069 2.474-.933.746-1.065.908-1.117.908-.294 0 1.037.461 1.17 4.311 1.248 1.889.038 2.526-.27 3.763-1.82l1.489-1.865.603 1.865c.501 1.551.898 1.866 2.35 1.866 1.496 0 1.774-.243 1.939-1.695.246-2.156-.946-4.417-2.329-4.417-.586 0-1.066.277-1.066.616 0 .34-.262.455-.582.257-.32-.198-.582-.067-.582.291s-.262.489-.582.291c-.88-.544-.697-1.455.291-1.455.48 0 .873-.254.873-.564 0-.31-.435-.397-.967-.193-.801.307-.889.13-.513-1.037.717-2.225.445-4.586-.764-6.635-1.079-1.828-1.112-4.96-.053-4.96.866 0 .43-4.841-.666-7.4-1.188-2.77-2.724-3.66-6.318-3.66-1.262 0-2.531-.377-2.943-.874-.912-1.097-5.712-1.14-7.131-.062-.561.425-1.019 1.449-1.019 2.275 0 .827-.262 1.664-.582 1.862-.32.198-.582.082-.582-.256 0-1.385-2.377-2.946-4.512-2.964-1.2-.01-2.692-.403-3.313-.873-1.287-.974-5.31-1.154-5.861-.263-.202.325-.593.45-.872.279-.278-.172-.776.15-1.106.718-.33.567-.608.704-.618.303-.03-1.228-3.391-.874-4.09.43-.34.638-.936 1.096-1.323 1.02-.447-.089-.639.446-.523 1.46.223 1.978-.81 2.127-1.296.187-1.193-4.751-7.11-4.295-9.212.71-.624 1.484-.677 1.503-.884.316-.358-2.035-2.806-4.268-4.681-4.268-2.088 0-4.204 2.143-4.204 4.257 0 .86-.262 1.564-.582 1.564-.32 0-.583-.537-.583-1.193 0-.657-.4-1.966-.888-2.911l-.888-1.717h-6.205c-5.576 0-6.343.128-7.557 1.27l-1.351 1.269-1.183-1.27c-1.01-1.083-1.813-1.27-5.487-1.27-4.1 0-4.36.082-5.526 1.718-1.04 1.46-1.235 2.633-1.304 7.831-.045 3.363-.298 5.98-.563 5.816-.265-.164-.482-.036-.482.284 0 .32.262.744.582.942.747.462.76 4.187.017 4.647-.311.192-.691-.251-.845-.985-.483-2.303-.69-5.627-.336-5.408.186.115.233-.693.104-1.795-.133-1.14.098-2.405.537-2.933.643-.776.627-1.038-.1-1.593-.48-.365-1.253-1.844-1.72-3.284-.466-1.441-1.524-3.377-2.35-4.303-1.33-1.492-1.926-1.696-5.244-1.8-2.059-.066-4.186-.313-4.727-.55-.793-.347-1.331.31-2.765 3.378zm139.819-2.579c-.721.602-1.168 1.469-.992 1.926.175.457-.111 1.187-.636 1.623-.821.682-1.089.624-1.918-.42-1.584-1.994-3.266-2.514-8.124-2.514-3.8 0-4.89.214-6.162 1.215-2.395 1.884-3.448 4.474-3.493 8.597-.035 3.152.151 3.856 1.256 4.75 1.455 1.179 1.757 2.62.442 2.116-.47-.18-1.02-.06-1.223.268-.202.328.182.74.855.916 1.619.423 1.544 1.015-.232 1.824-1.866.85-1.835 1.472.145 2.95l1.601 1.194-1.567.018c-2.043.024-2.573.951-1.075 1.886.653.408 1.187 1.069 1.187 1.47 0 .4.571 1.385 1.269 2.188.982 1.13 1.828 1.46 3.736 1.46 3.658 0 4.299-.413 4.382-2.827l.074-2.12.605 2.157c.67 2.39 1.795 2.869 5.942 2.533l2.328-.189-.129-4.288c-.094-3.122.019-3.933.418-2.979.301.72.948 1.31 1.439 1.31.49 0 .892.483.892 1.074 0 1.168 1.717 3 2.811 3 .375 0 1.206.525 1.847 1.166.955.955 1.747 1.124 4.384.936 5.66-.403 8.2-3.146 7.596-8.202-.114-.954.011-2.31.277-3.011.341-.896.224-1.494-.393-2.005-.728-.604-.742-.805-.086-1.173.604-.338.771-1.972.699-6.84-.117-8.059-.792-9.28-5.201-9.41-4.582-.137-4.531-.158-4.136 1.616l.355 1.601-.889-1.593c-.505-.904-1.577-1.738-2.476-1.927-.873-.184-2.041-.58-2.597-.88-1.369-.742-1.692-.683-3.211.584zM6.008 2.787c.192 1.003-.079 1.59-.947 2.055-2.082 1.114-3.154 3.95-2.798 7.403.379 3.673.887 4.46 5.06 7.852 3.514 2.856 4.614 4.93 3.701 6.976l-.579 1.298-1.282-1.283c-1.06-1.06-1.17-1.493-.63-2.501 1.07-2.001-.494-3.069-3.776-2.576-2.54.38-2.67.49-2.638 2.256.064 3.608 1.256 5.76 3.988 7.2 2.554 1.345 4.71 1.758 4.71.901 0-.247 1.078-.45 2.395-.45 1.949 0 2.66-.322 3.823-1.733 1.268-1.538 1.401-2.16 1.186-5.53-.29-4.52-.922-5.676-4.265-7.79-2.751-1.74-5.467-4.647-5.467-5.85 0-.417.37-1.064.822-1.439.967-.802 1.775.099 1.79 1.994.007 1.018.44 1.18 3.43 1.288l3.42.124-.322-2.402c-.507-3.778-2.024-5.335-5.71-5.859-2.356-.334-3.405-.806-4.206-1.892C6.361.997 5.663.981 6.008 2.787zm17.617-.43c0 .214.443.88.986 1.48.803.888.821 1.026.096.748-.592-.227-1.408.408-2.441 1.898-1.513 2.183-1.552 2.458-1.552 10.999 0 9.412.54 12.149 2.52 12.778.693.22 1.522.727 1.844 1.129.765.955 3.204 1.672 3.204.942 0-.32.964-.437 2.211-.27 1.81.243 2.552.01 4.086-1.281 1.032-.867 1.828-1.877 1.772-2.244-.057-.366.11-1.16.371-1.762.284-.655.202-1.532-.204-2.183-.373-.598-.453-1.087-.178-1.087.727 0 1.258-9.117.722-12.402-.343-2.103-1.006-3.36-2.675-5.069-1.22-1.25-2.466-2.12-2.768-1.935-.3.187-1.662.427-3.024.534-2.16.17-2.561.012-3.13-1.236-.59-1.295-1.84-2.002-1.84-1.04zm76.457.918c-.5.809-.41 13.496.155 21.83.266 3.912.578 5.384 1.141 5.384.426 0 .985.354 1.241.786.256.432 1.175.958 2.043 1.17 1.242.302 1.717.123 2.233-.842l.656-1.225 1.136 1.22c.731.785 1.856 1.22 3.152 1.22 1.915 0 2.015-.101 2.015-2.037 0-1.121-.262-2.038-.582-2.038-.321 0-.583-.393-.583-.873 0-.55-.554-.873-1.494-.873-1.259 0-1.432-.195-1.102-1.237.264-.833.182-1.107-.252-.84-.354.22-.971.191-1.372-.063-.4-.254-.967-.466-1.261-.471-.294-.005-.643-.336-.776-.736-.137-.409.232-.728.84-.728.596 0 1.497-.458 2.003-1.019.504-.56 1.601-1.506 2.435-2.102 1.469-1.05 1.486-1.128.521-2.456-.548-.755-1.521-1.399-2.161-1.431l-1.164-.06 1.164-.478c1.047-.43 1.065-.52.173-.884-.545-.223-1.241-.25-1.546-.062-.316.196-.423-.164-.249-.83.242-.926.096-1.092-.695-.789-1.33.51-1.869-.49-1.583-2.939.181-1.551.488-1.985 1.359-1.92.655.05 1.27.656 1.468 1.447.291 1.16.654 1.334 2.454 1.184 1.831-.153 2.137-.394 2.299-1.812.295-2.567-.756-3.313-4.664-3.313-3.196 0-3.432-.089-3.091-1.164.279-.88.105-1.164-.718-1.164-.598 0-1.384.297-1.748.661-.493.493-.902.42-1.613-.291-1.143-1.143-1.256-1.157-1.834-.225zm16.97.103c-1.462 1.728-2.003 3.158-1.285 3.4.55.184.547.43-.016 1.113-.398.482-.593 1.006-.434 1.165.159.16.393 4.326.52 9.26.127 4.935.257 9.692.288 10.573.049 1.378.3 1.6 1.804 1.6 1.1 0 1.746.3 1.746.808 0 1.316 3.445 1.534 4.127.26.689-1.289 1.694-1.404 1.694-.194 0 .48.458.908 1.019.952 3.91.3 4.563.151 5.821-1.327 1.553-1.826 1.564-1.907.428-3.043-.788-.788-.754-1.11.314-3.011.929-1.653 1.045-2.31.52-2.944-.372-.448-.485-.814-.25-.814s-.15-.468-.856-1.039c-.739-.599-1.259-1.646-1.227-2.474.136-3.525.392-4.637 1.071-4.637.909 0 .96-.99.066-1.288-.479-.16-.458-.546.078-1.404.619-.992.573-1.44-.282-2.746-1.139-1.738-2.484-2.218-6.557-2.339-2.285-.068-2.735-.258-2.593-1.1.22-1.314-1.465-1.346-2.891-.056-.934.845-1.064.853-1.064.062 0-1.166-1.294-1.66-2.041-.777zm45.021 1.062c-1.138 1.539-1.386 2.542-1.33 5.384.05 2.595.28 3.493.892 3.493 1.077 0 1.608 1.241 1.658 3.875.036 1.85-.111 2.088-1.123 1.824-1.078-.282-1.164-.018-1.164 3.547 0 2.18.252 3.852.582 3.852.32 0 .582-.262.582-.582 0-.32.262-.583.582-.583.32 0 .582.673.582 1.494 0 2.202 1.031 3.745 2.5 3.745.712 0 1.623.526 2.024 1.169.636 1.018 1.157 1.127 4.042.847 3.814-.37 4.823-1.001 4.823-3.014 0-.95.396-1.542 1.164-1.743 1.196-.313 1.654-1.916.548-1.916-.339 0-.448-.273-.241-.607.207-.334.084-.958-.271-1.387-.489-.589-.43-.864.24-1.121 1.454-.558 1.113-2.706-.429-2.706-1.175 0-1.317-.284-1.31-2.616.004-1.447.268-2.552.59-2.474.32.078.525.572.455 1.098-.07.525.368 1.085.975 1.244.771.201 1.009.044.791-.523-.171-.446-.348-3.227-.393-6.18l-.082-5.369-3.638-.012c-2.001-.007-3.638.057-3.638.142 0 .084.3.634.667 1.222.421.673.493 1.693.196 2.757-.259.929-.408 2.053-.331 2.5.162.945-1.007 1.813-1.953 1.45-.429-.165-.573-1.661-.421-4.36l.232-4.108-2.542.192c-2.338.177-2.531.088-2.404-1.117.203-1.917-1.221-1.627-2.855.583zM93.446 5.73c-.261.65-.64 2.196-.842 3.434l-.367 2.251-1.125-1.208c-.619-.664-1.125-2.016-1.125-3.005V5.405l-3.93.172-3.929.172-.18 2.488c-.117 1.623-.401 2.35-.818 2.092-.436-.27-.542.234-.335 1.588.336 2.19.063 3.437-.753 3.437-.294 0-.536-.851-.539-1.892-.002-1.04-.17-3.267-.372-4.948l-.367-3.056h-3.411c-3.381 0-3.412.015-3.412 1.698 0 .934-.327 1.83-.728 1.992-.427.172-.298.312.312.34.844.036.926.256.436 1.17-.8 1.495-.761 1.786.235 1.786.563 0 .951.907 1.182 2.765l.591 4.718c.194 1.537.017 2.014-.832 2.236-1.37.358-1.534 3.998-.203 4.508.596.23.765.783.527 1.731-.303 1.207-.181 1.35.902 1.068.863-.226 1.122-.117.833.35-.231.374-.25 1.216-.042 1.87.539 1.697 4.92 1.403 5.809-.39.557-1.125.716-1.155 1.905-.366.735.488 1.297.6 1.297.256 0-.333.177-1.065.393-1.627.29-.755.163-.934-.486-.685-.695.267-.877-.17-.877-2.114 0-2.046.242-2.564 1.462-3.14.804-.38 1.558-.593 1.676-.475.118.119.538 2.145.933 4.503l.718 4.288 2.893.125c4.2.18 5.513-.216 5.513-1.668 0-.679-.437-1.554-.971-1.944-.894-.654-.864-.86.362-2.583 1.063-1.492 1.274-2.393 1.042-4.447-.163-1.454-.048-2.576.267-2.576.326 0 .495-2.347.408-5.676-.093-3.524.11-6.157.536-6.947.983-1.826.932-1.878-1.714-1.773-1.814.073-2.515.384-2.874 1.28zm-47.555-.42c-4.696.19-4.803.228-4.803 1.665 0 .809-.262 1.961-.584 2.561-.39.729-.39 1.21 0 1.451.992.613.725 10.893-.322 12.387-.82 1.172-.82 1.294 0 1.294.73 0 .908.765.915 3.93.005 2.165.216 3.602.47 3.201.364-.57.706-.543 1.593.127.622.47 1.982.863 3.022.873l1.892.019V21.25l1.892-.183c1.776-.171 1.903-.334 2.07-2.657l.18-2.474h-2.072c-2.066 0-2.07-.005-2.07-2.62v-2.619h4.366l-.202-2.91c-.124-1.788-.46-2.865-.873-2.792-.37.064-2.833.207-5.474.314zm10.446.038l-2.506.18.177 2.44c.166 2.282.3 2.45 2.068 2.62 1.392.135 1.964.519 2.17 1.456.362 1.66.121 4.429-.36 4.131-.207-.127-.526.16-.71.638-.184.479-.054.87.29.87.402 0 .574 1.695.487 4.802-.208 7.44-.047 9.75.68 9.75.365 0 .963-.409 1.33-.91.594-.813.828-.782 2.193.291 2.522 1.984 2.8 1.612 2.8-3.746 0-3.095-.232-4.948-.617-4.948-.339 0-.425-.31-.191-.688.407-.66.63-3.173.75-8.476.053-2.263.24-2.555 2.24-3.494 1.776-.833 2.217-1.376 2.365-2.914.122-1.258-.073-1.9-.582-1.917-5.948-.201-10.548-.232-12.584-.085zm87.787 1.234c0 .722-.468 1.19-1.31 1.31-1.225.174-1.309.468-1.309 4.552 0 4.193.051 4.359 1.309 4.183 1.223-.17 1.31.032 1.31 3.057 0 3.066-.077 3.238-1.455 3.238-.906 0-1.456.33-1.456.873 0 .48.495.873 1.099.873 1.452 0 2.067 3.47.782 4.41-.766.559-.748.822.147 2.188.832 1.27 1.454 1.55 3.424 1.543 3.196-.012 3.741-.451 3.965-3.2.258-3.175 1.898-3.254 2.023-.099.049 1.223.246 2.381.439 2.574.194.193 1.74.372 3.436.397l3.085.046-.357-2.35c-.196-1.292-.578-2.708-.849-3.146-.332-.538-.274-.661.18-.38.37.228.672.159.672-.154 0-.312-.327-.72-.727-.907-.583-.271-.583-.408 0-.679.856-.4.973-2.35.171-2.847-.306-.189-.409-.729-.228-1.2.188-.491-.256-1.328-1.043-1.965l-1.37-1.11 1.598-.73c1.514-.689 1.599-.936 1.599-4.657 0-3.673-.117-4.028-1.791-5.437-1.663-1.4-2.202-1.507-7.568-1.507-5.318 0-5.776.09-5.776 1.124zM98.282 8.088c0 .807.23 1.608.51 1.781.28.174.509-.487.509-1.466s-.23-1.78-.51-1.78-.51.659-.51 1.465zm72.755.28c0 1.121.12 1.58.266 1.02.147-.56.147-1.478 0-2.038-.146-.56-.266-.102-.266 1.019zm-48.568.117c.845.845.931 1.843.117 1.34-.331-.205-.583.284-.583 1.13 0 .935.325 1.489.874 1.489.63 0 .873-.647.873-2.329 0-1.803-.223-2.328-.99-2.328-.769 0-.834.155-.291.698zM28.275 9.73c-.7.546-.836 2.049-.71 7.807.119 5.45-.019 7.134-.583 7.14-.455.006-.515.173-.156.437.32.235.582.799.582 1.252 0 1.538 1.293 1.266 1.99-.42.57-1.373.856-8.036.65-15.074-.047-1.615-.66-2.01-1.773-1.142zm139.18.142c.028.679.166.817.352.353.168-.42.147-.923-.046-1.116-.194-.194-.331.15-.306.763zm-59.714.243c.198.32.475.582.617.582.141 0 .257-.262.257-.582 0-.32-.278-.582-.617-.582-.339 0-.455.262-.257.582zm-79.192.621c-.212.341-.26.746-.107.899.153.152.433-.127.622-.622.394-1.025.059-1.206-.515-.277zm121.187-.159c-.27.43-.17 1.118.23 1.601.92 1.108 1.726 1.08 1.726-.06 0-.499-.242-.758-.538-.575-.297.183-.63-.13-.742-.693-.154-.776-.318-.842-.676-.273zm-23.956.806c-.206.537-.284 1.585-.172 2.328l.205 1.352.739-1.317c.507-.902.561-1.637.172-2.329-.526-.937-.595-.94-.944-.034zm-35.105 2.13c-.018 1.286.277 2.446.659 2.592.903.347.931-3.36.032-4.26-.49-.491-.667-.064-.69 1.668zm71.204-1.651c.198.32.475.582.616.582.142 0 .257-.262.257-.582 0-.32-.278-.582-.616-.582-.339 0-.455.261-.257.582zM28.527 13.874c-.198.786-.092 2.162.234 3.056.538 1.476.597 1.344.639-1.43.05-3.285-.295-3.927-.873-1.626zm131.897.334c0 .31.392.564.873.564.48 0 .873-.103.873-.229 0-.125-.393-.38-.873-.564-.481-.184-.873-.08-.873.23zm6.985.598c0 .395.487.557 1.149.384.925-.242 1.21.057 1.462 1.533.515 3.021.04 6.27-1.032 7.053-1.348.987-1.259 1.679.167 1.306.921-.24 1.165-.018 1.165 1.062 0 .752.262 1.528.582 1.726.32.198.582-.128.582-.722 0-.595.321-1.403.713-1.796.538-.538.552-.971.054-1.769-.381-.609-.454-1.39-.173-1.844.311-.504.134-1.058-.491-1.537-.842-.648-.859-.828-.126-1.308.734-.482.714-.708-.146-1.658-1.32-1.46-1.255-1.84.247-1.448.894.234 1.166.096.973-.49-.339-1.03-5.126-1.488-5.126-.492zm-8.004 2.135c-.401.856-.507 1.777-.238 2.047.766.765 1.693-.869 1.31-2.309-.339-1.272-.357-1.268-1.072.262zm-96.778-.422c0 .32.277.582.616.582.34 0 .455-.262.257-.582-.198-.32-.475-.583-.617-.583-.14 0-.256.262-.256.583zm17.31-.234c-.192.191-.2.736-.016 1.213.27.705.423.721.824.088.858-1.353.24-2.35-.808-1.301zm-61.551 1.398a.583.583 0 0 0 1.164 0 .584.584 0 0 0-.582-.582.584.584 0 0 0-.582.582zm72.593 1.6c.466 3.024.754 3.116.754.243 0-1.334-.246-2.425-.546-2.425-.302 0-.395.974-.208 2.183zm57.802-.145c0 .48.262.873.582.873.32 0 .582-.393.582-.873s-.262-.873-.582-.873c-.32 0-.582.393-.582.873zm-69.273.582c0 .48.262.873.583.873.32 0 .582-.392.582-.873 0-.48-.262-.873-.582-.873-.32 0-.583.393-.583.873zm44.719.457c.722.869.242 1.799-1.205 2.333-1.244.458-1.358 2.158-.145 2.158.48 0 .873-.294.873-.655 0-.417.634-.528 1.746-.305 1.46.291 1.747.164 1.747-.778 0-.62-.574-1.661-1.275-2.314-1.395-1.3-2.736-1.639-1.741-.44zm-95.487 1.58c-.141.961-.04 1.747.224 1.747.265 0 .482-.786.482-1.746s-.102-1.747-.226-1.747c-.123 0-.34.786-.48 1.747zm122.136-1.317c-.552.551-.404 1.42.179 1.06.29-.18.392.194.226.83-.386 1.473.256 4.085 1.004 4.085.931 0 .7-5.648-.245-6.01-.449-.172-.973-.157-1.164.035zm-95.143 1.9c0 .8.133 1.128.294.727.161-.4.161-1.054 0-1.455-.162-.4-.294-.073-.294.728zm.263 2.226c-.206.332-.09.78.257.994.865.534 1.17.109.594-.825-.31-.5-.61-.56-.851-.17zm68.66.632c-.482.779.267 2.38 1.113 2.38.465 0 .629-.528.452-1.454-.283-1.479-.972-1.886-1.565-.926zm-62.32.634c.198.32.475.583.616.583.142 0 .257-.262.257-.582 0-.32-.278-.583-.617-.583-.338 0-.454.262-.256.582zm85.909 1.504c.028.678.166.816.352.352.168-.42.147-.922-.046-1.116-.194-.193-.331.15-.306.764zm-131.606.534c0 .48.254.873.564.873.31 0 .413-.393.229-.873-.185-.48-.438-.873-.564-.873-.126 0-.229.393-.229.873zm45.988-.291c0 .32.393.582.873.582s.873-.262.873-.582c0-.32-.393-.582-.873-.582s-.873.262-.873.582zm78.586 0c0 .32.278.582.617.582.339 0 .455-.262.257-.582-.198-.32-.475-.582-.617-.582-.141 0-.257.262-.257.582zm36.72 1.503c.028.679.166.817.352.353.168-.42.147-.923-.046-1.116-.193-.194-.331.15-.306.764zm-42.532 1.262c.026 2.875 3.052 3.393 3.377.577.166-1.433.002-1.596-1.601-1.596-1.315 0-1.782.268-1.776 1.019zm-74.731 1.6c.184.481.601.874.926.874.341 0 .285-.37-.133-.873-.4-.48-.816-.873-.927-.873-.11 0-.05.393.134.873z" fill="#000"/></mask><g mask="url(#mask0_1487_69306)"><path fill="url(#paint0_linear_1487_69306)" d="M.097-9.879h187.444v58.212H.097z"/></g><defs><linearGradient id="paint0_linear_1487_69306" x1="93.819" y1="-9.879" x2="93.819" y2="48.334" gradientUnits="userSpaceOnUse"><stop stop-color="#005095"/><stop offset="1" stop-color="#007CC5"/></linearGradient></defs></svg>