<svg width="242" height="66" fill="none" xmlns="http://www.w3.org/2000/svg"><path d="M36.478 23.172c-3.61-12.457-18.408-17.555-27.76-7.746-12.18 12.784 1.2 33.463 18.05 26.868a.536.536 0 0 1 .655.218l2.242 3.53a.88.88 0 0 1 .13.425.907.907 0 0 1-.09.439c-.622 1.216-.692 2.205-.21 2.965 1.971 3.121 4.11 6.483 6.418 10.087 1.217 1.898 2.76 2.218 4.632.962L42.2 59.8c1.878-1.257 2.212-2.84 1.002-4.752l-3.868-6.139" stroke="#2A609F" stroke-width="1.984"/><path d="M36.478 23.172c1.144 6.36-.582 11.8-5.177 16.315-.225.218-.255.46-.09.724l2.064 3.372a.896.896 0 0 0 .823.447c2.935-.05 3.848 2.787 5.236 4.88" stroke="#2A609F" stroke-width="1.984"/><path d="M34.603 26.99a14.123 14.123 0 1 0-28.246 0 14.123 14.123 0 0 0 28.246 0z" stroke="#6D6D6D" stroke-width="1.984"/><path d="M21.264 17.032c-6.863.685-14.153 7.27-11.624 14.739.444 1.315.807 1.292 1.091-.07 1.23-5.832 6.11-8.728 11.853-8.847.363-.006.581.169.654.526l.367 1.904c.192.966.565 1.038 1.12.218l4.206-6.228a.624.624 0 0 0 .09-.475.603.603 0 0 0-.278-.388l-6.517-3.957a.476.476 0 0 0-.724.406c0 .496.08.972.239 1.428.151.45-.007.698-.477.744z" stroke="#6D6D6D" stroke-width="1.984"/><path d="M17.515 31.057l-.486-2.43a.418.418 0 0 0-.754-.159l-4.453 6.536a.545.545 0 0 0-.082.414.526.526 0 0 0 .24.34l6.547 4.036a.516.516 0 0 0 .773-.555l-.317-1.398c-.086-.377.063-.582.446-.615 5.792-.586 10.622-4.235 11.912-9.938.39-1.74.324-3.296-.199-4.672-.555-1.454-.955-1.411-1.2.13-.892 5.682-6.516 8.45-11.743 8.826a.65.65 0 0 1-.443-.128.63.63 0 0 1-.241-.387zm57.813-2.777c.588-.662 1.233-.804 1.934-.427.324.178.516.453.575.823l.12.833c.045.311.22.437.525.377l3.174-.605c.357-.066.535-.28.535-.645.03-7.418-11.465-7.369-11.485.893-.007 3.881.056 7.77.188 11.664.268 7.408 10.623 6.942 11.188-.15.033-.422-.159-.66-.575-.713l-3.144-.417c-.404-.053-.589.123-.556.526.08 1.17-1.07 2.29-2.241 1.537a.943.943 0 0 1-.437-.793V28.805c0-.192.071-.378.199-.526zm61.044 9.708l-.099 3.154c-.02.681-.373 1.019-1.061 1.012h-.605c-.661-.007-.989-.337-.982-.992V28.765a1.223 1.223 0 0 1 .738-1.113 1.22 1.22 0 0 1 1.315.23c.377.357.615.78.714 1.27.106.522.423.74.952.654l2.549-.416a.974.974 0 0 0 .814-.873c.595-6.536-11.267-7.538-11.416.515-.073 4.067-.053 8.13.059 12.19.086 3.3 1.845 5.008 5.277 5.127 7.666.258 6-7.13 6.06-11.96.013-.596-.278-.89-.873-.884l-3.957.04c-.635.007-.956.327-.962.962l-.03 2.42c0 .318.159.486.476.506l.565.04c.324.026.48.198.466.515zm-87.854 4.007a.347.347 0 0 1-.347-.347l-.02-4.473a.347.347 0 0 1 .348-.347l4.463.03a.347.347 0 0 0 .347-.347v-3.62a.344.344 0 0 0-.221-.324.349.349 0 0 0-.136-.023l-4.404.109a.349.349 0 0 1-.357-.347l-.05-4.156a.347.347 0 0 1 .348-.347h5.236a.347.347 0 0 0 .347-.347l.01-3.551a.347.347 0 0 0-.347-.347h-9.501a.347.347 0 0 0-.347.347v21.899a.347.347 0 0 0 .347.347l9.501.01a.347.347 0 0 0 .348-.347l-.01-3.501a.347.347 0 0 0-.348-.347l-5.207.03zm14.004-13.339a.377.377 0 0 1-.734.02l-1.29-4.85a.377.377 0 0 0-.356-.278h-4.305a.378.378 0 0 0-.347.516l4.037 10.166a.377.377 0 0 1 0 .278l-4.305 11.137a.377.377 0 0 0 .348.506l4.225.02a.377.377 0 0 0 .367-.277l1.567-5.584a.377.377 0 0 1 .734 0l1.458 5.554a.377.377 0 0 0 .357.277l4.344.04a.378.378 0 0 0 .357-.526l-4.473-11.138a.377.377 0 0 1 0-.277l4.155-10.176a.376.376 0 0 0-.347-.526l-4.433.03a.377.377 0 0 0-.367.297l-.992 4.79zm29.22 3.58a.327.327 0 0 1-.338.328l-2.072-.05a.328.328 0 0 1-.318-.327v-8.302a.327.327 0 0 0-.327-.327h-3.74a.327.327 0 0 0-.326.327l.01 21.949a.327.327 0 0 0 .327.327h3.729a.327.327 0 0 0 .327-.327l.02-8.668a.327.327 0 0 1 .327-.328l2.053.03a.327.327 0 0 1 .328.327l.01 8.649a.328.328 0 0 0 .327.327l3.779-.02a.328.328 0 0 0 .327-.327V23.915a.327.327 0 0 0-.327-.327l-3.779-.05a.327.327 0 0 0-.327.328l-.01 8.37zm11.494 9.928a.34.34 0 0 1 .318-.287l2.826-.12a.338.338 0 0 1 .348.308l.426 3.769a.34.34 0 0 0 .327.297l3.958.04a.337.337 0 0 0 .327-.407l-4.146-21.938a.337.337 0 0 0-.327-.278l-4.761.02a.335.335 0 0 0-.327.278l-4.066 21.899a.338.338 0 0 0 .337.396l3.878.02a.337.337 0 0 0 .337-.287l.545-3.71zm18.16-8.668l-3.66-9.452c-.126-.33-.367-.496-.724-.496h-2.728c-.363 0-.545.182-.545.546l-.01 21.78a.297.297 0 0 0 .09.21.32.32 0 0 0 .217.087l3.73-.03c.165 0 .248-.079.248-.238l-.01-9.382c0-1.005.182-1.038.545-.1l3.561 9.195c.139.363.4.545.783.545l2.757-.01c.298 0 .447-.149.447-.446l-.02-21.81c0-.211-.106-.317-.317-.317l-3.472-.03c-.317 0-.479.159-.486.476l-.049 9.412c0 .648-.119.668-.357.06zm26.312 3.719a.348.348 0 0 1 .347-.347l4.503-.03a.346.346 0 0 0 .337-.347l-.049-3.59a.354.354 0 0 0-.109-.243.343.343 0 0 0-.248-.095l-4.394.07a.348.348 0 0 1-.347-.337l-.02-4.126a.343.343 0 0 1 .347-.347l5.068-.04a.348.348 0 0 0 .338-.337l.039-3.531a.347.347 0 0 0-.347-.347l-9.521-.01a.348.348 0 0 0-.347.347v21.899a.347.347 0 0 0 .347.347l9.501.01a.345.345 0 0 0 .347-.347v-3.491a.356.356 0 0 0-.101-.246.347.347 0 0 0-.246-.101l-5.098.01a.346.346 0 0 1-.347-.348v-4.423zm25.877 4.465a1.122 1.122 0 0 1-2.162-.07l-.318-1.359c-.079-.357-.297-.503-.654-.436l-3.303.624a.621.621 0 0 0-.38.238.601.601 0 0 0-.116.427c.344 3.636 2.4 5.422 6.169 5.356 5.237-.1 5.842-4.999 5.336-8.996-.466-3.63-3.382-4.404-6.07-5.673a1.167 1.167 0 0 1-.644-.774 4.627 4.627 0 0 1 .079-2.747 1.081 1.081 0 0 1 1.904-.298c.291.397.42.834.387 1.31-.033.548.218.76.754.634l3.045-.734c.515-.119.734-.44.654-.962-.542-3.643-2.826-5.22-6.853-4.73-5.028.614-5.633 7.14-3.422 10.404 1.111 1.616 3.392 2.45 5.168 3.362.317.165.512.423.585.773a7.27 7.27 0 0 1-.159 3.65zm51.483-13.361a4.96 4.96 0 0 0-4.968-4.95l-1.567.002a4.961 4.961 0 0 0-4.95 4.968l.022 13.072a4.961 4.961 0 0 0 4.968 4.95l1.567-.003a4.961 4.961 0 0 0 4.95-4.967l-.022-13.072zm-38.629 13.806l-.516-.03a.962.962 0 0 1-.912-.962V23.826c0-.185-.096-.278-.288-.278l-3.679.03c-.179 0-.271.092-.278.278a839.327 839.327 0 0 0 .03 16.77c.089 8.193 11.187 7.37 11.276.794.086-5.924.106-11.736.06-17.436 0-.284-.146-.426-.436-.426l-3.7.01c-.225 0-.337.112-.337.337l.02 17.05c0 .826-.413 1.216-1.24 1.17zm13.23-5.693l1.557 4.84c.139.424.43.632.873.625l1.746-.01c.344-.006.565-.175.664-.505l1.478-4.93c.02-.08.073-.125.159-.139a.529.529 0 0 1 .268.03c.011.007.022.023.029.046.007.023.01.052.01.083l-.188 9.412a.275.275 0 0 0 .165.247.26.26 0 0 0 .103.021l3.937.05c.179 0 .268-.09.268-.268v-21.9c0-.336-.172-.505-.516-.505l-2.995.02a.943.943 0 0 0-.883.635l-3.164 9.174c-.224.648-.449.648-.674 0l-3.184-9.174c-.139-.41-.423-.619-.853-.625l-3.045-.05c-.357-.006-.535.169-.535.526v21.631c-.007.344.165.516.516.516l3.481-.01c.377 0 .562-.185.555-.555l-.139-9.125a.189.189 0 0 1 .286-.16.187.187 0 0 1 .081.1z" stroke="#6D6D6D" stroke-width="1.984"/><path d="M220.536 28.606a1.052 1.052 0 0 0-1.051-1.051h-.476a1.054 1.054 0 0 0-1.051 1.051v12.537a1.05 1.05 0 0 0 1.051 1.05h.476a1.05 1.05 0 0 0 1.051-1.05V28.606zm-116.198 9.026h1.051a.236.236 0 0 0 .238-.228l.01-.228a69.964 69.964 0 0 0-.038-2.897 42.694 42.694 0 0 0-.149-2.455c-.067-.703-.147-1.259-.238-1.637-.09-.379-.188-.572-.289-.568-.202.006-.401.803-.553 2.215-.153 1.413-.246 3.327-.26 5.322l-.01.228a.232.232 0 0 0 .066.175.24.24 0 0 0 .172.073z" stroke="#6D6D6D" stroke-width="1.984"/><path d="M36.478 23.172c1.144 6.36-.582 11.799-5.177 16.315-.225.218-.255.46-.09.724l2.064 3.372a.896.896 0 0 0 .823.446c2.936-.05 3.848 2.787 5.237 4.88l3.868 6.14c1.21 1.91.876 3.494-1.002 4.75l-1.656 1.12c-1.872 1.257-3.416.937-4.632-.961a1872.615 1872.615 0 0 1-6.417-10.087c-.483-.76-.413-1.749.208-2.965a.907.907 0 0 0 .092-.44.88.88 0 0 0-.131-.423l-2.242-3.531a.536.536 0 0 0-.654-.218C9.918 48.889-3.462 28.21 8.718 15.426c9.352-9.81 24.15-4.711 27.76 7.746zm-1.874 3.818a14.123 14.123 0 1 0-28.246 0 14.123 14.123 0 0 0 28.246 0z" fill="#fff"/><path d="M34.603 26.99a14.123 14.123 0 1 1-28.245 0 14.123 14.123 0 0 1 28.245 0zm-13.34-9.957C14.4 17.716 7.112 24.302 9.64 31.77c.443 1.316.806 1.292 1.09-.07 1.23-5.832 6.11-8.728 11.853-8.847.364-.006.582.169.654.526l.367 1.904c.192.966.566 1.038 1.121.219l4.205-6.229a.626.626 0 0 0 .09-.475.605.605 0 0 0-.278-.388l-6.516-3.957a.477.477 0 0 0-.724.406c0 .496.08.972.238 1.429.152.45-.007.697-.476.743zm-3.748 14.024l-.486-2.43a.416.416 0 0 0-.754-.159l-4.453 6.536a.543.543 0 0 0-.082.414.524.524 0 0 0 .24.34l6.546 4.036a.516.516 0 0 0 .774-.555l-.317-1.398c-.086-.377.062-.582.446-.615 5.792-.585 10.622-4.235 11.912-9.938.39-1.74.323-3.296-.199-4.672-.555-1.454-.955-1.411-1.2.13-.893 5.682-6.516 8.45-11.743 8.826a.65.65 0 0 1-.443-.127.63.63 0 0 1-.241-.388z" fill="#2A609F"/><path d="M21.74 16.288a4.318 4.318 0 0 1-.237-1.428.476.476 0 0 1 .724-.406l6.516 3.957a.595.595 0 0 1 .279.388.616.616 0 0 1-.09.475l-4.206 6.228c-.555.82-.929.747-1.12-.218l-.367-1.904c-.073-.357-.291-.533-.655-.526-5.743.119-10.622 3.015-11.852 8.847-.284 1.362-.648 1.385-1.091.07-2.53-7.469 4.76-14.055 11.624-14.739.47-.046.628-.294.476-.744z" fill="#fff"/><path d="M160.553 15.97l.089 37.907c-37.258.034-74.937.037-113.035.01-2.044 0-3.849-3.5-6.21-4.284-.158-.053-.178-.136-.059-.248l.228-.218c.04-.04.033-.09-.02-.149-.317-.35-.71-.387-1.18-.11a.308.308 0 0 1-.322-.015.285.285 0 0 1-.114-.292l.06-.287c.04-.205-.004-.225-.13-.06l-.525.685c-1.389-2.093-2.301-4.93-5.237-4.88a.896.896 0 0 1-.823-.446l-2.063-3.372c-.165-.265-.136-.506.09-.724 4.595-4.517 6.32-9.955 5.176-16.316.609 1.091.903 2.387.883 3.888 0 .536.103.556.308.06 1.368-3.244.952-6.883-.347-10.107a.723.723 0 0 1 .072-.662.703.703 0 0 1 .582-.31l120.375-.07h2.202zM75.327 28.28c.589-.662 1.234-.804 1.934-.427.324.178.516.453.576.823l.119.833c.046.31.221.436.525.377l3.174-.605c.357-.066.536-.281.536-.645.03-7.418-11.466-7.369-11.485.893-.007 3.881.056 7.769.188 11.663.268 7.41 10.622 6.943 11.188-.148.033-.424-.16-.662-.576-.714l-3.144-.417c-.403-.053-.588.122-.555.526.08 1.17-1.071 2.29-2.242 1.537a.943.943 0 0 1-.436-.794V28.805c0-.192.07-.379.198-.526zm61.046 9.709l-.099 3.154c-.02.68-.374 1.018-1.061 1.011h-.605c-.662-.006-.989-.337-.982-.991V28.765a1.215 1.215 0 0 1 .738-1.112 1.217 1.217 0 0 1 1.315.23c.377.356.615.78.714 1.269.106.522.423.74.952.654l2.549-.416a.971.971 0 0 0 .813-.873c.595-6.536-11.267-7.538-11.416.516-.072 4.066-.052 8.13.06 12.19.086 3.299 1.845 5.008 5.276 5.127 7.667.258 6.001-7.131 6.06-11.961.013-.596-.277-.89-.873-.883l-3.957.04c-.635.006-.955.327-.962.962l-.03 2.42c0 .317.159.486.476.505l.566.04c.324.027.479.199.466.516zm-87.854 4.007a.347.347 0 0 1-.347-.347l-.02-4.473a.347.347 0 0 1 .347-.348l4.463.03a.347.347 0 0 0 .347-.347v-3.62a.347.347 0 0 0-.357-.347l-4.403.109a.347.347 0 0 1-.357-.347l-.05-4.156a.347.347 0 0 1 .347-.347h5.237a.347.347 0 0 0 .347-.347l.01-3.55a.347.347 0 0 0-.347-.348h-9.502a.347.347 0 0 0-.347.347v21.9a.347.347 0 0 0 .347.346l9.502.01a.347.347 0 0 0 .347-.347l-.01-3.5a.347.347 0 0 0-.347-.348l-5.207.03zm14.004-13.34a.376.376 0 0 1-.734.02l-1.289-4.85a.377.377 0 0 0-.357-.278h-4.304a.377.377 0 0 0-.348.516l4.037 10.166a.377.377 0 0 1 0 .278l-4.304 11.138a.375.375 0 0 0 .347.505l4.225.02a.377.377 0 0 0 .367-.277l1.567-5.584a.377.377 0 0 1 .734 0l1.458 5.554a.377.377 0 0 0 .357.278l4.344.04a.377.377 0 0 0 .357-.526l-4.473-11.139a.377.377 0 0 1 0-.277l4.155-10.176a.376.376 0 0 0-.347-.526l-4.433.03a.378.378 0 0 0-.367.298l-.992 4.79zm29.219 3.58a.327.327 0 0 1-.337.328l-2.073-.05a.328.328 0 0 1-.318-.327v-8.302a.327.327 0 0 0-.327-.327h-3.74a.328.328 0 0 0-.326.327l.01 21.949a.327.327 0 0 0 .327.327h3.729a.327.327 0 0 0 .327-.327l.02-8.668a.327.327 0 0 1 .327-.328l2.053.03a.327.327 0 0 1 .328.327l.01 8.649a.328.328 0 0 0 .327.327l3.779-.02a.327.327 0 0 0 .327-.327V23.915a.327.327 0 0 0-.327-.327l-3.779-.05a.328.328 0 0 0-.327.328l-.01 8.37zm11.495 9.928a.334.334 0 0 1 .317-.287l2.827-.12a.339.339 0 0 1 .347.308l.426 3.769a.34.34 0 0 0 .328.298l3.957.04a.337.337 0 0 0 .327-.407l-4.145-21.94a.338.338 0 0 0-.328-.278l-4.76.021a.338.338 0 0 0-.328.278l-4.066 21.899a.338.338 0 0 0 .337.397l3.878.02a.337.337 0 0 0 .337-.288l.546-3.71zm18.16-8.668l-3.66-9.452c-.126-.33-.367-.496-.724-.496h-2.728c-.363 0-.545.182-.545.546l-.01 21.78a.297.297 0 0 0 .09.21.32.32 0 0 0 .218.087l3.729-.03c.165 0 .248-.079.248-.238l-.01-9.382c0-1.005.182-1.038.545-.1l3.561 9.195c.139.364.4.545.783.545l2.758-.01c.297 0 .446-.148.446-.446l-.02-21.81c0-.211-.106-.317-.317-.317l-3.472-.03c-.317 0-.479.159-.486.476l-.049 9.413c0 .648-.119.667-.357.059zm26.312 3.72a.348.348 0 0 1 .347-.348l4.503-.03a.348.348 0 0 0 .337-.347l-.049-3.59a.374.374 0 0 0-.03-.132.357.357 0 0 0-.194-.183.343.343 0 0 0-.133-.022l-4.394.07a.348.348 0 0 1-.347-.338l-.02-4.126a.347.347 0 0 1 .347-.347l5.068-.04a.348.348 0 0 0 .338-.337l.039-3.53a.347.347 0 0 0-.347-.348l-9.521-.01a.348.348 0 0 0-.347.347v21.9a.347.347 0 0 0 .347.346l9.501.01a.347.347 0 0 0 .347-.347v-3.491a.355.355 0 0 0-.101-.245.358.358 0 0 0-.246-.102l-5.098.01a.346.346 0 0 1-.347-.347v-4.424z" fill="#2A609F"/><path d="M160.642 53.878l-.09-37.914c21.178-.027 42.49-.072 63.933-.052 6.099 0 8.708 2.559 8.698 8.48-.007 6.784-.01 13.568-.01 20.352 0 5.911-2.024 9.124-8.103 9.105-21.086-.047-42.562-.037-64.428.03zm12.943-12.199a1.116 1.116 0 0 1-1.107.792 1.124 1.124 0 0 1-1.055-.861l-.317-1.359c-.08-.357-.298-.502-.655-.436l-3.303.624a.619.619 0 0 0-.379.238.602.602 0 0 0-.117.427c.344 3.637 2.401 5.422 6.169 5.356 5.237-.1 5.842-4.999 5.336-8.996-.466-3.63-3.382-4.404-6.069-5.673a1.165 1.165 0 0 1-.645-.774 4.635 4.635 0 0 1 .079-2.747 1.081 1.081 0 0 1 1.904-.297c.291.396.42.833.387 1.309-.033.548.218.76.754.634l3.045-.733c.516-.12.734-.44.654-.963-.542-3.643-2.826-5.22-6.853-4.73-5.028.614-5.633 7.14-3.422 10.404 1.111 1.616 3.392 2.45 5.168 3.362.317.165.512.423.585.773a7.27 7.27 0 0 1-.159 3.65zm51.483-13.36a4.957 4.957 0 0 0-4.967-4.95l-1.568.003a4.961 4.961 0 0 0-4.95 4.968l.023 13.071a4.957 4.957 0 0 0 4.968 4.95l1.567-.002a4.961 4.961 0 0 0 4.95-4.968l-.023-13.071zm-38.629 13.807l-.516-.03a.962.962 0 0 1-.912-.962V23.827c0-.185-.096-.278-.288-.278l-3.679.03c-.179 0-.272.092-.278.277a831.89 831.89 0 0 0 .03 16.772c.089 8.192 11.187 7.369 11.276.793.086-5.924.106-11.736.06-17.436 0-.284-.146-.426-.436-.426l-3.7.01c-.225 0-.337.112-.337.337l.02 17.05c0 .826-.414 1.216-1.24 1.17zm13.231-5.694l1.557 4.84c.139.424.43.632.873.625l1.745-.01c.344-.006.565-.175.665-.505l1.477-4.93c.02-.079.073-.125.159-.139a.527.527 0 0 1 .268.03c.012.007.022.023.029.046a.294.294 0 0 1 .011.083l-.189 9.412c0 .036.007.07.02.103a.278.278 0 0 0 .145.145c.033.013.068.02.103.02l3.937.05c.179 0 .268-.09.268-.268V24.035c0-.337-.172-.506-.516-.506l-2.995.02a.927.927 0 0 0-.541.175.948.948 0 0 0-.342.46l-3.163 9.174c-.225.648-.45.648-.675 0l-3.184-9.174c-.138-.41-.423-.618-.852-.625l-3.045-.05c-.357-.006-.536.169-.536.526v21.631c-.007.344.165.516.516.516l3.481-.01c.377 0 .562-.185.555-.555l-.138-9.125a.187.187 0 0 1 .285-.16.19.19 0 0 1 .082.1zM18.2 31.572c5.227-.377 10.85-3.144 11.743-8.827.244-1.54.644-1.583 1.2-.129.522 1.376.588 2.933.198 4.672-1.29 5.703-6.12 9.352-11.911 9.938-.384.033-.533.238-.447.614l.318 1.399a.516.516 0 0 1-.774.555l-6.546-4.036a.517.517 0 0 1-.24-.34.538.538 0 0 1 .082-.414l4.453-6.536a.417.417 0 0 1 .753.159l.486 2.43a.63.63 0 0 0 .241.387.65.65 0 0 0 .444.128zm57.127-3.292a.803.803 0 0 0-.198.525v12.378a.944.944 0 0 0 .436.793c1.17.754 2.32-.367 2.241-1.537-.033-.404.153-.579.556-.526l3.144.417c.416.053.608.29.575.714-.565 7.091-10.92 7.557-11.188.149a327.357 327.357 0 0 1-.188-11.664c.02-8.262 11.515-8.311 11.485-.893 0 .364-.178.579-.535.645l-3.174.605c-.304.06-.48-.066-.526-.377l-.119-.833a1.09 1.09 0 0 0-.575-.823c-.701-.377-1.346-.235-1.934.426zm60.58 9.193l-.566-.04c-.317-.02-.476-.188-.476-.505l.03-2.42c.007-.635.327-.956.962-.962l3.957-.04c.596-.007.886.288.873.883-.059 4.83 1.607 12.219-6.06 11.96-3.431-.118-5.19-1.827-5.276-5.127-.113-4.06-.132-8.123-.06-12.19.149-8.052 12.011-7.05 11.416-.515a.972.972 0 0 1-.813.873l-2.549.416c-.529.086-.846-.132-.952-.654a2.366 2.366 0 0 0-.714-1.27 1.224 1.224 0 0 0-1.315-.23 1.219 1.219 0 0 0-.738 1.113v12.398c-.007.654.32.985.981.992h.605c.688.006 1.042-.331 1.062-1.012l.099-3.154c.013-.317-.142-.49-.466-.516z" fill="#fff"/><path d="M173.585 41.679a7.27 7.27 0 0 0 .159-3.65 1.081 1.081 0 0 0-.585-.774c-1.775-.912-4.056-1.745-5.167-3.362-2.212-3.263-1.607-9.789 3.421-10.404 4.027-.489 6.312 1.088 6.854 4.731.079.523-.139.843-.655.962l-3.045.734c-.535.126-.786-.086-.753-.635a1.927 1.927 0 0 0-.387-1.309 1.082 1.082 0 0 0-1.904.298 4.627 4.627 0 0 0-.08 2.747c.099.357.314.615.645.774 2.688 1.27 5.604 2.043 6.07 5.673.506 3.997-.099 8.896-5.336 8.995-3.769.066-5.825-1.719-6.169-5.355a.597.597 0 0 1 .116-.428.618.618 0 0 1 .38-.237l3.302-.625c.357-.066.576.08.655.437l.317 1.358a1.12 1.12 0 0 0 2.162.07zm51.506-.289a4.964 4.964 0 0 1-3.053 4.587c-.602.25-1.246.38-1.897.381l-1.568.003a4.958 4.958 0 0 1-4.967-4.95l-.023-13.072a4.965 4.965 0 0 1 1.446-3.51 4.964 4.964 0 0 1 3.504-1.458l1.567-.003a4.959 4.959 0 0 1 4.968 4.95l.023 13.073zm-4.554-12.784a1.052 1.052 0 0 0-1.051-1.05h-.476a1.052 1.052 0 0 0-1.052 1.05v12.537a1.052 1.052 0 0 0 1.052 1.051h.476a1.05 1.05 0 0 0 1.051-1.051V28.606z" fill="#2A609F"/><path d="M48.519 41.996l5.207-.03a.347.347 0 0 1 .347.348l.01 3.5a.347.347 0 0 1-.347.348l-9.502-.01a.347.347 0 0 1-.347-.347v-21.9a.347.347 0 0 1 .347-.346h9.502a.347.347 0 0 1 .347.347l-.01 3.55a.347.347 0 0 1-.347.348h-5.237a.347.347 0 0 0-.347.347l.05 4.155a.347.347 0 0 0 .357.347l4.403-.109a.347.347 0 0 1 .357.348v3.62a.347.347 0 0 1-.347.347l-4.463-.03a.347.347 0 0 0-.347.347l.02 4.473a.347.347 0 0 0 .347.347zm14.004-13.34l.991-4.79a.377.377 0 0 1 .367-.298l4.434-.03a.375.375 0 0 1 .347.526L64.506 34.24a.377.377 0 0 0 0 .277l4.473 11.138a.376.376 0 0 1-.357.526l-4.344-.04a.377.377 0 0 1-.357-.277l-1.458-5.554a.377.377 0 0 0-.734 0l-1.567 5.583a.377.377 0 0 1-.367.278l-4.225-.02a.376.376 0 0 1-.347-.506l4.304-11.138a.377.377 0 0 0 0-.277l-4.036-10.166a.377.377 0 0 1 .347-.516h4.304a.377.377 0 0 1 .357.278l1.29 4.85a.377.377 0 0 0 .734-.02zm29.219 3.58l.01-8.37a.327.327 0 0 1 .328-.328l3.778.05a.328.328 0 0 1 .328.327v21.909a.327.327 0 0 1-.328.327l-3.779.02a.327.327 0 0 1-.327-.327l-.01-8.649a.327.327 0 0 0-.327-.327l-2.053-.03a.328.328 0 0 0-.327.328l-.02 8.668a.327.327 0 0 1-.328.327h-3.729a.328.328 0 0 1-.327-.327l-.01-21.949a.328.328 0 0 1 .327-.327h3.74a.327.327 0 0 1 .327.327v8.302a.327.327 0 0 0 .317.327l2.073.05a.329.329 0 0 0 .337-.328zm11.494 9.929l-.546 3.71a.337.337 0 0 1-.337.288l-3.878-.02a.337.337 0 0 1-.337-.398l4.067-21.899a.336.336 0 0 1 .327-.277l4.76-.02a.338.338 0 0 1 .328.277l4.145 21.94a.318.318 0 0 1-.002.147.334.334 0 0 1-.325.259l-3.957-.04a.337.337 0 0 1-.327-.297l-.427-3.77a.337.337 0 0 0-.347-.307l-2.827.12a.336.336 0 0 0-.317.287zm1.101-4.533h1.051a.236.236 0 0 0 .238-.228l.01-.228a69.972 69.972 0 0 0-.038-2.897 42.695 42.695 0 0 0-.149-2.455c-.066-.703-.147-1.259-.238-1.637-.09-.379-.188-.572-.289-.568-.202.006-.401.803-.553 2.216-.153 1.412-.246 3.326-.26 5.321l-.01.229a.235.235 0 0 0 .144.229c.03.012.062.019.094.018zm17.416-4.195l.049-9.412c.007-.317.169-.476.486-.476l3.472.03c.211 0 .317.105.317.317l.02 21.81c0 .297-.149.446-.447.446l-2.757.01c-.383 0-.644-.182-.783-.545l-3.561-9.195c-.363-.938-.545-.905-.545.1l.01 9.382c0 .159-.083.238-.248.238l-3.73.03a.312.312 0 0 1-.284-.184.297.297 0 0 1-.023-.114l.01-21.78c0-.363.182-.545.545-.545h2.728c.357 0 .598.165.724.496l3.66 9.452c.238.608.357.588.357-.06z" fill="#fff"/><path d="M186.439 42.125c.827.047 1.24-.343 1.24-1.17l-.02-17.05c0-.224.113-.336.338-.336l3.699-.01c.291 0 .436.142.436.426.047 5.7.027 11.512-.059 17.436-.089 6.576-11.188 7.399-11.277-.793a839.337 839.337 0 0 1-.03-16.772c.007-.185.1-.277.278-.277l3.68-.03c.191 0 .287.092.287.277v17.307a.962.962 0 0 0 .913.962l.515.03z" fill="#2A609F"/><path d="M147.709 37.216v4.423a.347.347 0 0 0 .347.347l5.098-.01a.35.35 0 0 1 .245.102.343.343 0 0 1 .102.245v3.492a.343.343 0 0 1-.347.347l-9.502-.01a.346.346 0 0 1-.347-.347v-21.9a.348.348 0 0 1 .347-.346l9.522.01a.346.346 0 0 1 .347.347l-.04 3.53a.347.347 0 0 1-.337.338l-5.068.04a.345.345 0 0 0-.347.346l.019 4.126a.35.35 0 0 0 .348.338l4.393-.07a.346.346 0 0 1 .357.337l.05 3.59a.347.347 0 0 1-.337.348l-4.503.03a.347.347 0 0 0-.347.347z" fill="#fff"/><path d="M199.67 36.431a.187.187 0 0 0-.209-.125.188.188 0 0 0-.158.185l.139 9.124c.006.37-.179.556-.556.556l-3.481.01c-.35 0-.522-.172-.516-.516V24.034c0-.357.179-.533.536-.526l3.045.05c.43.006.714.215.853.624l3.183 9.175c.225.648.45.648.675 0l3.164-9.175a.947.947 0 0 1 .341-.46.927.927 0 0 1 .541-.174l2.996-.02c.343 0 .515.168.515.506v21.899c0 .178-.089.267-.267.267l-3.938-.05a.265.265 0 0 1-.247-.164.259.259 0 0 1-.021-.103l.189-9.412c0-.03-.004-.06-.011-.083-.007-.023-.017-.04-.029-.046a.528.528 0 0 0-.268-.03c-.086.013-.139.06-.158.139l-1.478 4.93c-.099.33-.321.498-.665.505l-1.745.01c-.443.007-.734-.202-.873-.625l-1.557-4.84z" fill="#2A609F"/><path d="M219.485 27.555h-.476c-.58 0-1.051.47-1.051 1.051v12.536c0 .581.471 1.052 1.051 1.052h.476c.581 0 1.052-.471 1.052-1.052V28.606c0-.58-.471-1.051-1.052-1.051z" fill="#fff"/><path d="M104.338 37.632a.243.243 0 0 1-.172-.073.236.236 0 0 1-.066-.175l.01-.228c.014-1.996.107-3.91.26-5.322.152-1.413.351-2.21.553-2.216.101-.003.199.19.289.568.091.378.171.935.238 1.637.066.702.117 1.537.149 2.455.032.919.045 1.904.038 2.898l-.01.228a.237.237 0 0 1-.238.228h-1.051z" fill="#2A609F"/></svg>