<svg width="210" height="46" viewBox="0 0 210 46" fill="none" xmlns="http://www.w3.org/2000/svg">
<g clip-path="url(#clip0_1487_69260)">
<path opacity="0.968" fill-rule="evenodd" clip-rule="evenodd" d="M144.219 10.2968C151.601 10.3245 155.081 14.0411 154.66 21.4467C153.964 25.376 151.695 27.8436 147.851 28.8495C143.757 29.6956 140.398 28.5075 137.774 25.2851C135.665 21.4644 135.726 17.6867 137.955 13.9525C139.571 11.9057 141.659 10.6872 144.219 10.2968ZM144.401 15.232C147.006 14.901 148.67 15.9977 149.394 18.5221C149.896 21.1633 148.958 23.0217 146.58 24.097C143.906 24.5017 142.242 23.3745 141.587 20.7155C141.236 18.1921 142.174 16.3643 144.401 15.232Z" fill="#29AD64"/>
<path opacity="0.971" fill-rule="evenodd" clip-rule="evenodd" d="M115.168 10.4792C116.018 10.4489 116.865 10.4793 117.71 10.5706C119.98 12.9772 122.249 15.3839 124.519 17.7906C126.789 15.3839 129.058 12.9772 131.328 10.5706C132.173 10.4793 133.02 10.4489 133.87 10.4792C133.87 16.572 133.87 22.6649 133.87 28.7577C132.175 28.7577 130.48 28.7577 128.786 28.7577C128.816 25.7715 128.786 22.7861 128.695 19.8012C127.638 21.0418 126.519 22.2299 125.336 23.3655C124.791 23.4875 124.247 23.4875 123.702 23.3655C122.582 22.1166 121.462 20.8674 120.343 19.6184C120.252 22.6642 120.222 25.7107 120.252 28.7577C118.557 28.7577 116.863 28.7577 115.168 28.7577C115.168 22.6649 115.168 16.572 115.168 10.4792Z" fill="#29AD64"/>
<path opacity="0.97" fill-rule="evenodd" clip-rule="evenodd" d="M157.111 10.4791C157.78 10.4489 158.446 10.4794 159.109 10.5705C162.165 13.5255 165.222 16.4806 168.278 19.4356C168.369 16.5117 168.399 13.5871 168.369 10.6619C170.063 10.6619 171.758 10.6619 173.453 10.6619C173.453 16.7547 173.453 22.8477 173.453 28.9404C172.724 28.9708 171.998 28.9403 171.274 28.849C168.278 25.955 165.282 23.0608 162.286 20.1667C162.195 23.0297 162.165 25.8934 162.195 28.7577C160.501 28.7577 158.806 28.7577 157.111 28.7577C157.111 22.6649 157.111 16.572 157.111 10.4791Z" fill="#29AD64"/>
<path opacity="0.968" fill-rule="evenodd" clip-rule="evenodd" d="M49.6206 10.7791C52.6474 10.7486 55.6736 10.7791 58.6992 10.8704C63.0509 11.4454 64.7153 13.8521 63.6924 18.0905C63.3281 18.6702 62.8742 19.1576 62.3306 19.5528C64.6759 20.7529 65.493 22.6416 64.7818 25.2191C63.808 27.2793 62.2042 28.5282 59.9702 28.9662C59.0405 29.1406 58.1023 29.232 57.1558 29.2404C54.6296 29.1325 52.1178 28.8889 49.6206 28.5092C49.6206 22.5992 49.6206 16.6891 49.6206 10.7791ZM54.7046 15.3487C55.6749 15.3183 56.6432 15.3488 57.6097 15.4401C58.4455 15.5548 58.9902 16.0118 59.2439 16.811C59.0374 17.3538 58.6743 17.7498 58.1544 17.9991C57.006 18.0904 55.8561 18.1208 54.7046 18.0905C54.7046 17.1765 54.7046 16.2626 54.7046 15.3487ZM54.7046 21.7462C55.977 21.7158 57.248 21.7462 58.5176 21.8376C59.8015 22.4398 59.9226 23.2319 58.8807 24.2138C57.5796 24.755 56.2481 24.8159 54.8862 24.3966C54.7102 23.5307 54.6496 22.6473 54.7046 21.7462Z" fill="black"/>
<path opacity="0.944" fill-rule="evenodd" clip-rule="evenodd" d="M67.1421 10.7667C71.4998 10.7667 75.8575 10.7667 80.2152 10.7667C80.2152 12.2289 80.2152 13.6912 80.2152 15.1535C77.6128 15.1535 75.0101 15.1535 72.4077 15.1535C72.4077 16.0065 72.4077 16.8595 72.4077 17.7125C74.7076 17.7125 77.0074 17.7125 79.3074 17.7125C79.3074 19.0529 79.3074 20.3934 79.3074 21.7338C77.0074 21.7338 74.7076 21.7338 72.4077 21.7338C72.4077 22.5868 72.4077 23.4397 72.4077 24.2928C75.0101 24.2928 77.6128 24.2928 80.2152 24.2928C80.2152 25.8159 80.2152 27.3393 80.2152 28.8624C75.8575 28.8624 71.4998 28.8624 67.1421 28.8624C67.1421 22.8305 67.1421 16.7986 67.1421 10.7667Z" fill="black"/>
<path opacity="0.946" fill-rule="evenodd" clip-rule="evenodd" d="M82.3511 10.7667C86.7088 10.7667 91.0665 10.7667 95.4242 10.7667C95.4242 12.2289 95.4242 13.6912 95.4242 15.1535C92.7611 15.1535 90.0982 15.1535 87.4351 15.1535C87.4351 16.0065 87.4351 16.8595 87.4351 17.7125C89.7955 17.7125 92.1559 17.7125 94.5163 17.7125C94.5163 19.0529 94.5163 20.3934 94.5163 21.7338C92.1559 21.7338 89.7955 21.7338 87.4351 21.7338C87.4351 22.5868 87.4351 23.4397 87.4351 24.2928C90.0982 24.2928 92.7611 24.2928 95.4242 24.2928C95.4242 25.8159 95.4242 27.3393 95.4242 28.8624C91.0665 28.8624 86.7088 28.8624 82.3511 28.8624C82.3511 22.8305 82.3511 16.7986 82.3511 10.7667Z" fill="black"/>
<path opacity="0.962" fill-rule="evenodd" clip-rule="evenodd" d="M97.561 10.7791C100.346 10.7486 103.13 10.7791 105.913 10.8704C109.074 10.9489 111.223 12.4416 112.359 15.3487C113.151 18.6907 111.97 21.0059 108.818 22.2945C110.392 24.4271 111.966 26.5595 113.539 28.692C111.484 28.9051 109.426 28.9355 107.366 28.7834C105.823 26.4986 104.279 24.2138 102.736 21.929C102.645 24.2434 102.615 26.5587 102.645 28.8748C100.95 28.8748 99.2556 28.8748 97.561 28.8748C97.561 22.8429 97.561 16.811 97.561 10.7791ZM102.645 15.7143C103.736 15.6839 104.826 15.7144 105.913 15.8057C107.208 16.1802 107.602 17.0027 107.094 18.2733C105.783 19.2554 104.36 19.4381 102.827 18.8216C102.646 17.7929 102.585 16.7571 102.645 15.7143Z" fill="black"/>
<path opacity="0.948" fill-rule="evenodd" clip-rule="evenodd" d="M175.813 10.6624C180.171 10.6624 184.528 10.6624 188.886 10.6624C188.886 12.1246 188.886 13.5869 188.886 15.0492C186.222 15.0492 183.561 15.0492 180.897 15.0492C180.897 15.9022 180.897 16.7552 180.897 17.6082C183.257 17.6082 185.618 17.6082 187.978 17.6082C187.978 18.9486 187.978 20.2891 187.978 21.6295C185.618 21.6295 183.257 21.6295 180.897 21.6295C180.897 22.4825 180.897 23.3354 180.897 24.1885C183.561 24.1885 186.222 24.1885 188.886 24.1885C188.886 25.7116 188.886 27.2349 188.886 28.7581C184.528 28.7581 180.171 28.7581 175.813 28.7581C175.813 22.7262 175.813 16.6943 175.813 10.6624Z" fill="#29AD64"/>
<path opacity="0.956" fill-rule="evenodd" clip-rule="evenodd" d="M209.222 10.6619C209.222 10.9056 209.222 11.1493 209.222 11.393C206.972 15.0066 204.762 18.6623 202.595 22.3601C202.504 24.4918 202.473 26.6243 202.504 28.7576C200.81 28.7576 199.114 28.7576 197.42 28.7576C197.451 26.6852 197.42 24.6135 197.329 22.5429C194.959 18.6243 192.69 14.6639 190.52 10.6619C192.457 10.6314 194.395 10.6619 196.33 10.7533C197.534 12.8405 198.714 14.9425 199.871 17.0593C201.12 15.0018 202.3 12.8998 203.412 10.7533C205.347 10.6619 207.284 10.6314 209.222 10.6619Z" fill="#29AD64"/>
<path opacity="0.943" fill-rule="evenodd" clip-rule="evenodd" d="M107.361 30.5864C112.388 30.4981 114.415 32.9353 113.443 37.8978C111.915 40.7679 109.585 41.7123 106.453 40.7309C104.087 39.4706 103.088 37.4905 103.457 34.7904C103.985 32.6445 105.286 31.2433 107.361 30.5864ZM108.087 33.3281C109.553 33.2272 110.43 33.8973 110.72 35.3388C110.717 37.9025 109.537 38.7251 107.179 37.8064C105.977 35.9754 106.28 34.4826 108.087 33.3281Z" fill="black"/>
<path opacity="0.954" fill-rule="evenodd" clip-rule="evenodd" d="M143.674 30.5854C144.162 30.5554 144.646 30.586 145.127 30.6768C146.301 32.0422 147.542 33.3521 148.849 34.6067C150.156 33.3521 151.397 32.0422 152.571 30.6768C153.052 30.586 153.536 30.5554 154.024 30.5854C154.024 33.9975 154.024 37.4093 154.024 40.8214C153.056 40.8214 152.087 40.8214 151.119 40.8214C151.149 39.2361 151.119 37.6519 151.028 36.069C150.577 36.6994 150.063 37.2783 149.485 37.8054C149.061 37.9274 148.637 37.9274 148.214 37.8054C147.766 37.1721 147.252 36.5934 146.67 36.069C146.579 37.6519 146.549 39.2361 146.579 40.8214C145.611 40.8214 144.643 40.8214 143.674 40.8214C143.674 37.4093 143.674 33.9975 143.674 30.5854Z" fill="black"/>
<path opacity="0.946" fill-rule="evenodd" clip-rule="evenodd" d="M92.9321 30.7689C95.2926 30.7689 97.653 30.7689 100.013 30.7689C100.013 31.6828 100.013 32.5967 100.013 33.5106C98.6213 33.5106 97.2294 33.5106 95.8373 33.5106C95.8373 33.9981 95.8373 34.4854 95.8373 34.9729C96.9872 34.9729 98.1372 34.9729 99.2871 34.9729C99.2871 35.826 99.2871 36.6789 99.2871 37.5319C98.1372 37.5319 96.9872 37.5319 95.8373 37.5319C95.8373 38.6286 95.8373 39.7253 95.8373 40.8221C94.8689 40.8221 93.9004 40.8221 92.9321 40.8221C92.9321 37.471 92.9321 34.1199 92.9321 30.7689Z" fill="black"/>
<path opacity="0.95" fill-rule="evenodd" clip-rule="evenodd" d="M117.892 30.7687C119.841 30.695 121.777 30.7864 123.702 31.0429C126.058 32.0014 126.754 33.677 125.79 36.0694C125.326 36.6235 124.751 37.0196 124.066 37.2576C124.973 38.4151 125.881 39.5729 126.789 40.7305C125.579 40.8524 124.368 40.8524 123.158 40.7305C122.401 39.6032 121.645 38.4762 120.888 37.3489C120.797 38.5051 120.767 39.6626 120.797 40.8219C119.829 40.8219 118.86 40.8219 117.892 40.8219C117.892 37.4709 117.892 34.1197 117.892 30.7687ZM120.797 33.5105C121.482 33.4671 122.148 33.5585 122.795 33.7846C123.321 34.3615 123.26 34.8488 122.613 35.2469C122.011 35.3379 121.405 35.3685 120.797 35.3383C120.797 34.7291 120.797 34.1197 120.797 33.5105Z" fill="black"/>
<path opacity="0.941" fill-rule="evenodd" clip-rule="evenodd" d="M130.239 30.7687C131.207 30.7687 132.176 30.7687 133.144 30.7687C133.114 32.902 133.144 35.0345 133.235 37.1662C133.445 37.9582 133.96 38.3237 134.778 38.2629C135.596 38.3237 136.111 37.9582 136.321 37.1662C136.412 35.0345 136.442 32.902 136.412 30.7687C137.38 30.7687 138.349 30.7687 139.317 30.7687C139.398 33.341 139.308 35.9 139.045 38.4457C138.208 40.2543 136.785 41.1074 134.778 41.0047C132.771 41.1074 131.348 40.2543 130.511 38.4457C130.248 35.9 130.158 33.341 130.239 30.7687Z" fill="black"/>
<path opacity="0.872" fill-rule="evenodd" clip-rule="evenodd" d="M50.1655 35.338C62.1492 35.338 74.1329 35.338 86.1166 35.338C86.1166 35.8254 86.1166 36.3127 86.1166 36.8002C74.1329 36.8002 62.1492 36.8002 50.1655 36.8002C50.1655 36.3127 50.1655 35.8254 50.1655 35.338Z" fill="#29AD64"/>
<path opacity="0.872" fill-rule="evenodd" clip-rule="evenodd" d="M165.463 35.338C177.447 35.338 189.431 35.338 201.414 35.338C201.414 35.8254 201.414 36.3127 201.414 36.8002C189.431 36.8002 177.447 36.8002 165.463 36.8002C165.463 36.3127 165.463 35.8254 165.463 35.338Z" fill="#29AD64"/>
<path d="M11.1553 7.8289L21.6323 5.03229L34.8827 7.8289V17.1222H11.1553V7.8289Z" fill="#29AD64"/>
<path d="M17.5692 3.23388C5.64017 5.4267 -1.75698 17.882 2.07316 29.2555C4.93846 37.8221 12.2771 43.1434 21.2239 43.1434C26.3112 43.1434 30.4338 41.6522 34.4101 38.3484L36.2813 36.7695L40.7547 38.4069C43.2107 39.284 45.2865 39.9272 45.3742 39.8687C45.462 39.781 44.3217 37.6759 42.8306 35.2199L40.1699 30.7173L40.7839 28.0275C41.895 23.1155 41.4564 18.6129 39.4097 14.3442C36.6029 8.52591 31.1062 4.34491 24.7324 3.20464C22.0425 2.73684 20.2298 2.73684 17.5692 3.23388ZM19.9667 7.09326C20.5514 7.3564 21.1654 7.97039 21.4578 8.55515C21.7209 9.11066 22.3641 9.75389 23.0366 10.1047L24.1476 10.6895L24.6155 9.78313C25.5218 7.99963 28.4456 7.67801 29.849 9.22761C30.1414 9.54922 30.7261 9.81236 31.1355 9.81236C32.7435 9.8416 33.3868 10.9819 33.3575 13.7595V15.5137L22.1595 15.6014C16.0196 15.6307 10.9907 15.5722 10.9907 15.4552C10.9907 14.6074 11.6924 13.0285 12.1017 12.9116C12.3941 12.7946 12.7449 12.2976 12.8911 11.7713C13.0958 11.1573 13.4759 10.7187 14.0899 10.4264C14.6454 10.1925 15.1717 9.6077 15.5518 8.81828C15.9026 8.02887 16.4581 7.44411 17.1306 7.12249C18.3878 6.47926 18.6802 6.47926 19.9667 7.09326ZM16.3704 18.0574C16.7505 18.6714 17.3353 22.3846 17.8615 27.5304C18.037 29.08 17.9785 29.3432 17.5399 29.5186C17.0721 29.694 17.0721 29.7233 17.5399 30.0741C18.0954 30.4834 18.534 34.0212 18.1832 35.3661C18.0077 36.1263 17.92 36.1556 16.195 36.0678L14.3822 35.9801L14.1776 34.9568C14.0606 34.4013 13.8267 32.5593 13.6221 30.8635C13.242 27.238 12.0725 21.7998 11.1369 19.2561L10.4644 17.4142H13.2127C15.7272 17.4142 15.9903 17.4726 16.3704 18.0574ZM20.6391 17.9989C20.6391 18.3205 20.6976 18.5837 20.7853 18.5837C20.873 18.5837 21.1946 18.3205 21.5163 17.9989C22.2472 17.268 23.4459 17.2387 23.9137 17.9697C24.2646 18.5252 24.2646 18.5252 24.9663 17.9697C25.3756 17.6773 25.9896 17.4142 26.3405 17.4142C27.6269 17.4142 27.7147 17.9112 27.2176 22.4723C26.9837 24.8113 26.6913 28.8169 26.6036 31.419L26.399 36.1263H25.5218H24.6447L24.8494 31.6529C24.9371 29.2262 25.1125 25.5423 25.2002 23.4664C25.3756 19.8994 25.3756 19.7532 24.8201 19.7532C24.2646 19.7532 24.2354 20.0163 24.0599 23.7588C23.943 25.9516 23.8553 29.6355 23.8553 31.9453V36.1556L23.0659 36.0678L22.2472 35.9801L22.101 27.9398C21.9548 20.1333 21.9256 19.8994 21.3701 19.8994C20.9607 19.8994 20.8145 20.0748 20.8438 20.4549C20.873 20.7765 20.99 24.4312 21.1069 28.583L21.3116 36.1263H20.376H19.4696V32.6763C19.4696 29.4309 18.7679 19.9579 18.4171 18.2036C18.2709 17.4434 18.3001 17.4142 19.4404 17.4142C20.4345 17.4142 20.6391 17.5019 20.6391 17.9989ZM35.4334 17.882C35.3457 18.1451 35.1703 18.6714 35.0826 19.0515C34.9071 19.6947 34.7609 19.7532 33.2113 19.7532C31.4571 19.7532 31.1647 19.9579 31.1647 21.2443C31.1647 21.7121 31.3694 21.7998 32.6558 21.7998H34.147L33.9423 22.7354C33.6499 24.1096 33.6207 24.1389 32.0418 24.1389C30.7846 24.1389 30.58 24.2266 30.4338 24.7821C30.1414 26.127 29.7321 29.9279 29.5274 32.9686L29.3227 36.1263H28.5041C28.0363 36.1263 27.6562 35.9801 27.6562 35.8047C27.6562 31.536 29.2058 19.0807 29.8782 18.0574C30.2583 17.4726 30.5215 17.4142 32.9482 17.4142C35.258 17.4142 35.5796 17.4726 35.4334 17.882ZM10.4059 21.2443C10.4059 21.946 10.2597 22.1799 9.52878 22.4431C9.03174 22.5893 8.50546 22.9693 8.35927 23.2617C8.18385 23.5541 8.0669 25.7762 8.0669 28.2029C8.0669 32.9102 8.18385 33.2903 9.70421 33.6703C10.2305 33.8165 10.4059 34.0504 10.4059 34.6937C10.4059 35.3954 10.289 35.5416 9.70421 35.5416C8.82708 35.5416 7.16053 34.4013 6.69272 33.4949C6.19568 32.5301 6.16645 23.5833 6.66349 22.56C7.01434 21.7414 8.03766 20.9812 9.20717 20.6303C10.3767 20.2502 10.4059 20.2795 10.4059 21.2443ZM29.9952 38.6115V39.9272H21.6624H13.3297V38.6115V37.2958H21.6624H29.9952V38.6115Z" fill="black"/>
<path d="M13.7099 20.5424C13.7976 21.0102 14.1777 22.9691 14.5286 24.9281C15.0841 27.9395 15.2887 28.5243 15.7273 28.5243C16.1366 28.5243 16.2243 28.3489 16.1074 27.7056C16.0489 27.2671 15.8443 25.9806 15.6688 24.8696C14.9964 20.4547 14.7917 19.753 14.1485 19.753C13.6514 19.753 13.593 19.8992 13.7099 20.5424Z" fill="black"/>
<path d="M15.4932 32.0621C15.5809 32.5592 15.6686 33.1732 15.6686 33.3778C15.6686 33.6117 15.8733 33.7872 16.1072 33.7872C16.4288 33.7872 16.5458 33.4363 16.5458 32.4715C16.5458 31.3312 16.4581 31.1558 15.9318 31.1558C15.3763 31.1558 15.3178 31.2727 15.4932 32.0621Z" fill="black"/>
</g>
<defs>
<clipPath id="clip0_1487_69260">
<rect width="208.625" height="44.9652" fill="white" transform="translate(0.6875 0.517639)"/>
</clipPath>
</defs>
</svg>
