<svg width="242" height="44" viewBox="0 0 242 44" fill="none" xmlns="http://www.w3.org/2000/svg">
<path d="M19.9782 1.53983C19.7931 1.55445 19.5933 1.57881 19.5398 1.60317C19.4862 1.62753 19.2767 1.66164 19.0769 1.68112C18.4971 1.72497 17.6445 1.86139 17.6104 1.91011C17.5958 1.93447 17.5617 1.94909 17.5373 1.94421C17.474 1.92472 16.5873 2.10986 16.3973 2.17807C16.2852 2.22192 16.256 2.23167 15.8614 2.33885C15.6616 2.39732 15.4034 2.48501 15.2913 2.5386C15.1744 2.58732 15.0623 2.63117 15.0331 2.63117C14.9746 2.63117 14.0831 2.98683 13.742 3.14274C12.8992 3.53737 11.7542 4.13176 11.2573 4.43383C11.1062 4.5264 10.9406 4.62384 10.887 4.65307C10.8383 4.67743 10.7944 4.71641 10.7944 4.7359C10.7944 4.76026 10.7701 4.77487 10.7408 4.77487C10.7116 4.77487 10.5362 4.88206 10.3511 5.01847C10.1659 5.15002 10.0003 5.26208 9.9808 5.26208C9.96619 5.26208 9.7372 5.43747 9.47411 5.65184C9.21102 5.86621 8.98203 6.0416 8.96742 6.0416C8.9528 6.0416 8.87485 6.11956 8.79202 6.21212C8.7092 6.3047 8.61663 6.38265 8.58253 6.38265C8.51919 6.38265 6.38036 8.50686 6.29754 8.65789C6.26343 8.71636 6.04419 8.98432 5.81033 9.26202C5.5716 9.53973 5.3621 9.80282 5.34749 9.8418C5.33287 9.88078 5.27928 9.94411 5.23056 9.97822C5.18184 10.0123 5.14286 10.0659 5.14286 10.0951C5.14286 10.1195 5.01132 10.3241 4.85054 10.5482C4.68976 10.7724 4.55822 10.9672 4.55822 10.9867C4.55822 11.0062 4.48514 11.1329 4.39744 11.2693C4.16358 11.6493 4.14409 11.6786 3.85177 12.2145C3.53996 12.7845 2.95044 14.0025 2.95044 14.0805C2.95044 14.1097 2.91634 14.1828 2.87736 14.2413C2.83838 14.3046 2.76043 14.4946 2.70197 14.67C2.64837 14.8405 2.58504 15.0013 2.56555 15.0305C2.54606 15.0549 2.47785 15.2449 2.41452 15.4447C2.35605 15.6444 2.2781 15.8734 2.244 15.9562C2.20989 16.0342 2.1563 16.2242 2.12219 16.3703C2.09296 16.5165 2.05399 16.6724 2.03937 16.7114C2.01988 16.7504 2.00526 16.7942 2.00039 16.8088C1.99552 16.8234 1.9809 16.8673 1.96142 16.9063C1.9468 16.9452 1.89808 17.1986 1.84936 17.4665C1.80551 17.7345 1.75192 17.9732 1.73243 17.9976C1.70807 18.022 1.7032 18.0707 1.71781 18.1097C1.73243 18.1486 1.72269 18.2266 1.69345 18.2851C1.48883 18.704 1.35728 22.5335 1.48883 24.2631C1.55704 25.179 1.64473 25.8903 1.69345 25.9537C1.71781 25.9829 1.73243 26.0511 1.72756 26.0998C1.72269 26.1485 1.72756 26.2216 1.74705 26.2606C1.76166 26.2996 1.81038 26.5529 1.8591 26.8209C1.90295 27.0888 1.96142 27.3324 1.9809 27.3568C2.00039 27.386 2.05399 27.5614 2.09783 27.7466C2.18066 28.1217 2.50221 29.1302 2.56068 29.2082C2.58017 29.2325 2.62401 29.3446 2.65812 29.4518C2.69222 29.559 2.79454 29.8221 2.8871 30.0364C3.03327 30.3726 3.1502 30.6454 3.15507 30.6795C3.15507 30.6942 3.80305 31.9609 3.95895 32.2532C4.03691 32.3994 4.1782 32.643 4.28051 32.794C4.37795 32.945 4.46078 33.0863 4.46078 33.1058C4.46078 33.1253 4.55822 33.2812 4.68002 33.4517C4.80182 33.6174 4.89926 33.7782 4.89926 33.8074C4.89926 33.8366 4.92362 33.861 4.94798 33.861C4.97721 33.861 5.01619 33.9097 5.04055 33.973C5.06491 34.0315 5.22569 34.2605 5.40595 34.4846C5.58135 34.7038 5.72751 34.9036 5.72751 34.928C5.72751 34.9523 5.7811 35.0157 5.84931 35.0692C5.91752 35.1228 5.97111 35.191 5.97111 35.2252C5.97111 35.3031 8.8651 38.1971 8.94306 38.1971C8.97716 38.1971 9.04537 38.2507 9.09896 38.3189C9.15255 38.3871 9.21589 38.4407 9.24025 38.4407C9.26461 38.4407 9.46437 38.5869 9.68361 38.7623C9.90772 38.9425 10.1221 39.0984 10.1611 39.113C10.2 39.1277 10.4144 39.269 10.6337 39.4249C10.848 39.5808 11.0478 39.7074 11.077 39.7074C11.1014 39.7074 11.1745 39.7464 11.2378 39.8C11.6714 40.1362 13.8297 41.1983 14.7164 41.5101C14.9308 41.588 15.2231 41.6952 15.3644 41.7488C15.5057 41.8073 15.6567 41.8511 15.7055 41.8511C15.7493 41.8511 15.8516 41.8852 15.9344 41.9291C16.066 41.9973 16.5337 42.1191 16.9088 42.1824C16.9917 42.1922 17.0794 42.2214 17.1086 42.2458C17.1378 42.2701 17.4643 42.3335 17.8394 42.3919C18.2097 42.4504 18.5507 42.5137 18.5946 42.5332C19.0525 42.7671 24.8893 42.7671 25.4349 42.5381C25.4885 42.5137 25.8539 42.4455 26.2534 42.3871C26.6481 42.3286 26.9696 42.2555 26.9696 42.236C26.9696 42.2117 27.0135 42.1922 27.0622 42.1922C27.1986 42.1922 28.0074 41.9973 28.0658 41.9486C28.0951 41.9291 28.2705 41.8706 28.4556 41.8268C28.6456 41.7829 28.8405 41.7147 28.8941 41.6855C28.9477 41.6514 29.1133 41.588 29.2595 41.5393C30 41.3006 32.0073 40.3311 32.6602 39.8974C32.7771 39.8195 32.8892 39.7562 32.9086 39.7562C32.9281 39.7562 33.0694 39.6685 33.2205 39.5613C33.3666 39.4541 33.5128 39.3664 33.5371 39.3664C33.5664 39.3664 33.5956 39.3518 33.6053 39.3274C33.6151 39.3079 33.7174 39.23 33.8392 39.152C33.961 39.0741 34.1608 38.923 34.2923 38.8207C34.419 38.7135 34.5213 38.6405 34.5213 38.6648C34.5213 38.6843 34.5749 38.6405 34.6431 38.5674C34.7064 38.4992 34.7746 38.4407 34.7941 38.4407C34.9744 38.4407 38.3215 35.0936 38.3215 34.9085C38.3215 34.889 38.3751 34.8305 38.4433 34.7769C38.5115 34.7233 38.5651 34.66 38.5651 34.6356C38.5651 34.6113 38.6869 34.4359 38.8379 34.241C38.989 34.0461 39.1254 33.8512 39.14 33.8123C39.1546 33.7733 39.2861 33.5735 39.4274 33.3689C39.5687 33.1643 39.6857 32.984 39.6857 32.9645C39.6857 32.945 39.7441 32.8427 39.8221 32.7258C40.0608 32.3555 41.0255 30.4554 41.1229 30.1582C41.1278 30.1436 41.157 30.0803 41.1862 30.0121C41.2886 29.788 41.6345 28.872 41.6345 28.8282C41.6345 28.8038 41.6637 28.7161 41.7027 28.6333C41.766 28.4774 41.956 27.8343 41.995 27.6248C41.9999 27.6101 42.0145 27.576 42.034 27.5517C42.0486 27.5225 42.1022 27.3032 42.146 27.0645C42.1899 26.8209 42.2386 26.5919 42.2532 26.5529C42.2727 26.5139 42.2776 26.4409 42.2727 26.3921C42.2678 26.3434 42.2825 26.2752 42.3117 26.246C42.3702 26.1729 42.5017 25.1254 42.5455 24.3995C42.5602 24.1071 42.5943 23.8587 42.6186 23.8441C42.6771 23.8051 42.6673 20.4288 42.604 20.3898C42.5748 20.3703 42.5602 20.2144 42.565 20.0195C42.5699 19.8344 42.5602 19.6687 42.5455 19.6492C42.5261 19.6346 42.5114 19.5372 42.5114 19.4397C42.5114 19.1425 42.3653 18.1048 42.3068 17.9927C42.2776 17.9343 42.2678 17.8563 42.2825 17.8173C42.2971 17.7784 42.2922 17.7296 42.2678 17.7053C42.2484 17.6809 42.1899 17.4471 42.146 17.184C42.0973 16.9258 42.0389 16.7114 42.0145 16.7114C41.9901 16.7114 41.9755 16.6724 41.9804 16.6237C41.9853 16.5798 41.9755 16.5068 41.9609 16.4678C41.9463 16.4288 41.8976 16.2534 41.8488 16.078C41.805 15.9026 41.7417 15.6931 41.7076 15.6152C41.6735 15.5323 41.5955 15.3228 41.537 15.1426C41.4786 14.9574 41.4104 14.8015 41.386 14.7821C41.3616 14.7674 41.3422 14.7236 41.3422 14.6797C41.3422 14.5677 40.9573 13.7053 40.5431 12.8771C40.0364 11.8637 39.978 11.7516 39.7246 11.3619C39.5931 11.167 39.4908 10.9965 39.4908 10.9819C39.4908 10.9672 39.3933 10.8162 39.2715 10.6506C39.1497 10.48 39.0523 10.3144 39.0523 10.2852C39.0523 10.2559 39.0279 10.2316 39.0036 10.2316C38.9743 10.2316 38.9354 10.1828 38.911 10.1195C38.8866 10.061 38.6918 9.80282 38.4774 9.53973C38.263 9.28151 38.0925 9.06227 38.1071 9.04766C38.1169 9.03791 38.0389 8.94534 37.9317 8.8479C37.8245 8.75046 37.7368 8.65302 37.7368 8.62866C37.7368 8.57019 35.1644 6.0416 35.1059 6.0416C35.0767 6.0416 34.838 5.86621 34.5749 5.65184C34.3118 5.43747 34.0779 5.26208 34.0487 5.26208C34.0195 5.26208 33.9854 5.22797 33.9659 5.189C33.9513 5.15002 33.9172 5.11592 33.8879 5.11592C33.8587 5.11592 33.693 5.01847 33.5274 4.89668C33.3569 4.77487 33.1912 4.67743 33.162 4.67743C33.1328 4.67743 33.0938 4.64333 33.0792 4.60435C33.0597 4.56537 33.0304 4.53127 33.0012 4.53127C32.9769 4.53127 32.8551 4.47281 32.7332 4.39485C32.2899 4.12689 31.1303 3.52763 30.307 3.14274C29.9805 2.98683 29.0743 2.63117 29.011 2.63117C28.9866 2.63117 28.8746 2.58732 28.7625 2.53373C28.6553 2.48501 28.3874 2.39732 28.1681 2.33885C27.9538 2.28526 27.7297 2.22192 27.6761 2.19756C27.5591 2.14397 27.2425 2.07089 26.8478 1.99781C26.687 1.96857 26.5116 1.92472 26.4581 1.90036C26.3411 1.84678 25.4739 1.71523 24.938 1.67625C24.7285 1.65676 24.5287 1.61779 24.4897 1.59343C24.4264 1.53983 20.7578 1.50086 19.9782 1.53983ZM23.7541 5.66158C23.8466 5.6762 23.9782 5.70056 24.0464 5.71518C24.1146 5.72979 24.3972 5.77851 24.6798 5.82236C24.9623 5.86621 25.2254 5.91493 25.2644 5.93442C25.3034 5.94904 25.3618 5.96852 25.3862 5.96852C25.4154 5.9734 25.469 5.98801 25.508 6.00263C25.547 6.01724 25.7565 6.06596 25.9709 6.10981C26.1852 6.15853 26.3947 6.20725 26.4337 6.22187C26.4727 6.24136 26.5165 6.25597 26.5311 6.26085C26.5458 6.26572 26.5896 6.28521 26.6286 6.29982C26.6676 6.31444 26.8429 6.36803 27.0183 6.40701C27.1937 6.45086 27.3886 6.51907 27.4568 6.55317C27.525 6.59214 27.7199 6.66523 27.8953 6.72369C28.0707 6.77728 28.3094 6.86985 28.4312 6.92832C28.553 6.98191 28.7625 7.07935 28.8941 7.13781C29.4544 7.39116 29.9562 7.64938 30.268 7.854C30.3849 7.93196 30.4872 7.99042 30.5067 7.99042C30.5262 7.99042 30.7114 8.11222 30.9208 8.25838C31.1303 8.40454 31.3155 8.52635 31.335 8.52635C31.3642 8.52635 31.8904 8.91611 32.4409 9.34972C33.2156 9.9636 34.4092 11.1231 34.5846 11.435C34.6187 11.4934 34.8087 11.7419 35.0134 11.9952C35.7101 12.8576 36.5578 14.2315 37.0158 15.2498C37.2594 15.7906 37.2984 15.888 37.2984 15.9562C37.2984 15.9952 37.3227 16.0293 37.3471 16.0293C37.3763 16.0293 37.3958 16.0585 37.3909 16.0878C37.3861 16.1219 37.4153 16.2339 37.4591 16.3314C37.5079 16.4337 37.542 16.5409 37.542 16.575C37.542 16.6139 37.5761 16.6919 37.6199 16.7504C37.6589 16.8088 37.6784 16.8575 37.6589 16.8575C37.6443 16.8575 37.6491 16.8868 37.6735 16.916C37.7027 16.9501 37.7515 17.1011 37.7856 17.2473C37.8197 17.3935 37.8684 17.5689 37.8976 17.6371C37.9268 17.7053 37.9512 17.793 37.9512 17.832C37.9561 17.8709 37.9707 17.9294 37.9902 17.9538C38.0048 17.983 38.0535 18.1779 38.0974 18.3922C38.1412 18.6066 38.1899 18.8161 38.2094 18.8551C38.224 18.8941 38.2435 18.972 38.2484 19.0256C38.2581 19.0792 38.2874 19.2107 38.3166 19.3179C38.341 19.4251 38.3994 19.7905 38.4433 20.1316C38.5505 20.9744 38.5261 23.732 38.3994 24.5067C38.3556 24.7892 38.302 25.0523 38.2874 25.0913C38.2728 25.1303 38.2533 25.1985 38.2533 25.2375C38.2484 25.2764 38.2338 25.33 38.2192 25.3593C38.1997 25.3836 38.1705 25.5054 38.151 25.6272C38.1169 25.8562 38.0389 26.1826 37.9902 26.3093C37.9756 26.3483 37.961 26.4019 37.9561 26.4311C37.9561 26.4555 37.9415 26.4993 37.922 26.5286C37.9074 26.5529 37.8586 26.7283 37.8099 26.9183C37.7661 27.1035 37.7027 27.2886 37.6784 27.3178C37.6491 27.3519 37.6394 27.3812 37.6589 27.3812C37.6784 27.3812 37.6589 27.4299 37.6199 27.4883C37.5858 27.5517 37.542 27.6589 37.5225 27.7319C37.5079 27.805 37.4689 27.9268 37.4348 27.9999C37.4055 28.073 37.3763 28.1461 37.3714 28.1607C37.3666 28.1753 37.3373 28.2484 37.3081 28.3215C37.274 28.3994 37.2496 28.4676 37.2496 28.4822C37.2496 28.5017 36.9768 29.101 36.7965 29.4761C36.7381 29.5979 36.6163 29.8269 36.5237 29.9877C36.4263 30.1485 36.3191 30.3385 36.2752 30.4164C36.1388 30.66 35.8221 31.1521 35.5493 31.537C35.3983 31.7465 35.2034 32.0193 35.1157 32.146C34.8039 32.5894 34.0584 33.4322 33.5518 33.9243C33.0402 34.4164 32.2168 35.1277 32.1583 35.1277C32.1389 35.1277 32.0365 35.2008 31.9245 35.2934C31.6517 35.5126 31.0232 35.956 30.9793 35.956C30.9647 35.956 30.8819 36.0096 30.799 36.068C30.497 36.3019 29.0061 37.1253 28.8941 37.1253C28.8746 37.1253 28.7528 37.1788 28.6212 37.2471C28.4897 37.3104 28.2705 37.3981 28.134 37.4371C27.9928 37.4809 27.8515 37.5394 27.8174 37.5686C27.7784 37.5978 27.7491 37.6076 27.7491 37.5881C27.7491 37.5686 27.7199 37.5735 27.6907 37.5978C27.6566 37.6271 27.5055 37.6855 27.3594 37.7294C27.2132 37.7781 27.0573 37.8268 27.0183 37.8414C26.9794 37.8561 26.9258 37.8755 26.8965 37.8804C26.8722 37.8804 26.7942 37.9097 26.726 37.9389C26.6578 37.9681 26.4727 38.0168 26.3119 38.0509C26.1511 38.085 26.0001 38.124 25.9709 38.1386C25.9465 38.1581 25.9124 38.1727 25.8978 38.1776C25.8832 38.1776 25.8393 38.1922 25.8003 38.2117C25.7614 38.2263 25.4544 38.2848 25.1182 38.3433C24.7821 38.4017 24.4654 38.4699 24.4118 38.4894C23.9343 38.6892 20.1049 38.6892 19.6372 38.4894C19.5836 38.4651 19.2669 38.3969 18.9307 38.3384C18.5946 38.2799 18.2974 38.2117 18.2682 38.1874C18.234 38.163 18.1902 38.1484 18.1707 38.1533C18.1463 38.1581 18.0928 38.1484 18.0538 38.1338C18.0148 38.1191 17.8297 38.0656 17.6397 38.0217C17.4545 37.9779 17.2743 37.9194 17.245 37.895C17.2109 37.8707 17.1671 37.8561 17.1476 37.8609C17.1232 37.8658 17.0696 37.8609 17.0307 37.8463C16.9283 37.8073 16.4801 37.6563 16.4216 37.6368C16.3973 37.6319 16.3632 37.6271 16.3486 37.6319C16.3339 37.6319 16.2706 37.5978 16.2024 37.5491C16.1391 37.5053 16.0465 37.4663 16.0075 37.4663C15.9637 37.4663 15.8224 37.4127 15.686 37.3494C15.5544 37.286 15.3157 37.1837 15.1549 37.1204C14.429 36.8281 13.0453 35.9949 12.0709 35.2544C10.4583 34.0315 9.3718 32.8671 8.25123 31.157C7.81761 30.4993 7.1745 29.3738 7.11604 29.1741C7.09655 29.1156 7.04296 28.9938 6.99424 28.911C6.94552 28.8233 6.84808 28.5943 6.77987 28.3945C6.71166 28.1948 6.62396 27.9658 6.58011 27.8879C6.54114 27.8099 6.50703 27.7173 6.50703 27.6832C6.50703 27.6491 6.46319 27.5322 6.40959 27.4201C6.356 27.313 6.32677 27.2009 6.34138 27.1814C6.356 27.157 6.35113 27.1376 6.32677 27.1376C6.30728 27.1376 6.24394 26.9573 6.19522 26.7332C6.1465 26.5139 6.08317 26.3093 6.06368 26.2801C6.03932 26.2508 6.03445 26.2119 6.05393 26.1973C6.06855 26.1778 6.05881 26.1388 6.02957 26.1047C6.00521 26.0706 5.94188 25.8416 5.89803 25.6029C5.85418 25.3593 5.80546 25.1303 5.78597 25.0913C5.77136 25.0523 5.76648 24.9987 5.77136 24.9744C5.77623 24.9451 5.76161 24.8818 5.73238 24.8282C5.46442 24.302 5.46442 19.9318 5.73238 19.4349C5.75674 19.3813 5.77623 19.3131 5.77136 19.2789C5.76648 19.2497 5.77136 19.1864 5.79084 19.1474C5.80546 19.1084 5.85418 18.8697 5.9029 18.6212C5.94675 18.3776 6.00521 18.173 6.03445 18.173C6.05881 18.173 6.06368 18.1389 6.04906 18.095C6.02957 18.0512 6.03932 17.9879 6.05881 17.9586C6.08317 17.9294 6.14163 17.7394 6.19035 17.5396C6.23907 17.3399 6.30241 17.145 6.33164 17.106C6.36087 17.067 6.38036 17.0329 6.37062 17.0329C6.36087 17.0281 6.36574 16.994 6.38036 16.955C6.39498 16.916 6.44857 16.7504 6.50216 16.5896C6.55575 16.4288 6.63371 16.229 6.67268 16.1511C6.71653 16.0683 6.75064 15.9757 6.75064 15.9416C6.75064 15.9075 6.78961 15.8101 6.83346 15.7224C6.87731 15.6347 6.91141 15.547 6.90654 15.5226C6.8968 15.4982 6.91141 15.4641 6.9309 15.4495C6.97475 15.4154 7.1404 15.0744 7.1404 15.011C7.1404 14.9574 7.76889 13.8369 7.87608 13.6956C7.92967 13.6322 7.96865 13.5592 7.96865 13.5348C7.96865 13.5056 8.10019 13.3058 8.26097 13.0817C8.42175 12.8576 8.55329 12.6627 8.55329 12.6432C8.55329 12.6042 9.06486 11.9465 9.54719 11.357C9.93208 10.8942 10.8334 9.98796 11.2573 9.64692C12.0563 8.99894 12.4802 8.67251 12.5094 8.67251C12.5289 8.67251 12.7286 8.54583 12.9479 8.38993C13.4741 8.01478 14.2195 7.5763 14.6921 7.35706C14.8139 7.30346 15.0234 7.20602 15.1549 7.14268C15.7298 6.87473 15.8565 6.82113 16.178 6.71882C16.3681 6.65548 16.5629 6.5824 16.6165 6.5483C16.6701 6.51907 16.8699 6.45086 17.055 6.40701C17.245 6.36316 17.4204 6.3047 17.4448 6.28521C17.474 6.26085 17.5179 6.24136 17.5422 6.23648C17.5714 6.22674 17.6153 6.217 17.6397 6.21212C17.6689 6.20238 17.8638 6.15853 18.0781 6.11469C18.2925 6.07084 18.502 6.01724 18.541 6.00263C18.58 5.98801 18.6384 5.96852 18.6628 5.96365C18.7261 5.93929 19.4033 5.81262 19.7834 5.74928C19.9441 5.72005 20.1439 5.70056 20.2218 5.70056C20.3047 5.70056 20.4021 5.6762 20.4411 5.65184C20.5142 5.60312 23.3887 5.61287 23.7541 5.66158Z" fill="black"/>
<path d="M13.4252 9.2379C12.6992 9.3597 12.2023 9.64228 11.5494 10.3C11.0086 10.8457 10.5555 11.479 10.044 12.4096C9.396 13.5886 8.69443 15.2256 8.27056 16.5411C8.1244 16.9991 8.06593 17.116 7.86131 17.3401C7.42282 17.8224 7.18896 18.4363 7.18896 19.0989C7.18896 19.2987 7.24256 19.7908 7.30589 20.1951C7.36923 20.5946 7.49103 21.3596 7.57386 21.8955C7.75899 23.0745 7.84182 23.4156 8.03183 23.8248C8.29005 24.3802 8.88444 24.8869 9.54216 25.1208C9.84423 25.228 10.6627 25.2816 13.5226 25.3839C16.8161 25.5008 17.4641 25.5057 17.9221 25.4034C18.687 25.2328 19.4032 24.8187 19.9537 24.2292C20.5091 23.6299 20.8112 23.0355 21.0499 22.0709C21.2935 21.0721 21.5566 20.0587 21.581 20.0344C21.6395 19.9808 22.4482 20.01 22.4872 20.0733C22.5067 20.1074 22.648 20.6385 22.8039 21.2621C22.9549 21.8809 23.1352 22.5386 23.1985 22.7286C23.6808 24.1025 24.7576 25.0818 26.1412 25.4082C26.5651 25.5057 27.2861 25.5008 30.5504 25.3839C33.3957 25.2816 34.1704 25.228 34.5211 25.1208C34.8281 25.0233 35.1594 24.8285 35.442 24.5751C36.012 24.0635 36.2215 23.5861 36.4017 22.3632C36.47 21.9198 36.5528 21.3937 36.5918 21.1939C36.6307 20.9942 36.7184 20.4339 36.7915 19.9564C36.9182 19.0941 36.9182 19.0794 36.8402 18.6653C36.733 18.1391 36.5333 17.7153 36.2312 17.384C36.0169 17.1501 35.9633 17.0429 35.7148 16.3219C35.0035 14.2756 34.1704 12.5265 33.308 11.2549C32.8987 10.6508 32.0705 9.82255 31.6466 9.58869C30.9743 9.22816 30.3263 9.14534 29.6735 9.34509C28.9134 9.57408 28.5383 10.2269 28.8014 10.8554C29.0255 11.3962 29.7368 11.6837 30.224 11.4303C30.375 11.3524 30.3848 11.3524 30.5943 11.4742C30.9986 11.7129 31.52 12.356 32.0023 13.2086C32.358 13.842 32.7721 14.6995 33.0011 15.2744C33.2398 15.8688 33.4883 16.5167 33.4834 16.5216C33.4785 16.5216 32.1046 16.5752 30.4286 16.6385C25.3909 16.8286 24.7235 16.8627 24.3873 16.9357C24.0024 17.0234 23.5152 17.306 23.2082 17.6227L22.9793 17.8566H22.0243L21.0743 17.8517L20.8209 17.6032C20.4604 17.2524 20.056 17.0234 19.6419 16.9357C19.4373 16.8919 18.7796 16.8383 18.0536 16.8091C16.6164 16.7555 13.3618 16.6337 11.7589 16.5752C11.1499 16.5557 10.6384 16.5216 10.6238 16.507C10.5799 16.4631 10.765 15.9711 11.223 14.8846C11.2669 14.7774 11.4715 14.3487 11.681 13.9346C12.2949 12.6971 12.9672 11.7616 13.4447 11.479C13.6542 11.3572 13.6639 11.3572 13.8491 11.4303C14.5458 11.7275 15.3253 11.2013 15.3253 10.4413C15.3204 9.78357 14.7504 9.32073 13.8393 9.24278C13.6785 9.22816 13.4934 9.22816 13.4252 9.2379ZM11.5251 18.7335C13.05 18.7822 17.6687 18.9576 18.4239 18.9917C19.5055 19.0453 19.5737 19.1233 19.3447 20.0295C19.2765 20.3072 19.1693 20.7457 19.106 20.999C18.9111 21.7932 18.7455 22.2852 18.5847 22.524C18.3995 22.8066 18.1023 23.055 17.8052 23.1817C17.5859 23.2791 16.9477 23.4009 16.8843 23.362C16.8697 23.3522 15.5396 23.2986 13.9319 23.245C10.5507 23.1281 10.2389 23.1135 10.1171 23.0355C9.95141 22.9332 9.90269 22.7822 9.76628 21.9052C9.6932 21.418 9.56165 20.5995 9.47883 20.0782C9.32779 19.1087 9.32292 18.9187 9.46908 18.792C9.59576 18.6799 9.70781 18.6653 10.2096 18.6848C10.463 18.6994 11.0574 18.7189 11.5251 18.7335ZM34.4432 18.7092C34.5114 18.7335 34.604 18.8115 34.6478 18.8846C34.7306 19.0064 34.7306 19.0453 34.6527 19.5813C34.4724 20.8431 34.1655 22.6896 34.1216 22.8114C34.0096 23.1086 34.107 23.0989 30.6479 23.2255C28.9085 23.2889 27.33 23.3425 27.14 23.3473C26.492 23.3571 25.8733 23.0745 25.5371 22.6117C25.2594 22.2268 25.3032 22.3632 24.8209 20.4728C24.6894 19.9564 24.5822 19.4887 24.5822 19.4351C24.5822 19.3864 24.6455 19.2743 24.7235 19.1866L24.8647 19.0307L25.5858 18.9917C25.9853 18.9723 27.8464 18.904 29.7222 18.8358C32.8305 18.7189 33.3908 18.6994 34.0924 18.6702C34.2191 18.6653 34.375 18.6799 34.4432 18.7092Z" fill="black"/>
<path d="M65.6089 32.0002H60.5706L52.9838 21.3964V32.0002H48.5606V11.0854H52.9838V21.2206L60.4827 11.0854H65.1988L57.5827 21.1327L65.6089 32.0002ZM66.1911 16.0065H70.9657L73.9829 24.9993C74.0805 25.2923 74.1586 25.5852 74.2172 25.8781C74.2953 26.171 74.3539 26.4737 74.3929 26.7862C74.4515 27.0986 74.4906 27.4306 74.5101 27.7821H74.598C74.6566 27.2744 74.7347 26.7959 74.8323 26.3468C74.9495 25.8781 75.0764 25.429 75.2131 24.9993L78.1717 16.0065H82.8585L76.0919 34.0507C75.6818 35.1443 75.1448 36.0621 74.4808 36.8042C73.8364 37.5463 73.0846 38.1028 72.2253 38.4739C71.3661 38.8449 70.4287 39.0304 69.4132 39.0304C68.925 39.0304 68.4954 39.0011 68.1244 38.9426C67.7728 38.9035 67.4604 38.8547 67.187 38.7961V35.3396C67.4018 35.3786 67.6557 35.4177 67.9486 35.4568C68.2611 35.4958 68.5833 35.5153 68.9153 35.5153C69.5206 35.5153 70.0381 35.3884 70.4678 35.1345C70.9169 34.8807 71.2879 34.5292 71.5809 34.08C71.8738 33.6504 72.1081 33.1817 72.2839 32.674L72.5475 31.8831L66.1911 16.0065ZM94.6439 15.7136C96.4405 15.7136 97.8954 16.4166 99.0085 17.8227C100.122 19.2092 100.678 21.2597 100.678 23.9741C100.678 25.7902 100.415 27.3232 99.8873 28.573C99.36 29.8033 98.6374 30.7309 97.7196 31.3558C96.8018 31.9807 95.7375 32.2932 94.5267 32.2932C93.7651 32.2932 93.1012 32.1955 92.5348 32.0002C91.988 31.805 91.5194 31.5511 91.1288 31.2386C90.7382 30.9262 90.3965 30.5942 90.1036 30.2427H89.8692C89.9473 30.6137 90.0059 31.0043 90.045 31.4144C90.084 31.805 90.1036 32.1955 90.1036 32.5861V39.0304H85.739V16.0065H89.2834L89.8985 18.0863H90.1036C90.3965 17.6567 90.748 17.2661 91.1581 16.9146C91.5682 16.5436 92.0564 16.2507 92.6227 16.0358C93.2086 15.821 93.8823 15.7136 94.6439 15.7136ZM93.2379 19.1994C92.4763 19.1994 91.8709 19.3557 91.4217 19.6681C90.9726 19.9806 90.6406 20.459 90.4258 21.1034C90.2305 21.7283 90.1231 22.5192 90.1036 23.4761V23.9448C90.1036 24.9798 90.2012 25.8586 90.3965 26.5811C90.5918 27.2842 90.9237 27.8212 91.3924 28.1922C91.8611 28.5633 92.4958 28.7488 93.2964 28.7488C93.9604 28.7488 94.5072 28.5633 94.9368 28.1922C95.3664 27.8212 95.6887 27.2744 95.9035 26.5518C96.1183 25.8293 96.2257 24.9505 96.2257 23.9155C96.2257 22.3533 95.9816 21.1816 95.4934 20.4004C95.0247 19.5998 94.2729 19.1994 93.2379 19.1994ZM111.364 32.2932C109.783 32.2932 108.435 32.01 107.322 31.4437C106.209 30.8578 105.359 29.9595 104.774 28.7488C104.188 27.538 103.895 25.9855 103.895 24.0913C103.895 22.1384 104.227 20.5469 104.891 19.3166C105.555 18.0863 106.473 17.1782 107.644 16.5924C108.835 16.0065 110.202 15.7136 111.745 15.7136C112.839 15.7136 113.786 15.821 114.587 16.0358C115.407 16.2507 116.12 16.5045 116.725 16.7974L115.436 20.1661C114.753 19.8927 114.108 19.6681 113.503 19.4924C112.917 19.3166 112.331 19.2287 111.745 19.2287C110.984 19.2287 110.349 19.4142 109.841 19.7853C109.333 20.1368 108.953 20.6738 108.699 21.3964C108.464 22.0994 108.347 22.9879 108.347 24.062C108.347 25.1165 108.474 25.9953 108.728 26.6983C109.001 27.3818 109.392 27.8993 109.9 28.2508C110.408 28.5828 111.023 28.7488 111.745 28.7488C112.663 28.7488 113.473 28.6316 114.176 28.3973C114.88 28.1434 115.563 27.8017 116.227 27.372V31.0922C115.563 31.5218 114.86 31.8245 114.118 32.0002C113.395 32.1955 112.478 32.2932 111.364 32.2932Z" fill="#0679D6"/>
<path d="M132.885 32.0002H120.846V11.0854H132.885V14.7177H125.269V19.3166H132.358V22.9489H125.269V28.3387H132.885V32.0002ZM147.958 16.0065H152.762L146.435 23.6812L153.318 32.0002H148.368L141.836 23.8862V32.0002H137.471V16.0065H141.836V23.7691L147.958 16.0065ZM162.124 32.2932C160.542 32.2932 159.195 32.01 158.082 31.4437C156.968 30.8578 156.119 29.9595 155.533 28.7488C154.947 27.538 154.654 25.9855 154.654 24.0913C154.654 22.1384 154.986 20.5469 155.65 19.3166C156.314 18.0863 157.232 17.1782 158.404 16.5924C159.595 16.0065 160.962 15.7136 162.505 15.7136C163.598 15.7136 164.545 15.821 165.346 16.0358C166.166 16.2507 166.879 16.5045 167.484 16.7974L166.196 20.1661C165.512 19.8927 164.868 19.6681 164.262 19.4924C163.676 19.3166 163.091 19.2287 162.505 19.2287C161.743 19.2287 161.108 19.4142 160.601 19.7853C160.093 20.1368 159.712 20.6738 159.458 21.3964C159.224 22.0994 159.107 22.9879 159.107 24.062C159.107 25.1165 159.234 25.9953 159.488 26.6983C159.761 27.3818 160.152 27.8993 160.659 28.2508C161.167 28.5828 161.782 28.7488 162.505 28.7488C163.423 28.7488 164.233 28.6316 164.936 28.3973C165.639 28.1434 166.323 27.8017 166.986 27.372V31.0922C166.323 31.5218 165.62 31.8245 164.877 32.0002C164.155 32.1955 163.237 32.2932 162.124 32.2932ZM185.783 16.0065V32.0002H181.418V19.2873H175.618V32.0002H171.254V16.0065H185.783ZM197.539 15.7136C199.023 15.7136 200.292 15.9968 201.347 16.5631C202.421 17.1294 203.251 17.9496 203.837 19.0237C204.423 20.0977 204.716 21.4159 204.716 22.9782V25.0872H194.405C194.444 26.3175 194.805 27.2842 195.489 27.9872C196.192 28.6902 197.158 29.0417 198.388 29.0417C199.423 29.0417 200.361 28.9441 201.201 28.7488C202.04 28.534 202.909 28.2117 203.808 27.7821V31.1508C203.026 31.5413 202.197 31.8245 201.318 32.0002C200.458 32.1955 199.414 32.2932 198.183 32.2932C196.582 32.2932 195.166 32.0002 193.936 31.4144C192.706 30.809 191.739 29.9009 191.036 28.6902C190.333 27.4794 189.982 25.9562 189.982 24.1206C189.982 22.2458 190.294 20.6933 190.919 19.4631C191.563 18.2132 192.452 17.2759 193.585 16.651C194.717 16.0261 196.035 15.7136 197.539 15.7136ZM197.568 18.8186C196.729 18.8186 196.026 19.092 195.459 19.6388C194.912 20.1856 194.59 21.0351 194.493 22.1873H200.615C200.615 21.5428 200.498 20.9667 200.263 20.459C200.048 19.9513 199.716 19.5509 199.267 19.258C198.818 18.9651 198.252 18.8186 197.568 18.8186ZM217.746 15.7136C219.542 15.7136 220.997 16.4166 222.11 17.8227C223.223 19.2092 223.78 21.2597 223.78 23.9741C223.78 25.7902 223.516 27.3232 222.989 28.573C222.462 29.8033 221.739 30.7309 220.821 31.3558C219.903 31.9807 218.839 32.2932 217.628 32.2932C216.867 32.2932 216.203 32.1955 215.636 32.0002C215.09 31.805 214.621 31.5511 214.23 31.2386C213.84 30.9262 213.498 30.5942 213.205 30.2427H212.971C213.049 30.6137 213.108 31.0043 213.147 31.4144C213.186 31.805 213.205 32.1955 213.205 32.5861V39.0304H208.841V16.0065H212.385L213 18.0863H213.205C213.498 17.6567 213.85 17.2661 214.26 16.9146C214.67 16.5436 215.158 16.2507 215.724 16.0358C216.31 15.821 216.984 15.7136 217.746 15.7136ZM216.34 19.1994C215.578 19.1994 214.973 19.3557 214.523 19.6681C214.074 19.9806 213.742 20.459 213.527 21.1034C213.332 21.7283 213.225 22.5192 213.205 23.4761V23.9448C213.205 24.9798 213.303 25.8586 213.498 26.5811C213.693 27.2842 214.025 27.8212 214.494 28.1922C214.963 28.5633 215.597 28.7488 216.398 28.7488C217.062 28.7488 217.609 28.5633 218.038 28.1922C218.468 27.8212 218.79 27.2744 219.005 26.5518C219.22 25.8293 219.327 24.9505 219.327 23.9155C219.327 22.3533 219.083 21.1816 218.595 20.4004C218.126 19.5998 217.375 19.1994 216.34 19.1994ZM240.917 19.2873H235.674V32.0002H231.309V19.2873H226.066V16.0065H240.917V19.2873Z" fill="black"/>
</svg>
