<svg width="208" height="54" viewBox="0 0 208 54" fill="none" xmlns="http://www.w3.org/2000/svg">
<g clip-path="url(#clip0_1487_69229)">
<path d="M0.339355 33.7203V30.2155L9.77459 30.1521C9.9235 30.1516 10.0671 30.0969 10.1787 29.9983C10.2903 29.8997 10.3622 29.7639 10.381 29.6161L11.0369 24.5882C11.045 24.5289 11.0394 24.4685 11.0203 24.4117C11.0012 24.3549 10.9692 24.3033 10.9269 24.261C10.8845 24.2186 10.833 24.1867 10.7762 24.1676C10.7194 24.1485 10.659 24.1429 10.5996 24.151C7.86357 24.4754 5.12749 24.4425 2.39141 24.0523C1.9448 23.9865 1.72385 23.7279 1.72855 23.2766L1.75676 21.0201C1.75861 20.8399 1.8315 20.6677 1.95958 20.5409C2.08765 20.4142 2.26058 20.3431 2.44078 20.3431L11.2484 20.336C11.4156 20.3368 11.5771 20.275 11.701 20.1628C11.825 20.0506 11.9025 19.896 11.9183 19.7296C12.3837 14.8004 13.8505 9.99818 19.7246 9.51867C25.366 9.05325 32.8126 8.36923 31.7831 16.9371C31.0309 23.1896 30.1048 29.4187 29.0047 35.6242C28.3207 39.4745 26.1981 41.7381 22.2491 42.542C19.1087 43.186 16.2152 43.179 13.5684 42.5208C10.1624 41.6817 8.52643 37.7397 9.68997 34.637C9.7189 34.5588 9.72755 34.4745 9.71512 34.3921C9.70269 34.3097 9.66958 34.2317 9.61889 34.1655C9.5682 34.0994 9.50156 34.0471 9.42521 34.0136C9.34886 33.9801 9.26527 33.9666 9.18224 33.9741C6.1641 34.2609 3.21647 34.1763 0.339355 33.7203ZM23.9099 16.8033C23.9791 16.3712 23.8738 15.9293 23.6172 15.5748C23.3606 15.2203 22.9736 14.9822 22.5415 14.913L22.4719 14.9018C22.0398 14.8326 21.5978 14.9379 21.2433 15.1945C20.8888 15.4512 20.6508 15.8381 20.5816 16.2702L17.5279 35.3349C17.4587 35.767 17.564 36.2089 17.8206 36.5634C18.0772 36.9179 18.4642 37.156 18.8963 37.2252L18.9659 37.2364C19.398 37.3056 19.84 37.2003 20.1945 36.9437C20.549 36.6871 20.787 36.3001 20.8562 35.868L23.9099 16.8033Z" fill="url(#paint0_linear_1487_69229)"/>
<path d="M42.5087 28.4171L40.5342 42.8521C40.5325 42.8714 40.5235 42.8894 40.5092 42.9024C40.4948 42.9155 40.4761 42.9227 40.4567 42.9226L32.5093 42.7322C32.4991 42.7313 32.4892 42.7284 32.4801 42.7237C32.4711 42.7189 32.463 42.7124 32.4565 42.7046C32.4499 42.6967 32.445 42.6876 32.4419 42.6778C32.4389 42.668 32.4379 42.6578 32.4388 42.6476L37.4738 9.40564C37.4771 9.3876 37.4867 9.37132 37.5009 9.3597C37.5151 9.34808 37.533 9.34187 37.5513 9.34217L45.3012 9.40564C45.3127 9.40545 45.3241 9.40781 45.3346 9.41256C45.345 9.41731 45.3543 9.42432 45.3617 9.43309C45.3691 9.44187 45.3745 9.45218 45.3775 9.46328C45.3804 9.47439 45.3809 9.48601 45.3788 9.49731L43.1434 22.5712C43.1388 22.5899 43.1413 22.6097 43.1504 22.6266C43.1595 22.6435 43.1746 22.6565 43.1927 22.6629L43.3197 22.6982C43.3375 22.7032 43.3565 22.7017 43.3733 22.694C43.3901 22.6862 43.4036 22.6727 43.4113 22.6559L49.6662 9.43385C49.6728 9.42089 49.683 9.41006 49.6954 9.40258C49.7079 9.3951 49.7222 9.39127 49.7368 9.39154L57.3385 9.37038C57.3519 9.37013 57.3652 9.37336 57.3769 9.37975C57.3887 9.38613 57.3986 9.39546 57.4057 9.40683C57.4128 9.41819 57.4169 9.4312 57.4175 9.44458C57.418 9.45797 57.4151 9.47128 57.409 9.48321L50.2022 24.2848C50.1959 24.298 50.1934 24.3126 50.1951 24.3271L52.3741 42.8168C52.3752 42.8282 52.3738 42.8397 52.3699 42.8504C52.366 42.8612 52.3598 42.871 52.3517 42.8791C52.3437 42.8871 52.3339 42.8933 52.3231 42.8972C52.3124 42.9011 52.3009 42.9025 52.2895 42.9014L44.4691 42.8027C44.4497 42.8028 44.431 42.7956 44.4166 42.7825C44.4022 42.7695 44.3933 42.7515 44.3915 42.7322L42.6639 28.4171C42.6639 28.3966 42.6557 28.3768 42.6411 28.3623C42.6266 28.3477 42.6069 28.3396 42.5863 28.3396C42.5657 28.3396 42.546 28.3477 42.5314 28.3623C42.5169 28.3768 42.5087 28.3966 42.5087 28.4171Z" fill="url(#paint1_linear_1487_69229)"/>
<path d="M87.5477 17.5369C87.5407 17.5744 87.5463 17.6127 87.5635 17.6463C87.5808 17.6799 87.6088 17.707 87.6436 17.7235C87.6783 17.7401 87.7179 17.7453 87.7565 17.7384C87.7951 17.7315 87.8307 17.7127 87.858 17.685C89.7102 15.6964 92.042 15.0688 94.8533 15.8022C97.8503 16.5779 97.4766 20.682 97.0746 23.2206C96.0639 29.6706 95.079 36.1277 94.1199 42.5918C94.087 42.8127 93.9577 42.9209 93.7321 42.9162L87.1246 42.7469C86.5417 42.7328 86.2972 42.439 86.3912 41.8655L89.2683 23.9117C89.3953 23.1219 89.1061 22.5437 88.401 22.177L88.1118 22.0289C88.0033 21.9711 87.8825 21.9402 87.7595 21.9388C87.6366 21.9374 87.5151 21.9655 87.4052 22.0208C87.2954 22.076 87.2004 22.1569 87.1283 22.2564C87.0561 22.356 87.0089 22.4714 86.9906 22.593L83.8526 42.754C83.8338 42.8809 83.7609 42.942 83.634 42.9373L77.2239 42.7399C77.1105 42.736 76.9991 42.7084 76.8971 42.6588C76.7952 42.6093 76.7049 42.5389 76.6323 42.4523C76.5597 42.3657 76.5064 42.2648 76.4759 42.1564C76.4454 42.0479 76.4384 41.9344 76.4553 41.8231L81.2646 9.84348C81.3163 9.51439 81.5091 9.34985 81.8428 9.34985L88.0977 9.39922C88.7183 9.40392 88.9722 9.71184 88.8593 10.323L87.5477 17.5369Z" fill="url(#paint2_linear_1487_69229)"/>
<path d="M69.0029 22.0989C69.0131 21.9553 68.9901 21.8114 68.9358 21.6781C68.8814 21.5448 68.7971 21.4259 68.6894 21.3304C68.5816 21.235 68.4534 21.1656 68.3146 21.1276C68.1757 21.0897 68.03 21.0842 67.8887 21.1117C67.1882 21.2527 66.7792 21.7158 66.6617 22.5009C65.9424 27.1785 65.1997 31.8256 64.4334 36.4422C64.2923 37.2931 64.652 37.688 65.5123 37.6268L65.9706 37.5916C66.1559 37.579 66.3319 37.5067 66.4719 37.3858C66.6119 37.2649 66.7083 37.1019 66.7463 36.9217L67.7265 32.3874C67.7688 32.1806 67.8981 32.0771 68.1144 32.0771L74.6795 32.1124C74.9334 32.1124 75.0697 32.2393 75.0885 32.4932C75.6527 40.4969 70.0959 43.501 62.9172 42.831C58.3195 42.4032 56.3544 39.8293 57.022 35.1094C57.6002 31.0476 58.2725 26.9999 59.0388 22.9663C59.8145 18.9186 62.2873 16.6973 66.4572 16.3024C72.9942 15.6889 78.5157 16.937 76.513 25.2651C76.466 25.4626 76.3391 25.559 76.1322 25.5543L69.7081 25.4062C69.5867 25.4037 69.4671 25.3764 69.3566 25.3258C69.246 25.2753 69.1469 25.2027 69.0651 25.1123C68.9833 25.022 68.9206 24.9158 68.8808 24.8002C68.841 24.6847 68.825 24.5621 68.8336 24.4401L69.0029 22.0989Z" fill="url(#paint3_linear_1487_69229)"/>
<path d="M108.745 40.9409L107.687 42.2102C107.513 42.4218 107.292 42.5558 107.024 42.6122C104.697 43.127 100.403 43.261 99.8739 40.1511C99.5143 38.0215 100.262 33.8328 100.995 31.5833C102.659 26.4637 113.216 27.2323 112.539 21.873C112.511 21.6615 112.402 21.504 112.214 21.4005C111.848 21.2031 111.448 21.189 111.016 21.3582C110.762 21.457 110.602 21.6356 110.536 21.8942L109.944 24.2142C109.881 24.4602 109.738 24.6779 109.539 24.8326C109.339 24.9872 109.095 25.0699 108.844 25.0674L102.786 25.011C102.429 25.0063 102.243 24.8277 102.229 24.4751C101.975 19.3203 105.029 16.6618 109.866 16.1681C115.698 15.5617 121.911 15.8508 120.634 23.8334C119.68 29.8321 118.735 35.8308 117.799 41.8294C117.771 42.0175 117.727 42.2102 117.665 42.4077C117.609 42.6004 117.482 42.6874 117.285 42.6686C114.972 42.4994 112.659 42.4077 110.346 42.3936C109.744 42.3889 109.443 41.9893 109.443 41.1948C109.443 40.4614 109.21 40.3768 108.745 40.9409ZM111.255 30.1659C111.268 30.0801 111.251 29.9927 111.207 29.9176C111.164 29.8425 111.097 29.7841 111.017 29.7517C110.936 29.7192 110.848 29.7146 110.764 29.7385C110.681 29.7625 110.608 29.8136 110.557 29.8838L108.618 32.4718C108.576 32.5271 108.549 32.5929 108.54 32.6622L108.082 36.5124C108.073 36.5852 108.086 36.659 108.117 36.7252C108.149 36.7913 108.198 36.8472 108.26 36.8863C108.322 36.9255 108.394 36.9462 108.467 36.9462C108.541 36.9461 108.613 36.9253 108.674 36.8862L110.346 35.8496C110.394 35.8186 110.435 35.7772 110.466 35.7284C110.496 35.6796 110.515 35.6246 110.522 35.5675L111.255 30.1659Z" fill="url(#paint4_linear_1487_69229)"/>
<path d="M131.869 17.8817C135.691 14.7296 142.164 15.1386 141.177 21.8942C140.166 28.7861 139.111 35.678 138.011 42.5699C137.973 42.8049 137.835 42.9201 137.595 42.9154L131.135 42.7391C130.585 42.725 130.35 42.4453 130.43 41.9L133.237 23.3398C133.255 23.2189 133.245 23.0953 133.208 22.9788C133.171 22.8624 133.107 22.7562 133.021 22.6687C132.936 22.5812 132.831 22.5147 132.716 22.4745C132.6 22.4343 132.477 22.4216 132.355 22.4372L132.094 22.4724C131.333 22.5711 130.893 23.0013 130.776 23.7629L127.87 42.6052C127.838 42.812 127.718 42.9131 127.511 42.9084L121.101 42.7462C120.985 42.7426 120.871 42.7144 120.767 42.6634C120.662 42.6124 120.57 42.5398 120.496 42.4504C120.422 42.361 120.368 42.2569 120.337 42.145C120.307 42.0331 120.3 41.9159 120.318 41.8013L124.204 16.7393C124.219 16.6339 124.272 16.5374 124.354 16.4675C124.435 16.3976 124.54 16.3589 124.648 16.3586L130.804 16.4079C130.927 16.4097 131.046 16.4483 131.147 16.5187C131.247 16.5891 131.324 16.6881 131.368 16.8028C131.476 17.0802 131.507 17.3646 131.46 17.6561C131.394 18.0839 131.53 18.1591 131.869 17.8817Z" fill="url(#paint5_linear_1487_69229)"/>
<path d="M156.486 18.3051L156.902 16.9793C156.959 16.7995 157.072 16.6424 157.224 16.5308C157.376 16.4192 157.56 16.359 157.748 16.3588L163.792 16.387C163.886 16.3879 163.979 16.4076 164.065 16.4449C164.151 16.4823 164.229 16.5365 164.294 16.6044C164.358 16.6722 164.408 16.7523 164.441 16.8397C164.473 16.9272 164.488 17.0203 164.483 17.1133C164.445 17.9689 164.358 18.8527 164.222 19.7648C163.15 26.8776 162.066 33.9905 160.971 41.1033C160.351 45.1299 158.517 48.3948 154.06 48.6276C150.831 48.7968 147.298 48.7827 143.462 48.5852C143.366 48.5803 143.273 48.5555 143.188 48.5127C143.102 48.4698 143.027 48.4097 142.966 48.3361C142.905 48.2626 142.86 48.1772 142.833 48.0853C142.807 47.9935 142.8 47.8972 142.813 47.8025L143.314 44.2132C143.375 43.7619 143.633 43.5315 144.089 43.5221L151.874 43.3528C151.991 43.3504 152.104 43.3154 152.201 43.2518C152.298 43.1882 152.376 43.0986 152.424 42.9932C152.904 41.9496 153.191 40.8565 153.285 39.7141C153.308 39.3992 153.221 39.3639 153.024 39.6084C150.365 42.9015 143.165 42.7041 143.871 36.689C144.51 31.2638 145.349 25.8622 146.388 20.484C147.027 17.2073 149.061 15.7312 152.488 16.0555C154.086 16.206 155.266 16.9723 156.028 18.3544C156.216 18.6976 156.369 18.6811 156.486 18.3051ZM155.778 23.646C155.826 23.3581 155.757 23.0632 155.588 22.826C155.418 22.5887 155.161 22.4287 154.873 22.381L154.817 22.3718C154.529 22.3242 154.234 22.3928 153.997 22.5626C153.76 22.7325 153.6 22.9896 153.552 23.2775L151.792 33.9078C151.745 34.1956 151.813 34.4906 151.983 34.7278C152.153 34.9651 152.41 35.1251 152.698 35.1728L152.754 35.182C153.041 35.2296 153.336 35.161 153.574 34.9911C153.811 34.8213 153.971 34.5642 154.019 34.2763L155.778 23.646Z" fill="url(#paint6_linear_1487_69229)"/>
<path d="M173.714 30.921L172.762 36.7034C172.744 36.8083 172.749 36.9157 172.775 37.0189C172.802 37.122 172.85 37.2185 172.916 37.3023C172.982 37.386 173.066 37.455 173.161 37.5049C173.256 37.5548 173.36 37.5844 173.467 37.5919L173.82 37.6201C174.614 37.6719 175.08 37.3075 175.216 36.5271L175.865 32.8955C175.916 32.5993 176.093 32.4512 176.394 32.4512L182.931 32.4442C183.07 32.4441 183.203 32.4989 183.302 32.5966C183.401 32.6942 183.458 32.8269 183.459 32.966C183.516 35.5963 182.606 39.4113 180.42 41.1672C177.825 43.2474 171.902 43.2192 169.046 42.4929C166.136 41.7548 164.876 39.7662 165.266 36.5271C165.844 31.7413 166.571 26.9814 167.445 22.2473C168.658 15.6822 174.398 15.9219 179.736 16.1687C183.93 16.3568 185.74 18.618 185.166 22.9525C184.842 25.4018 184.487 27.8488 184.101 30.2934C184.064 30.5143 183.934 30.6248 183.713 30.6248L174.13 30.5684C173.89 30.5684 173.752 30.6859 173.714 30.921ZM175.272 21.6056L174.426 25.1597C174.409 25.2301 174.407 25.3031 174.418 25.3745C174.43 25.446 174.455 25.5144 174.493 25.576C174.531 25.6376 174.581 25.6911 174.64 25.7334C174.698 25.7757 174.765 25.806 174.835 25.8226L175.435 25.9636C175.809 26.0538 176.21 25.9648 176.55 25.7162C176.89 25.4676 177.141 25.0797 177.247 24.6379L177.557 23.3474C177.662 22.9055 177.614 22.4464 177.424 22.0709C177.234 21.6954 176.916 21.4342 176.542 21.3447L175.935 21.1966C175.865 21.1799 175.792 21.1771 175.72 21.1886C175.649 21.2001 175.581 21.2256 175.519 21.2636C175.457 21.3016 175.404 21.3513 175.362 21.41C175.319 21.4687 175.289 21.5352 175.272 21.6056Z" fill="url(#paint7_linear_1487_69229)"/>
<path d="M197.274 18.1991C198.393 16.817 199.859 16.1095 201.674 16.0765C201.813 16.0743 201.95 16.1019 202.077 16.1575C202.204 16.2131 202.317 16.2954 202.409 16.3986C202.501 16.5018 202.569 16.6236 202.609 16.7555C202.649 16.8873 202.66 17.0262 202.64 17.1625L201.759 23.495C201.748 23.564 201.724 23.6303 201.689 23.6901C201.653 23.7499 201.606 23.8019 201.55 23.8432C201.494 23.8845 201.431 23.9143 201.364 23.9308C201.297 23.9472 201.227 23.9501 201.159 23.9392C196.935 23.2623 195.99 25.9278 195.44 29.5665C194.853 33.4591 194.249 37.3446 193.628 41.2231C193.55 41.7096 193.607 42.0129 193.706 42.4853C193.762 42.7627 193.649 42.899 193.367 42.8943L186.485 42.7956C186.38 42.7937 186.277 42.7695 186.182 42.7248C186.087 42.6801 186.003 42.6158 185.936 42.5363C185.869 42.4567 185.819 42.3638 185.791 42.2638C185.763 42.1638 185.756 42.059 185.772 41.9564L189.63 16.9721C189.657 16.799 189.745 16.6412 189.878 16.5274C190.011 16.4135 190.181 16.3512 190.356 16.3516L196.153 16.3939C196.261 16.3951 196.368 16.4191 196.467 16.4643C196.566 16.5096 196.653 16.575 196.725 16.6563C196.796 16.7376 196.849 16.8329 196.881 16.9359C196.912 17.039 196.921 17.1475 196.907 17.2542L196.815 18.0087C196.807 18.0641 196.817 18.1203 196.845 18.1687C196.872 18.2171 196.915 18.2551 196.967 18.2767C197.019 18.2983 197.077 18.3025 197.133 18.2884C197.188 18.2744 197.238 18.243 197.274 18.1991Z" fill="url(#paint8_linear_1487_69229)"/>
</g>
<defs>
<linearGradient id="paint0_linear_1487_69229" x1="6.62923" y1="43.0198" x2="20.8303" y2="6.68746" gradientUnits="userSpaceOnUse">
<stop stop-color="#55AFC7"/>
<stop offset="1" stop-color="#3F62BE"/>
</linearGradient>
<linearGradient id="paint1_linear_1487_69229" x1="37.4199" y1="42.9226" x2="53.9129" y2="9.34216" gradientUnits="userSpaceOnUse">
<stop stop-color="#55AFC7"/>
<stop offset="1" stop-color="#3F62BE"/>
</linearGradient>
<linearGradient id="paint2_linear_1487_69229" x1="80.6137" y1="42.9376" x2="98.8176" y2="11.9371" gradientUnits="userSpaceOnUse">
<stop stop-color="#55AFC7"/>
<stop offset="1" stop-color="#3F62BE"/>
</linearGradient>
<linearGradient id="paint3_linear_1487_69229" x1="60.8904" y1="42.9217" x2="73.9762" y2="16.0989" gradientUnits="userSpaceOnUse">
<stop stop-color="#55AFC7"/>
<stop offset="1" stop-color="#3F62BE"/>
</linearGradient>
<linearGradient id="paint4_linear_1487_69229" x1="103.973" y1="42.8959" x2="116.806" y2="15.4759" gradientUnits="userSpaceOnUse">
<stop stop-color="#55AFC7"/>
<stop offset="1" stop-color="#3F62BE"/>
</linearGradient>
<linearGradient id="paint5_linear_1487_69229" x1="124.49" y1="42.9156" x2="137.345" y2="15.5185" gradientUnits="userSpaceOnUse">
<stop stop-color="#55AFC7"/>
<stop offset="1" stop-color="#3F62BE"/>
</linearGradient>
<linearGradient id="paint6_linear_1487_69229" x1="147.13" y1="48.7447" x2="164.314" y2="17.5958" gradientUnits="userSpaceOnUse">
<stop stop-color="#55AFC7"/>
<stop offset="1" stop-color="#3F62BE"/>
</linearGradient>
<linearGradient id="paint7_linear_1487_69229" x1="169.2" y1="42.9411" x2="182.359" y2="16.0294" gradientUnits="userSpaceOnUse">
<stop stop-color="#55AFC7"/>
<stop offset="1" stop-color="#3F62BE"/>
</linearGradient>
<linearGradient id="paint8_linear_1487_69229" x1="189.131" y1="42.8944" x2="203.581" y2="17.9914" gradientUnits="userSpaceOnUse">
<stop stop-color="#55AFC7"/>
<stop offset="1" stop-color="#3F62BE"/>
</linearGradient>
<clipPath id="clip0_1487_69229">
<rect width="207.321" height="52.8881" fill="white" transform="translate(0.339355 0.555908)"/>
</clipPath>
</defs>
</svg>
