<svg width="180" height="34" viewBox="0 0 180 34" fill="none" xmlns="http://www.w3.org/2000/svg">
<mask id="mask0_1487_69306" style="mask-type:alpha" maskUnits="userSpaceOnUse" x="0" y="0" width="180" height="34">
<path fill-rule="evenodd" clip-rule="evenodd" d="M6.01534 0.654551C5.45476 0.782036 4.99663 1.15343 4.99663 1.48C4.99663 2.72749 2.9266 4.58155 1.7251 4.40983C0.883345 4.28875 0.392033 4.61182 0.178976 5.42738C-0.156909 6.71271 0.60509 7.60568 1.20701 6.63179C2.01965 5.31736 2.56685 6.1562 1.9853 7.82515C1.06904 10.454 1.69482 15.1215 3.24444 17.2177C4.43255 18.8244 4.47039 19.0607 3.61758 19.538C3.09541 19.8303 2.66813 20.4491 2.66813 20.9136C2.66813 21.3776 2.40618 21.7577 2.08601 21.7577C1.32576 21.7577 1.34555 25.5298 2.12036 28.32C2.63204 30.1618 3.21067 30.7486 5.70624 31.9524C8.22159 33.1661 9.18384 33.3291 11.9326 33.009C14.5411 32.7051 15.5581 32.2574 17.0757 30.7451C18.7848 29.0418 18.9676 28.5266 18.9676 25.4123C18.9676 20.8286 17.5396 16.7875 15.352 15.1779L13.6126 13.899L15.8538 13.608C17.7865 13.3571 18.12 13.0939 18.2807 11.6968C18.5176 9.62973 16.8958 4.70671 15.5872 3.52209C15.0348 3.02263 13.3093 2.32815 11.7533 1.97946C10.1973 1.63077 8.49868 1.13771 7.97884 0.883906C7.45901 0.6301 6.57593 0.527066 6.01534 0.654551ZM21.9125 4.5117C20.1598 8.26116 20.1318 8.46548 20.1318 17.6205C20.1318 22.7356 20.3629 27.5289 20.6453 28.2716C20.9276 29.0144 22.4469 30.4569 24.021 31.4768C26.711 33.2197 27.0841 33.3041 30.2282 32.8774C33.9491 32.3727 36.7124 30.6805 36.741 28.8893C36.7514 28.242 37.0681 27.3414 37.4442 26.8879C37.8208 26.4339 37.9675 25.4216 37.7707 24.638C37.4133 23.2153 37.4151 23.2147 38.6824 24.3342C39.6434 25.1841 39.7715 25.57 39.2103 25.9263C38.6183 26.3017 38.6247 26.3984 39.2406 26.4059C39.7657 26.4118 39.9741 27.1144 39.8908 28.5976C39.7366 31.3453 40.3752 32.9001 41.5965 32.7528C42.1175 32.6905 42.9773 32.8285 43.507 33.0608C44.0367 33.2925 45.3465 33.3984 46.4176 33.2954L48.3648 33.1091L48.5313 27.4334C48.6914 21.9742 48.7484 21.7577 50.0157 21.7577C53.2558 21.7577 53.8339 17.2404 50.9844 14.1901C50.0239 13.162 49.238 12.1148 49.238 11.8639C49.238 11.2672 52.761 10.8667 55.3503 11.1689C57.2335 11.3889 57.3877 11.5571 57.3877 13.3885C57.3877 14.4782 57.0606 15.9248 56.6601 16.6024C56.0779 17.5885 56.0779 17.8877 56.6601 18.0985C57.1153 18.2632 57.3621 19.3797 57.319 21.0783C57.2602 23.3882 57.1939 23.5337 56.8766 22.0487C56.3958 19.7994 54.8334 19.7336 54.579 21.9521C54.4754 22.8596 54.5801 24.0384 54.8124 24.5717C55.5354 26.2313 55.589 27.1708 55.0214 28.2315C54.2879 29.603 55.2915 30.174 56.4319 29.0336C57.2236 28.242 57.3359 28.3793 57.4977 30.3382C57.6386 32.0432 57.9361 32.5456 58.843 32.6108C59.4834 32.6568 60.1383 32.7511 60.2983 32.8198C61.3462 33.2727 64.7888 33.1848 65.3919 32.69C66.151 32.0671 66.4531 24.0315 65.7435 23.3218C65.1142 22.6932 65.0263 19.1829 65.6213 18.4605C65.928 18.0874 66.1254 17.1705 66.059 16.4231C65.7685 13.1411 66.1423 11.2358 67.1383 10.9279C67.6989 10.7544 68.5499 10.4109 69.0302 10.1647C70.4902 9.41667 71.3895 10.0797 71.0036 11.6188C70.7492 12.6329 70.8912 13.0258 71.5141 13.0258C73.112 13.0258 73.6732 19.0374 72.2505 20.9188C71.1613 22.3584 71.1002 26.2057 72.1562 26.8222C72.5951 27.0783 72.9228 27.8118 72.8838 28.4521C72.8454 29.0924 73.0527 29.6641 73.3449 29.7223C73.6365 29.7805 74.2134 30.6322 74.6261 31.6142C75.2787 33.1656 75.6705 33.4001 77.6043 33.4001C78.8291 33.4001 80.3647 33.027 81.0161 32.5706C81.8526 31.9844 82.4464 31.9151 83.0372 32.3343C83.7061 32.8087 83.6636 32.8594 82.8253 32.5887C82.21 32.3896 81.9236 32.4874 82.132 32.8244C82.7438 33.8146 83.5227 33.4601 84.3808 31.7993C85.4583 29.7141 85.7988 27.2558 84.9903 27.4008C84.6433 27.4631 84.3592 27.1883 84.3592 26.7901C84.3592 26.3914 84.8127 26.0316 85.3669 25.9897C86.1335 25.9321 86.4688 26.5468 86.7716 28.5674C86.9904 30.0267 87.2914 31.5379 87.4404 31.9256C87.767 32.7779 94.4509 32.9589 95.9534 32.1567C97.0955 31.5467 97.3714 28.391 96.3131 28.0382C95.8538 27.8851 95.9307 27.2832 96.5664 26.0543C97.1304 24.9634 97.6357 21.8118 97.8895 17.801C98.1154 14.232 98.5252 11.4512 98.8006 11.6212C99.5276 12.0706 99.4258 22.7758 98.6899 23.2305C98.2865 23.4796 98.2743 23.8417 98.6527 24.2981C98.9682 24.6782 99.3082 26.2918 99.4089 27.8845C99.566 30.3783 99.7739 30.8062 100.901 30.9669C101.622 31.0687 102.211 31.4949 102.211 31.9128C102.211 33.0637 105.707 33.5748 106.818 32.5858C107.612 31.8785 107.847 31.8779 108.492 32.5811C109.468 33.6458 113.513 33.6388 114.399 32.5712C115.509 31.2335 114.077 27.0538 111.759 24.8674C109.563 22.7974 109.26 21.792 110.798 21.6907C111.358 21.6535 112.078 21.5627 112.398 21.4882C112.719 21.4136 113.209 21.3129 113.488 21.264C113.768 21.2157 113.705 20.824 113.348 20.3943C112.992 19.9647 112.872 19.4414 113.082 19.2313C114.194 18.1188 113.645 15.9621 111.792 14.1662C109.7 12.1387 109.66 11.2795 111.659 11.2795C112.335 11.2795 113.368 10.8458 113.953 10.316C114.978 9.38815 115.02 9.59829 115.077 15.9918C115.109 19.6434 115.088 23.4936 115.03 24.5484C114.972 25.6032 115.099 27.5027 115.313 28.7688C115.648 30.748 115.911 31.0717 117.188 31.0717C118.005 31.0717 118.964 31.4332 119.32 31.875C119.675 32.3168 120.671 32.8419 121.532 33.0416C122.743 33.3227 123.304 33.1108 124.006 32.109C124.752 31.0443 124.914 30.9919 124.914 31.815C124.914 32.8518 125.375 32.9851 129.225 33.0631C131.114 33.1015 131.751 32.793 132.988 31.2434L134.477 29.3777L135.08 31.2434C135.581 32.7942 135.978 33.1091 137.43 33.1091C138.926 33.1091 139.204 32.8663 139.369 31.4139C139.615 29.2583 138.423 26.9968 137.04 26.9968C136.454 26.9968 135.974 27.2745 135.974 27.6133C135.974 27.9521 135.712 28.0679 135.392 27.87C135.072 27.6721 134.81 27.803 134.81 28.161C134.81 28.519 134.548 28.65 134.228 28.4521C133.348 27.9084 133.531 26.9968 134.519 26.9968C134.999 26.9968 135.392 26.743 135.392 26.4327C135.392 26.123 134.957 26.0363 134.425 26.24C133.624 26.5474 133.536 26.3704 133.912 25.2033C134.629 22.9778 134.357 20.6173 133.148 18.5676C132.069 16.7404 132.036 13.608 133.095 13.608C133.961 13.608 133.525 8.76702 132.429 6.20801C131.241 3.4371 129.705 2.54762 126.111 2.54762C124.849 2.54762 123.58 2.17098 123.168 1.67443C122.256 0.576546 117.456 0.53405 116.037 1.61156C115.476 2.03709 115.018 3.06105 115.018 3.88708C115.018 4.7137 114.756 5.55137 114.436 5.74929C114.116 5.94722 113.854 5.83137 113.854 5.49258C113.854 4.10829 111.477 2.54703 109.342 2.52899C108.142 2.51909 106.65 2.12616 106.029 1.6558C104.742 0.682492 100.719 0.502034 100.168 1.39268C99.9665 1.71809 99.5748 1.84383 99.2959 1.67152C99.0177 1.49979 98.52 1.82287 98.1899 2.38986C97.8598 2.95685 97.5816 3.09365 97.5717 2.69315C97.542 1.46487 94.1808 1.8188 93.4823 3.12392C93.1417 3.76134 92.5456 4.21947 92.1585 4.14263C91.712 4.05415 91.5205 4.58854 91.6358 5.60376C91.8587 7.58123 90.8266 7.72968 90.34 5.79004C89.1472 1.03875 83.2305 1.49514 81.1279 6.50023C80.5044 7.98406 80.4514 8.00269 80.2436 6.81633C79.8862 4.78064 77.4378 2.54762 75.5628 2.54762C73.4747 2.54762 71.3587 4.69099 71.3587 6.80526C71.3587 7.66564 71.0967 8.36885 70.7766 8.36885C70.4564 8.36885 70.1944 7.83213 70.1944 7.1755C70.1944 6.51944 69.7945 5.20967 69.3061 4.26488L68.4184 2.54762H62.2129C56.6368 2.54762 55.8701 2.67626 54.6558 3.81723L53.3047 5.08684L52.1218 3.81723C51.1124 2.73389 50.3085 2.54762 46.6353 2.54762C42.5343 2.54762 42.2741 2.62853 41.1086 4.26488C40.069 5.72543 39.874 6.8984 39.8047 12.0962C39.7604 15.4591 39.5072 18.0758 39.2418 17.9122C38.9769 17.748 38.7598 17.8761 38.7598 18.1963C38.7598 18.5164 39.0217 18.9402 39.3419 19.1381C40.0893 19.5998 40.1027 23.3248 39.3588 23.7846C39.0479 23.9767 38.6678 23.5337 38.5141 22.8003C38.031 20.4968 37.8243 17.1735 38.1777 17.3918C38.3639 17.507 38.4111 16.699 38.2824 15.5965C38.1491 14.4561 38.3802 13.1917 38.8186 12.6638C39.4624 11.8884 39.4461 11.6264 38.7184 11.0711C38.2399 10.7055 37.4663 9.22748 36.9994 7.78672C36.5332 6.34597 35.4754 4.40983 34.6494 3.48425C33.3181 1.99227 32.7232 1.78794 29.4051 1.68316C27.3461 1.61796 25.219 1.37114 24.6776 1.13422C23.8848 0.786692 23.3469 1.44391 21.9125 4.5117ZM161.732 1.93348C161.011 2.53539 160.564 3.40159 160.74 3.85856C160.915 4.31552 160.629 5.04609 160.104 5.48152C159.283 6.16377 159.015 6.10555 158.186 5.06122C156.602 3.06803 154.92 2.54762 150.062 2.54762C146.262 2.54762 145.172 2.76242 143.9 3.76309C141.505 5.64742 140.452 8.23729 140.407 12.3599C140.372 15.5121 140.558 16.2159 141.663 17.11C143.118 18.2888 143.42 19.7301 142.105 19.226C141.635 19.0456 141.085 19.1661 140.882 19.4938C140.68 19.8215 141.064 20.2337 141.737 20.4095C143.356 20.8327 143.281 21.4247 141.505 22.2339C139.639 23.0838 139.67 23.706 141.65 25.1835L143.251 26.378L141.684 26.396C139.641 26.4205 139.111 27.3472 140.609 28.2821C141.262 28.6896 141.796 29.3509 141.796 29.752C141.796 30.1525 142.367 31.1374 143.065 31.9402C144.047 33.0695 144.893 33.4001 146.801 33.4001C150.459 33.4001 151.1 32.9868 151.183 30.5728L151.257 28.4521L151.862 30.61C152.532 32.9991 153.657 33.4787 157.804 33.1428L160.132 32.9542L160.003 28.6657C159.909 25.5438 160.022 24.7335 160.421 25.687C160.722 26.4071 161.369 26.9968 161.86 26.9968C162.35 26.9968 162.752 27.48 162.752 28.0708C162.752 29.2391 164.469 31.0717 165.563 31.0717C165.938 31.0717 166.769 31.5961 167.41 32.2371C168.365 33.1917 169.157 33.3606 171.794 33.1731C177.454 32.7697 179.994 30.0273 179.39 24.971C179.276 24.0169 179.401 22.6617 179.667 21.9597C180.008 21.0638 179.891 20.4665 179.274 19.9548C178.546 19.3506 178.532 19.1498 179.188 18.7819C179.792 18.4442 179.959 16.8096 179.887 11.9419C179.77 3.88301 179.095 2.66288 174.686 2.53132C170.104 2.39452 170.155 2.37414 170.55 4.14845L170.905 5.74929L170.016 4.15602C169.511 3.25198 168.439 2.4178 167.54 2.22861C166.667 2.04524 165.499 1.64882 164.943 1.34844C163.574 0.607398 163.251 0.666193 161.732 1.93348ZM6.00836 2.78687C6.20046 3.78987 5.92919 4.37723 5.06066 4.84176C2.97899 5.95595 1.90672 8.79263 2.26298 12.2446C2.64194 15.9184 3.14955 16.7054 7.32279 20.0969C10.8371 22.9534 11.9373 25.0263 11.0245 27.0725L10.4453 28.3706L9.16288 27.0882C8.10284 26.0281 7.9934 25.595 8.53303 24.5868C9.60355 22.586 8.0388 21.5184 4.75679 22.0109C2.21641 22.3916 2.08776 22.5016 2.11861 24.2672C2.18264 27.8746 3.37541 30.0279 6.10674 31.4663C8.66109 32.8122 10.8179 33.2249 10.8179 32.368C10.8179 32.1206 11.8954 31.9186 13.2121 31.9186C15.1605 31.9186 15.8724 31.5956 17.0349 30.1851C18.3028 28.6471 18.4361 28.0248 18.2207 24.6543C17.9314 20.1353 17.2986 18.9792 13.9561 16.8644C11.205 15.1244 8.48937 12.2178 8.48937 11.0152C8.48937 10.5984 8.85901 9.95106 9.31074 9.57617C10.2776 8.77401 11.0856 9.67455 11.1002 11.5705C11.1078 12.5875 11.5414 12.7505 14.5301 12.8582L17.9506 12.9822L17.6287 10.5803C17.1217 6.80177 15.6047 5.24459 11.9192 4.72126C9.5628 4.38654 8.5144 3.91502 7.7134 2.82936C6.36112 0.997422 5.66316 0.980539 6.00836 2.78687ZM23.6246 2.3561C23.6246 2.5709 24.0681 3.23743 24.6107 3.83644C25.414 4.72476 25.4321 4.8633 24.7073 4.58505C24.1153 4.35802 23.2986 4.99253 22.2659 6.48277C20.753 8.66631 20.714 8.94107 20.714 17.482C20.714 26.8943 21.2536 29.6309 23.2346 30.2596C23.9267 30.4791 24.7562 30.9872 25.0776 31.3889C25.8425 32.3436 28.2816 33.0608 28.2816 32.3308C28.2816 32.0112 29.2456 31.8936 30.493 32.0613C32.3029 32.304 33.0451 32.0712 34.579 30.78C35.6105 29.9126 36.4074 28.9027 36.3509 28.5365C36.2939 28.1698 36.4616 27.3769 36.7223 26.7744C37.0064 26.1189 36.9243 25.2417 36.518 24.5915C36.1449 23.993 36.0645 23.5041 36.3405 23.5041C37.067 23.5041 37.5979 14.3874 37.0623 11.1025C36.7194 8.99929 36.0558 7.74248 34.3869 6.03337C33.1662 4.78297 31.921 3.91211 31.6195 4.09839C31.3185 4.28467 29.9575 4.52451 28.5947 4.6322C26.4351 4.80218 26.034 4.64442 25.4658 3.39635C24.8756 2.10113 23.6246 1.39443 23.6246 2.3561ZM100.082 3.27527C99.5812 4.08384 99.6714 16.7706 100.237 25.1049C100.503 29.0168 100.815 30.4895 101.378 30.4895C101.804 30.4895 102.363 30.8429 102.619 31.2748C102.875 31.7067 103.794 32.233 104.662 32.4443C105.904 32.747 106.379 32.5677 106.895 31.6031L107.551 30.3778L108.687 31.5979C109.418 32.3826 110.543 32.818 111.839 32.818C113.754 32.818 113.854 32.7167 113.854 30.7806C113.854 29.66 113.592 28.7432 113.272 28.7432C112.951 28.7432 112.689 28.3502 112.689 27.87C112.689 27.3205 112.135 26.9968 111.195 26.9968C109.936 26.9968 109.763 26.8018 110.093 25.7598C110.357 24.9273 110.275 24.6526 109.841 24.9209C109.487 25.1398 108.87 25.1113 108.469 24.8569C108.069 24.6031 107.502 24.3912 107.208 24.386C106.914 24.3813 106.565 24.0501 106.432 23.6496C106.295 23.2415 106.664 22.9219 107.272 22.9219C107.868 22.9219 108.769 22.4638 109.275 21.9032C109.779 21.3426 110.876 20.3967 111.71 19.8006C113.179 18.7516 113.196 18.673 112.231 17.3452C111.683 16.5902 110.71 15.9463 110.07 15.9137L108.906 15.8544L110.07 15.3759C111.117 14.9451 111.135 14.8566 110.243 14.4922C109.698 14.2692 109.002 14.2413 108.697 14.4305C108.381 14.6255 108.274 14.2663 108.448 13.6004C108.69 12.6742 108.544 12.5077 107.753 12.811C106.423 13.321 105.884 12.3203 106.17 9.87247C106.351 8.32053 106.658 7.88685 107.529 7.95263C108.184 8.00211 108.799 8.60752 108.997 9.39862C109.288 10.5582 109.651 10.7329 111.451 10.5827C113.282 10.4296 113.588 10.1886 113.75 8.77051C114.045 6.20393 112.994 5.45823 109.086 5.45823C105.89 5.45823 105.654 5.36917 105.995 4.29399C106.274 3.41323 106.1 3.12974 105.277 3.12974C104.679 3.12974 103.893 3.4272 103.529 3.79103C103.036 4.28409 102.627 4.21016 101.916 3.49997C100.773 2.35668 100.66 2.34271 100.082 3.27527ZM117.052 3.37772C115.59 5.10605 115.049 6.53574 115.767 6.77732C116.317 6.96244 116.314 7.20868 115.751 7.89092C115.353 8.37292 115.158 8.89683 115.317 9.05575C115.476 9.21525 115.71 13.3821 115.837 18.3162C115.964 23.2508 116.094 28.0079 116.125 28.8887C116.174 30.2666 116.425 30.4895 117.929 30.4895C119.029 30.4895 119.675 30.7882 119.675 31.2969C119.675 32.6131 123.12 32.8314 123.802 31.5577C124.491 30.2683 125.496 30.1531 125.496 31.3627C125.496 31.843 125.954 32.2714 126.515 32.3145C130.425 32.6154 131.078 32.4664 132.336 30.9878C133.889 29.1623 133.9 29.0808 132.764 27.9445C131.976 27.1569 132.01 26.8355 133.078 24.9337C134.007 23.2811 134.123 22.6233 133.598 21.9905C133.226 21.5423 133.113 21.1756 133.348 21.1756C133.583 21.1756 133.198 20.7081 132.492 20.1371C131.753 19.538 131.233 18.4908 131.265 17.663C131.401 14.1377 131.657 13.0258 132.336 13.0258C133.245 13.0258 133.296 12.0362 132.402 11.7382C131.923 11.5781 131.944 11.1921 132.48 10.3335C133.099 9.34216 133.053 8.89392 132.198 7.58764C131.059 5.85 129.714 5.37033 125.641 5.24925C123.356 5.18114 122.906 4.99079 123.048 4.14845C123.268 2.83518 121.583 2.80317 120.157 4.09315C119.223 4.9384 119.093 4.94596 119.093 4.15544C119.093 2.98887 117.799 2.49581 117.052 3.37772ZM162.073 4.43952C160.935 5.97865 160.687 6.98223 160.743 9.82416C160.793 12.4187 161.023 13.3169 161.635 13.3169C162.712 13.3169 163.243 14.558 163.293 17.1915C163.329 19.0421 163.182 19.2802 162.17 19.0159C161.092 18.7341 161.006 18.9978 161.006 22.5628C161.006 24.7428 161.258 26.4147 161.588 26.4147C161.908 26.4147 162.17 26.1527 162.17 25.8325C162.17 25.5124 162.432 25.2504 162.752 25.2504C163.072 25.2504 163.334 25.9228 163.334 26.7442C163.334 28.9457 164.365 30.4895 165.834 30.4895C166.546 30.4895 167.457 31.0152 167.858 31.6579C168.494 32.676 169.015 32.7848 171.9 32.5048C175.714 32.1346 176.723 31.5036 176.723 29.4906C176.723 28.5417 177.119 27.9486 177.887 27.7477C179.083 27.4351 179.541 25.8325 178.435 25.8325C178.096 25.8325 177.987 25.5589 178.194 25.2248C178.401 24.8907 178.278 24.2666 177.923 23.8376C177.434 23.2491 177.493 22.9743 178.163 22.717C179.617 22.1593 179.276 20.0113 177.734 20.0113C176.559 20.0113 176.417 19.7272 176.424 17.3952C176.428 15.9481 176.692 14.8426 177.014 14.9212C177.334 14.9992 177.539 15.4935 177.469 16.0185C177.399 16.5442 177.837 17.1042 178.444 17.2625C179.215 17.4645 179.453 17.3073 179.235 16.7398C179.064 16.2939 178.887 13.5131 178.842 10.56L178.76 5.19104L175.122 5.17881C173.121 5.17241 171.484 5.23644 171.484 5.32085C171.484 5.40526 171.784 5.95478 172.151 6.54273C172.572 7.21566 172.644 8.23554 172.347 9.29966C172.088 10.2287 171.939 11.3534 172.016 11.7999C172.178 12.7447 171.009 13.6126 170.063 13.2494C169.634 13.0852 169.49 11.5886 169.642 8.89043L169.874 4.78239L167.332 4.97449C164.994 5.15145 164.801 5.06181 164.928 3.85739C165.131 1.93988 163.707 2.23036 162.073 4.43952ZM93.4462 5.73008C93.1848 6.3809 92.8058 7.92643 92.6044 9.16403L92.2371 11.4151L91.1119 10.2072C90.4931 9.54299 89.9866 8.19072 89.9866 7.20227V5.40526L86.0573 5.57698L82.128 5.74929L81.9481 8.2367C81.8311 9.86025 81.547 10.5867 81.1296 10.3289C80.6936 10.0593 80.5877 10.5635 80.7949 11.9169C81.1308 14.1063 80.8578 15.3543 80.0422 15.3543C79.7482 15.3543 79.5061 14.5027 79.5032 13.4624C79.5008 12.4216 79.3332 10.1955 79.1312 8.51438L78.7639 5.45823H75.3526C71.9716 5.45823 71.9408 5.47337 71.9408 7.15628C71.9408 8.09001 71.6136 8.9859 71.2131 9.14773C70.7859 9.32004 70.9145 9.46033 71.5246 9.48711C72.3687 9.52436 72.4507 9.7444 71.9612 10.6589C71.1613 12.1532 71.1998 12.4437 72.1964 12.4437C72.7587 12.4437 73.147 13.3512 73.3781 15.2088C73.5678 16.7293 73.8339 18.8529 73.9695 19.9275C74.1633 21.4637 73.9858 21.9411 73.1365 22.1628C71.7667 22.5208 71.6032 26.1609 72.9339 26.6714C73.53 26.9002 73.6988 27.4543 73.4607 28.402C73.158 29.6088 73.2797 29.7526 74.363 29.4697C75.2257 29.2438 75.4848 29.3532 75.196 29.8207C74.9649 30.1944 74.9463 31.0356 75.1541 31.6899C75.6926 33.3873 80.0736 33.0928 80.9625 31.2998C81.5202 30.1752 81.6786 30.1449 82.8678 30.9343C83.6025 31.4221 84.1654 31.5333 84.1654 31.1904C84.1654 30.8574 84.3418 30.1251 84.5577 29.5628C84.8476 28.8078 84.7207 28.6291 84.0722 28.8776C83.3766 29.1448 83.195 28.7077 83.195 26.7639C83.195 24.7184 83.4366 24.1997 84.6567 23.624C85.4606 23.2444 86.215 23.0308 86.3332 23.149C86.4514 23.2677 86.8711 25.2935 87.2658 27.6523L87.9841 31.9396L90.8773 32.0648C95.0779 32.2458 96.39 31.8494 96.39 30.397C96.39 29.7182 95.9528 28.8433 95.419 28.4527C94.5254 27.7995 94.5545 27.5929 95.7805 25.8704C96.844 24.3778 97.0548 23.4773 96.8231 21.423C96.6595 19.9694 96.7753 18.8471 97.0897 18.8471C97.4163 18.8471 97.5851 16.4999 97.4978 13.1714C97.4052 9.64719 97.6084 7.01367 98.0339 6.22431C99.0171 4.39819 98.9665 4.34579 96.3201 4.45116C94.5056 4.52392 93.8053 4.83536 93.4462 5.73008ZM45.8908 5.30921C41.1954 5.50073 41.0883 5.53798 41.0883 6.97524C41.0883 7.78381 40.8257 8.93642 40.5044 9.53601C40.1144 10.2648 40.1144 10.7462 40.5044 10.9872C41.4963 11.6002 41.2291 21.8799 40.1819 23.3742C39.3617 24.5455 39.3617 24.6683 40.1819 24.6683C40.9119 24.6683 41.09 25.4332 41.097 28.5976C41.1022 30.7625 41.3135 32.2004 41.5679 31.7993C41.9306 31.2282 42.2729 31.2556 43.16 31.9262C43.7817 32.3966 45.1416 32.7895 46.1818 32.7994L48.0737 32.818V27.0335V21.2495L49.9656 21.0667C51.7417 20.8956 51.8686 20.7326 52.0363 18.4105L52.2156 15.9364H50.1444C48.0784 15.9364 48.0737 15.9306 48.0737 13.3169V10.6973L50.2567 10.6979H52.4397L52.2377 7.78731C52.1143 5.99902 51.7772 4.9221 51.3645 4.99486C50.9954 5.05948 48.5319 5.20151 45.8908 5.30921ZM56.337 5.34763L53.8315 5.52809L54.0085 7.96718C54.1744 10.2497 54.3071 10.4179 56.0762 10.5885C57.4675 10.723 58.0397 11.1066 58.2452 12.0438C58.6084 13.7034 58.3674 16.4726 57.8854 16.1751C57.6788 16.0476 57.3598 16.3346 57.1758 16.8131C56.9925 17.2916 57.1223 17.6828 57.4651 17.6828C57.868 17.6828 58.0403 19.378 57.9535 22.4853C57.7446 29.9255 57.9058 32.2359 58.6335 32.2359C58.9985 32.2359 59.5963 31.8261 59.9624 31.3255C60.5574 30.5122 60.7914 30.5431 62.1559 31.6165C64.6777 33.5998 64.9553 33.2278 64.9553 27.87C64.9553 24.7754 64.7242 22.9219 64.3389 22.9219C64.0001 22.9219 63.9139 22.6122 64.1479 22.2339C64.5554 21.5737 64.7784 19.0607 64.8989 13.7581C64.9507 11.4954 65.1381 11.2026 67.1383 10.2642C68.9138 9.43122 69.355 8.88752 69.5034 7.34955C69.6251 6.09216 69.4295 5.4495 68.9213 5.43262C62.9732 5.23179 58.3727 5.20093 56.337 5.34763ZM144.124 6.58173C144.124 7.30414 143.656 7.77217 142.814 7.89151C141.589 8.06556 141.505 8.35953 141.505 12.4437C141.505 16.6373 141.556 16.8026 142.814 16.6274C144.037 16.4574 144.124 16.6594 144.124 19.6836C144.124 22.7496 144.047 22.9219 142.669 22.9219C141.763 22.9219 141.213 23.252 141.213 23.7951C141.213 24.2754 141.708 24.6683 142.312 24.6683C143.764 24.6683 144.379 28.1378 143.094 29.0773C142.328 29.6367 142.346 29.9004 143.241 31.2655C144.073 32.5363 144.695 32.8163 146.665 32.8093C149.861 32.7971 150.406 32.3576 150.63 29.6088C150.888 26.4345 152.528 26.3547 152.653 29.5104C152.702 30.7329 152.899 31.8913 153.092 32.084C153.286 32.2772 154.832 32.4559 156.528 32.481L159.613 32.527L159.256 30.1769C159.06 28.8846 158.678 27.4689 158.407 27.0311C158.075 26.4933 158.133 26.3698 158.587 26.6504C158.957 26.8786 159.259 26.8099 159.259 26.4973C159.259 26.1853 158.932 25.7767 158.532 25.5898C157.949 25.3185 157.949 25.1823 158.532 24.911C159.388 24.5111 159.505 22.5604 158.703 22.0645C158.397 21.8753 158.294 21.3351 158.475 20.8647C158.663 20.3728 158.219 19.5357 157.432 18.8989L156.062 17.7888L157.66 17.0599C159.174 16.3701 159.259 16.1227 159.259 12.4018C159.259 8.7286 159.142 8.37409 157.468 6.96535C155.805 5.56534 155.266 5.45823 149.9 5.45823C144.582 5.45823 144.124 5.5473 144.124 6.58173ZM98.2819 8.08826C98.2819 8.89451 98.5112 9.69609 98.7912 9.86898C99.0712 10.0425 99.3006 9.38232 99.3006 8.40319C99.3006 7.42406 99.0712 6.62248 98.7912 6.62248C98.5112 6.62248 98.2819 7.28202 98.2819 8.08826ZM171.037 8.36885C171.037 9.48944 171.157 9.94757 171.303 9.38756C171.45 8.82756 171.45 7.91013 171.303 7.35013C171.157 6.79013 171.037 7.24826 171.037 8.36885ZM122.469 8.48527C123.314 9.32993 123.4 10.3277 122.586 9.82416C122.255 9.61983 122.003 10.1094 122.003 10.9541C122.003 11.8901 122.328 12.4437 122.877 12.4437C123.507 12.4437 123.75 11.797 123.75 10.1152C123.75 8.3118 123.527 7.78672 122.76 7.78672C121.991 7.78672 121.926 7.94215 122.469 8.48527ZM28.2752 9.73043C27.5754 10.2759 27.4386 11.7789 27.5644 17.5373C27.6837 22.9865 27.5463 24.6706 26.9823 24.677C26.527 24.6829 26.4671 24.8499 26.8262 25.1136C27.1464 25.3488 27.4084 25.9129 27.4084 26.3664C27.4084 27.9037 28.7007 27.6319 29.3987 25.9466C29.9674 24.5728 30.2544 17.9104 30.0477 10.872C30.0006 9.25717 29.3876 8.86249 28.2752 9.73043ZM167.455 9.87247C167.483 10.5506 167.621 10.6886 167.807 10.2247C167.975 9.80436 167.954 9.30199 167.761 9.10873C167.567 8.91546 167.43 9.25891 167.455 9.87247ZM107.741 10.1152C107.939 10.4354 108.216 10.6973 108.358 10.6973C108.499 10.6973 108.615 10.4354 108.615 10.1152C108.615 9.79505 108.337 9.53309 107.998 9.53309C107.659 9.53309 107.543 9.79505 107.741 10.1152ZM28.5488 10.7363C28.3374 11.0775 28.2897 11.482 28.4422 11.6346C28.5947 11.7871 28.8747 11.5077 29.0645 11.0134C29.458 9.98773 29.1227 9.80727 28.5488 10.7363ZM149.736 10.5774C149.466 11.0064 149.566 11.6951 149.966 12.1783C150.886 13.286 151.692 13.2581 151.692 12.1183C151.692 11.6194 151.45 11.3604 151.154 11.5432C150.857 11.726 150.524 11.4139 150.412 10.8499C150.258 10.0739 150.094 10.0075 149.736 10.5774ZM125.78 11.3825C125.574 11.9198 125.496 12.9676 125.608 13.711L125.813 15.0633L126.552 13.7459C127.059 12.8442 127.113 12.109 126.724 11.4174C126.198 10.4802 126.129 10.4773 125.78 11.3825ZM90.6753 13.5131C90.6572 14.799 90.9518 15.9592 91.3336 16.1053C92.2371 16.4516 92.2651 12.7458 91.3657 11.8447C90.8755 11.354 90.6991 11.7807 90.6753 13.5131ZM161.879 11.8616C162.077 12.1818 162.354 12.4437 162.495 12.4437C162.637 12.4437 162.752 12.1818 162.752 11.8616C162.752 11.5414 162.474 11.2795 162.136 11.2795C161.797 11.2795 161.681 11.5414 161.879 11.8616ZM28.5266 13.874C28.3293 14.6604 28.4347 16.036 28.7606 16.9301C29.2991 18.4058 29.3579 18.2743 29.3998 15.4999C29.4493 12.2149 29.1047 11.5729 28.5266 13.874ZM160.424 14.2081C160.424 14.5184 160.816 14.7722 161.297 14.7722C161.777 14.7722 162.17 14.6692 162.17 14.5434C162.17 14.4177 161.777 14.1639 161.297 13.9794C160.816 13.7954 160.424 13.8984 160.424 14.2081ZM167.409 14.8065C167.409 15.2006 167.896 15.3631 168.558 15.1896C169.483 14.948 169.768 15.2466 170.02 16.7229C170.535 19.7441 170.06 22.9929 168.988 23.7765C167.64 24.7626 167.729 25.4547 169.155 25.0816C170.076 24.8412 170.32 25.0641 170.32 26.144C170.32 26.8955 170.582 27.6721 170.902 27.87C171.222 28.0679 171.484 27.7425 171.484 27.1476C171.484 26.5526 171.805 25.7446 172.197 25.3523C172.735 24.8138 172.749 24.3807 172.251 23.5832C171.87 22.9743 171.797 22.1931 172.078 21.7391C172.389 21.2355 172.212 20.6813 171.587 20.2017C170.745 19.5543 170.728 19.3745 171.461 18.8936C172.195 18.4122 172.175 18.1864 171.315 17.2358C169.995 15.7769 170.06 15.3951 171.562 15.788C172.456 16.022 172.728 15.8841 172.535 15.2973C172.196 14.2681 167.409 13.81 167.409 14.8065ZM159.405 16.9412C159.004 17.7969 158.898 18.7184 159.167 18.9879C159.933 19.7534 160.86 18.1194 160.477 16.6792C160.138 15.4067 160.12 15.4108 159.405 16.9412ZM62.6268 16.5186C62.6268 16.8387 62.9045 17.1007 63.2433 17.1007C63.5821 17.1007 63.6979 16.8387 63.5 16.5186C63.3021 16.1984 63.025 15.9364 62.8835 15.9364C62.7421 15.9364 62.6268 16.1984 62.6268 16.5186ZM79.9368 16.2846C79.7453 16.4761 79.7378 17.0215 79.9205 17.4977C80.1912 18.2027 80.3437 18.219 80.7448 17.5862C81.6029 16.2327 80.9847 15.2367 79.9368 16.2846ZM18.3855 17.6828C18.3855 18.003 18.6474 18.2649 18.9676 18.2649C19.2878 18.2649 19.5497 18.003 19.5497 17.6828C19.5497 17.3626 19.2878 17.1007 18.9676 17.1007C18.6474 17.1007 18.3855 17.3626 18.3855 17.6828ZM90.9786 19.2837C91.4454 22.3066 91.733 22.3992 91.733 19.5264C91.733 18.1922 91.4873 17.1007 91.1875 17.1007C90.8854 17.1007 90.7923 18.0746 90.9786 19.2837ZM148.781 19.1381C148.781 19.6184 149.043 20.0113 149.363 20.0113C149.683 20.0113 149.945 19.6184 149.945 19.1381C149.945 18.6579 149.683 18.2649 149.363 18.2649C149.043 18.2649 148.781 18.6579 148.781 19.1381ZM79.5084 19.7203C79.5084 20.2005 79.7704 20.5934 80.0905 20.5934C80.4107 20.5934 80.6726 20.2005 80.6726 19.7203C80.6726 19.24 80.4107 18.8471 80.0905 18.8471C79.7704 18.8471 79.5084 19.24 79.5084 19.7203ZM124.227 20.1766C124.949 21.0457 124.469 21.976 123.022 22.5098C121.778 22.9685 121.664 24.6683 122.877 24.6683C123.357 24.6683 123.75 24.3737 123.75 24.0134C123.75 23.596 124.384 23.4854 125.496 23.7078C126.956 23.9994 127.243 23.872 127.243 22.9301C127.243 22.3101 126.669 21.2687 125.968 20.6161C124.573 19.3163 123.232 18.9775 124.227 20.1766ZM28.7397 21.7577C28.5988 22.7182 28.6995 23.5041 28.9644 23.5041C29.2293 23.5041 29.4458 22.7182 29.4458 21.7577C29.4458 20.7972 29.3445 20.0113 29.2205 20.0113C29.0971 20.0113 28.8806 20.7972 28.7397 21.7577ZM150.876 20.4398C150.324 20.991 150.472 21.8607 151.055 21.5004C151.345 21.3205 151.447 21.6942 151.281 22.3299C150.895 23.8033 151.537 26.4147 152.285 26.4147C153.216 26.4147 152.985 20.7675 152.04 20.4048C151.591 20.2325 151.067 20.2482 150.876 20.4398ZM55.7333 22.3398C55.7333 23.1402 55.8655 23.468 56.0267 23.0675C56.1885 22.6675 56.1885 22.0127 56.0267 21.6122C55.8655 21.2122 55.7333 21.5394 55.7333 22.3398ZM55.9959 24.5658C55.7904 24.8982 55.9062 25.3453 56.2526 25.5595C57.1176 26.0939 57.4238 25.669 56.8469 24.7347C56.5372 24.2346 56.2374 24.1747 55.9959 24.5658ZM124.656 25.198C124.174 25.9769 124.923 27.5789 125.769 27.5789C126.234 27.5789 126.398 27.0503 126.221 26.1236C125.938 24.645 125.249 24.2375 124.656 25.198ZM62.3358 25.8325C62.5337 26.1527 62.8108 26.4147 62.9522 26.4147C63.0937 26.4147 63.209 26.1527 63.209 25.8325C63.209 25.5124 62.9313 25.2504 62.5925 25.2504C62.2537 25.2504 62.1378 25.5124 62.3358 25.8325ZM148.245 27.3362C148.273 28.0143 148.411 28.1523 148.597 27.6884C148.765 27.2681 148.744 26.7657 148.551 26.5724C148.357 26.3792 148.22 26.7226 148.245 27.3362ZM16.6391 27.87C16.6391 28.3502 16.8929 28.7432 17.2032 28.7432C17.5129 28.7432 17.6159 28.3502 17.4319 27.87C17.2474 27.3897 16.9936 26.9968 16.8679 26.9968C16.7421 26.9968 16.6391 27.3897 16.6391 27.87ZM62.6268 27.5789C62.6268 27.8991 63.0198 28.161 63.5 28.161C63.9803 28.161 64.3732 27.8991 64.3732 27.5789C64.3732 27.2587 63.9803 26.9968 63.5 26.9968C63.0198 26.9968 62.6268 27.2587 62.6268 27.5789ZM141.213 27.5789C141.213 27.8991 141.491 28.161 141.83 28.161C142.169 28.161 142.285 27.8991 142.087 27.5789C141.889 27.2587 141.612 26.9968 141.47 26.9968C141.329 26.9968 141.213 27.2587 141.213 27.5789ZM177.933 29.0825C177.961 29.7607 178.099 29.8987 178.285 29.4347C178.453 29.0144 178.432 28.5121 178.239 28.3188C178.046 28.1255 177.908 28.469 177.933 29.0825ZM135.401 30.344C135.427 33.2191 138.453 33.7366 138.778 30.9209C138.944 29.4883 138.78 29.3253 137.177 29.3253C135.862 29.3253 135.395 29.5931 135.401 30.344ZM60.6697 31.9448C60.8543 32.4251 61.2711 32.818 61.5959 32.818C61.937 32.818 61.8805 32.4484 61.4626 31.9448C61.0638 31.4646 60.647 31.0717 60.5364 31.0717C60.4258 31.0717 60.4858 31.4646 60.6697 31.9448Z" fill="black"/>
</mask>
<g mask="url(#mask0_1487_69306)">
<rect x="0.0966797" y="-9.87866" width="187.444" height="58.2123" fill="url(#paint0_linear_1487_69306)"/>
</g>
<defs>
<linearGradient id="paint0_linear_1487_69306" x1="93.8185" y1="-9.87866" x2="93.8185" y2="48.3337" gradientUnits="userSpaceOnUse">
<stop stop-color="#005095"/>
<stop offset="1" stop-color="#007CC5"/>
</linearGradient>
</defs>
</svg>
