<svg width="242" height="66" viewBox="0 0 242 66" fill="none" xmlns="http://www.w3.org/2000/svg">
<path d="M36.4782 23.1718C32.8681 10.7148 18.0703 5.61691 8.71764 15.4258C-3.4617 28.2102 9.91773 48.8893 26.7685 42.2938C26.8858 42.2472 27.0158 42.2435 27.1356 42.2834C27.2553 42.3234 27.3572 42.4043 27.4231 42.512L29.6645 46.0428C29.7435 46.1699 29.7886 46.3157 29.7956 46.4667C29.8025 46.6176 29.7711 46.7686 29.7042 46.9057C29.0827 48.1223 29.0132 49.1108 29.4959 49.8712C31.4663 52.992 33.6053 56.3543 35.9129 59.9578C37.1295 61.8555 38.6734 62.1761 40.5446 60.9199L42.2009 59.7991C44.0787 58.5428 44.4126 56.9593 43.2026 55.0484L39.3346 48.9091" stroke="#2A609F" stroke-width="1.98361"/>
<path d="M36.478 23.1721C37.6219 29.5329 35.8961 34.9713 31.3008 39.4873C31.076 39.7055 31.0462 39.9468 31.2115 40.2113L33.2745 43.5834C33.4662 43.8876 33.7406 44.0364 34.0977 44.0297C37.0334 43.9802 37.9459 46.8167 39.3344 48.9094" stroke="#2A609F" stroke-width="1.98361"/>
<path d="M34.603 26.99C34.603 25.1353 34.2377 23.2987 33.5279 21.5852C32.8182 19.8717 31.7779 18.3148 30.4664 17.0033C29.1549 15.6918 27.598 14.6515 25.8845 13.9418C24.171 13.232 22.3344 12.8667 20.4797 12.8667C16.734 12.8667 13.1417 14.3547 10.4931 17.0033C7.84443 19.6519 6.35645 23.2443 6.35645 26.99C6.35645 30.7357 7.84443 34.328 10.4931 36.9766C13.1417 39.6253 16.734 41.1133 20.4797 41.1133C22.3344 41.1133 24.171 40.748 25.8845 40.0382C27.598 39.3284 29.1549 38.2881 30.4664 36.9766C31.7779 35.6652 32.8182 34.1082 33.5279 32.3947C34.2377 30.6812 34.603 28.8447 34.603 26.99Z" stroke="#6D6D6D" stroke-width="1.98361"/>
<path d="M21.2644 17.0324C14.4011 17.7167 7.11136 24.3023 9.64046 31.7706C10.0835 33.0864 10.4471 33.0632 10.7314 31.7012C11.9613 25.8694 16.841 22.9733 22.5835 22.8543C22.9472 22.8477 23.1654 23.0229 23.2381 23.3799L23.6051 25.2842C23.7968 26.2495 24.1704 26.3223 24.7258 25.5024L28.931 19.2739C28.9771 19.2045 29.0088 19.1267 29.0243 19.045C29.0397 18.9634 29.0386 18.8797 29.021 18.7991C29.0034 18.7184 28.9696 18.6424 28.9217 18.5757C28.8739 18.509 28.8129 18.4529 28.7426 18.411L22.2264 14.4537C22.1543 14.4097 22.0716 14.3856 21.9871 14.3841C21.9025 14.3826 21.8191 14.4036 21.7454 14.445C21.6716 14.4864 21.6103 14.5467 21.5676 14.6197C21.5249 14.6927 21.5024 14.7758 21.5024 14.8603C21.5024 15.3562 21.5818 15.8323 21.7405 16.2885C21.8925 16.7382 21.7338 16.9861 21.2644 17.0324Z" stroke="#6D6D6D" stroke-width="1.98361"/>
<path d="M17.515 31.0566L17.029 28.6266C17.0139 28.5455 16.9751 28.4707 16.9175 28.4116C16.8599 28.3526 16.786 28.312 16.7052 28.295C16.6245 28.278 16.5405 28.2853 16.4639 28.3161C16.3874 28.3469 16.3217 28.3998 16.2752 28.468L11.822 35.0039C11.7812 35.0642 11.7529 35.132 11.7388 35.2032C11.7247 35.2743 11.7251 35.3474 11.7399 35.418C11.7548 35.4885 11.7838 35.555 11.8252 35.6134C11.8666 35.6718 11.9195 35.7209 11.9807 35.7577L18.5266 39.7943C18.6132 39.8479 18.7138 39.8746 18.8156 39.8711C18.9174 39.8676 19.0159 39.8341 19.0987 39.7747C19.1814 39.7152 19.2447 39.6327 19.2806 39.5373C19.3164 39.442 19.3233 39.3382 19.3002 39.2389L18.9828 37.8405C18.8969 37.4636 19.0457 37.2586 19.4292 37.2256C25.2213 36.6404 30.0514 32.9906 31.3407 27.2877C31.7308 25.5487 31.6647 23.9916 31.1423 22.6163C30.5869 21.1617 30.1869 21.2046 29.9423 22.7452C29.0496 28.4283 23.4261 31.1954 18.1993 31.5723C18.0403 31.5852 17.8824 31.5397 17.756 31.4444C17.6296 31.3492 17.5437 31.211 17.515 31.0566Z" stroke="#6D6D6D" stroke-width="1.98361"/>
<path d="M75.3278 28.2794C75.9163 27.6182 76.561 27.476 77.2619 27.8529C77.5858 28.0314 77.7776 28.3058 77.8371 28.6761L77.9561 29.5092C78.0024 29.82 78.1776 29.9456 78.4818 29.8861L81.6555 29.2811C82.0126 29.215 82.1911 29.0001 82.1911 28.6364C82.2209 21.2177 70.7259 21.2673 70.706 29.529C70.6994 33.4103 70.7622 37.2982 70.8945 41.1926C71.1623 48.6014 81.5167 48.1353 82.082 41.0439C82.1151 40.6207 81.9233 40.3827 81.5068 40.3298L78.3628 39.9132C77.9594 39.8603 77.7743 40.0355 77.8073 40.4389C77.8867 41.6092 76.7362 42.7299 75.5659 41.9762C75.4324 41.8912 75.3224 41.774 75.2461 41.6353C75.1698 41.4966 75.1297 41.341 75.1295 41.1827V28.805C75.1296 28.6132 75.2 28.4266 75.3278 28.2794Z" stroke="#6D6D6D" stroke-width="1.98361"/>
<path d="M136.372 37.9884L136.273 41.1423C136.253 41.8234 135.9 42.1606 135.212 42.154H134.607C133.946 42.1474 133.618 41.8168 133.625 41.1622V28.7646C133.627 28.5276 133.697 28.2961 133.828 28.0986C133.96 27.901 134.145 27.746 134.363 27.6523C134.581 27.5587 134.821 27.5305 135.055 27.5713C135.288 27.6121 135.505 27.72 135.678 27.8819C136.055 28.239 136.293 28.6622 136.392 29.1514C136.498 29.6738 136.815 29.892 137.344 29.806L139.893 29.3895C140.107 29.3551 140.302 29.2506 140.45 29.0925C140.597 28.9345 140.687 28.7319 140.707 28.5167C141.302 21.9807 129.44 20.979 129.291 29.0324C129.218 33.0988 129.238 37.1619 129.35 41.2217C129.436 44.5211 131.195 46.2303 134.627 46.3493C142.293 46.6072 140.627 39.2182 140.687 34.3882C140.7 33.7931 140.409 33.4988 139.814 33.5055L135.857 33.5451C135.222 33.5517 134.901 33.8724 134.895 34.5072L134.865 36.9272C134.865 37.2446 135.024 37.4132 135.341 37.433L135.906 37.4727C136.23 37.4991 136.386 37.671 136.372 37.9884Z" stroke="#6D6D6D" stroke-width="1.98361"/>
<path d="M48.5184 41.9955C48.4264 41.9955 48.3381 41.9589 48.273 41.8938C48.2079 41.8287 48.1713 41.7404 48.1713 41.6484L48.1515 37.1753C48.1515 37.0833 48.188 36.995 48.2531 36.9299C48.3182 36.8648 48.4065 36.8282 48.4986 36.8282L52.9617 36.8579C53.0538 36.8579 53.1421 36.8214 53.2072 36.7563C53.2723 36.6912 53.3088 36.6029 53.3088 36.5108V32.8907C53.3089 32.8443 53.2996 32.7983 53.2815 32.7556C53.2634 32.7128 53.237 32.6741 53.2037 32.6417C53.1704 32.6093 53.131 32.584 53.0877 32.5671C53.0444 32.5503 52.9982 32.5423 52.9518 32.5436L48.5482 32.6527C48.5018 32.654 48.4556 32.646 48.4123 32.6292C48.369 32.6123 48.3296 32.587 48.2963 32.5546C48.263 32.5222 48.2365 32.4835 48.2185 32.4407C48.2004 32.398 48.1911 32.352 48.1911 32.3056L48.1416 28.1499C48.1416 28.0578 48.1781 27.9696 48.2432 27.9045C48.3083 27.8394 48.3966 27.8028 48.4887 27.8028H53.7254C53.8175 27.8028 53.9058 27.7662 53.9709 27.7011C54.036 27.636 54.0725 27.5477 54.0725 27.4556L54.0825 23.905C54.0825 23.8129 54.0459 23.7246 53.9808 23.6595C53.9157 23.5944 53.8274 23.5579 53.7353 23.5579H44.2338C44.1418 23.5579 44.0535 23.5944 43.9884 23.6595C43.9233 23.7246 43.8867 23.8129 43.8867 23.905V45.804C43.8867 45.8961 43.9233 45.9844 43.9884 46.0495C44.0535 46.1146 44.1418 46.1511 44.2338 46.1511L53.7353 46.1611C53.8274 46.1611 53.9157 46.1245 53.9808 46.0594C54.0459 45.9943 54.0825 45.906 54.0825 45.8139L54.0725 42.3129C54.0725 42.2208 54.036 42.1325 53.9709 42.0674C53.9058 42.0023 53.8175 41.9657 53.7254 41.9657L48.5184 41.9955Z" stroke="#6D6D6D" stroke-width="1.98361"/>
<path d="M62.5221 28.6559C62.5051 28.7393 62.4604 28.8145 62.3952 28.8692C62.33 28.924 62.2481 28.955 62.1631 28.9573C62.078 28.9596 61.9946 28.933 61.9265 28.8819C61.8585 28.8308 61.8097 28.7581 61.7882 28.6757L60.4989 23.8258C60.4774 23.7471 60.431 23.6775 60.3666 23.6275C60.3023 23.5774 60.2234 23.5495 60.1418 23.5481H55.8374C55.7762 23.5487 55.716 23.5641 55.6621 23.5931C55.6082 23.6221 55.5621 23.6638 55.528 23.7146C55.4938 23.7653 55.4725 23.8237 55.4659 23.8845C55.4593 23.9454 55.4677 24.007 55.4903 24.0639L59.5269 34.2299C59.5622 34.319 59.5622 34.4184 59.5269 34.5076L55.2225 45.6455C55.2019 45.7019 55.1952 45.7624 55.2027 45.8219C55.2102 45.8814 55.2319 45.9383 55.2658 45.9878C55.2998 46.0372 55.3451 46.0779 55.3979 46.1063C55.4507 46.1348 55.5096 46.1502 55.5696 46.1513L59.7947 46.1712C59.8779 46.1719 59.9591 46.1451 60.0255 46.0948C60.0919 46.0446 60.1397 45.9738 60.1617 45.8935L61.7287 40.3096C61.7481 40.2268 61.7949 40.153 61.8615 40.1002C61.9281 40.0474 62.0106 40.0186 62.0957 40.0186C62.1807 40.0186 62.2632 40.0474 62.3298 40.1002C62.3965 40.153 62.4433 40.2268 62.4626 40.3096L63.9206 45.8637C63.942 45.9424 63.9884 46.012 64.0528 46.0621C64.1172 46.1121 64.1961 46.14 64.2776 46.1414L68.6217 46.1811C68.685 46.1829 68.7478 46.1687 68.8042 46.1399C68.8605 46.1111 68.9088 46.0685 68.9443 46.0161C68.9799 45.9637 69.0017 45.9032 69.0077 45.8402C69.0138 45.7771 69.0038 45.7136 68.9788 45.6554L64.5057 34.5175C64.4704 34.4283 64.4704 34.329 64.5057 34.2398L68.6614 24.0639C68.6861 24.0065 68.6961 23.9438 68.6905 23.8816C68.685 23.8194 68.664 23.7595 68.6296 23.7074C68.5952 23.6553 68.5484 23.6125 68.4933 23.583C68.4383 23.5535 68.3767 23.5381 68.3143 23.5382L63.8809 23.568C63.795 23.5683 63.7118 23.598 63.645 23.6521C63.5783 23.7062 63.532 23.7815 63.5139 23.8655L62.5221 28.6559Z" stroke="#6D6D6D" stroke-width="1.98361"/>
<path d="M91.7418 32.2363C91.7418 32.2802 91.733 32.3235 91.7159 32.3639C91.6989 32.4043 91.6739 32.4408 91.6424 32.4713C91.611 32.5019 91.5737 32.5258 91.5328 32.5416C91.492 32.5575 91.4484 32.5649 91.4045 32.5636L89.3317 32.514C89.2466 32.5114 89.1659 32.4758 89.1066 32.4147C89.0474 32.3536 89.0143 32.2718 89.0143 32.1867V23.8853C89.0143 23.7985 88.9798 23.7153 88.9184 23.6539C88.8571 23.5925 88.7738 23.558 88.687 23.558H84.9479C84.9049 23.558 84.8624 23.5665 84.8226 23.583C84.7829 23.5994 84.7469 23.6235 84.7165 23.6539C84.6861 23.6843 84.662 23.7204 84.6455 23.7601C84.6291 23.7998 84.6206 23.8424 84.6206 23.8853L84.6305 45.8339C84.6305 45.9208 84.665 46.004 84.7264 46.0654C84.7878 46.1268 84.871 46.1612 84.9578 46.1612H88.687C88.7738 46.1612 88.8571 46.1268 88.9184 46.0654C88.9798 46.004 89.0143 45.9208 89.0143 45.8339L89.0341 37.1656C89.0341 37.0788 89.0686 36.9955 89.13 36.9342C89.1914 36.8728 89.2746 36.8383 89.3614 36.8383L91.4145 36.868C91.5013 36.868 91.5845 36.9025 91.6459 36.9639C91.7073 37.0253 91.7418 37.1085 91.7418 37.1953L91.7517 45.8439C91.7517 45.9307 91.7862 46.0139 91.8475 46.0753C91.9089 46.1367 91.9922 46.1712 92.079 46.1712L95.8577 46.1513C95.9445 46.1513 96.0278 46.1168 96.0892 46.0555C96.1506 45.9941 96.185 45.9108 96.185 45.824V23.9151C96.185 23.8283 96.1506 23.745 96.0892 23.6837C96.0278 23.6223 95.9445 23.5878 95.8577 23.5878L92.079 23.5382C91.9922 23.5382 91.9089 23.5727 91.8475 23.6341C91.7862 23.6955 91.7517 23.7787 91.7517 23.8655L91.7418 32.2363Z" stroke="#6D6D6D" stroke-width="1.98361"/>
<path d="M103.236 42.1642C103.248 42.087 103.286 42.016 103.344 41.9636C103.402 41.9111 103.476 41.8804 103.554 41.8766L106.38 41.7576C106.467 41.7547 106.551 41.785 106.615 41.8422C106.68 41.8994 106.72 41.9791 106.728 42.0651L107.154 45.8339C107.164 45.9146 107.202 45.9892 107.262 46.0438C107.322 46.0985 107.4 46.1296 107.481 46.1315L111.439 46.1711C111.489 46.1707 111.538 46.1592 111.583 46.1375C111.628 46.1157 111.667 46.0843 111.699 46.0454C111.73 46.0065 111.752 45.9611 111.764 45.9125C111.776 45.8639 111.776 45.8134 111.766 45.7645L107.62 23.8258C107.606 23.7487 107.566 23.6788 107.506 23.6281C107.447 23.5775 107.371 23.5492 107.293 23.5481L102.532 23.5679C102.454 23.569 102.378 23.5973 102.319 23.648C102.259 23.6987 102.219 23.7685 102.205 23.8456L98.1386 45.7447C98.1298 45.7936 98.132 45.844 98.1449 45.892C98.1579 45.9401 98.1813 45.9847 98.2136 46.0226C98.2458 46.0605 98.286 46.0908 98.3314 46.1114C98.3767 46.1319 98.426 46.1422 98.4758 46.1414L102.354 46.1612C102.435 46.1621 102.514 46.1335 102.576 46.0806C102.638 46.0277 102.679 45.9542 102.691 45.8736L103.236 42.1642Z" stroke="#6D6D6D" stroke-width="1.98361"/>
<path d="M121.396 33.4959L117.736 24.044C117.61 23.7134 117.369 23.5481 117.012 23.5481H114.284C113.921 23.5481 113.739 23.7299 113.739 24.0936L113.729 45.8736C113.729 45.9127 113.737 45.9514 113.752 45.9875C113.768 46.0236 113.791 46.0564 113.819 46.084C113.848 46.1116 113.882 46.1335 113.919 46.1485C113.956 46.1634 113.996 46.1711 114.036 46.1711L117.766 46.1414C117.931 46.1414 118.014 46.062 118.014 45.9033L118.004 36.5209C118.004 35.5159 118.186 35.4828 118.549 36.4217L122.11 45.6157C122.249 45.9794 122.51 46.1612 122.893 46.1612L125.65 46.1513C125.948 46.1513 126.097 46.0025 126.097 45.705L126.077 23.8952C126.077 23.6836 125.971 23.5779 125.76 23.5779L122.288 23.5481C121.971 23.5481 121.809 23.7068 121.802 24.0242L121.753 33.4364C121.753 34.0844 121.634 34.1042 121.396 33.4959Z" stroke="#6D6D6D" stroke-width="1.98361"/>
<path d="M147.708 37.215C147.708 37.1229 147.745 37.0346 147.81 36.9695C147.875 36.9044 147.963 36.8679 148.055 36.8679L152.558 36.8381C152.649 36.8355 152.734 36.7978 152.797 36.733C152.86 36.6682 152.895 36.5813 152.895 36.491L152.846 32.9007C152.845 32.8551 152.834 32.8102 152.816 32.7685C152.797 32.7269 152.77 32.6894 152.737 32.6581C152.704 32.6267 152.665 32.6023 152.622 32.586C152.58 32.5698 152.534 32.5621 152.489 32.5634L148.095 32.6329C148.005 32.6329 147.918 32.5977 147.853 32.5347C147.788 32.4718 147.751 32.386 147.748 32.2957L147.728 28.1697C147.728 28.1242 147.737 28.079 147.755 28.0369C147.772 27.9948 147.798 27.9565 147.83 27.9243C147.862 27.8921 147.9 27.8665 147.942 27.849C147.985 27.8316 148.03 27.8226 148.075 27.8226L153.143 27.7829C153.232 27.7804 153.316 27.7441 153.379 27.6814C153.442 27.6187 153.478 27.5344 153.481 27.4457L153.52 23.9149C153.52 23.8228 153.484 23.7346 153.419 23.6695C153.353 23.6044 153.265 23.5678 153.173 23.5678L143.652 23.5579C143.56 23.5579 143.471 23.5944 143.406 23.6595C143.341 23.7246 143.305 23.8129 143.305 23.905V45.804C143.305 45.8961 143.341 45.9844 143.406 46.0495C143.471 46.1146 143.56 46.1511 143.652 46.1511L153.153 46.1611C153.199 46.1611 153.244 46.1521 153.286 46.1346C153.328 46.1172 153.367 46.0916 153.399 46.0594C153.431 46.0272 153.457 45.9889 153.474 45.9468C153.491 45.9047 153.5 45.8595 153.5 45.8139V42.3228C153.5 42.2772 153.491 42.2321 153.474 42.1899C153.457 42.1478 153.431 42.1096 153.399 42.0773C153.367 42.0451 153.328 42.0195 153.286 42.0021C153.244 41.9846 153.199 41.9756 153.153 41.9756L148.055 41.9856C147.963 41.9856 147.875 41.949 147.81 41.8839C147.745 41.8188 147.708 41.7305 147.708 41.6384V37.215Z" stroke="#6D6D6D" stroke-width="1.98361"/>
<path d="M173.585 41.6792C173.513 41.9145 173.365 42.1195 173.165 42.2627C172.965 42.4059 172.723 42.4792 172.477 42.4713C172.231 42.4634 171.995 42.3747 171.804 42.219C171.614 42.0633 171.48 41.8492 171.423 41.6097L171.105 40.251C171.026 39.8939 170.808 39.7484 170.451 39.8146L167.148 40.4394C166.996 40.4687 166.86 40.5534 166.768 40.6766C166.676 40.7998 166.635 40.9524 166.652 41.1039C166.996 44.7405 169.052 46.5258 172.821 46.4596C178.058 46.3605 178.663 41.461 178.157 37.464C177.691 33.834 174.775 33.0604 172.087 31.7909C171.757 31.6322 171.542 31.3743 171.443 31.0173C171.191 30.085 171.218 29.1692 171.522 28.27C171.584 28.0803 171.697 27.9114 171.849 27.7821C172.001 27.6527 172.186 27.5679 172.383 27.5371C172.58 27.5063 172.782 27.5307 172.966 27.6075C173.15 27.6844 173.31 27.8107 173.426 27.9724C173.717 28.3692 173.846 28.8056 173.813 29.2816C173.78 29.8304 174.031 30.042 174.567 29.9164L177.612 29.1824C178.127 29.0634 178.346 28.7427 178.266 28.2204C177.724 24.5772 175.44 23.0002 171.413 23.4895C166.385 24.1044 165.78 30.6305 167.991 33.8935C169.102 35.5101 171.383 36.3433 173.159 37.2557C173.476 37.421 173.671 37.6789 173.744 38.0293C174.002 39.2525 173.949 40.4692 173.585 41.6792Z" stroke="#6D6D6D" stroke-width="1.98361"/>
<path d="M225.068 28.3186C225.066 27.6673 224.937 27.0227 224.687 26.4215C224.437 25.8203 224.07 25.2742 223.609 24.8145C223.148 24.3548 222.6 23.9905 221.998 23.7423C221.396 23.4942 220.751 23.367 220.1 23.3682L218.533 23.3709C217.882 23.3721 217.237 23.5015 216.636 23.7517C216.035 24.002 215.489 24.3682 215.029 24.8295C214.569 25.2908 214.205 25.8381 213.957 26.4402C213.709 27.0423 213.581 27.6874 213.583 28.3386L213.605 41.4106C213.606 42.0618 213.736 42.7064 213.986 43.3076C214.236 43.9089 214.603 44.4549 215.064 44.9146C215.525 45.3743 216.073 45.7386 216.675 45.9868C217.277 46.2349 217.922 46.3621 218.573 46.3609L220.14 46.3582C220.791 46.357 221.436 46.2276 222.037 45.9774C222.638 45.7271 223.184 45.3609 223.644 44.8996C224.104 44.4383 224.468 43.891 224.716 43.2889C224.964 42.6868 225.092 42.0418 225.09 41.3905L225.068 28.3186Z" stroke="#6D6D6D" stroke-width="1.98361"/>
<path d="M186.439 42.1246L185.923 42.0948C185.677 42.0821 185.445 41.9752 185.275 41.7961C185.105 41.617 185.01 41.3796 185.011 41.1328V23.8258C185.011 23.6407 184.915 23.5481 184.723 23.5481L181.044 23.5779C180.865 23.5779 180.773 23.6704 180.766 23.8556C180.72 29.3634 180.73 34.9538 180.796 40.6269C180.885 48.8192 191.983 47.996 192.072 41.4204C192.158 35.496 192.178 29.6841 192.132 23.9845C192.132 23.7002 191.986 23.558 191.696 23.558L187.996 23.5679C187.771 23.5679 187.659 23.6803 187.659 23.9051L187.679 40.9542C187.679 41.7807 187.266 42.1709 186.439 42.1246Z" stroke="#6D6D6D" stroke-width="1.98361"/>
<path d="M199.669 36.4324L201.226 41.2724C201.365 41.6956 201.656 41.9039 202.099 41.8972L203.845 41.8873C204.189 41.8807 204.41 41.7121 204.509 41.3815L205.987 36.4522C206.007 36.3729 206.06 36.3266 206.146 36.3134C206.238 36.3002 206.328 36.3101 206.414 36.3431C206.425 36.35 206.436 36.3661 206.443 36.3892C206.45 36.4123 206.453 36.4413 206.453 36.4721L206.265 45.8843C206.265 45.9195 206.272 45.9543 206.285 45.9868C206.299 46.0193 206.318 46.0488 206.343 46.0737C206.368 46.0985 206.398 46.1182 206.43 46.1317C206.463 46.1452 206.497 46.1521 206.533 46.1521L210.47 46.2017C210.649 46.2017 210.738 46.1124 210.738 45.9339V24.0349C210.738 23.6977 210.566 23.5291 210.222 23.5291L207.227 23.5489C207.033 23.5491 206.844 23.6104 206.686 23.7241C206.527 23.8379 206.408 23.9985 206.344 24.1836L203.18 33.3578C202.956 34.0058 202.731 34.0058 202.506 33.3578L199.322 24.1836C199.183 23.7737 198.899 23.5654 198.469 23.5588L195.424 23.5092C195.067 23.5026 194.889 23.6778 194.889 24.0349V45.6661C194.882 46.0099 195.054 46.1818 195.405 46.1818L198.886 46.1719C199.263 46.1719 199.448 45.9868 199.441 45.6165L199.302 36.4919C199.303 36.4473 199.319 36.4042 199.348 36.3703C199.377 36.3364 199.417 36.3139 199.461 36.3067C199.505 36.2996 199.55 36.3083 199.588 36.3313C199.626 36.3543 199.655 36.3901 199.669 36.4324Z" stroke="#6D6D6D" stroke-width="1.98361"/>
<path d="M220.536 28.6062C220.536 28.3274 220.425 28.06 220.228 27.8629C220.031 27.6657 219.764 27.5549 219.485 27.5549H219.009C218.73 27.5549 218.463 27.6657 218.265 27.8629C218.068 28.06 217.958 28.3274 217.958 28.6062V41.1426C217.958 41.4215 218.068 41.6889 218.265 41.886C218.463 42.0832 218.73 42.1939 219.009 42.1939H219.485C219.764 42.1939 220.031 42.0832 220.228 41.886C220.425 41.6889 220.536 41.4215 220.536 41.1426V28.6062Z" stroke="#6D6D6D" stroke-width="1.98361"/>
<path d="M104.338 37.6323H105.389C105.451 37.6324 105.51 37.6087 105.554 37.5662C105.598 37.5237 105.625 37.4656 105.627 37.4042L105.637 37.1761C105.644 36.1819 105.631 35.1973 105.599 34.2788C105.567 33.3602 105.516 32.5258 105.45 31.8236C105.383 31.1213 105.303 30.565 105.212 30.1866C105.122 29.8082 105.024 29.6152 104.923 29.6186C104.721 29.6251 104.522 30.4219 104.37 31.8345C104.217 33.2471 104.124 35.1606 104.11 37.1563L104.1 37.3844C104.098 37.4165 104.104 37.4485 104.115 37.4785C104.126 37.5086 104.144 37.536 104.166 37.5592C104.188 37.5823 104.215 37.6007 104.244 37.6133C104.274 37.6259 104.306 37.6324 104.338 37.6323Z" stroke="#6D6D6D" stroke-width="1.98361"/>
<path d="M36.4782 23.1718C37.6221 29.5326 35.8964 34.971 31.301 39.487C31.0762 39.7052 31.0464 39.9465 31.2117 40.211L33.2747 43.5831C33.4664 43.8873 33.7408 44.0361 34.0979 44.0294C37.0336 43.9799 37.9461 46.8164 39.3346 48.9091L43.2026 55.0484C44.4126 56.9593 44.0787 58.5428 42.2009 59.7991L40.5446 60.9199C38.6734 62.1761 37.1295 61.8555 35.9129 59.9578C33.6053 56.3543 31.4663 52.992 29.4959 49.8712C29.0132 49.1108 29.0827 48.1223 29.7042 46.9057C29.7711 46.7686 29.8025 46.6176 29.7956 46.4667C29.7886 46.3157 29.7435 46.1699 29.6645 46.0428L27.4231 42.512C27.3572 42.4043 27.2553 42.3234 27.1356 42.2834C27.0158 42.2435 26.8858 42.2472 26.7685 42.2938C9.91773 48.8893 -3.4617 28.2102 8.71764 15.4258C18.0703 5.61691 32.8681 10.7148 36.4782 23.1718ZM34.6037 26.9903C34.6037 25.1356 34.2384 23.299 33.5286 21.5855C32.8189 19.872 31.7786 18.3151 30.4671 17.0036C29.1556 15.6921 27.5987 14.6518 25.8852 13.9421C24.1717 13.2323 22.3351 12.867 20.4804 12.867C16.7347 12.867 13.1424 14.355 10.4938 17.0036C7.84514 19.6522 6.35715 23.2445 6.35715 26.9903C6.35715 30.736 7.84514 34.3283 10.4938 36.9769C13.1424 39.6256 16.7347 41.1136 20.4804 41.1136C22.3351 41.1136 24.1717 40.7482 25.8852 40.0385C27.5987 39.3287 29.1556 38.2884 30.4671 36.9769C31.7786 35.6655 32.8189 34.1085 33.5286 32.395C34.2384 30.6815 34.6037 28.845 34.6037 26.9903Z" fill="white"/>
<path d="M34.6035 26.9902C34.6035 28.8449 34.2382 30.6815 33.5284 32.395C32.8187 34.1085 31.7783 35.6654 30.4669 36.9769C29.1554 38.2884 27.5985 39.3287 25.885 40.0384C24.1714 40.7482 22.3349 41.1135 20.4802 41.1135C16.7345 41.1135 13.1422 39.6255 10.4935 36.9769C7.84492 34.3283 6.35693 30.736 6.35693 26.9902C6.35693 23.2445 7.84492 19.6522 10.4935 17.0036C13.1422 14.3549 16.7345 12.8669 20.4802 12.8669C22.3349 12.8669 24.1714 13.2323 25.885 13.942C27.5985 14.6518 29.1554 15.6921 30.4669 17.0036C31.7783 18.315 32.8187 19.872 33.5284 21.5855C34.2382 23.299 34.6035 25.1355 34.6035 26.9902ZM21.2637 17.0325C14.4005 17.7169 7.1107 24.3024 9.6398 31.7707C10.0828 33.0865 10.4465 33.0634 10.7308 31.7013C11.9606 25.8695 16.8403 22.9734 22.5828 22.8544C22.9465 22.8478 23.1647 23.023 23.2374 23.3801L23.6044 25.2843C23.7961 26.2497 24.1697 26.3224 24.7251 25.5025L28.9304 19.274C28.9764 19.2046 29.0081 19.1268 29.0236 19.0452C29.0391 18.9636 29.0379 18.8799 29.0203 18.7992C29.0027 18.7185 28.9689 18.6425 28.9211 18.5758C28.8732 18.5091 28.8123 18.4531 28.7419 18.4111L22.2258 14.4538C22.1536 14.4098 22.071 14.3858 21.9864 14.3842C21.9019 14.3827 21.8184 14.4037 21.7447 14.4451C21.671 14.4866 21.6096 14.5469 21.5669 14.6199C21.5242 14.6929 21.5017 14.7759 21.5018 14.8605C21.5018 15.3564 21.5811 15.8324 21.7398 16.2887C21.8919 16.7383 21.7332 16.9862 21.2637 17.0325ZM17.5147 31.0566L17.0287 28.6267C17.0137 28.5456 16.9749 28.4707 16.9172 28.4117C16.8596 28.3526 16.7857 28.312 16.705 28.295C16.6242 28.278 16.5402 28.2854 16.4637 28.3162C16.3871 28.347 16.3214 28.3998 16.275 28.468L11.8218 35.004C11.781 35.0642 11.7527 35.132 11.7386 35.2032C11.7245 35.2744 11.7248 35.3475 11.7397 35.418C11.7545 35.4886 11.7835 35.5551 11.8249 35.6135C11.8663 35.6719 11.9193 35.721 11.9805 35.7578L18.5264 39.7944C18.613 39.848 18.7136 39.8747 18.8154 39.8712C18.9172 39.8677 19.0157 39.8341 19.0984 39.7747C19.1812 39.7153 19.2445 39.6327 19.2803 39.5374C19.3162 39.442 19.323 39.3382 19.3 39.239L18.9826 37.8406C18.8966 37.4637 19.0454 37.2587 19.4289 37.2256C25.221 36.6405 30.0511 32.9906 31.3405 27.2878C31.7306 25.5488 31.6644 23.9917 31.1421 22.6164C30.5867 21.1617 30.1867 21.2047 29.942 22.7453C29.0494 28.4283 23.4259 31.1955 18.1991 31.5724C18.0401 31.5853 17.8821 31.5397 17.7557 31.4445C17.6293 31.3492 17.5435 31.211 17.5147 31.0566Z" fill="#2A609F"/>
<path d="M21.7409 16.2883C21.5823 15.8321 21.5029 15.356 21.5029 14.8601C21.5029 14.7755 21.5254 14.6925 21.5681 14.6195C21.6108 14.5465 21.6721 14.4862 21.7459 14.4448C21.8196 14.4034 21.903 14.3823 21.9876 14.3839C22.0721 14.3854 22.1547 14.4094 22.2269 14.4535L28.7431 18.4108C28.8134 18.4527 28.8744 18.5087 28.9222 18.5754C28.9701 18.6421 29.0039 18.7181 29.0215 18.7988C29.0391 18.8795 29.0402 18.9632 29.0247 19.0448C29.0093 19.1264 28.9776 19.2043 28.9315 19.2736L24.7263 25.5021C24.1709 26.322 23.7973 26.2493 23.6055 25.2839L23.2386 23.3797C23.1658 23.0226 22.9476 22.8474 22.584 22.854C16.8414 22.973 11.9618 25.8691 10.7319 31.7009C10.4476 33.063 10.084 33.0861 9.64095 31.7703C7.11185 24.3021 14.4016 17.7165 21.2649 17.0321C21.7343 16.9859 21.893 16.7379 21.7409 16.2883Z" fill="white"/>
<path d="M160.553 15.9709L160.642 53.8775C123.384 53.9106 85.705 53.9139 47.6065 53.8875C45.5634 53.8875 43.7583 50.3864 41.3978 49.6029C41.2391 49.55 41.2193 49.4673 41.3383 49.3549L41.5664 49.1367C41.6061 49.0971 41.5995 49.0475 41.5466 48.988C41.2292 48.6375 40.8358 48.6012 40.3663 48.8789C40.3164 48.9066 40.2594 48.9199 40.2021 48.9171C40.1449 48.9143 40.0899 48.8956 40.0438 48.8631C39.9977 48.8306 39.9624 48.7858 39.9422 48.734C39.922 48.6823 39.9177 48.6258 39.9299 48.5714L39.9895 48.2838C40.0291 48.0788 39.9862 48.059 39.8605 48.2243L39.3349 48.9086C37.9463 46.8159 37.0339 43.9793 34.0981 44.0289C33.7411 44.0355 33.4667 43.8868 33.2749 43.5826L31.212 40.2105C31.0467 39.946 31.0765 39.7047 31.3013 39.4865C35.8966 34.9705 37.6224 29.5321 36.4785 23.1713C37.0868 24.2623 37.381 25.5583 37.3612 27.0592C37.3612 27.5948 37.4637 27.6146 37.6686 27.1187C39.0373 23.8755 38.6208 20.2356 37.3215 17.0122C37.2794 16.9038 37.2641 16.7868 37.2768 16.6714C37.2895 16.5559 37.3298 16.4454 37.3943 16.3496C37.4589 16.2538 37.5456 16.1756 37.647 16.1217C37.7484 16.0677 37.8613 16.0398 37.9761 16.0403L158.351 15.9708C158.603 15.9708 158.992 15.9708 158.992 15.9708C158.992 15.9708 159.553 15.9709 160.553 15.9709ZM75.3274 28.2791C75.9159 27.6179 76.5606 27.4757 77.2614 27.8526C77.5854 28.0312 77.7772 28.3056 77.8367 28.6758L77.9557 29.5089C78.002 29.8197 78.1772 29.9453 78.4813 29.8858L81.6551 29.2808C82.0122 29.2147 82.1907 28.9998 82.1907 28.6362C82.2205 21.2175 70.7254 21.2671 70.7056 29.5288C70.699 33.41 70.7618 37.2979 70.8941 41.1924C71.1618 48.6012 81.5163 48.135 82.0816 41.0436C82.1147 40.6204 81.9229 40.3824 81.5064 40.3295L78.3623 39.913C77.959 39.8601 77.7739 40.0353 77.8069 40.4386C77.8863 41.6089 76.7358 42.7297 75.5654 41.9759C75.4319 41.8909 75.322 41.7737 75.2457 41.635C75.1694 41.4964 75.1293 41.3407 75.1291 41.1825V28.8048C75.1292 28.6129 75.1996 28.4263 75.3274 28.2791ZM136.373 37.9889L136.274 41.1428C136.254 41.8238 135.9 42.161 135.213 42.1544H134.608C133.946 42.1478 133.619 41.8172 133.626 41.1626V28.7651C133.627 28.528 133.698 28.2966 133.829 28.099C133.96 27.9015 134.146 27.7464 134.364 27.6528C134.581 27.5591 134.822 27.531 135.055 27.5718C135.289 27.6125 135.505 27.7205 135.679 27.8824C136.056 28.2394 136.294 28.6626 136.393 29.1519C136.499 29.6742 136.816 29.8924 137.345 29.8065L139.894 29.3899C140.107 29.3555 140.303 29.251 140.45 29.093C140.597 28.9349 140.688 28.7323 140.707 28.5171C141.302 21.9812 129.44 20.9794 129.291 29.0329C129.219 33.0993 129.239 37.1624 129.351 41.2221C129.437 44.5215 131.196 46.2307 134.627 46.3498C142.294 46.6076 140.628 39.2187 140.687 34.3886C140.7 33.7935 140.41 33.4993 139.814 33.5059L135.857 33.5456C135.222 33.5522 134.902 33.8729 134.895 34.5076L134.865 36.9276C134.865 37.245 135.024 37.4136 135.341 37.4334L135.907 37.4731C136.231 37.4996 136.386 37.6715 136.373 37.9889ZM48.519 41.9957C48.4269 41.9957 48.3386 41.9592 48.2735 41.8941C48.2084 41.829 48.1718 41.7407 48.1718 41.6486L48.152 37.1756C48.152 37.0835 48.1886 36.9952 48.2537 36.9301C48.3188 36.865 48.4071 36.8284 48.4991 36.8284L52.9622 36.8582C53.0543 36.8582 53.1426 36.8216 53.2077 36.7565C53.2728 36.6914 53.3094 36.6031 53.3094 36.5111V32.891C53.3094 32.8446 53.3001 32.7986 53.282 32.7558C53.264 32.713 53.2375 32.6743 53.2042 32.642C53.1709 32.6096 53.1315 32.5842 53.0882 32.5674C53.045 32.5505 52.9987 32.5425 52.9523 32.5439L48.5487 32.653C48.5023 32.6543 48.4561 32.6463 48.4128 32.6294C48.3696 32.6126 48.3301 32.5872 48.2968 32.5549C48.2635 32.5225 48.2371 32.4838 48.219 32.441C48.201 32.3982 48.1917 32.3523 48.1917 32.3058L48.1421 28.1502C48.1421 28.0581 48.1787 27.9698 48.2438 27.9047C48.3089 27.8396 48.3972 27.803 48.4892 27.803H53.7259C53.818 27.803 53.9063 27.7665 53.9714 27.7014C54.0365 27.6363 54.0731 27.548 54.0731 27.4559L54.083 23.9053C54.083 23.8132 54.0464 23.7249 53.9813 23.6598C53.9162 23.5947 53.8279 23.5581 53.7359 23.5581H44.2344C44.1423 23.5581 44.054 23.5947 43.9889 23.6598C43.9238 23.7249 43.8872 23.8132 43.8872 23.9053V45.8043C43.8872 45.8963 43.9238 45.9846 43.9889 46.0497C44.054 46.1148 44.1423 46.1514 44.2344 46.1514L53.7359 46.1613C53.8279 46.1613 53.9162 46.1247 53.9813 46.0596C54.0464 45.9945 54.083 45.9062 54.083 45.8142L54.0731 42.3131C54.0731 42.2211 54.0365 42.1328 53.9714 42.0677C53.9063 42.0026 53.818 41.966 53.7259 41.966L48.519 41.9957ZM62.5232 28.656C62.5062 28.7394 62.4615 28.8146 62.3962 28.8693C62.331 28.924 62.2492 28.9551 62.1641 28.9574C62.0791 28.9597 61.9957 28.9331 61.9276 28.882C61.8596 28.8308 61.8108 28.7582 61.7893 28.6758L60.5 23.8259C60.4785 23.7472 60.4321 23.6776 60.3677 23.6275C60.3033 23.5775 60.2245 23.5496 60.1429 23.5482H55.8385C55.7773 23.5487 55.7171 23.5642 55.6632 23.5932C55.6093 23.6222 55.5632 23.6638 55.5291 23.7146C55.4949 23.7654 55.4736 23.8238 55.467 23.8846C55.4604 23.9455 55.4688 24.007 55.4913 24.0639L59.528 34.2299C59.5633 34.3191 59.5633 34.4184 59.528 34.5076L55.2236 45.6456C55.203 45.702 55.1962 45.7624 55.2038 45.822C55.2113 45.8815 55.233 45.9384 55.2669 45.9878C55.3009 46.0373 55.3462 46.078 55.399 46.1064C55.4518 46.1349 55.5107 46.1503 55.5707 46.1514L59.7958 46.1712C59.879 46.172 59.9602 46.1451 60.0266 46.0949C60.093 46.0447 60.1408 45.9739 60.1627 45.8935L61.7298 40.3097C61.7492 40.2269 61.796 40.1531 61.8626 40.1003C61.9292 40.0474 62.0117 40.0187 62.0968 40.0187C62.1818 40.0187 62.2643 40.0474 62.3309 40.1003C62.3975 40.1531 62.4443 40.2269 62.4637 40.3097L63.9217 45.8638C63.9431 45.9425 63.9895 46.0121 64.0539 46.0622C64.1183 46.1122 64.1972 46.1401 64.2787 46.1415L68.6228 46.1812C68.6861 46.183 68.7489 46.1688 68.8052 46.14C68.8616 46.1111 68.9098 46.0686 68.9454 46.0162C68.981 45.9638 69.0028 45.9033 69.0088 45.8403C69.0149 45.7772 69.0049 45.7137 68.9799 45.6555L64.5068 34.5175C64.4715 34.4284 64.4715 34.329 64.5068 34.2398L68.6625 24.0639C68.6872 24.0065 68.6972 23.9439 68.6916 23.8817C68.6861 23.8195 68.6651 23.7596 68.6307 23.7075C68.5963 23.6554 68.5494 23.6126 68.4944 23.5831C68.4394 23.5535 68.3778 23.5381 68.3154 23.5383L63.882 23.568C63.7961 23.5684 63.7129 23.5981 63.6461 23.6522C63.5794 23.7063 63.5331 23.7816 63.515 23.8656L62.5232 28.656ZM91.7418 32.2364C91.7418 32.2802 91.733 32.3236 91.7159 32.364C91.6989 32.4044 91.6739 32.4409 91.6424 32.4714C91.611 32.5019 91.5737 32.5258 91.5328 32.5417C91.492 32.5575 91.4484 32.565 91.4046 32.5637L89.3317 32.5141C89.2466 32.5115 89.1659 32.4759 89.1066 32.4148C89.0474 32.3537 89.0143 32.2719 89.0143 32.1868V23.8854C89.0143 23.7986 88.9798 23.7154 88.9184 23.654C88.8571 23.5926 88.7738 23.5581 88.687 23.5581H84.9479C84.9049 23.5581 84.8624 23.5666 84.8227 23.583C84.7829 23.5995 84.7469 23.6236 84.7165 23.654C84.6861 23.6844 84.662 23.7205 84.6455 23.7602C84.6291 23.7999 84.6206 23.8424 84.6206 23.8854L84.6305 45.834C84.6305 45.9208 84.665 46.0041 84.7264 46.0655C84.7878 46.1268 84.871 46.1613 84.9578 46.1613H88.687C88.7738 46.1613 88.8571 46.1268 88.9184 46.0655C88.9798 46.0041 89.0143 45.9208 89.0143 45.834L89.0341 37.1657C89.0341 37.0789 89.0686 36.9956 89.13 36.9342C89.1914 36.8728 89.2746 36.8384 89.3614 36.8384L91.4145 36.8681C91.5013 36.8681 91.5845 36.9026 91.6459 36.964C91.7073 37.0254 91.7418 37.1086 91.7418 37.1954L91.7517 45.8439C91.7517 45.9307 91.7862 46.014 91.8475 46.0754C91.9089 46.1368 91.9922 46.1712 92.079 46.1712L95.8577 46.1514C95.9445 46.1514 96.0278 46.1169 96.0892 46.0555C96.1506 45.9942 96.185 45.9109 96.185 45.8241V23.9152C96.185 23.8284 96.1506 23.7451 96.0892 23.6837C96.0278 23.6224 95.9445 23.5879 95.8577 23.5879L92.079 23.5383C91.9922 23.5383 91.9089 23.5728 91.8475 23.6341C91.7862 23.6955 91.7517 23.7788 91.7517 23.8656L91.7418 32.2364ZM103.237 42.1644C103.248 42.0871 103.286 42.0161 103.344 41.9637C103.402 41.9112 103.476 41.8805 103.554 41.8767L106.381 41.7577C106.467 41.7548 106.551 41.7851 106.616 41.8423C106.68 41.8995 106.72 41.9792 106.728 42.0652L107.154 45.834C107.164 45.9147 107.202 45.9893 107.262 46.044C107.323 46.0986 107.4 46.1297 107.482 46.1316L111.439 46.1712C111.489 46.1708 111.538 46.1593 111.583 46.1376C111.628 46.1158 111.668 46.0844 111.699 46.0455C111.73 46.0066 111.753 45.9612 111.764 45.9126C111.776 45.864 111.777 45.8135 111.766 45.7646L107.621 23.8259C107.607 23.7488 107.566 23.6789 107.507 23.6283C107.447 23.5776 107.372 23.5493 107.293 23.5482L102.533 23.568C102.454 23.5691 102.379 23.5974 102.319 23.6481C102.259 23.6988 102.219 23.7686 102.205 23.8457L98.1389 45.7448C98.1301 45.7937 98.1323 45.8441 98.1452 45.8921C98.1582 45.9402 98.1816 45.9848 98.2139 46.0227C98.2461 46.0606 98.2863 46.0909 98.3317 46.1115C98.377 46.132 98.4263 46.1423 98.4761 46.1415L102.354 46.1613C102.436 46.1622 102.515 46.1336 102.577 46.0807C102.639 46.0278 102.679 45.9543 102.691 45.8737L103.237 42.1644ZM121.397 33.496L117.737 24.0441C117.611 23.7135 117.37 23.5482 117.013 23.5482H114.285C113.922 23.5482 113.74 23.73 113.74 24.0937L113.73 45.8737C113.73 45.9128 113.738 45.9515 113.753 45.9876C113.769 46.0237 113.792 46.0565 113.82 46.0841C113.849 46.1117 113.883 46.1336 113.92 46.1486C113.957 46.1635 113.997 46.1712 114.038 46.1712L117.767 46.1415C117.932 46.1415 118.015 46.0621 118.015 45.9034L118.005 36.521C118.005 35.516 118.187 35.4829 118.55 36.4218L122.111 45.6158C122.25 45.9795 122.511 46.1613 122.894 46.1613L125.652 46.1514C125.949 46.1514 126.098 46.0026 126.098 45.7051L126.078 23.8953C126.078 23.6837 125.972 23.578 125.761 23.578L122.289 23.5482C121.972 23.5482 121.81 23.7069 121.803 24.0243L121.754 33.4365C121.754 34.0845 121.635 34.1043 121.397 33.496ZM147.709 37.2153C147.709 37.1232 147.746 37.0349 147.811 36.9698C147.876 36.9047 147.964 36.8681 148.056 36.8681L152.559 36.8384C152.649 36.8358 152.735 36.7981 152.798 36.7333C152.861 36.6684 152.896 36.5816 152.896 36.4912L152.847 32.9009C152.845 32.8553 152.835 32.8104 152.817 32.7688C152.798 32.7272 152.771 32.6896 152.738 32.6583C152.705 32.627 152.666 32.6025 152.623 32.5863C152.581 32.57 152.535 32.5624 152.49 32.5637L148.096 32.6331C148.006 32.6332 147.919 32.5979 147.854 32.535C147.789 32.472 147.751 32.3862 147.749 32.2959L147.729 28.17C147.729 28.1244 147.738 28.0793 147.755 28.0372C147.773 27.9951 147.798 27.9568 147.831 27.9245C147.863 27.8923 147.901 27.8667 147.943 27.8493C147.985 27.8319 148.031 27.8229 148.076 27.8229L153.144 27.7832C153.233 27.7807 153.317 27.7444 153.38 27.6817C153.443 27.619 153.479 27.5346 153.482 27.446L153.521 23.9152C153.521 23.8231 153.485 23.7348 153.42 23.6697C153.354 23.6046 153.266 23.568 153.174 23.568L143.653 23.5581C143.561 23.5581 143.472 23.5947 143.407 23.6598C143.342 23.7249 143.306 23.8132 143.306 23.9053V45.8043C143.306 45.8963 143.342 45.9846 143.407 46.0497C143.472 46.1148 143.561 46.1514 143.653 46.1514L153.154 46.1613C153.2 46.1613 153.245 46.1523 153.287 46.1349C153.329 46.1174 153.367 46.0919 153.4 46.0596C153.432 46.0274 153.457 45.9891 153.475 45.947C153.492 45.9049 153.501 45.8598 153.501 45.8142V42.323C153.501 42.2775 153.492 42.2323 153.475 42.1902C153.457 42.1481 153.432 42.1098 153.4 42.0776C153.367 42.0453 153.329 42.0198 153.287 42.0023C153.245 41.9849 153.2 41.9759 153.154 41.9759L148.056 41.9858C147.964 41.9858 147.876 41.9493 147.811 41.8842C147.746 41.8191 147.709 41.7308 147.709 41.6387V37.2153Z" fill="#2A609F"/>
<path d="M160.642 53.8784L160.552 15.9637C181.73 15.9373 203.042 15.8923 224.485 15.9121C230.584 15.9121 233.193 18.471 233.183 24.3921C233.176 31.176 233.173 37.9599 233.173 44.7439C233.173 50.655 231.149 53.8684 225.07 53.8486C203.984 53.8023 182.508 53.8122 160.642 53.8784ZM173.585 41.6792C173.513 41.9145 173.366 42.1196 173.165 42.2627C172.965 42.4059 172.724 42.4792 172.478 42.4713C172.232 42.4634 171.995 42.3747 171.804 42.219C171.614 42.0633 171.48 41.8492 171.423 41.6098L171.106 40.251C171.026 39.8939 170.808 39.7485 170.451 39.8146L167.148 40.4394C166.996 40.4687 166.861 40.5534 166.769 40.6766C166.677 40.7998 166.635 40.9524 166.652 41.1039C166.996 44.7406 169.053 46.5258 172.821 46.4597C178.058 46.3605 178.663 41.461 178.157 37.464C177.691 33.834 174.775 33.0604 172.088 31.7909C171.757 31.6322 171.542 31.3743 171.443 31.0173C171.192 30.085 171.218 29.1692 171.522 28.27C171.584 28.0803 171.697 27.9114 171.849 27.7821C172.001 27.6527 172.186 27.568 172.383 27.5372C172.58 27.5064 172.782 27.5307 172.966 27.6076C173.15 27.6844 173.31 27.8107 173.426 27.9725C173.717 28.3692 173.846 28.8056 173.813 29.2816C173.78 29.8304 174.031 30.042 174.567 29.9164L177.612 29.1825C178.128 29.0634 178.346 28.7428 178.266 28.2204C177.724 24.5772 175.44 23.0002 171.413 23.4895C166.385 24.1044 165.78 30.6305 167.991 33.8935C169.102 35.5102 171.383 36.3433 173.159 37.2557C173.476 37.421 173.671 37.6789 173.744 38.0294C174.002 39.2526 173.949 40.4692 173.585 41.6792ZM225.068 28.3195C225.067 27.6683 224.938 27.0236 224.687 26.4224C224.437 25.8212 224.071 25.2752 223.61 24.8155C223.148 24.3558 222.601 23.9915 221.999 23.7433C221.397 23.4951 220.752 23.368 220.101 23.3691L218.533 23.3719C217.882 23.373 217.238 23.5024 216.636 23.7527C216.035 24.0029 215.489 24.3692 215.029 24.8304C214.57 25.2917 214.205 25.839 213.957 26.4411C213.709 27.0432 213.582 27.6883 213.583 28.3395L213.606 41.4115C213.607 42.0627 213.736 42.7074 213.987 43.3086C214.237 43.9098 214.603 44.4558 215.064 44.9155C215.526 45.3752 216.073 45.7395 216.675 45.9877C217.277 46.2359 217.922 46.363 218.574 46.3619L220.141 46.3591C220.792 46.358 221.436 46.2286 222.038 45.9783C222.639 45.7281 223.185 45.3618 223.645 44.9006C224.104 44.4393 224.469 43.8919 224.717 43.2899C224.965 42.6878 225.092 42.0427 225.091 41.3915L225.068 28.3195ZM186.439 42.1255L185.923 42.0957C185.677 42.083 185.445 41.9761 185.275 41.797C185.105 41.618 185.01 41.3805 185.011 41.1337V23.8267C185.011 23.6416 184.915 23.549 184.723 23.549L181.044 23.5788C180.865 23.5788 180.772 23.6713 180.766 23.8565C180.72 29.3643 180.729 34.9548 180.796 40.6279C180.885 48.8202 191.983 47.997 192.072 41.4213C192.158 35.4969 192.178 29.685 192.132 23.9854C192.132 23.7011 191.986 23.5589 191.696 23.5589L187.996 23.5689C187.771 23.5689 187.659 23.6813 187.659 23.9061L187.679 40.9552C187.679 41.7817 187.265 42.1718 186.439 42.1255ZM199.67 36.4325L201.227 41.2725C201.366 41.6957 201.657 41.904 202.1 41.8974L203.845 41.8875C204.189 41.8809 204.41 41.7122 204.51 41.3816L205.987 36.4524C206.007 36.373 206.06 36.3268 206.146 36.3135C206.239 36.3003 206.328 36.3102 206.414 36.3433C206.426 36.3501 206.436 36.3662 206.443 36.3893C206.45 36.4125 206.454 36.4414 206.454 36.4722L206.265 45.8844C206.265 45.9196 206.272 45.9544 206.285 45.9869C206.299 46.0194 206.319 46.0489 206.344 46.0738C206.368 46.0987 206.398 46.1184 206.43 46.1318C206.463 46.1453 206.498 46.1522 206.533 46.1522L210.47 46.2018C210.649 46.2018 210.738 46.1125 210.738 45.934V24.035C210.738 23.6978 210.566 23.5292 210.222 23.5292L207.227 23.549C207.033 23.5492 206.844 23.6105 206.686 23.7243C206.528 23.838 206.408 23.9986 206.344 24.1838L203.181 33.358C202.956 34.0059 202.731 34.0059 202.506 33.358L199.322 24.1838C199.184 23.7738 198.899 23.5656 198.47 23.5589L195.425 23.5093C195.068 23.5027 194.889 23.678 194.889 24.035V45.6662C194.882 46.0101 195.054 46.182 195.405 46.182L198.886 46.1721C199.263 46.1721 199.448 45.9869 199.441 45.6166L199.303 36.4921C199.303 36.4474 199.319 36.4044 199.348 36.3704C199.377 36.3365 199.417 36.314 199.461 36.3069C199.505 36.2997 199.55 36.3084 199.588 36.3314C199.627 36.3545 199.655 36.3903 199.67 36.4325Z" fill="white"/>
<path d="M18.1998 31.5723C23.4266 31.1954 29.0501 28.4283 29.9428 22.7452C30.1874 21.2046 30.5874 21.1617 31.1428 22.6163C31.6652 23.9916 31.7313 25.5487 31.3412 27.2877C30.0519 32.9906 25.2218 36.6404 19.4296 37.2256C19.0461 37.2586 18.8974 37.4636 18.9833 37.8405L19.3007 39.2389C19.3238 39.3382 19.3169 39.442 19.2811 39.5373C19.2452 39.6327 19.1819 39.7152 19.0991 39.7747C19.0164 39.8341 18.9179 39.8676 18.8161 39.8711C18.7143 39.8746 18.6137 39.8479 18.5271 39.7943L11.9812 35.7577C11.92 35.7209 11.8671 35.6718 11.8257 35.6134C11.7843 35.555 11.7553 35.4885 11.7404 35.418C11.7256 35.3474 11.7252 35.2743 11.7393 35.2032C11.7534 35.132 11.7817 35.0642 11.8225 35.0039L16.2757 28.468C16.3222 28.3998 16.3879 28.3469 16.4644 28.3161C16.541 28.2853 16.625 28.278 16.7057 28.295C16.7865 28.312 16.8603 28.3526 16.918 28.4116C16.9756 28.4707 17.0144 28.5455 17.0295 28.6266L17.5155 31.0566C17.5442 31.211 17.6301 31.3492 17.7565 31.4444C17.8829 31.5397 18.0408 31.5852 18.1998 31.5723Z" fill="white"/>
<path d="M75.3269 28.2794C75.1991 28.4266 75.1286 28.6132 75.1285 28.805V41.1827C75.1288 41.341 75.1689 41.4966 75.2451 41.6353C75.3214 41.774 75.4314 41.8912 75.5649 41.9762C76.7352 42.7299 77.8857 41.6092 77.8064 40.4389C77.7733 40.0355 77.9585 39.8603 78.3618 39.9132L81.5058 40.3298C81.9224 40.3827 82.1141 40.6207 82.081 41.0439C81.5157 48.1353 71.1613 48.6014 70.8935 41.1926C70.7613 37.2982 70.6985 33.4103 70.7051 29.529C70.7249 21.2673 82.2199 21.2177 82.1901 28.6364C82.1901 29.0001 82.0116 29.215 81.6546 29.2811L78.4808 29.8861C78.1766 29.9456 78.0014 29.82 77.9551 29.5092L77.8361 28.6761C77.7766 28.3058 77.5849 28.0314 77.2609 27.8529C76.56 27.476 75.9153 27.6182 75.3269 28.2794Z" fill="white"/>
<path d="M135.907 37.4732L135.341 37.4335C135.024 37.4137 134.865 37.245 134.865 36.9277L134.895 34.5077C134.902 33.8729 135.222 33.5522 135.857 33.5456L139.814 33.5059C140.41 33.4993 140.7 33.7936 140.687 34.3887C140.628 39.2187 142.294 46.6077 134.627 46.3498C131.196 46.2308 129.437 44.5216 129.351 41.2222C129.238 37.1624 129.219 33.0993 129.291 29.0329C129.44 20.9795 141.302 21.9812 140.707 28.5172C140.688 28.7323 140.597 28.935 140.45 29.093C140.303 29.2511 140.107 29.3556 139.894 29.39L137.345 29.8065C136.816 29.8925 136.499 29.6743 136.393 29.1519C136.294 28.6626 136.055 28.2395 135.679 27.8824C135.505 27.7205 135.289 27.6126 135.055 27.5718C134.822 27.531 134.581 27.5592 134.364 27.6528C134.146 27.7464 133.96 27.9015 133.829 28.0991C133.698 28.2966 133.627 28.5281 133.626 28.7651V41.1627C133.619 41.8173 133.946 42.1479 134.607 42.1545H135.212C135.9 42.1611 136.254 41.8239 136.274 41.1428L136.373 37.9889C136.386 37.6715 136.231 37.4996 135.907 37.4732Z" fill="white"/>
<path d="M173.585 41.6789C173.949 40.4689 174.002 39.2523 173.744 38.0291C173.671 37.6786 173.476 37.4208 173.159 37.2555C171.384 36.343 169.103 35.5099 167.992 33.8933C165.78 30.6302 166.385 24.1042 171.413 23.4892C175.44 23 177.725 24.5769 178.267 28.2201C178.346 28.7425 178.128 29.0632 177.612 29.1822L174.567 29.9161C174.032 30.0418 173.781 29.8302 173.814 29.2814C173.847 28.8053 173.718 28.3689 173.427 27.9722C173.31 27.8104 173.151 27.6841 172.967 27.6073C172.782 27.5305 172.581 27.5061 172.383 27.5369C172.186 27.5677 172.001 27.6525 171.85 27.7818C171.698 27.9112 171.584 28.08 171.523 28.2697C171.218 29.169 171.192 30.0847 171.443 31.017C171.542 31.3741 171.757 31.6319 172.088 31.7906C174.776 33.0601 177.692 33.8337 178.158 37.4637C178.664 41.4607 178.059 46.3602 172.822 46.4594C169.053 46.5255 166.997 44.7403 166.653 41.1037C166.635 40.9522 166.677 40.7995 166.769 40.6763C166.861 40.5531 166.996 40.4684 167.149 40.4392L170.451 39.8143C170.808 39.7482 171.027 39.8937 171.106 40.2507L171.423 41.6095C171.48 41.8489 171.614 42.0631 171.805 42.2188C171.995 42.3745 172.232 42.4631 172.478 42.471C172.724 42.4789 172.966 42.4056 173.166 42.2625C173.366 42.1193 173.513 41.9142 173.585 41.6789Z" fill="#2A609F"/>
<path d="M225.091 41.3906C225.092 42.0419 224.965 42.687 224.717 43.289C224.469 43.8911 224.104 44.4384 223.645 44.8997C223.185 45.361 222.639 45.7273 222.038 45.9775C221.436 46.2278 220.792 46.3572 220.141 46.3583L218.573 46.3611C217.922 46.3622 217.277 46.2351 216.675 45.9869C216.073 45.7387 215.526 45.3744 215.064 44.9147C214.603 44.455 214.237 43.909 213.987 43.3078C213.736 42.7065 213.607 42.0619 213.606 41.4107L213.583 28.3387C213.582 27.6875 213.709 27.0424 213.957 26.4403C214.205 25.8382 214.57 25.2909 215.029 24.8296C215.489 24.3683 216.035 24.0021 216.636 23.7519C217.238 23.5016 217.882 23.3722 218.533 23.3711L220.1 23.3683C220.752 23.3672 221.397 23.4943 221.999 23.7425C222.601 23.9906 223.148 24.355 223.61 24.8147C224.071 25.2743 224.437 25.8204 224.687 26.4216C224.938 27.0228 225.067 27.6675 225.068 28.3187L225.091 41.3906ZM220.537 28.6064C220.537 28.3276 220.426 28.0602 220.229 27.863C220.032 27.6659 219.765 27.5551 219.486 27.5551H219.01C218.731 27.5551 218.463 27.6659 218.266 27.863C218.069 28.0602 217.958 28.3276 217.958 28.6064V41.1428C217.958 41.4216 218.069 41.689 218.266 41.8862C218.463 42.0833 218.731 42.1941 219.01 42.1941H219.486C219.765 42.1941 220.032 42.0833 220.229 41.8862C220.426 41.689 220.537 41.4216 220.537 41.1428V28.6064Z" fill="#2A609F"/>
<path d="M48.5189 41.9962L53.7259 41.9665C53.818 41.9665 53.9063 42.003 53.9714 42.0681C54.0365 42.1332 54.073 42.2215 54.073 42.3136L54.0829 45.8147C54.0829 45.9067 54.0464 45.995 53.9813 46.0601C53.9162 46.1252 53.8279 46.1618 53.7358 46.1618L44.2343 46.1519C44.1423 46.1519 44.054 46.1153 43.9889 46.0502C43.9238 45.9851 43.8872 45.8968 43.8872 45.8047V23.9057C43.8872 23.8137 43.9238 23.7254 43.9889 23.6603C44.054 23.5952 44.1423 23.5586 44.2343 23.5586H53.7358C53.8279 23.5586 53.9162 23.5952 53.9813 23.6603C54.0464 23.7254 54.0829 23.8137 54.0829 23.9057L54.073 27.4564C54.073 27.5484 54.0365 27.6367 53.9714 27.7018C53.9063 27.7669 53.818 27.8035 53.7259 27.8035H48.4892C48.3971 27.8035 48.3088 27.8401 48.2437 27.9052C48.1786 27.9703 48.142 28.0586 48.142 28.1506L48.1916 32.3063C48.1916 32.3527 48.2009 32.3987 48.219 32.4415C48.237 32.4842 48.2635 32.523 48.2968 32.5553C48.3301 32.5877 48.3695 32.6131 48.4128 32.6299C48.4561 32.6468 48.5023 32.6548 48.5487 32.6534L52.9523 32.5443C52.9987 32.543 53.0449 32.551 53.0882 32.5679C53.1314 32.5847 53.1709 32.6101 53.2042 32.6424C53.2375 32.6748 53.2639 32.7135 53.282 32.7563C53.3001 32.7991 53.3094 32.845 53.3093 32.8915V36.5115C53.3093 36.6036 53.2728 36.6919 53.2077 36.757C53.1426 36.8221 53.0543 36.8587 52.9622 36.8587L48.4991 36.8289C48.407 36.8289 48.3187 36.8655 48.2536 36.9306C48.1885 36.9957 48.152 37.084 48.152 37.1761L48.1718 41.6491C48.1718 41.7412 48.2084 41.8294 48.2735 41.8945C48.3386 41.9596 48.4269 41.9962 48.5189 41.9962Z" fill="white"/>
<path d="M62.5226 28.6558L63.5144 23.8654C63.5325 23.7814 63.5788 23.7061 63.6455 23.652C63.7122 23.5979 63.7955 23.5682 63.8814 23.5678L68.3148 23.5381C68.3772 23.5379 68.4388 23.5533 68.4938 23.5829C68.5488 23.6124 68.5957 23.6552 68.6301 23.7073C68.6645 23.7594 68.6855 23.8193 68.691 23.8815C68.6966 23.9437 68.6866 24.0063 68.6619 24.0637L64.5062 34.2396C64.4709 34.3288 64.4709 34.4282 64.5062 34.5173L68.9793 45.6553C69.0043 45.7135 69.0143 45.777 69.0082 45.8401C69.0022 45.9031 68.9804 45.9636 68.9448 46.016C68.9092 46.0684 68.861 46.111 68.8046 46.1398C68.7483 46.1686 68.6855 46.1828 68.6222 46.181L64.2781 46.1413C64.1966 46.1399 64.1177 46.112 64.0533 46.062C63.9889 46.0119 63.9425 45.9423 63.9211 45.8636L62.4631 40.3095C62.4437 40.2267 62.3969 40.1529 62.3303 40.1001C62.2637 40.0472 62.1812 40.0185 62.0962 40.0185C62.0111 40.0185 61.9286 40.0472 61.862 40.1001C61.7954 40.1529 61.7486 40.2267 61.7292 40.3095L60.1621 45.8933C60.1402 45.9737 60.0923 46.0445 60.026 46.0947C59.9596 46.1449 59.8784 46.1718 59.7952 46.171L55.5701 46.1512C55.5101 46.1501 55.4512 46.1347 55.3984 46.1062C55.3456 46.0778 55.3003 46.0371 55.2663 45.9876C55.2324 45.9382 55.2107 45.8813 55.2032 45.8218C55.1956 45.7622 55.2024 45.7018 55.223 45.6454L59.5274 34.5074C59.5627 34.4182 59.5627 34.3189 59.5274 34.2297L55.4907 24.0637C55.4682 24.0068 55.4598 23.9453 55.4664 23.8844C55.473 23.8236 55.4943 23.7652 55.5285 23.7144C55.5626 23.6636 55.6087 23.622 55.6626 23.593C55.7165 23.564 55.7767 23.5485 55.8379 23.548H60.1423C60.2239 23.5494 60.3027 23.5773 60.3671 23.6273C60.4315 23.6774 60.4779 23.747 60.4994 23.8257L61.7887 28.6756C61.8102 28.758 61.859 28.8307 61.927 28.8818C61.9951 28.9329 62.0784 28.9595 62.1635 28.9572C62.2486 28.9549 62.3304 28.9238 62.3956 28.8691C62.4609 28.8144 62.5056 28.7392 62.5226 28.6558Z" fill="white"/>
<path d="M91.7422 32.2362L91.7522 23.8654C91.7522 23.7786 91.7866 23.6953 91.848 23.6339C91.9094 23.5726 91.9926 23.5381 92.0795 23.5381L95.8582 23.5877C95.945 23.5877 96.0283 23.6222 96.0897 23.6835C96.151 23.7449 96.1855 23.8282 96.1855 23.915V45.8239C96.1855 45.9107 96.151 45.994 96.0897 46.0553C96.0283 46.1167 95.945 46.1512 95.8582 46.1512L92.0795 46.171C91.9926 46.171 91.9094 46.1366 91.848 46.0752C91.7866 46.0138 91.7522 45.9305 91.7522 45.8437L91.7422 37.1952C91.7422 37.1084 91.7078 37.0252 91.6464 36.9638C91.585 36.9024 91.5017 36.8679 91.4149 36.8679L89.3619 36.8382C89.2751 36.8382 89.1919 36.8727 89.1305 36.934C89.0691 36.9954 89.0346 37.0787 89.0346 37.1655L89.0148 45.8338C89.0148 45.9206 88.9803 46.0039 88.9189 46.0653C88.8575 46.1266 88.7743 46.1611 88.6875 46.1611H84.9583C84.8715 46.1611 84.7883 46.1266 84.7269 46.0653C84.6655 46.0039 84.631 45.9206 84.631 45.8338L84.6211 23.8852C84.6211 23.8422 84.6296 23.7997 84.646 23.76C84.6625 23.7203 84.6866 23.6842 84.717 23.6538C84.7474 23.6234 84.7834 23.5993 84.8231 23.5828C84.8628 23.5664 84.9054 23.5579 84.9484 23.5579H88.6875C88.7743 23.5579 88.8575 23.5924 88.9189 23.6538C88.9803 23.7152 89.0148 23.7984 89.0148 23.8852V32.1866C89.0147 32.2717 89.0479 32.3535 89.1071 32.4146C89.1664 32.4757 89.2471 32.5113 89.3322 32.5139L91.405 32.5635C91.4488 32.5648 91.4925 32.5573 91.5333 32.5415C91.5742 32.5256 91.6114 32.5017 91.6429 32.4712C91.6743 32.4407 91.6994 32.4042 91.7164 32.3638C91.7335 32.3234 91.7423 32.28 91.7422 32.2362Z" fill="white"/>
<path d="M103.236 42.165L102.69 45.8743C102.679 45.9549 102.638 46.0284 102.576 46.0813C102.514 46.1342 102.435 46.1628 102.353 46.1619L98.4753 46.1421C98.4256 46.1429 98.3762 46.1326 98.3309 46.1121C98.2856 46.0916 98.2453 46.0613 98.2131 46.0233C98.1809 45.9854 98.1574 45.9408 98.1445 45.8928C98.1315 45.8447 98.1293 45.7944 98.1381 45.7454L102.205 23.8464C102.218 23.7693 102.259 23.6994 102.318 23.6487C102.378 23.598 102.453 23.5697 102.532 23.5687L107.292 23.5488C107.371 23.5499 107.446 23.5782 107.506 23.6289C107.566 23.6796 107.606 23.7494 107.62 23.8265L111.765 45.7652C111.776 45.8141 111.775 45.8647 111.763 45.9132C111.752 45.9618 111.73 46.0072 111.698 46.0461C111.667 46.085 111.627 46.1165 111.582 46.1382C111.537 46.16 111.488 46.1715 111.438 46.1719L107.481 46.1322C107.4 46.1304 107.322 46.0992 107.262 46.0446C107.202 45.9899 107.163 45.9154 107.154 45.8346L106.727 42.0658C106.72 41.9799 106.679 41.9001 106.615 41.8429C106.55 41.7857 106.466 41.7555 106.38 41.7583L103.553 41.8774C103.475 41.8811 103.401 41.9118 103.343 41.9643C103.285 42.0168 103.247 42.0877 103.236 42.165ZM104.337 37.6324H105.388C105.45 37.6325 105.509 37.6088 105.553 37.5663C105.597 37.5237 105.624 37.4657 105.626 37.4043L105.636 37.1762C105.643 36.182 105.63 35.1974 105.598 34.2788C105.566 33.3603 105.515 32.5259 105.449 31.8237C105.383 31.1214 105.302 30.5651 105.211 30.1867C105.121 29.8083 105.023 29.6153 104.922 29.6187C104.72 29.6252 104.521 30.422 104.369 31.8346C104.216 33.2472 104.123 35.1606 104.109 37.1564L104.099 37.3845C104.098 37.4166 104.103 37.4486 104.114 37.4786C104.125 37.5087 104.143 37.5361 104.165 37.5592C104.187 37.5824 104.214 37.6008 104.243 37.6134C104.273 37.626 104.305 37.6325 104.337 37.6324Z" fill="white"/>
<path d="M121.753 33.4371L121.802 24.0249C121.809 23.7075 121.971 23.5488 122.288 23.5488L125.76 23.5786C125.971 23.5786 126.077 23.6844 126.077 23.896L126.097 45.7057C126.097 46.0033 125.948 46.152 125.65 46.152L122.893 46.1619C122.51 46.1619 122.249 45.9801 122.11 45.6165L118.549 36.4224C118.186 35.4835 118.004 35.5166 118.004 36.5216L118.014 45.9041C118.014 46.0628 117.931 46.1421 117.766 46.1421L114.036 46.1719C113.996 46.1719 113.956 46.1642 113.919 46.1492C113.882 46.1343 113.848 46.1123 113.819 46.0847C113.791 46.0571 113.768 46.0243 113.752 45.9882C113.737 45.9521 113.729 45.9134 113.729 45.8743L113.739 24.0943C113.739 23.7307 113.921 23.5488 114.284 23.5488H117.012C117.369 23.5488 117.61 23.7141 117.736 24.0447L121.396 33.4966C121.634 34.1049 121.753 34.0851 121.753 33.4371Z" fill="white"/>
<path d="M186.439 42.1253C187.266 42.1716 187.679 41.7815 187.679 40.955L187.659 23.9059C187.659 23.6811 187.772 23.5687 187.997 23.5687L191.696 23.5587C191.987 23.5587 192.132 23.7009 192.132 23.9852C192.179 29.6848 192.159 35.4968 192.073 41.4211C191.984 47.9968 180.885 48.82 180.796 40.6277C180.73 34.9546 180.72 29.3641 180.766 23.8563C180.773 23.6712 180.866 23.5786 181.044 23.5786L184.724 23.5488C184.915 23.5488 185.011 23.6414 185.011 23.8265V41.1335C185.011 41.3803 185.106 41.6178 185.275 41.7968C185.445 41.9759 185.677 42.0828 185.924 42.0955L186.439 42.1253Z" fill="#2A609F"/>
<path d="M147.709 37.2157V41.6392C147.709 41.7312 147.745 41.8195 147.81 41.8846C147.876 41.9497 147.964 41.9863 148.056 41.9863L153.154 41.9764C153.199 41.9764 153.245 41.9854 153.287 42.0028C153.329 42.0203 153.367 42.0458 153.399 42.0781C153.431 42.1103 153.457 42.1486 153.474 42.1907C153.492 42.2328 153.501 42.2779 153.501 42.3235V45.8147C153.501 45.8602 153.492 45.9054 153.474 45.9475C153.457 45.9896 153.431 46.0279 153.399 46.0601C153.367 46.0924 153.329 46.1179 153.287 46.1354C153.245 46.1528 153.199 46.1618 153.154 46.1618L143.652 46.1519C143.56 46.1519 143.472 46.1153 143.407 46.0502C143.342 45.9851 143.305 45.8968 143.305 45.8047V23.9057C143.305 23.8137 143.342 23.7254 143.407 23.6603C143.472 23.5952 143.56 23.5586 143.652 23.5586L153.174 23.5685C153.266 23.5685 153.354 23.6051 153.419 23.6702C153.484 23.7353 153.521 23.8236 153.521 23.9156L153.481 27.4465C153.479 27.5351 153.442 27.6194 153.38 27.6821C153.317 27.7448 153.233 27.7812 153.144 27.7837L148.076 27.8233C148.03 27.8233 147.985 27.8323 147.943 27.8498C147.901 27.8672 147.863 27.8928 147.83 27.925C147.798 27.9573 147.772 27.9955 147.755 28.0376C147.738 28.0798 147.729 28.1249 147.729 28.1705L147.748 32.2964C147.751 32.3867 147.789 32.4725 147.854 32.5355C147.918 32.5984 148.005 32.6336 148.096 32.6336L152.489 32.5642C152.535 32.5628 152.58 32.5705 152.623 32.5868C152.666 32.603 152.705 32.6275 152.738 32.6588C152.771 32.6901 152.798 32.7276 152.816 32.7693C152.835 32.8109 152.845 32.8558 152.846 32.9014L152.896 36.4917C152.896 36.5821 152.861 36.6689 152.798 36.7337C152.735 36.7986 152.649 36.8363 152.559 36.8388L148.056 36.8686C147.964 36.8686 147.876 36.9052 147.81 36.9703C147.745 37.0354 147.709 37.1237 147.709 37.2157Z" fill="white"/>
<path d="M199.67 36.4312C199.656 36.3889 199.627 36.3531 199.589 36.3301C199.55 36.3071 199.505 36.2984 199.461 36.3055C199.417 36.3126 199.377 36.3352 199.348 36.3691C199.319 36.403 199.303 36.4461 199.303 36.4907L199.442 45.6153C199.448 45.9856 199.263 46.1707 198.886 46.1707L195.405 46.1806C195.055 46.1806 194.883 46.0087 194.889 45.6649V24.0336C194.889 23.6766 195.068 23.5014 195.425 23.508L198.47 23.5576C198.9 23.5642 199.184 23.7725 199.323 24.1824L202.506 33.3566C202.731 34.0046 202.956 34.0046 203.181 33.3566L206.345 24.1824C206.409 23.9973 206.528 23.8367 206.686 23.7229C206.844 23.6091 207.033 23.5479 207.227 23.5477L210.223 23.5278C210.566 23.5278 210.738 23.6964 210.738 24.0336V45.9327C210.738 46.1112 210.649 46.2005 210.471 46.2005L206.533 46.1509C206.498 46.1509 206.463 46.1439 206.431 46.1305C206.398 46.117 206.369 46.0973 206.344 46.0724C206.319 46.0476 206.299 46.018 206.286 45.9856C206.272 45.9531 206.265 45.9182 206.265 45.8831L206.454 36.4709C206.454 36.4401 206.45 36.4111 206.443 36.388C206.436 36.3649 206.426 36.3488 206.414 36.3419C206.328 36.3089 206.239 36.299 206.146 36.3122C206.06 36.3254 206.007 36.3717 205.988 36.451L204.51 41.3803C204.411 41.7109 204.189 41.8795 203.845 41.8861L202.1 41.896C201.657 41.9026 201.366 41.6944 201.227 41.2712L199.67 36.4312Z" fill="#2A609F"/>
<path d="M219.485 27.5547H219.009C218.429 27.5547 217.958 28.0254 217.958 28.606V41.1424C217.958 41.723 218.429 42.1937 219.009 42.1937H219.485C220.066 42.1937 220.537 41.723 220.537 41.1424V28.606C220.537 28.0254 220.066 27.5547 219.485 27.5547Z" fill="white"/>
<path d="M104.338 37.6319C104.306 37.6319 104.274 37.6254 104.244 37.6128C104.215 37.6003 104.188 37.5818 104.166 37.5587C104.144 37.5355 104.126 37.5081 104.115 37.478C104.104 37.448 104.098 37.416 104.1 37.3839L104.11 37.1558C104.124 35.1601 104.217 33.2466 104.37 31.834C104.522 30.4214 104.721 29.6247 104.923 29.6181C105.024 29.6147 105.122 29.8077 105.212 30.1861C105.303 30.5645 105.383 31.1208 105.45 31.8231C105.516 32.5253 105.567 33.3597 105.599 34.2783C105.631 35.1968 105.644 36.1815 105.637 37.1756L105.627 37.4037C105.625 37.4651 105.598 37.5232 105.554 37.5657C105.51 37.6082 105.451 37.6319 105.389 37.6319H104.338Z" fill="#2A609F"/>
</svg>
