<svg width="17" height="10" viewBox="0 0 17 10" fill="none" xmlns="http://www.w3.org/2000/svg">
<path d="M9.28104 9.28055L16.781 1.78055C16.8507 1.71087 16.906 1.62815 16.9437 1.5371C16.9814 1.44606 17.0008 1.34848 17.0008 1.24993C17.0008 1.15138 16.9814 1.0538 16.9437 0.962757C16.906 0.871712 16.8507 0.788987 16.781 0.719304C16.7114 0.649621 16.6286 0.594346 16.5376 0.556634C16.4465 0.518922 16.349 0.499512 16.2504 0.499512C16.1519 0.499512 16.0543 0.518922 15.9632 0.556634C15.8722 0.594346 15.7895 0.649621 15.7198 0.719304L8.75042 7.68962L1.78104 0.719303C1.64031 0.578573 1.44944 0.499512 1.25042 0.499512C1.05139 0.499512 0.860523 0.578573 0.719792 0.719303C0.579061 0.860034 0.5 1.05091 0.5 1.24993C0.5 1.44895 0.579061 1.63982 0.719792 1.78055L8.21979 9.28055C8.28945 9.35029 8.37216 9.40561 8.46321 9.44335C8.55426 9.48109 8.65186 9.50052 8.75042 9.50052C8.84898 9.50052 8.94657 9.48109 9.03762 9.44335C9.12867 9.40561 9.21139 9.35029 9.28104 9.28055Z" fill="#585858"/>
</svg>
