<svg width="22" height="31" viewBox="0 0 22 31" fill="none" xmlns="http://www.w3.org/2000/svg">
<path d="M16.9737 14.2703C17.8276 13.4482 18.4274 12.3981 18.7016 11.2449C18.9759 10.0917 18.9132 8.88406 18.521 7.76551C18.1287 6.64696 17.4234 5.66462 16.489 4.93534C15.5546 4.20605 14.4303 3.76051 13.25 3.65172V1.375C13.25 1.07663 13.1315 0.790483 12.9205 0.579505C12.7095 0.368526 12.4234 0.25 12.125 0.25C11.8266 0.25 11.5405 0.368526 11.3295 0.579505C11.1185 0.790483 11 1.07663 11 1.375V3.625H8.75V1.375C8.75 1.07663 8.63147 0.790483 8.4205 0.579505C8.20952 0.368526 7.92337 0.25 7.625 0.25C7.32663 0.25 7.04048 0.368526 6.8295 0.579505C6.61853 0.790483 6.5 1.07663 6.5 1.375V3.625H2C1.70163 3.625 1.41548 3.74353 1.20451 3.9545C0.993527 4.16548 0.875 4.45163 0.875 4.75C0.875 5.04837 0.993527 5.33452 1.20451 5.5455C1.41548 5.75647 1.70163 5.875 2 5.875H3.125V25H2C1.70163 25 1.41548 25.1185 1.20451 25.3295C0.993527 25.5405 0.875 25.8266 0.875 26.125C0.875 26.4234 0.993527 26.7095 1.20451 26.9205C1.41548 27.1315 1.70163 27.25 2 27.25H6.5V29.5C6.5 29.7984 6.61853 30.0845 6.8295 30.2955C7.04048 30.5065 7.32663 30.625 7.625 30.625C7.92337 30.625 8.20952 30.5065 8.4205 30.2955C8.63147 30.0845 8.75 29.7984 8.75 29.5V27.25H11V29.5C11 29.7984 11.1185 30.0845 11.3295 30.2955C11.5405 30.5065 11.8266 30.625 12.125 30.625C12.4234 30.625 12.7095 30.5065 12.9205 30.2955C13.1315 30.0845 13.25 29.7984 13.25 29.5V27.25H14.375C15.9352 27.25 17.4472 26.7095 18.6539 25.7205C19.8605 24.7315 20.6873 23.355 20.9936 21.8252C21.2999 20.2953 21.0668 18.7066 20.3339 17.3293C19.6011 15.9519 18.4137 14.871 16.9737 14.2703ZM16.625 9.8125C16.625 10.8568 16.2102 11.8583 15.4717 12.5967C14.7333 13.3352 13.7318 13.75 12.6875 13.75H5.375V5.875H12.6875C13.7318 5.875 14.7333 6.28984 15.4717 7.02827C16.2102 7.76669 16.625 8.76821 16.625 9.8125ZM14.375 25H5.375V16H14.375C15.5685 16 16.7131 16.4741 17.557 17.318C18.4009 18.1619 18.875 19.3065 18.875 20.5C18.875 21.6935 18.4009 22.8381 17.557 23.682C16.7131 24.5259 15.5685 25 14.375 25Z" fill="#16161C"/>
</svg>
