<svg width="38" height="26" viewBox="0 0 38 26" fill="none" xmlns="http://www.w3.org/2000/svg">
<path d="M29.9999 9.33384C29.9999 8.84761 29.8068 8.38129 29.463 8.03747C29.1191 7.69366 28.6528 7.5005 28.1666 7.5005H6.91826L11.1349 3.30217C11.4802 2.95695 11.6741 2.48872 11.6741 2.0005C11.6741 1.51228 11.4802 1.04406 11.1349 0.698836C10.7897 0.353613 10.3215 0.159668 9.83326 0.159668C9.34504 0.159668 8.87682 0.353613 8.5316 0.698836L1.19826 8.03217C0.943875 8.28998 0.771548 8.61736 0.703029 8.97301C0.63451 9.32866 0.672868 9.69663 0.813263 10.0305C0.9508 10.3653 1.18436 10.6519 1.48452 10.8542C1.78467 11.0565 2.13798 11.1654 2.49993 11.1672H28.1666C28.6528 11.1672 29.1191 10.974 29.463 10.6302C29.8068 10.2864 29.9999 9.82007 29.9999 9.33384ZM37.1866 15.9705C37.0491 15.6357 36.8155 15.3491 36.5153 15.1468C36.2152 14.9445 35.8619 14.8356 35.4999 14.8338H9.83326C9.34703 14.8338 8.88072 15.027 8.5369 15.3708C8.19309 15.7146 7.99993 16.1809 7.99993 16.6672C7.99993 17.1534 8.19309 17.6197 8.5369 17.9635C8.88072 18.3074 9.34703 18.5005 9.83326 18.5005H31.0816L26.8649 22.6988C26.6931 22.8693 26.5567 23.072 26.4636 23.2954C26.3706 23.5189 26.3226 23.7585 26.3226 24.0005C26.3226 24.2425 26.3706 24.4822 26.4636 24.7056C26.5567 24.929 26.6931 25.1317 26.8649 25.3022C27.0354 25.474 27.2381 25.6104 27.4615 25.7035C27.6849 25.7965 27.9246 25.8445 28.1666 25.8445C28.4086 25.8445 28.6482 25.7965 28.8717 25.7035C29.0951 25.6104 29.2978 25.474 29.4683 25.3022L36.8016 17.9688C37.056 17.711 37.2283 17.3836 37.2968 17.028C37.3654 16.6723 37.327 16.3044 37.1866 15.9705Z" fill="#FE7F32"/>
</svg>
