<svg width="20" height="14" viewBox="0 0 20 14" fill="none" xmlns="http://www.w3.org/2000/svg">
<path d="M3.99986 9.0003C3.99986 9.26552 4.10522 9.51987 4.29275 9.70741C4.48029 9.89495 4.73464 10.0003 4.99986 10.0003L16.5899 10.0003L14.2899 12.2903C14.1016 12.4786 13.9958 12.734 13.9958 13.0003C13.9958 13.2666 14.1016 13.522 14.2899 13.7103C14.4782 13.8986 14.7336 14.0044 14.9999 14.0044C15.2662 14.0044 15.5216 13.8986 15.7099 13.7103L19.7099 9.7103C19.8486 9.56968 19.9426 9.39111 19.98 9.19712C20.0174 9.00313 19.9964 8.80241 19.9199 8.6203C19.8448 8.43768 19.7174 8.28136 19.5537 8.17102C19.39 8.06069 19.1973 8.00129 18.9999 8.0003L4.99986 8.0003C4.73464 8.0003 4.48029 8.10566 4.29275 8.2932C4.10522 8.48073 3.99986 8.73509 3.99986 9.0003ZM0.0798599 5.3803C0.15488 5.56292 0.282277 5.71925 0.445998 5.82958C0.60972 5.93992 0.802434 5.99932 0.99986 6.0003L14.9999 6.0003C15.2651 6.0003 15.5194 5.89495 15.707 5.70741C15.8945 5.51987 15.9999 5.26552 15.9999 5.0003C15.9999 4.73509 15.8945 4.48073 15.707 4.2932C15.5194 4.10566 15.2651 4.0003 14.9999 4.0003L3.40986 4.0003L5.70986 1.7103C5.80359 1.61734 5.87798 1.50674 5.92875 1.38488C5.97952 1.26302 6.00566 1.13232 6.00566 1.0003C6.00566 0.868293 5.97952 0.737587 5.92875 0.615728C5.87798 0.493868 5.80359 0.383269 5.70986 0.290305C5.6169 0.196577 5.5063 0.122181 5.38444 0.0714124C5.26258 0.0206436 5.13187 -0.00549377 4.99986 -0.00549376C4.86785 -0.00549375 4.73714 0.0206436 4.61528 0.0714125C4.49342 0.122181 4.38282 0.196577 4.28986 0.290306L0.289861 4.2903C0.151103 4.43093 0.0571071 4.6095 0.0197326 4.80349C-0.0176419 4.99748 0.00327987 5.19819 0.0798599 5.3803Z" fill="black"/>
</svg>
