<svg width="20" height="16" viewBox="0 0 20 16" fill="none" xmlns="http://www.w3.org/2000/svg">
<path d="M19 0.500488H1C0.801088 0.500488 0.610322 0.579506 0.46967 0.720158C0.329018 0.860811 0.25 1.05158 0.25 1.25049V14.0005C0.25 14.3983 0.408035 14.7798 0.68934 15.0611C0.970644 15.3425 1.35218 15.5005 1.75 15.5005H18.25C18.6478 15.5005 19.0294 15.3425 19.3107 15.0611C19.592 14.7798 19.75 14.3983 19.75 14.0005V1.25049C19.75 1.05158 19.671 0.860811 19.5303 0.720158C19.3897 0.579506 19.1989 0.500488 19 0.500488ZM17.0716 2.00049L10 8.4833L2.92844 2.00049H17.0716ZM18.25 14.0005H1.75V2.9558L9.49281 10.0536C9.63118 10.1806 9.81217 10.2511 10 10.2511C10.1878 10.2511 10.3688 10.1806 10.5072 10.0536L18.25 2.9558V14.0005Z" fill="#FE7F32"/>
</svg>
