<svg width="24" height="20" viewBox="0 0 24 20" fill="none" xmlns="http://www.w3.org/2000/svg">
<path d="M22.5 18.5005H21V8.00049C21 7.60266 20.842 7.22113 20.5607 6.93983C20.2794 6.65852 19.8978 6.50049 19.5 6.50049H13.5V2.00049C13.5002 1.72886 13.4266 1.46228 13.2871 1.22921C13.1476 0.996131 12.9474 0.805307 12.708 0.677103C12.4685 0.548898 12.1987 0.488125 11.9274 0.501269C11.6561 0.514414 11.3935 0.600983 11.1675 0.751737L3.6675 5.75049C3.46176 5.88776 3.29315 6.07377 3.17669 6.29197C3.06023 6.51017 2.99953 6.75378 3 7.00111V18.5005H1.5C1.30109 18.5005 1.11032 18.5795 0.96967 18.7202C0.829018 18.8608 0.75 19.0516 0.75 19.2505C0.75 19.4494 0.829018 19.6402 0.96967 19.7808C1.11032 19.9215 1.30109 20.0005 1.5 20.0005H22.5C22.6989 20.0005 22.8897 19.9215 23.0303 19.7808C23.171 19.6402 23.25 19.4494 23.25 19.2505C23.25 19.0516 23.171 18.8608 23.0303 18.7202C22.8897 18.5795 22.6989 18.5005 22.5 18.5005ZM19.5 8.00049V18.5005H13.5V8.00049H19.5ZM4.5 7.00111L12 2.00049V18.5005H4.5V7.00111ZM10.5 9.50049V11.0005C10.5 11.1994 10.421 11.3902 10.2803 11.5308C10.1397 11.6715 9.94891 11.7505 9.75 11.7505C9.55109 11.7505 9.36032 11.6715 9.21967 11.5308C9.07902 11.3902 9 11.1994 9 11.0005V9.50049C9 9.30157 9.07902 9.11081 9.21967 8.97016C9.36032 8.8295 9.55109 8.75049 9.75 8.75049C9.94891 8.75049 10.1397 8.8295 10.2803 8.97016C10.421 9.11081 10.5 9.30157 10.5 9.50049ZM7.5 9.50049V11.0005C7.5 11.1994 7.42098 11.3902 7.28033 11.5308C7.13968 11.6715 6.94891 11.7505 6.75 11.7505C6.55109 11.7505 6.36032 11.6715 6.21967 11.5308C6.07902 11.3902 6 11.1994 6 11.0005V9.50049C6 9.30157 6.07902 9.11081 6.21967 8.97016C6.36032 8.8295 6.55109 8.75049 6.75 8.75049C6.94891 8.75049 7.13968 8.8295 7.28033 8.97016C7.42098 9.11081 7.5 9.30157 7.5 9.50049ZM7.5 14.7505V16.2505C7.5 16.4494 7.42098 16.6402 7.28033 16.7808C7.13968 16.9215 6.94891 17.0005 6.75 17.0005C6.55109 17.0005 6.36032 16.9215 6.21967 16.7808C6.07902 16.6402 6 16.4494 6 16.2505V14.7505C6 14.5516 6.07902 14.3608 6.21967 14.2202C6.36032 14.0795 6.55109 14.0005 6.75 14.0005C6.94891 14.0005 7.13968 14.0795 7.28033 14.2202C7.42098 14.3608 7.5 14.5516 7.5 14.7505ZM10.5 14.7505V16.2505C10.5 16.4494 10.421 16.6402 10.2803 16.7808C10.1397 16.9215 9.94891 17.0005 9.75 17.0005C9.55109 17.0005 9.36032 16.9215 9.21967 16.7808C9.07902 16.6402 9 16.4494 9 16.2505V14.7505C9 14.5516 9.07902 14.3608 9.21967 14.2202C9.36032 14.0795 9.55109 14.0005 9.75 14.0005C9.94891 14.0005 10.1397 14.0795 10.2803 14.2202C10.421 14.3608 10.5 14.5516 10.5 14.7505Z" fill="#FE7F32"/>
</svg>
