<svg width="21" height="19" viewBox="0 0 21 19" fill="none" xmlns="http://www.w3.org/2000/svg">
<path d="M20.7081 0.205629C20.5919 0.105286 20.4505 0.038552 20.2992 0.0126154C20.1479 -0.0133211 19.9923 0.00252312 19.8494 0.0584412L0.849978 7.49375C0.580714 7.59846 0.35275 7.7878 0.200407 8.03328C0.0480642 8.27875 -0.0204126 8.56707 0.00528594 8.85483C0.0309845 9.14259 0.149467 9.41421 0.342897 9.62881C0.536327 9.8434 0.794234 9.98936 1.07779 10.0447L6.0006 11.0113V16.5003C5.99963 16.7993 6.08848 17.0917 6.25564 17.3396C6.4228 17.5875 6.66056 17.7794 6.9381 17.8906C7.21522 18.0038 7.51997 18.031 7.81274 17.9686C8.1055 17.9062 8.37272 17.7572 8.57967 17.5409L10.9534 15.0791L14.7194 18.3753C14.9911 18.6163 15.3415 18.7497 15.7047 18.7503C15.8638 18.7502 16.022 18.7252 16.1734 18.6763C16.4209 18.5977 16.6434 18.4558 16.8189 18.2645C16.9944 18.0732 17.1168 17.8392 17.1737 17.5859L20.979 1.03157C21.0131 0.882269 21.0058 0.726523 20.9581 0.581023C20.9104 0.435523 20.824 0.305755 20.7081 0.205629ZM14.9762 3.58063L6.57717 9.59563L1.92717 8.68344L14.9762 3.58063ZM7.5006 16.5003V12.0491L9.82467 14.0872L7.5006 16.5003ZM15.7065 17.2503L7.95529 10.4534L19.1115 2.4575L15.7065 17.2503Z" fill="#FE7F32"/>
</svg>
