<svg width="34" height="27" viewBox="0 0 34 27" fill="none" xmlns="http://www.w3.org/2000/svg">
<path d="M33.4097 7.53882C33.156 7.31754 32.8421 7.17668 32.5081 7.13411C32.1741 7.09155 31.835 7.1492 31.5338 7.29976L24.473 10.8154L18.578 1.02367C18.4265 0.772405 18.2126 0.564561 17.9571 0.420285C17.7016 0.276009 17.4132 0.200195 17.1197 0.200195C16.8263 0.200195 16.5379 0.276009 16.2824 0.420285C16.0269 0.564561 15.813 0.772405 15.6615 1.02367L9.76647 10.8196L2.7085 7.30398C2.40804 7.15476 2.0702 7.09761 1.73738 7.13969C1.40456 7.18178 1.09158 7.32122 0.837723 7.54053C0.583865 7.75984 0.400435 8.04925 0.310452 8.37242C0.220469 8.6956 0.227942 9.03816 0.331933 9.3571L5.53506 25.2984C5.58737 25.4585 5.67499 25.6049 5.79144 25.7266C5.90789 25.8484 6.05019 25.9424 6.20785 26.0018C6.36552 26.0612 6.5345 26.0844 6.70234 26.0698C6.87018 26.0551 7.03258 26.0029 7.17756 25.9171C7.21271 25.896 10.8085 23.8246 17.1197 23.8246C23.431 23.8246 27.0268 25.896 27.0591 25.9157C27.2041 26.0023 27.3668 26.0552 27.5351 26.0704C27.7034 26.0856 27.8729 26.0627 28.0311 26.0034C28.1893 25.9441 28.3321 25.8499 28.4489 25.7278C28.5657 25.6058 28.6535 25.459 28.7058 25.2984L33.909 9.36132C34.0159 9.04229 34.0256 8.69864 33.9367 8.3741C33.8478 8.04956 33.6644 7.75881 33.4097 7.53882ZM26.9635 23.3788C25.276 22.663 21.9122 21.5746 17.1197 21.5746C12.3272 21.5746 8.9635 22.663 7.276 23.3788L2.87584 9.90273L9.21381 13.0626C9.59744 13.2518 10.038 13.2904 10.4487 13.171C10.8595 13.0515 11.2106 12.7825 11.4329 12.4171L17.1197 2.96429L22.8066 12.4143C23.0289 12.7794 23.3797 13.0481 23.7901 13.1675C24.2006 13.287 24.6408 13.2485 25.0243 13.0598L31.3637 9.90273L26.9635 23.3788Z" fill="#16161C"/>
</svg>
