<svg width="175" height="40" viewBox="0 0 175 40" fill="none" xmlns="http://www.w3.org/2000/svg">
<g filter="url(#filter0_ii_1653_6715)">
<path fill-rule="evenodd" clip-rule="evenodd" d="M21.213 6.74808C19.2608 5.79183 17.0643 5.25732 14.7426 5.25732C6.59983 5.25732 0 11.8572 0 20C0 28.1428 6.59983 34.7426 14.7426 34.7426C17.0643 34.7426 19.2587 34.2061 21.213 33.2519C16.3127 30.855 12.9387 25.8231 12.9387 20.0021C12.9387 14.181 16.3127 9.14499 21.213 6.74808Z" fill="url(#paint0_linear_1653_6715)"/>
</g>
<g filter="url(#filter1_ii_1653_6715)">
<path d="M31.1743 34.7426C39.3164 34.7426 45.9169 28.1421 45.9169 20C45.9169 11.8578 39.3164 5.25732 31.1743 5.25732C23.0321 5.25732 16.4316 11.8578 16.4316 20C16.4316 28.1421 23.0321 34.7426 31.1743 34.7426Z" fill="url(#paint1_linear_1653_6715)"/>
</g>
<g filter="url(#filter2_ii_1653_6715)">
<path d="M51.6978 29.362C54.0086 29.362 55.882 25.1704 55.882 19.9998C55.882 14.8293 54.0086 10.6377 51.6978 10.6377C49.387 10.6377 47.5137 14.8293 47.5137 19.9998C47.5137 25.1704 49.387 29.362 51.6978 29.362Z" fill="url(#paint2_linear_1653_6715)"/>
</g>
<path d="M151.741 20.4944C151.443 19.6927 150.977 18.9765 150.347 18.348C149.138 17.1287 147.597 16.519 145.724 16.519C143.851 16.519 142.308 17.1287 141.087 18.348C140.459 18.9765 139.993 19.6927 139.692 20.4944C139.41 21.2377 139.271 22.0562 139.271 22.9477C139.271 23.265 139.289 23.5761 139.327 23.8747C139.498 25.3049 140.091 26.5243 141.1 27.5327C142.325 28.7521 143.868 29.3617 145.722 29.3617C147.576 29.3617 149.113 28.7521 150.332 27.5327C151.551 26.3113 152.161 24.785 152.161 22.9477C152.161 22.0562 152.021 21.2377 151.739 20.4944H151.741ZM148.01 25.4219C147.415 26.0587 146.655 26.376 145.724 26.376C144.793 26.376 144.025 26.0587 143.425 25.4219C142.824 24.7871 142.523 23.9624 142.523 22.9456C142.523 21.9288 142.816 21.125 143.402 20.4923C143.411 20.484 143.417 20.4756 143.425 20.4673C144.025 19.8242 144.793 19.5027 145.724 19.5027C146.655 19.5027 147.415 19.82 148.01 20.4547C148.021 20.4673 148.033 20.4798 148.044 20.4923C148.62 21.1229 148.91 21.9392 148.91 22.9456C148.91 23.952 148.61 24.7871 148.01 25.4219Z" fill="black"/>
<path d="M139.688 19.0348L136.563 20.4254C136.509 20.1205 136.373 19.8658 136.162 19.6591C135.874 19.3689 135.498 19.2248 135.033 19.2248C134.508 19.2248 134.089 19.396 133.776 19.7343C133.469 20.0725 133.318 20.5527 133.318 21.1687V25.7787C133.318 27.6161 131.828 29.1069 129.99 29.1069V16.7736H133.318V18.3625C133.579 17.7779 133.966 17.3248 134.473 17.0033C134.982 16.6818 135.588 16.521 136.289 16.521C137.373 16.521 138.233 16.8592 138.868 17.5378C139.265 17.9554 139.538 18.4565 139.686 19.0348H139.688Z" fill="black"/>
<path d="M100.753 29.1069H97.4248V16.7736H100.753V18.3876C101.143 17.7779 101.663 17.3165 102.315 17.0033C102.974 16.6818 103.703 16.521 104.499 16.521C105.854 16.521 106.933 16.924 107.737 17.7278C108.541 18.5316 108.944 19.6382 108.944 21.0434V29.1089H105.616V21.9579C105.616 21.1102 105.409 20.4462 104.993 19.9639C104.586 19.4733 104.025 19.2269 103.304 19.2269C102.542 19.2269 101.924 19.4983 101.45 20.0391C100.985 20.582 100.751 21.3294 100.751 22.2878V29.1089L100.753 29.1069Z" fill="black"/>
<path d="M92.5488 20.102C92.5488 18.2647 94.0396 16.7739 95.8769 16.7739V29.1072H92.5488V20.102Z" fill="black"/>
<path d="M89.7999 18.35C88.5889 17.1307 87.046 16.521 85.1773 16.521C83.3086 16.521 81.7594 17.1307 80.5401 18.35C79.3291 19.561 78.7236 21.0935 78.7236 22.9496C78.7236 23.8349 78.8635 24.6513 79.1516 25.3925C79.4544 26.1901 79.9221 26.902 80.5547 27.5347C81.7803 28.754 83.3233 29.3637 85.1773 29.3637C87.0314 29.3637 88.568 28.754 89.7874 27.5347C91.0067 26.3132 91.6164 24.787 91.6164 22.9496C91.6164 21.1123 91.0109 19.561 89.802 18.35H89.7999ZM87.4636 25.4238C86.8685 26.0606 86.1085 26.378 85.1773 26.378C84.2461 26.378 83.4778 26.0606 82.8785 25.4238C82.2772 24.7891 81.9766 23.9644 81.9766 22.9476C81.9766 21.9307 82.2772 21.106 82.8785 20.4692C83.4778 19.8261 84.244 19.5046 85.1773 19.5046C86.1106 19.5046 86.8685 19.822 87.4636 20.4567C88.0628 21.0935 88.3634 21.9224 88.3634 22.9476C88.3634 23.9727 88.0628 24.7891 87.4636 25.4238Z" fill="black"/>
<path d="M77.8323 24.284C77.2581 25.5075 76.4522 26.541 75.4166 27.3908C73.8152 28.704 71.767 29.3596 69.2698 29.3596C67.871 29.3596 66.5848 29.1237 65.4072 28.6498C64.2297 28.1737 63.24 27.5223 62.4362 26.6934C61.6323 25.8624 61.006 24.8727 60.5571 23.7223C60.1061 22.5698 59.8827 21.3296 59.8827 19.9996C59.866 18.7134 60.0977 17.4899 60.58 16.3291C61.0623 15.1598 61.72 14.1556 62.5489 13.3183C63.3882 12.479 64.3904 11.8192 65.5597 11.3369C66.7372 10.8462 67.9733 10.6145 69.2698 10.6395C70.4307 10.6395 71.4955 10.8003 72.4706 11.1218C73.4435 11.435 74.2745 11.8714 74.9594 12.4289C75.6546 12.9884 76.2309 13.6315 76.6881 14.3602C77.0535 14.926 77.3416 15.5315 77.5483 16.1808L74.3455 17.6069C74.0407 16.5253 73.4916 15.6547 72.7002 14.9844C71.7774 14.2057 70.627 13.8173 69.2448 13.8173C67.5954 13.8173 66.2194 14.3894 65.117 15.5315C64.0251 16.6652 63.478 18.156 63.478 20.0017C63.478 21.8474 64.0292 23.3715 65.1296 24.499C66.2299 25.6181 67.6183 26.1756 69.2949 26.1756C70.9715 26.1756 72.3056 25.6933 73.3475 24.7287C73.8632 24.2506 74.287 23.6931 74.6253 23.0563L77.8323 24.2881V24.284Z" fill="black"/>
<path d="M129.374 24.282C128.8 25.5055 127.994 26.539 126.959 27.3888C125.357 28.7021 123.309 29.3577 120.812 29.3577C119.413 29.3577 118.127 29.1218 116.949 28.6478C115.772 28.1718 114.782 27.5203 113.978 26.6914C113.174 25.8605 112.548 24.8708 112.099 23.7204C111.648 22.5678 111.425 21.3276 111.425 19.9976C111.408 18.7115 111.64 17.488 112.122 16.3271C112.604 15.1579 113.262 14.1536 114.091 13.3164C114.93 12.477 115.932 11.8172 117.102 11.3349C118.279 10.8443 119.515 10.6125 120.812 10.6376C121.973 10.6376 123.038 10.7983 124.013 11.1199C124.986 11.4331 125.817 11.8694 126.501 12.4269C127.197 12.9865 127.773 13.6295 128.23 14.3582C128.595 14.924 128.884 15.5295 129.09 16.1789L125.887 17.6049C125.583 16.5234 125.034 15.6527 124.242 14.9825C123.319 14.2037 122.169 13.8154 120.787 13.8154C119.137 13.8154 117.761 14.3874 116.659 15.5295C115.567 16.6633 115.02 18.154 115.02 19.9997C115.02 21.8454 115.571 23.3696 116.672 24.4971C117.772 25.6162 119.16 26.1736 120.837 26.1736C122.513 26.1736 123.848 25.6913 124.889 24.7267C125.405 24.2486 125.829 23.6911 126.167 23.0543L129.374 24.2862V24.282Z" fill="black"/>
<path d="M163.553 25.3862C163.553 25.4029 163.553 25.4217 163.553 25.4384C163.54 26.5659 163.044 27.4992 162.066 28.2425C161.085 28.9858 159.849 29.3595 158.356 29.3595C156.951 29.3595 155.776 29.0755 154.826 28.5097C153.901 27.9522 153.218 27.1484 152.777 26.1045L154.318 25.4196L155.464 24.9081C156.057 26.0543 157.053 26.6285 158.456 26.6285C159.083 26.6285 159.569 26.5179 159.918 26.2986C160.273 26.0773 160.45 25.7892 160.45 25.4342C160.45 24.9958 160.244 24.6555 159.83 24.4195C159.454 24.1919 158.786 24.004 157.826 23.8579C157.751 23.8453 157.673 23.8328 157.594 23.8224C154.784 23.3818 153.379 22.15 153.379 20.1268C153.379 19.1016 153.828 18.254 154.721 17.5816C154.734 17.5691 154.748 17.5587 154.761 17.5503C155.692 16.8634 156.801 16.521 158.089 16.521C159.377 16.521 160.329 16.7402 161.073 17.1808C161.814 17.6192 162.377 18.2623 162.768 19.11L161.933 19.4816L160.158 20.273C159.974 19.8554 159.699 19.5485 159.331 19.3543H159.327C159.193 19.2812 159.047 19.2227 158.887 19.1831C158.669 19.1288 158.429 19.0996 158.166 19.0996C157.659 19.0996 157.241 19.1977 156.909 19.3919C156.588 19.586 156.427 19.8408 156.427 20.1539C156.427 20.5172 156.621 20.797 157.012 20.9912C157.218 21.0893 157.513 21.1854 157.901 21.2772C158.248 21.3587 158.665 21.438 159.156 21.5132C160.131 21.6656 160.937 21.8932 161.572 22.1917C161.949 22.3713 162.269 22.5759 162.524 22.8077C163.208 23.4257 163.553 24.2859 163.553 25.3862Z" fill="black"/>
<path d="M174.945 25.3862C174.945 25.4029 174.945 25.4217 174.945 25.4384C174.932 26.5659 174.435 27.4992 173.458 28.2425C172.477 28.9858 171.241 29.3595 169.748 29.3595C168.343 29.3595 167.167 29.0755 166.217 28.5097C165.292 27.9522 164.609 27.1484 164.169 26.1045L165.71 25.4196L166.856 24.9081C167.449 26.0543 168.445 26.6285 169.848 26.6285C170.474 26.6285 170.961 26.5179 171.31 26.2986C171.664 26.0773 171.842 25.7892 171.842 25.4342C171.842 24.9958 171.635 24.6555 171.222 24.4195C170.846 24.1919 170.178 24.004 169.217 23.8579C169.142 23.8453 169.065 23.8328 168.986 23.8224C166.175 23.3818 164.77 22.15 164.77 20.1268C164.77 19.1016 165.219 18.254 166.113 17.5816C166.125 17.5691 166.14 17.5587 166.152 17.5503C167.084 16.8634 168.192 16.521 169.481 16.521C170.769 16.521 171.721 16.7402 172.464 17.1808C173.205 17.6192 173.769 18.2623 174.16 19.11L173.324 19.4816L171.55 20.273C171.366 19.8554 171.09 19.5485 170.723 19.3543H170.719C170.585 19.2812 170.439 19.2227 170.278 19.1831C170.061 19.1288 169.821 19.0996 169.558 19.0996C169.05 19.0996 168.633 19.1977 168.301 19.3919C167.979 19.586 167.819 19.8408 167.819 20.1539C167.819 20.5172 168.013 20.797 168.403 20.9912C168.61 21.0893 168.904 21.1854 169.293 21.2772C169.639 21.3587 170.057 21.438 170.547 21.5132C171.523 21.6656 172.328 21.8932 172.963 22.1917C173.341 22.3713 173.661 22.5759 173.915 22.8077C174.6 23.4257 174.945 24.2859 174.945 25.3862Z" fill="black"/>
<defs>
<filter id="filter0_ii_1653_6715" x="0" y="5.25732" width="21.2129" height="33.8213" filterUnits="userSpaceOnUse" color-interpolation-filters="sRGB">
<feFlood flood-opacity="0" result="BackgroundImageFix"/>
<feBlend mode="normal" in="SourceGraphic" in2="BackgroundImageFix" result="shape"/>
<feColorMatrix in="SourceAlpha" type="matrix" values="0 0 0 0 0 0 0 0 0 0 0 0 0 0 0 0 0 0 127 0" result="hardAlpha"/>
<feOffset dy="4.33597"/>
<feGaussianBlur stdDeviation="2.16799"/>
<feComposite in2="hardAlpha" operator="arithmetic" k2="-1" k3="1"/>
<feColorMatrix type="matrix" values="0 0 0 0 1 0 0 0 0 1 0 0 0 0 1 0 0 0 0.24 0"/>
<feBlend mode="normal" in2="shape" result="effect1_innerShadow_1653_6715"/>
<feColorMatrix in="SourceAlpha" type="matrix" values="0 0 0 0 0 0 0 0 0 0 0 0 0 0 0 0 0 0 127 0" result="hardAlpha"/>
<feOffset/>
<feGaussianBlur stdDeviation="8.88874"/>
<feComposite in2="hardAlpha" operator="arithmetic" k2="-1" k3="1"/>
<feColorMatrix type="matrix" values="0 0 0 0 0.875 0 0 0 0 0.105 0 0 0 0 0.105 0 0 0 0.25 0"/>
<feBlend mode="normal" in2="effect1_innerShadow_1653_6715" result="effect2_innerShadow_1653_6715"/>
</filter>
<filter id="filter1_ii_1653_6715" x="16.4316" y="5.25732" width="29.4854" height="33.8213" filterUnits="userSpaceOnUse" color-interpolation-filters="sRGB">
<feFlood flood-opacity="0" result="BackgroundImageFix"/>
<feBlend mode="normal" in="SourceGraphic" in2="BackgroundImageFix" result="shape"/>
<feColorMatrix in="SourceAlpha" type="matrix" values="0 0 0 0 0 0 0 0 0 0 0 0 0 0 0 0 0 0 127 0" result="hardAlpha"/>
<feOffset dy="4.33597"/>
<feGaussianBlur stdDeviation="2.16799"/>
<feComposite in2="hardAlpha" operator="arithmetic" k2="-1" k3="1"/>
<feColorMatrix type="matrix" values="0 0 0 0 1 0 0 0 0 1 0 0 0 0 1 0 0 0 0.24 0"/>
<feBlend mode="normal" in2="shape" result="effect1_innerShadow_1653_6715"/>
<feColorMatrix in="SourceAlpha" type="matrix" values="0 0 0 0 0 0 0 0 0 0 0 0 0 0 0 0 0 0 127 0" result="hardAlpha"/>
<feOffset/>
<feGaussianBlur stdDeviation="8.88874"/>
<feComposite in2="hardAlpha" operator="arithmetic" k2="-1" k3="1"/>
<feColorMatrix type="matrix" values="0 0 0 0 0.875 0 0 0 0 0.105 0 0 0 0 0.105 0 0 0 0.25 0"/>
<feBlend mode="normal" in2="effect1_innerShadow_1653_6715" result="effect2_innerShadow_1653_6715"/>
</filter>
<filter id="filter2_ii_1653_6715" x="47.5137" y="10.6377" width="8.36816" height="23.0601" filterUnits="userSpaceOnUse" color-interpolation-filters="sRGB">
<feFlood flood-opacity="0" result="BackgroundImageFix"/>
<feBlend mode="normal" in="SourceGraphic" in2="BackgroundImageFix" result="shape"/>
<feColorMatrix in="SourceAlpha" type="matrix" values="0 0 0 0 0 0 0 0 0 0 0 0 0 0 0 0 0 0 127 0" result="hardAlpha"/>
<feOffset dy="4.33597"/>
<feGaussianBlur stdDeviation="2.16799"/>
<feComposite in2="hardAlpha" operator="arithmetic" k2="-1" k3="1"/>
<feColorMatrix type="matrix" values="0 0 0 0 1 0 0 0 0 1 0 0 0 0 1 0 0 0 0.24 0"/>
<feBlend mode="normal" in2="shape" result="effect1_innerShadow_1653_6715"/>
<feColorMatrix in="SourceAlpha" type="matrix" values="0 0 0 0 0 0 0 0 0 0 0 0 0 0 0 0 0 0 127 0" result="hardAlpha"/>
<feOffset/>
<feGaussianBlur stdDeviation="8.88874"/>
<feComposite in2="hardAlpha" operator="arithmetic" k2="-1" k3="1"/>
<feColorMatrix type="matrix" values="0 0 0 0 0.875 0 0 0 0 0.105 0 0 0 0 0.105 0 0 0 0.25 0"/>
<feBlend mode="normal" in2="effect1_innerShadow_1653_6715" result="effect2_innerShadow_1653_6715"/>
</filter>
<linearGradient id="paint0_linear_1653_6715" x1="-3.06711" y1="28.813" x2="70.7609" y2="-7.72086" gradientUnits="userSpaceOnUse">
<stop stop-color="#FF4E4E"/>
<stop offset="1" stop-color="#FCA31B"/>
</linearGradient>
<linearGradient id="paint1_linear_1653_6715" x1="10.2202" y1="32.7174" x2="55.7071" y2="5.10922" gradientUnits="userSpaceOnUse">
<stop stop-color="#FF4E4E"/>
<stop offset="1" stop-color="#FCA31B"/>
</linearGradient>
<linearGradient id="paint2_linear_1653_6715" x1="-0.0944827" y1="17.7386" x2="79.7633" y2="21.2233" gradientUnits="userSpaceOnUse">
<stop stop-color="#FF4E4E"/>
<stop offset="1" stop-color="#FCA31B"/>
</linearGradient>
</defs>
</svg>
