<svg width="36" height="28" viewBox="0 0 36 28" fill="none" xmlns="http://www.w3.org/2000/svg">
<path d="M27.5 12.1367C27.5 12.4705 27.401 12.7967 27.2156 13.0742C27.0302 13.3518 26.7666 13.568 26.4583 13.6958C26.1499 13.8235 25.8106 13.8569 25.4833 13.7918C25.1559 13.7267 24.8553 13.566 24.6193 13.33C24.3833 13.094 24.2225 12.7933 24.1574 12.4659C24.0923 12.1386 24.1257 11.7993 24.2535 11.4909C24.3812 11.1826 24.5975 10.919 24.875 10.7336C25.1525 10.5482 25.4787 10.4492 25.8125 10.4492C26.2601 10.4492 26.6893 10.627 27.0057 10.9435C27.3222 11.2599 27.5 11.6892 27.5 12.1367ZM21.875 4.82422H16.25C15.9516 4.82422 15.6655 4.94275 15.4545 5.15372C15.2435 5.3647 15.125 5.65085 15.125 5.94922C15.125 6.24759 15.2435 6.53374 15.4545 6.74471C15.6655 6.95569 15.9516 7.07422 16.25 7.07422H21.875C22.1734 7.07422 22.4595 6.95569 22.6705 6.74471C22.8815 6.53374 23 6.24759 23 5.94922C23 5.65085 22.8815 5.3647 22.6705 5.15372C22.4595 4.94275 22.1734 4.82422 21.875 4.82422ZM35.375 11.5742V16.0742C35.375 16.9693 35.0194 17.8278 34.3865 18.4607C33.7536 19.0936 32.8951 19.4492 32 19.4492H31.6681L29.3886 25.8308C29.2325 26.2679 28.9451 26.646 28.5657 26.9134C28.1863 27.1808 27.7335 27.3243 27.2694 27.3242H25.4806C25.0165 27.3243 24.5637 27.1808 24.1843 26.9134C23.8049 26.646 23.5175 26.2679 23.3614 25.8308L23.0914 25.0742H15.0336L14.7636 25.8308C14.6075 26.2679 14.3201 26.646 13.9407 26.9134C13.5613 27.1808 13.1085 27.3243 12.6444 27.3242H10.8556C10.3915 27.3243 9.93869 27.1808 9.5593 26.9134C9.1799 26.646 8.89247 26.2679 8.73641 25.8308L6.96875 20.8864C5.28713 18.9832 4.23417 16.6071 3.95375 14.083C3.59069 14.2737 3.28665 14.56 3.07449 14.9109C2.86233 15.2619 2.75013 15.6641 2.75 16.0742C2.75 16.3726 2.63147 16.6587 2.4205 16.8697C2.20952 17.0807 1.92337 17.1992 1.625 17.1992C1.32663 17.1992 1.04048 17.0807 0.829505 16.8697C0.618526 16.6587 0.5 16.3726 0.5 16.0742C0.501719 15.071 0.838657 14.097 1.45728 13.3072C2.07591 12.5173 2.94074 11.9569 3.91438 11.7148C4.1657 8.61452 5.57378 5.7221 7.85902 3.61192C10.1443 1.50175 13.1395 0.328168 16.25 0.324219H30.875C31.1734 0.324219 31.4595 0.442745 31.6705 0.653724C31.8815 0.864702 32 1.15085 32 1.44922C32 1.74759 31.8815 2.03374 31.6705 2.24471C31.4595 2.45569 31.1734 2.57422 30.875 2.57422H27.867C29.734 3.88414 31.2024 5.68489 32.1097 7.77734C32.1702 7.91797 32.2292 8.05859 32.2855 8.19922C33.1302 8.27092 33.917 8.65791 34.4895 9.28325C35.0619 9.90858 35.378 10.7264 35.375 11.5742ZM33.125 11.5742C33.125 11.2759 33.0065 10.9897 32.7955 10.7787C32.5845 10.5677 32.2984 10.4492 32 10.4492H31.4853C31.2457 10.4495 31.0123 10.3732 30.819 10.2316C30.6258 10.0899 30.4828 9.89028 30.4109 9.66172C29.7664 7.60484 28.4814 5.80778 26.7434 4.53277C25.0054 3.25776 22.9055 2.57153 20.75 2.57422H16.25C14.2851 2.57412 12.3626 3.14576 10.7169 4.21945C9.07128 5.29314 7.7736 6.82247 6.98215 8.62095C6.19069 10.4194 5.93965 12.4094 6.25963 14.3481C6.57961 16.2868 7.4568 18.0905 8.78422 19.5392C8.88573 19.6496 8.96414 19.7792 9.01484 19.9203L10.8556 25.0742H12.6444L13.1816 23.5709C13.2596 23.3525 13.4032 23.1635 13.5927 23.0298C13.7823 22.8962 14.0085 22.8243 14.2405 22.8242H23.8845C24.1165 22.8243 24.3427 22.8962 24.5323 23.0298C24.7218 23.1635 24.8654 23.3525 24.9434 23.5709L25.4806 25.0742H27.2694L29.8161 17.9459C29.8941 17.7275 30.0377 17.5385 30.2273 17.4048C30.4168 17.2712 30.6431 17.1993 30.875 17.1992H32C32.2984 17.1992 32.5845 17.0807 32.7955 16.8697C33.0065 16.6587 33.125 16.3726 33.125 16.0742V11.5742Z" fill="#16161C"/>
</svg>
