<svg width="96" height="16" viewBox="0 0 96 16" fill="none" xmlns="http://www.w3.org/2000/svg">
<path d="M14.6565 7.14887L11.8377 9.60887L12.6821 13.2714C12.7268 13.4628 12.714 13.6632 12.6454 13.8475C12.5768 14.0317 12.4555 14.1917 12.2965 14.3073C12.1375 14.423 11.9479 14.4892 11.7515 14.4977C11.555 14.5062 11.3605 14.4566 11.1921 14.3551L7.99771 12.4176L4.81021 14.3551C4.64182 14.4566 4.44724 14.5062 4.25082 14.4977C4.05439 14.4892 3.86483 14.423 3.70583 14.3073C3.54683 14.1917 3.42545 14.0317 3.35686 13.8475C3.28828 13.6632 3.27553 13.4628 3.32021 13.2714L4.16333 9.61262L1.34396 7.14887C1.19484 7.02026 1.08701 6.85048 1.03399 6.66084C0.980978 6.47119 0.985134 6.27011 1.04594 6.08281C1.10675 5.89552 1.2215 5.73034 1.37581 5.608C1.53011 5.48567 1.71711 5.41161 1.91333 5.39512L5.62958 5.07324L7.08021 1.61324C7.15596 1.43169 7.28374 1.27661 7.44745 1.16753C7.61116 1.05845 7.80349 1.00024 8.00021 1.00024C8.19693 1.00024 8.38926 1.05845 8.55297 1.16753C8.71668 1.27661 8.84446 1.43169 8.92021 1.61324L10.3752 5.07324L14.0902 5.39512C14.2864 5.41161 14.4734 5.48567 14.6277 5.608C14.782 5.73034 14.8968 5.89552 14.9576 6.08281C15.0184 6.27011 15.0226 6.47119 14.9695 6.66084C14.9165 6.85048 14.8087 7.02026 14.6596 7.14887H14.6565Z" fill="#FFD644"/>
<path d="M34.6565 7.14887L31.8377 9.60887L32.6821 13.2714C32.7268 13.4628 32.714 13.6632 32.6454 13.8475C32.5768 14.0317 32.4555 14.1917 32.2965 14.3073C32.1375 14.423 31.9479 14.4892 31.7515 14.4977C31.555 14.5062 31.3605 14.4566 31.1921 14.3551L27.9977 12.4176L24.8102 14.3551C24.6418 14.4566 24.4472 14.5062 24.2508 14.4977C24.0544 14.4892 23.8648 14.423 23.7058 14.3073C23.5468 14.1917 23.4255 14.0317 23.3569 13.8475C23.2883 13.6632 23.2755 13.4628 23.3202 13.2714L24.1633 9.61262L21.344 7.14887C21.1948 7.02026 21.087 6.85048 21.034 6.66084C20.981 6.47119 20.9851 6.27011 21.0459 6.08281C21.1067 5.89552 21.2215 5.73034 21.3758 5.608C21.5301 5.48567 21.7171 5.41161 21.9133 5.39512L25.6296 5.07324L27.0802 1.61324C27.156 1.43169 27.2837 1.27661 27.4475 1.16753C27.6112 1.05845 27.8035 1.00024 28.0002 1.00024C28.1969 1.00024 28.3893 1.05845 28.553 1.16753C28.7167 1.27661 28.8445 1.43169 28.9202 1.61324L30.3752 5.07324L34.0902 5.39512C34.2864 5.41161 34.4734 5.48567 34.6277 5.608C34.782 5.73034 34.8968 5.89552 34.9576 6.08281C35.0184 6.27011 35.0226 6.47119 34.9695 6.66084C34.9165 6.85048 34.8087 7.02026 34.6596 7.14887H34.6565Z" fill="#FFD644"/>
<path d="M54.6565 7.14887L51.8377 9.60887L52.6821 13.2714C52.7268 13.4628 52.714 13.6632 52.6454 13.8475C52.5768 14.0317 52.4555 14.1917 52.2965 14.3073C52.1375 14.423 51.9479 14.4892 51.7515 14.4977C51.555 14.5062 51.3605 14.4566 51.1921 14.3551L47.9977 12.4176L44.8102 14.3551C44.6418 14.4566 44.4472 14.5062 44.2508 14.4977C44.0544 14.4892 43.8648 14.423 43.7058 14.3073C43.5468 14.1917 43.4255 14.0317 43.3569 13.8475C43.2883 13.6632 43.2755 13.4628 43.3202 13.2714L44.1633 9.61262L41.344 7.14887C41.1948 7.02026 41.087 6.85048 41.034 6.66084C40.981 6.47119 40.9851 6.27011 41.0459 6.08281C41.1067 5.89552 41.2215 5.73034 41.3758 5.608C41.5301 5.48567 41.7171 5.41161 41.9133 5.39512L45.6296 5.07324L47.0802 1.61324C47.156 1.43169 47.2837 1.27661 47.4475 1.16753C47.6112 1.05845 47.8035 1.00024 48.0002 1.00024C48.1969 1.00024 48.3893 1.05845 48.553 1.16753C48.7167 1.27661 48.8445 1.43169 48.9202 1.61324L50.3752 5.07324L54.0902 5.39512C54.2864 5.41161 54.4734 5.48567 54.6277 5.608C54.782 5.73034 54.8968 5.89552 54.9576 6.08281C55.0184 6.27011 55.0226 6.47119 54.9695 6.66084C54.9165 6.85048 54.8087 7.02026 54.6596 7.14887H54.6565Z" fill="#FFD644"/>
<path d="M74.6565 7.14887L71.8377 9.60887L72.6821 13.2714C72.7268 13.4628 72.714 13.6632 72.6454 13.8475C72.5768 14.0317 72.4555 14.1917 72.2965 14.3073C72.1375 14.423 71.9479 14.4892 71.7515 14.4977C71.555 14.5062 71.3605 14.4566 71.1921 14.3551L67.9977 12.4176L64.8102 14.3551C64.6418 14.4566 64.4472 14.5062 64.2508 14.4977C64.0544 14.4892 63.8648 14.423 63.7058 14.3073C63.5468 14.1917 63.4255 14.0317 63.3569 13.8475C63.2883 13.6632 63.2755 13.4628 63.3202 13.2714L64.1633 9.61262L61.344 7.14887C61.1948 7.02026 61.087 6.85048 61.034 6.66084C60.981 6.47119 60.9851 6.27011 61.0459 6.08281C61.1067 5.89552 61.2215 5.73034 61.3758 5.608C61.5301 5.48567 61.7171 5.41161 61.9133 5.39512L65.6296 5.07324L67.0802 1.61324C67.156 1.43169 67.2837 1.27661 67.4475 1.16753C67.6112 1.05845 67.8035 1.00024 68.0002 1.00024C68.1969 1.00024 68.3893 1.05845 68.553 1.16753C68.7167 1.27661 68.8445 1.43169 68.9202 1.61324L70.3752 5.07324L74.0902 5.39512C74.2864 5.41161 74.4734 5.48567 74.6277 5.608C74.782 5.73034 74.8968 5.89552 74.9576 6.08281C75.0184 6.27011 75.0226 6.47119 74.9695 6.66084C74.9165 6.85048 74.8087 7.02026 74.6596 7.14887H74.6565Z" fill="#FFD644"/>
<path d="M94.6565 7.14887L91.8377 9.60887L92.6821 13.2714C92.7268 13.4628 92.714 13.6632 92.6454 13.8475C92.5768 14.0317 92.4555 14.1917 92.2965 14.3073C92.1375 14.423 91.9479 14.4892 91.7515 14.4977C91.555 14.5062 91.3605 14.4566 91.1921 14.3551L87.9977 12.4176L84.8102 14.3551C84.6418 14.4566 84.4472 14.5062 84.2508 14.4977C84.0544 14.4892 83.8648 14.423 83.7058 14.3073C83.5468 14.1917 83.4255 14.0317 83.3569 13.8475C83.2883 13.6632 83.2755 13.4628 83.3202 13.2714L84.1633 9.61262L81.344 7.14887C81.1948 7.02026 81.087 6.85048 81.034 6.66084C80.981 6.47119 80.9851 6.27011 81.0459 6.08281C81.1067 5.89552 81.2215 5.73034 81.3758 5.608C81.5301 5.48567 81.7171 5.41161 81.9133 5.39512L85.6296 5.07324L87.0802 1.61324C87.156 1.43169 87.2837 1.27661 87.4475 1.16753C87.6112 1.05845 87.8035 1.00024 88.0002 1.00024C88.1969 1.00024 88.3893 1.05845 88.553 1.16753C88.7167 1.27661 88.8445 1.43169 88.9202 1.61324L90.3752 5.07324L94.0902 5.39512C94.2864 5.41161 94.4734 5.48567 94.6277 5.608C94.782 5.73034 94.8968 5.89552 94.9576 6.08281C95.0184 6.27011 95.0226 6.47119 94.9695 6.66084C94.9165 6.85048 94.8087 7.02026 94.6596 7.14887H94.6565Z" fill="#FFD644"/>
</svg>
