<svg width="28" height="29" viewBox="0 0 28 29" fill="none" xmlns="http://www.w3.org/2000/svg">
<path d="M25.25 0.484863H2.75C2.15326 0.484863 1.58097 0.721916 1.15901 1.14387C0.737053 1.56583 0.5 2.13813 0.5 2.73486V11.0008C0.5 23.6022 11.1622 27.783 13.2969 28.4931C13.7528 28.6482 14.2472 28.6482 14.7031 28.4931C16.8406 27.783 27.5 23.6022 27.5 11.0008V2.73486C27.5 2.13813 27.2629 1.56583 26.841 1.14387C26.419 0.721916 25.8467 0.484863 25.25 0.484863ZM25.25 11.0022C25.25 22.03 15.9195 25.7144 14 26.3556C12.0973 25.7214 2.75 22.0399 2.75 11.0022V2.73486H25.25V11.0022ZM7.57906 14.7808C7.36797 14.5697 7.24937 14.2834 7.24937 13.9849C7.24937 13.6863 7.36797 13.4 7.57906 13.1889C7.79016 12.9778 8.07647 12.8592 8.375 12.8592C8.67353 12.8592 8.95984 12.9778 9.17094 13.1889L11.75 15.768L18.8291 8.68893C18.9336 8.5844 19.0577 8.50149 19.1942 8.44492C19.3308 8.38835 19.4772 8.35924 19.625 8.35924C19.7728 8.35924 19.9192 8.38835 20.0558 8.44492C20.1923 8.50149 20.3164 8.5844 20.4209 8.68893C20.5255 8.79345 20.6084 8.91754 20.6649 9.0541C20.7215 9.19067 20.7506 9.33704 20.7506 9.48486C20.7506 9.63268 20.7215 9.77905 20.6649 9.91562C20.6084 10.0522 20.5255 10.1763 20.4209 10.2808L12.5459 18.1558C12.4415 18.2604 12.3174 18.3434 12.1808 18.4C12.0442 18.4566 11.8978 18.4857 11.75 18.4857C11.6022 18.4857 11.4558 18.4566 11.3192 18.4C11.1826 18.3434 11.0585 18.2604 10.9541 18.1558L7.57906 14.7808Z" fill="#16161C"/>
</svg>
