<svg width="30" height="30" viewBox="0 0 30 30" fill="none" xmlns="http://www.w3.org/2000/svg">
<path d="M15 0.234863C12.1075 0.234863 9.27986 1.0926 6.87479 2.69962C4.46972 4.30664 2.5952 6.59075 1.48827 9.26312C0.381337 11.9355 0.091713 14.8761 0.656022 17.7131C1.22033 20.55 2.61323 23.156 4.65857 25.2013C6.70391 27.2466 9.30984 28.6395 12.1468 29.2038C14.9838 29.7682 17.9244 29.4785 20.5968 28.3716C23.2691 27.2647 25.5532 25.3901 27.1602 22.9851C28.7673 20.58 29.625 17.7524 29.625 14.8599C29.6209 10.9823 28.0788 7.26478 25.3369 4.52295C22.5951 1.78112 18.8775 0.238958 15 0.234863ZM15 27.2349C12.5525 27.2349 10.1599 26.5091 8.12482 25.1493C6.08977 23.7895 4.50363 21.8568 3.567 19.5956C2.63036 17.3343 2.3853 14.8461 2.86279 12.4456C3.34028 10.0451 4.51889 7.84009 6.24956 6.10942C7.98024 4.37874 10.1852 3.20014 12.5858 2.72265C14.9863 2.24515 17.4745 2.49022 19.7357 3.42685C21.997 4.36349 23.9297 5.94962 25.2894 7.98468C26.6492 10.0197 27.375 12.4123 27.375 14.8599C27.3713 18.1408 26.0663 21.2862 23.7463 23.6062C21.4264 25.9262 18.2809 27.2311 15 27.2349ZM24 14.8599C24 15.1582 23.8815 15.4444 23.6705 15.6554C23.4595 15.8663 23.1734 15.9849 22.875 15.9849H15C14.7016 15.9849 14.4155 15.8663 14.2045 15.6554C13.9935 15.4444 13.875 15.1582 13.875 14.8599V6.98486C13.875 6.68649 13.9935 6.40035 14.2045 6.18937C14.4155 5.97839 14.7016 5.85986 15 5.85986C15.2984 5.85986 15.5845 5.97839 15.7955 6.18937C16.0065 6.40035 16.125 6.68649 16.125 6.98486V13.7349H22.875C23.1734 13.7349 23.4595 13.8534 23.6705 14.0644C23.8815 14.2753 24 14.5615 24 14.8599Z" fill="#16161C"/>
</svg>
