<svg width="34" height="26" viewBox="0 0 34 26" fill="none" xmlns="http://www.w3.org/2000/svg">
<path d="M24.875 7.45564V6.67236C24.875 3.14549 19.5552 0.484863 12.5 0.484863C5.44484 0.484863 0.125 3.14549 0.125 6.67236V12.2974C0.125 15.235 3.81641 17.5694 9.125 18.2683V19.0474C9.125 22.5742 14.4448 25.2349 21.5 25.2349C28.5552 25.2349 33.875 22.5742 33.875 19.0474V13.4224C33.875 10.5114 30.3003 8.17424 24.875 7.45564ZM31.625 13.4224C31.625 15.2814 27.2952 17.3599 21.5 17.3599C20.9755 17.3599 20.4552 17.3416 19.9419 17.3078C22.9752 16.2025 24.875 14.4067 24.875 12.2974V9.72955C29.0755 10.3553 31.625 12.0541 31.625 13.4224ZM9.125 15.9888V12.6433C10.2441 12.7891 11.3715 12.8615 12.5 12.8599C13.6285 12.8615 14.7559 12.7891 15.875 12.6433V15.9888C14.7576 16.1538 13.6295 16.2361 12.5 16.2349C11.3705 16.2361 10.2424 16.1538 9.125 15.9888ZM22.625 10.3188V12.2974C22.625 13.4772 20.8798 14.7442 18.125 15.5135V12.2271C19.9405 11.7869 21.4775 11.1316 22.625 10.3188ZM12.5 2.73486C18.2952 2.73486 22.625 4.8133 22.625 6.67236C22.625 8.53143 18.2952 10.6099 12.5 10.6099C6.70484 10.6099 2.375 8.53143 2.375 6.67236C2.375 4.8133 6.70484 2.73486 12.5 2.73486ZM2.375 12.2974V10.3188C3.5225 11.1316 5.05953 11.7869 6.875 12.2271V15.5135C4.12016 14.7442 2.375 13.4772 2.375 12.2974ZM11.375 19.0474V18.461C11.7448 18.475 12.1189 18.4849 12.5 18.4849C13.0456 18.4849 13.5786 18.4666 14.1017 18.4356C14.6829 18.6437 15.2748 18.8202 15.875 18.9644V22.2635C13.1202 21.4942 11.375 20.2272 11.375 19.0474ZM18.125 22.7388V19.3849C19.2437 19.5352 20.3712 19.6104 21.5 19.6099C22.6285 19.6115 23.7559 19.5391 24.875 19.3933V22.7388C22.637 23.0669 20.363 23.0669 18.125 22.7388ZM27.125 22.2635V18.9771C28.9405 18.5369 30.4775 17.8816 31.625 17.0688V19.0474C31.625 20.2272 29.8798 21.4942 27.125 22.2635Z" fill="#16161C"/>
</svg>
