<svg width="32" height="31" viewBox="0 0 32 31" fill="none" xmlns="http://www.w3.org/2000/svg">
<path d="M31.6367 11.5415C31.5005 11.1216 31.2437 10.751 30.8984 10.4759C30.5531 10.2009 30.1345 10.0335 29.6947 9.9946L21.343 9.2746L18.0693 1.4896C17.8988 1.08111 17.6113 0.732178 17.243 0.486746C16.8746 0.241313 16.4419 0.110352 15.9993 0.110352C15.5566 0.110352 15.1239 0.241313 14.7555 0.486746C14.3872 0.732178 14.0997 1.08111 13.9292 1.4896L10.6653 9.2746L2.30378 9.99882C1.86227 10.0359 1.44154 10.2026 1.09435 10.4778C0.747158 10.7531 0.488965 11.1247 0.352148 11.5461C0.215331 11.9675 0.205979 12.42 0.325266 12.8467C0.444553 13.2734 0.687168 13.6554 1.02269 13.9448L7.36628 19.4882L5.46503 27.7204C5.3645 28.1512 5.39318 28.6021 5.5475 29.0166C5.70182 29.4312 5.97493 29.7911 6.33268 30.0513C6.69043 30.3115 7.11694 30.4605 7.5589 30.4796C8.00086 30.4987 8.43865 30.3872 8.81753 30.1588L15.9894 25.7994L23.1767 30.1588C23.5556 30.3872 23.9934 30.4987 24.4354 30.4796C24.8773 30.4605 25.3039 30.3115 25.6616 30.0513C26.0193 29.7911 26.2925 29.4312 26.4468 29.0166C26.6011 28.6021 26.6298 28.1512 26.5292 27.7204L24.6294 19.4798L30.9716 13.9448C31.3071 13.6544 31.5492 13.2713 31.6676 12.8437C31.7859 12.4161 31.7752 11.963 31.6367 11.5415ZM29.4964 12.2446L23.1542 17.7796C22.8456 18.0481 22.616 18.3957 22.4901 18.7849C22.3642 19.1742 22.3469 19.5904 22.4399 19.9888L24.3453 28.2351L17.1636 23.8757C16.8132 23.6623 16.4109 23.5494 16.0007 23.5494C15.5904 23.5494 15.1881 23.6623 14.8377 23.8757L7.66581 28.2351L9.55863 19.9944C9.65165 19.5961 9.63429 19.1798 9.50842 18.7906C9.38254 18.4013 9.15292 18.0537 8.84425 17.7852L2.49925 12.253C2.49873 12.2488 2.49873 12.2446 2.49925 12.2404L10.858 11.5176C11.2661 11.4816 11.6566 11.3349 11.9875 11.0933C12.3183 10.8516 12.5769 10.5243 12.7353 10.1465L15.9993 2.37132L19.2617 10.1465C19.4202 10.5243 19.6788 10.8516 20.0096 11.0933C20.3405 11.3349 20.731 11.4816 21.1391 11.5176L29.4992 12.2404C29.4992 12.2404 29.4992 12.2488 29.4992 12.2502L29.4964 12.2446Z" fill="#16161C"/>
</svg>
