<svg width="41" height="40" fill="none" xmlns="http://www.w3.org/2000/svg"><g clip-path="url(#clip0_2057_47960)"><rect x=".5" width="40" height="40" rx="20" fill="#fff"/><path d="M24.31 24.154c-.674 2.723-5.247 1.249-6.746.874l1.2-4.822c1.499.374 6.246 1.099 5.547 3.948zm-3.897-10.545l-1.1 4.373c1.25.3 5.072 1.574 5.697-.9.625-2.573-3.348-3.173-4.598-3.473zm19.49 11.194C37.227 35.497 26.383 42.02 15.664 39.37 4.971 36.697-1.575 25.853 1.098 15.158 3.77 4.44 14.616-2.057 25.335.591c10.694 2.674 17.24 13.518 14.567 24.212zM13.94 23.33c-.1.275-.375.675-1 .525-.1 0-1.599-.4-1.599-.4l-1.099 2.498 2.848.7c.55.15 1.05.275 1.575.425l-.9 3.623 2.174.55.9-3.598c.6.174 1.174.3 1.748.45l-.899 3.572 2.199.55.9-3.623c3.747.7 6.57.425 7.745-2.973.95-2.724-.05-4.298-2.024-5.323 1.424-.324 2.499-1.274 2.799-3.223.4-2.648-1.624-4.097-4.398-5.022l.9-3.623-2.2-.55-.874 3.498c-.574-.15-1.174-.274-1.774-.424l.875-3.523-2.174-.55-.9 3.598c-.474-.1-.95-.225-1.399-.325l-3.023-.775-.575 2.35s1.6.374 1.6.399c.874.225 1.024.8 1.024 1.274l-2.474 9.87.025.05z" fill="#F7931A"/></g><defs><clipPath id="clip0_2057_47960"><rect x=".5" width="40" height="40" rx="20" fill="#fff"/></clipPath></defs></svg>