<svg width="40" height="40" fill="none" xmlns="http://www.w3.org/2000/svg"><g clip-path="url(#clip0_1653_8920)"><path d="M20 0c11.047 0 20 8.955 20 20 0 11.047-8.953 20-20 20C8.955 40 0 31.046 0 20 0 8.955 8.955 0 20 0z" fill="#F5AC37"/><path d="M20.737 21.412h7.6c.162 0 .239 0 .25-.212.062-.773.062-1.55 0-2.325 0-.15-.075-.212-.237-.212H13.225c-.187 0-.238.062-.238.237v2.225c0 .287 0 .287.3.287h7.45zm7.002-5.35a.243.243 0 0 0 0-.174 4.943 4.943 0 0 0-.452-.787 6.377 6.377 0 0 0-.925-1.163 3.067 3.067 0 0 0-.576-.563 8.985 8.985 0 0 0-3.75-1.9 9.322 9.322 0 0 0-2.125-.225H13.2c-.187 0-.213.075-.213.238v4.437c0 .187 0 .238.238.238h14.424s.126-.026.15-.1h-.06zm0 7.95a2.917 2.917 0 0 0-.64 0H13.238c-.188 0-.25 0-.25.25v4.339c0 .2 0 .25.25.25h6.4c.305.023.611.002.911-.062a9.527 9.527 0 0 0 2.714-.6c.316-.11.623-.253.911-.425h.088a8.12 8.12 0 0 0 3.487-3.511s.088-.19-.01-.239v-.002zM10.474 31.1v-6.912c0-.163 0-.187-.2-.187h-2.71c-.15 0-.212 0-.212-.2v-2.375h2.9c.161 0 .224 0 .224-.213v-2.35c0-.15 0-.187-.2-.187H7.564c-.15 0-.212 0-.212-.2v-2.2c0-.137 0-.174.2-.174h2.687c.187 0 .237 0 .237-.237V9.127c0-.2 0-.25.25-.25H20.1c.68.027 1.356.102 2.025.225a12.23 12.23 0 0 1 3.913 1.45 11.026 11.026 0 0 1 2.2 1.7c.494.514.94 1.07 1.337 1.662.393.6.72 1.242.976 1.913a.325.325 0 0 0 .373.263h2.238c.287 0 .287 0 .3.275v2.05c0 .2-.075.25-.276.25h-1.725c-.175 0-.225 0-.212.226a12.77 12.77 0 0 1 0 2.286c0 .213 0 .238.238.238h1.974c.087.113 0 .225 0 .338.012.145.012.292 0 .437v1.513c0 .212-.062.275-.25.275h-2.363a.313.313 0 0 0-.363.238 9.995 9.995 0 0 1-2.625 3.825 15.37 15.37 0 0 1-1.337 1.075c-.5.288-.988.587-1.5.825-.945.425-1.935.738-2.951.937a15.38 15.38 0 0 1-2.925.237h-8.675v-.012l.003-.003z" fill="#FEFEFD"/></g><defs><clipPath id="clip0_1653_8920"><path fill="#fff" d="M0 0h40v40H0z"/></clipPath></defs></svg>