<svg width="40" height="40" fill="none" xmlns="http://www.w3.org/2000/svg"><rect width="40" height="40" rx="20" fill="url(#paint0_linear_1687_4410)"/><path fill-rule="evenodd" clip-rule="evenodd" d="M26.07 10.993l2.721-2.034a13.823 13.823 0 0 0-8.794-3.147v.002A13.798 13.798 0 0 0 14.64 6.89a13.925 13.925 0 0 0-4.278 2.82A14.15 14.15 0 0 0 7.2 14.241 14.326 14.326 0 0 0 6 20v.004a14.306 14.306 0 0 0 1.064 5.428 14.16 14.16 0 0 0 2.745 4.296 13.97 13.97 0 0 0 4.511 3.244 13.801 13.801 0 0 0 5.631 1.217h.05a13.795 13.795 0 0 0 5.356-1.078 13.935 13.935 0 0 0 4.035-2.591l.002.002a14.14 14.14 0 0 0 3.406-4.765A14.303 14.303 0 0 0 34 20a14.433 14.433 0 0 0-.22-2.543l-3.013 2.25V20a11.01 11.01 0 0 1-.926 4.425 10.895 10.895 0 0 1-2.232 3.287v-.001a10.723 10.723 0 0 1-3.49 2.369 10.638 10.638 0 0 1-4.62.82l-.037-.004v.001a10.63 10.63 0 0 1-3.828-.925 10.725 10.725 0 0 1-3.244-2.26l.002-.002a10.859 10.859 0 0 1-2.338-3.536A10.99 10.99 0 0 1 9.234 20v-.044m0 0c.006-1.51.32-3.002.926-4.381a10.91 10.91 0 0 1 2.23-3.287l.002.002a10.716 10.716 0 0 1 3.489-2.37 10.608 10.608 0 0 1 4.116-.831h.028c.171 0 .343.007.513.015v-.002a10.62 10.62 0 0 1 5.531 1.89m6.687 3.154a14.233 14.233 0 0 0-1.678-2.821l-11.075 8.274-5.33-3.386v4.074l5.33 3.386 12.753-9.527z" fill="#fff"/><defs><linearGradient id="paint0_linear_1687_4410" x1="1.721" y1="20.559" x2="7.214" y2="6.272" gradientUnits="userSpaceOnUse"><stop stop-color="#A2CC39"/><stop offset=".07" stop-color="#A2CC39"/><stop offset=".26" stop-color="#81C45E"/><stop offset=".92" stop-color="#0FA7DF"/><stop offset="1" stop-color="#0FA7DF"/></linearGradient></defs></svg>