<svg width="79" height="79" fill="none" xmlns="http://www.w3.org/2000/svg"><g filter="url(#filter0_d_2057_42618)"><rect x="19.5" y="18" width="40" height="40" rx="20" fill="#fff" shape-rendering="crispEdges"/><path d="M30.844 43.334a.851.851 0 0 1 .602-.248h20.748c.379 0 .569.458.3.726l-4.098 4.098a.85.85 0 0 1-.602.249H27.046a.425.425 0 0 1-.3-.726l4.098-4.099z" fill="url(#paint0_linear_2057_42618)"/><path d="M30.844 28.032a.874.874 0 0 1 .602-.249h20.748c.379 0 .569.458.3.726l-4.098 4.099a.85.85 0 0 1-.602.248H27.046a.425.425 0 0 1-.3-.726l4.098-4.098z" fill="url(#paint1_linear_2057_42618)"/><path d="M48.396 35.634a.85.85 0 0 0-.602-.248H27.046a.425.425 0 0 0-.3.725l4.098 4.099a.85.85 0 0 0 .602.248h20.748a.424.424 0 0 0 .3-.725l-4.098-4.099z" fill="url(#paint2_linear_2057_42618)"/></g><defs><filter id="filter0_d_2057_42618" x=".452" y=".857" width="78.095" height="78.095" filterUnits="userSpaceOnUse" color-interpolation-filters="sRGB"><feFlood flood-opacity="0" result="BackgroundImageFix"/><feColorMatrix in="SourceAlpha" values="0 0 0 0 0 0 0 0 0 0 0 0 0 0 0 0 0 0 127 0" result="hardAlpha"/><feOffset dy="1.905"/><feGaussianBlur stdDeviation="9.524"/><feComposite in2="hardAlpha" operator="out"/><feColorMatrix values="0 0 0 0 0 0 0 0 0 0 0 0 0 0 0 0 0 0 0.11 0"/><feBlend in2="BackgroundImageFix" result="effect1_dropShadow_2057_42618"/><feBlend in="SourceGraphic" in2="effect1_dropShadow_2057_42618" result="shape"/></filter><linearGradient id="paint0_linear_2057_42618" x1="47.053" y1="31.386" x2="32.693" y2="58.89" gradientUnits="userSpaceOnUse"><stop stop-color="#00FFA3"/><stop offset="1" stop-color="#DC1FFF"/></linearGradient><linearGradient id="paint1_linear_2057_42618" x1="47.053" y1="16.083" x2="32.693" y2="43.587" gradientUnits="userSpaceOnUse"><stop stop-color="#00FFA3"/><stop offset="1" stop-color="#DC1FFF"/></linearGradient><linearGradient id="paint2_linear_2057_42618" x1="47.053" y1="23.685" x2="32.693" y2="51.19" gradientUnits="userSpaceOnUse"><stop stop-color="#00FFA3"/><stop offset="1" stop-color="#DC1FFF"/></linearGradient></defs></svg>