<svg width="41" height="40" fill="none" xmlns="http://www.w3.org/2000/svg"><rect width="40" height="40" rx="20" fill="#26A17B"/><path d="M20.12 40c11.046 0 20-8.954 20-20s-8.954-20-20-20-20 8.954-20 20 8.954 20 20 20z" fill="#26A17B"/><path d="M22.583 21.935v-.003c-.138.01-.852.052-2.44.052-1.27 0-2.161-.036-2.476-.052v.003c-4.885-.215-8.528-1.064-8.528-2.083 0-1.016 3.647-1.868 8.528-2.084v3.322c.318.022 1.234.077 2.498.077 1.518 0 2.277-.064 2.418-.077v-3.32c4.875.22 8.508 1.068 8.508 2.084s-3.637 1.865-8.508 2.084m0-4.512v-2.97h6.8V9.925H10.87v4.53h6.801v2.971c-5.527.254-9.682 1.348-9.682 2.66 0 1.311 4.158 2.405 9.682 2.662v9.524h4.916v-9.524c5.518-.254 9.666-1.347 9.666-2.66 0-1.308-4.148-2.404-9.666-2.658" fill="#fff"/></svg>