<svg width="41" height="40" fill="none" xmlns="http://www.w3.org/2000/svg"><rect x=".5" width="40" height="40" rx="20" fill="#fff"/><g clip-path="url(#clip0_2057_47834)"><path d="M36.18 19.024l.395-1.328-1.37.044a3.232 3.232 0 0 1-1.759-.604h.186a2.208 2.208 0 0 0 1.975-1.233l.59-1.308a10.53 10.53 0 0 1-1.42-.083 2.197 2.197 0 0 1-1.153-.699 2.186 2.186 0 0 0-1.58-.691 2.277 2.277 0 0 0-.691.11 2.55 2.55 0 0 0 .079-.324 2.935 2.935 0 0 0-.6-2.157l-1.028-1.276-.64 1.502a1.34 1.34 0 0 1-.45.529 2.785 2.785 0 0 0-.759-1.41 3.405 3.405 0 0 0-2.943-.992l-1.233.24c.108-.417.279-.817.506-1.184l.68-1.087-1.735.186-.549-1.185-1.067.549-.995-.944-.976.972-1.07-.55-.55 1.158-1.726-.198.687 1.083c.227.367.396.767.502 1.185L16.3 9.096h-.04a3.162 3.162 0 0 0-.497-.036 3.401 3.401 0 0 0-2.462 1.028 2.789 2.789 0 0 0-.762 1.41 1.323 1.323 0 0 1-.447-.518l-.64-1.505-1.047 1.284a2.955 2.955 0 0 0-.588 2.15c.02.109.046.217.079.323a2.252 2.252 0 0 0-.692-.11 2.19 2.19 0 0 0-1.58.691c-.3.345-.698.589-1.142.7a8.06 8.06 0 0 1-1.43.082l.589 1.308a2.213 2.213 0 0 0 1.975 1.232h.186a3.232 3.232 0 0 1-1.758.617l-1.395-.044.423 1.328a2.742 2.742 0 0 0 2.288 1.94 2.193 2.193 0 0 1-1.186 1.615l-1.039.427.57.988a2.516 2.516 0 0 0 2.14 1.157c.226 0 .451-.024.672-.071.05.248.114.493.19.735a2.45 2.45 0 0 1 .04 1.616l-.514 1.074 1.145.3c.259.066.524.1.79.1.194-.003.386-.028.573-.076.135-.03.267-.07.395-.122.147.264.328.509.538.727.734.754 1.777 1.137 3.093 1.137h.94l-1.944.79 1.478.716c.593.294 1.201.557 1.821.79l-.185.505.51.233a7.986 7.986 0 0 0 2.65.554h1.213a7.972 7.972 0 0 0 2.635-.55l.51-.233-.186-.505a19.762 19.762 0 0 0 1.84-.818l1.45-.703-1.939-.79h.944c1.32 0 2.37-.395 3.098-1.138.21-.218.39-.462.537-.727.128.05.26.092.395.122.184.043.372.064.56.063.267 0 .533-.033.79-.098l1.154-.304-.501-1.055a2.433 2.433 0 0 1 .031-1.64c.08-.24.15-.486.206-.727.222.047.448.071.675.072a2.502 2.502 0 0 0 2.146-1.186l.56-.976-1.038-.426a2.185 2.185 0 0 1-1.186-1.616 2.766 2.766 0 0 0 2.288-1.94" fill="#fff"/><path d="M20.618 9.74c-1.102 0-1.927.363-2.105.79l2.105.83 2.11-.835c-.178-.426-1.004-.79-2.11-.79m.028 22.018h-.027a8.62 8.62 0 0 1-2.03-.26l-.546 1.445a9.326 9.326 0 0 0 5.167 0l-.533-1.442a8.648 8.648 0 0 1-2.03.26m4.033-1.434c-.578.29-1.18.53-1.797.72l.43 1.184c.69-.18 1.36-.43 2-.742l-.897-.297.264-.865zm-8.107 0l.265.866-.897.296c.64.312 1.308.561 1.995.742l.435-1.185c-.618-.19-1.22-.43-1.797-.719zM20.619 8.36a4.768 4.768 0 0 1 2.271.55c.068-.228.15-.45.245-.668l-.237.028-.248.028-.107-.226-.316-.667-.577.3-.225.115-.17-.166-.636-.636-.62.636-.17.162-.225-.115-.581-.3-.312.667-.107.226-.249-.028-.237-.028a5.8 5.8 0 0 1 .245.668 4.776 4.776 0 0 1 2.256-.545zm12.689 7.736a.99.99 0 0 0 .328.056 1.236 1.236 0 0 0 1.079-.652 3.041 3.041 0 0 1-1.79-.992 1.186 1.186 0 0 0-.873-.395 1.39 1.39 0 0 0-.727.222c1.118.596 1.347 1.552 1.976 1.765m-25.679.052c.11 0 .22-.019.324-.056.64-.213.869-1.185 1.975-1.765a1.39 1.39 0 0 0-.727-.222 1.186 1.186 0 0 0-.877.395 3.041 3.041 0 0 1-1.786.992 1.237 1.237 0 0 0 1.079.652" fill="#fff"/><path d="M33.608 19.98h.048c1.185 0 1.58-1.256 1.58-1.256h-.024a4.247 4.247 0 0 1-3.192-1.616c-.81-1.031-1.477-1.936-2.789-2.292l-.13-.023-.028-.13c-.036-.202.103-.396.395-.593 1.813-1.186.58-2.699.58-2.699s-.517 1.21-1.674 1.21h-.087a2.458 2.458 0 0 1-.395-.04l-.214-.04a1.722 1.722 0 0 0-.466-1.722 2.41 2.41 0 0 0-2.098-.7c.395.522.692 1.391.23 1.928-.396.463-1.375.482-1.375 1.186 0 .292.272.628.758.932 1.466.924 2.92 2.15 3.528 3.789.755 2.046-.095 3.405-1.311 4.187.264.223.588.36.932.395h.324a2.765 2.765 0 0 0 1.77-.549 3.08 3.08 0 0 1-.66 1.462 3.018 3.018 0 0 1-2.418 1.047 1.294 1.294 0 0 0 .443.976c.315.211.674.346 1.05.395 0 0-1.374.28-1.528 2.31a3.11 3.11 0 0 1-.364 1.482h.024c3.192 0 3.109-2.738 3.109-2.738a1.549 1.549 0 0 0 1.446 1.063 2.3 2.3 0 0 0 .537-.067 3.354 3.354 0 0 1 0-2.37 5.586 5.586 0 0 0 .32-1.976 1.794 1.794 0 0 0 1.497.656 1.497 1.497 0 0 0 1.277-.671c-2.13-.885-1.917-3.734-1.917-3.734.245.15.527.228.814.225m-.64 2.98c-.865-.427-1.414-1.561-1.544-1.976-.13 2.228-1.233 3.785-2.501 5.286a4.78 4.78 0 0 0-.897 1.533c.105-.567.346-1.1.703-1.553 1.186-1.438 2.335-3.228 2.418-5.294a6.288 6.288 0 0 0-.893-3.579 3.22 3.22 0 0 1-.821 3.386s2.176-2.627-.905-5.318c-1.225-1.023-2.568-1.655-3.26-2.105 2.493.813 3.714-.084 3.714-.084a3.032 3.032 0 0 1-2.43.581c.174.083.356.174.55.277 2.101 1.142 3.994 3.022 4.314 5.626v-.02c.49 2.556 1.58 3.212 1.58 3.212m-20.125 2.844c.37-.043.726-.17 1.04-.371a1.297 1.297 0 0 0 .461-.972 3.025 3.025 0 0 1-2.421-1.047 3.101 3.101 0 0 1-.704-1.458 2.742 2.742 0 0 0 1.77.55h.328a1.73 1.73 0 0 0 .937-.396c-1.217-.79-2.07-2.137-1.316-4.188.604-1.64 2.062-2.868 3.528-3.788.486-.304.758-.644.758-.932 0-.688-.975-.708-1.374-1.186-.463-.537-.174-1.402.225-1.928a2.41 2.41 0 0 0-2.098.7 1.719 1.719 0 0 0-.466 1.722l-.213.044c-.13.023-.263.036-.396.04h-.083c-1.161 0-1.675-1.21-1.675-1.21s-1.212 1.501.6 2.69c.313.202.451.396.396.593l-.028.13-.13.024c-1.312.356-1.975 1.26-2.79 2.292a4.244 4.244 0 0 1-3.172 1.604h-.039s.395 1.256 1.58 1.256h.056a1.54 1.54 0 0 0 .813-.225s.21 2.848-1.92 3.733a1.502 1.502 0 0 0 1.276.672 1.793 1.793 0 0 0 1.498-.656 5.598 5.598 0 0 0 .32 1.975 3.362 3.362 0 0 1 0 2.37c.174.044.353.066.533.068a1.549 1.549 0 0 0 1.446-1.063s-.083 2.738 3.11 2.738h.023a3.128 3.128 0 0 1-.36-1.482c-.15-2.03-1.529-2.31-1.529-2.31m-.513.493c-1.28-1.501-2.37-3.058-2.525-5.306-.134.395-.68 1.541-1.544 1.976 0 0 1.086-.656 1.58-3.212v.02c.324-2.604 2.212-4.485 4.318-5.626a9.8 9.8 0 0 1 .55-.277 3.029 3.029 0 0 1-2.466-.58s1.217.896 3.713.082c-.679.455-2.018 1.087-3.243 2.11-3.066 2.69-.873 5.318-.873 5.318a3.22 3.22 0 0 1-.822-3.386 6.27 6.27 0 0 0-.893 3.58c.083 2.07 1.221 3.855 2.414 5.293.358.453.601.985.707 1.553a4.85 4.85 0 0 0-.9-1.533m5.898-10.505c.052.056.103.119.154.178l.036.044.138.19.032.043c.051.079.102.166.154.248a2.326 2.326 0 0 0 1.857 1.277A2.327 2.327 0 0 0 22.47 16.5c.052-.087.103-.174.159-.253l.023-.036c.048-.067.095-.134.142-.197l.032-.04a2.36 2.36 0 0 1 .158-.182l.024-.023a1.91 1.91 0 0 1 .88-.526l-.157-.083-.648-.395-.664-.395-1.801.988-1.778-.968-.664.395-.648.395-.166.095c.334.08.64.25.885.49l.028.027m1.64-.079h1.493v.518a.635.635 0 0 0-.522-.174v.743c-.002.184.042.366.127.53h-.727c.09-.161.14-.342.142-.526v-.743a.635.635 0 0 0-.521.174l.007-.522z" fill="#fff"/><path d="M20.473 14.713v-3.022l-1.924-.652.49 2.935 1.434.74zm-.395-2.28v.487l-.095-.044a1.186 1.186 0 0 1-.395-.225.876.876 0 0 1-.395-.589l.885.372zm2.12 1.542l.506-2.927-1.924.652v3.022l1.418-.747zm-1.003-1.54l.873-.368a.878.878 0 0 1-.395.589c-.116.1-.25.176-.395.225l-.09.043.007-.49zm-3.445 9.287c.172.055.35.083.53.083v-.055c.011-.036.02-.071.028-.107.028-.158.044-.318.047-.478a.672.672 0 0 1-.253-.269.336.336 0 0 0-.324-.221 1.047 1.047 0 0 0-.49.17.857.857 0 0 0 .443.873m4.274-1.6c-.355.395-1.059 1.067-1.09 1.098l-.044.044-2.208-.036a2.278 2.278 0 0 1-.071.542v.07l2.627.475c.272-.19 1.027-.743 1.32-.956a1.28 1.28 0 0 1-.186-.937 1.32 1.32 0 0 1-.332-.296" fill="#fff"/><path d="M22.305 17.459a2.256 2.256 0 0 1-1.687.75c-.08.005-.16.005-.24 0a1.772 1.772 0 0 1-.238-.035.897.897 0 0 0 .044.541.913.913 0 0 0 .553.459l.09.035v.099a.92.92 0 0 0 .724.85c.114-.12.217-.226.296-.313a.727.727 0 0 1 .138-.85 1.185 1.185 0 0 0 .577 1.186l.11.051-.031.119a.933.933 0 0 0 .58 1.157l.147.056-.063.142a.913.913 0 0 0 .422 1.185h1.632v-1.304a1.04 1.04 0 0 1-.893-.873.949.949 0 0 1-.624-.355.79.79 0 0 1-.04-.854c.004.265.1.52.273.72a.846.846 0 0 0 .537.256h.119v.123a.79.79 0 0 0 .628.727v-2.663a3.49 3.49 0 0 1 .265-1.209h-3.319zm-4.412 1.221l-.047 1.695.193.028.47-1.624-.237-.502-.379.403zm5.191 7.771h.047c.292.083.367 1.138.881 1.233a.665.665 0 0 0 .138 0 .396.396 0 0 0 .332-.178s-.257-.395-.45-.68c-.257-.36-.455-.79-.937-.79h-.035a.482.482 0 0 0-.253.083.991.991 0 0 0-.537-.162c-.22.027-.437.073-.648.138l-1.067-.106a.565.565 0 0 1-.348-.25v-.114a1.26 1.26 0 0 0-.952-1.252s.028-.166-.035-.23l-.237.285-.79-.395.553.644-.498.553a.147.147 0 0 0-.028.174l.202.178.257-.154a.117.117 0 0 1 .063 0h.272c.095 0 .194-.024.206-.119-.032.324-.332.885-.134 1.328l.146.335-.944-.134-.435.747a.6.6 0 0 0 0 .663l.166.206c.115-.116.21-.25.284-.395l-.075-.083a.158.158 0 0 1-.02-.206l.277-.458 1.114.261.06-.099a.324.324 0 0 1 .304-.162.99.99 0 0 1 .15 0c.292.06.59.091.889.095a1.271 1.271 0 0 0 .94-.288c.395.6 1.22.695 1.157 1l-.217 1.022c.142 0 .28 0 .395-.031l.206-1.067c.023-.114.043-.273.043-.273a1.977 1.977 0 0 1-.395-.454c-.146-.276-.067-.422-.201-.79a.158.158 0 0 1 .134-.083m-4.172-1.501a.093.093 0 0 1-.067-.032.094.094 0 0 1-.024-.07.094.094 0 0 1 .032-.068.096.096 0 0 1 .07-.024.097.097 0 0 1 .098.097.097.097 0 0 1-.097.097" fill="#fff"/><path d="M17.391 27.407s.371-.154.395-.26l-.047-.123a.166.166 0 0 1 .035-.213l.395-.277.668.127a.565.565 0 0 1-.11-.352l-.637-.134-.6.363a.58.58 0 0 0-.19.692l.091.177zm4.714 1.75h.395s.343-1.004.363-1.035a8.379 8.379 0 0 1-.747-.395c.103.154.348.323.3.458l-.311.972z" fill="#fff"/><path d="M25.36 23.21h-9.482v3.556c0 1.458 1.055 2.37 2.611 2.37 1.3 0 1.644.052 2.13.53a1.58 1.58 0 0 1 1.185-.502v-.055l.312-.912-.506-.577a1.831 1.831 0 0 1-.628.075 5.137 5.137 0 0 1-.94-.099.441.441 0 0 0-.099 0c-.043 0-.043 0-.055.024l-.06.099-.106.177-.206-.047-.908-.213-.127.205v.024l.111.122-.047.158a1.64 1.64 0 0 1-.352.518l-.23.245-.205-.261-.154-.194a.79.79 0 0 1-.11-.758l-.257.107-.115-.25-.079-.177a.865.865 0 0 1 .289-1.047l.73-.395.696.138c0-.067.043-.304.063-.367h-.04l-.394.15-.396-.269a.207.207 0 0 1-.045-.225.206.206 0 0 1 .045-.067l.376-.569-.952-1.185 1.461.6.1-.118.197-.237.225.213c.059.057.1.13.118.21.396.157 1.122.62 1.186 1.37l-.226.091a.277.277 0 0 0 .107.087l1.043.103.095-.028c.177-.066.364-.102.553-.106.189 0 .375.044.545.126a.822.822 0 0 1 .233-.048h.052a1.29 1.29 0 0 1 1.058.751l.115.166c.194.277.45.676.458.695l.115.178-.142.162a.695.695 0 0 1-.55.273 1 1 0 0 1-.19 0 .82.82 0 0 1-.189-.107c0 .055 0 .122-.031.178l-.182.952a2.227 2.227 0 0 0 1.793-2.276v-3.563zm-9.482-.287h7.384a1.186 1.186 0 0 1-.27-1.185 1.227 1.227 0 0 1-.276-.182c-.288.213-1.185.853-1.398 1.015l-.048.032-2.891-.522h-.06a2.43 2.43 0 0 1-.28 0 .28.28 0 0 1-.273.221h-.047a.288.288 0 0 1-.237-.327v-.064a1.158 1.158 0 0 1-.45-1.185l.031-.035.044-.032s.055-.04.13-.079l-.21-.031a.146.146 0 0 1-.099-.22.142.142 0 0 1 .147-.065l.502.079.047-1.762.747-.79.466.98-.51 1.679.443.07a.146.146 0 0 1 .118.167.142.142 0 0 1-.142.118h-.024l-.36-.059v.028c.04.07.101.127.175.162l2.204.035.565-.557a1.185 1.185 0 0 1-.79-.984 1.157 1.157 0 0 1-.628-.572 1.185 1.185 0 0 1-.052-.79 2.577 2.577 0 0 1-.92-.617h-3.291c.155.388.24.8.253 1.217v4.255z" fill="#FCE527"/><path d="M18.924 24.756a.093.093 0 0 0-.07.024.095.095 0 0 0-.032.067.095.095 0 0 0 .09.103.096.096 0 0 0 .097-.097.097.097 0 0 0-.096-.097m6.447 6.468l-.546-.21.15-.565.166-.616a12.86 12.86 0 0 1-2.33.92c-.396.111-.68.163-.68.163v.418a9.805 9.805 0 0 1-1.466.127h-.036a9.793 9.793 0 0 1-1.465-.127v-.418s-.293-.052-.68-.163a12.873 12.873 0 0 1-2.33-.92l.161.616.154.565-.549.21-.608.225c.818.43 1.672.788 2.552 1.07l-.21.57c.95.361 1.96.536 2.975.513h.024a7.85 7.85 0 0 0 2.987-.514l-.21-.569a15.67 15.67 0 0 0 2.544-1.066l-.604-.23zm-9.415.264l.896-.296-.264-.865c.578.289 1.18.53 1.797.719l-.434 1.185a10.867 10.867 0 0 1-1.995-.743zm4.673 1.818a9.967 9.967 0 0 1-2.575-.368l.533-1.442a8.64 8.64 0 0 0 2.042.257h.044a8.664 8.664 0 0 0 2.03-.26l.518 1.445a9.95 9.95 0 0 1-2.584.364m2.687-1.071l-.435-1.185c.618-.19 1.22-.43 1.798-.72l-.265.866.897.296c-.64.313-1.31.562-2 .743M20.62 8.713a4.097 4.097 0 0 1 2.5.759 4.95 4.95 0 0 1 .66-1.652l-.897.103-.482-.996-.9.463-.882-.862-.869.862-.897-.463-.466.996-.897-.103c.313.507.53 1.067.644 1.652a4.105 4.105 0 0 1 2.485-.759zm-2.273-.442l.25.027.106-.225.312-.668.58.3.226.115.178-.166.62-.636.636.636.178.178.225-.115.577-.3.316.668.107.225.248-.028.238-.027c-.096.217-.178.44-.245.667a4.977 4.977 0 0 0-4.54 0 5.782 5.782 0 0 0-.245-.667l.233.016zm15.309 12.096c1.438 0 1.92-1.461 1.94-1.525l.162-.513h-.538a3.854 3.854 0 0 1-2.9-1.47l-.106-.134c-.735-.933-1.43-1.821-2.679-2.228a1.39 1.39 0 0 1 .158-.119 2.345 2.345 0 0 0 1.142-1.58 2.335 2.335 0 0 0-.474-1.687l-.395-.494-.26.593c0 .035-.44.976-1.324.976h-.241a2.134 2.134 0 0 0-.632-1.675 2.805 2.805 0 0 0-2.027-.842c-.142 0-.283.01-.423.032l-.604.118.371.49c.293.395.557 1.079.245 1.442-.15.13-.32.233-.506.304-.395.186-.963.45-.963 1.114 0 .43.335.881.94 1.26 1.79 1.127 2.892 2.3 3.37 3.596.738 1.975-.226 3.132-1.162 3.729l-.419.269.368.335a2.1 2.1 0 0 0 1.161.494h.36c.367.002.731-.052 1.082-.158a2.693 2.693 0 0 1-.304.43 2.642 2.642 0 0 1-2.137.917h-.352l-.027.352a1.661 1.661 0 0 0 .916 1.493 3.074 3.074 0 0 0-.928 2.161c.01.461-.088.918-.285 1.336l-.395.592h.703c1.16 0 2.047-.317 2.663-.952.32-.336.558-.742.695-1.185a1.884 1.884 0 0 0 1.213.442c.213 0 .425-.025.632-.075l.447-.118-.198-.419a2.979 2.979 0 0 1 0-2.07c.147-.436.249-.886.304-1.343.356.181.75.273 1.15.268a1.902 1.902 0 0 0 1.62-.86l.217-.396-.395-.166c-1.323-.549-1.616-2.023-1.671-2.82.13.026.262.042.395.047l.09.04zm1.047 3.121a1.497 1.497 0 0 1-1.276.672 1.798 1.798 0 0 1-1.497-.656 5.59 5.59 0 0 1-.325 1.975 3.354 3.354 0 0 0 0 2.37 2.295 2.295 0 0 1-.537.068 1.549 1.549 0 0 1-1.446-1.063s.083 2.738-3.109 2.738h-.024a3.11 3.11 0 0 0 .364-1.482c.15-2.03 1.525-2.31 1.525-2.31a2.442 2.442 0 0 1-1.043-.368 1.296 1.296 0 0 1-.462-.972 3.016 3.016 0 0 0 2.437-1.05c.362-.415.606-.918.707-1.459a2.742 2.742 0 0 1-1.77.55h-.323a1.715 1.715 0 0 1-.933-.395c1.217-.79 2.066-2.138 1.312-4.188-.605-1.64-2.062-2.868-3.528-3.789-.486-.304-.759-.644-.759-.932 0-.688.976-.707 1.375-1.185.462-.537.174-1.403-.229-1.928a2.41 2.41 0 0 1 2.098.7 1.723 1.723 0 0 1 .466 1.722l.213.043c.13.024.263.037.395.04h.087c1.158 0 1.675-1.21 1.675-1.21s1.229 1.514-.58 2.699c-.313.201-.45.395-.395.593l.027.13.13.024c1.312.355 1.976 1.26 2.79 2.291a4.248 4.248 0 0 0 3.144 1.6h.024s-.395 1.256-1.58 1.256H33.6a1.534 1.534 0 0 1-.814-.225s-.21 2.849 1.916 3.733" fill="#222220"/><path d="M31.139 14.67c.442.251.824.595 1.122 1.007.224.348.545.623.924.79.144.048.295.072.447.071a1.612 1.612 0 0 0 1.43-.877l.23-.51-.558-.03a2.658 2.658 0 0 1-1.537-.878 1.581 1.581 0 0 0-1.15-.51 1.805 1.805 0 0 0-.947.289l-.51.36.549.288zm.909-.561a1.184 1.184 0 0 1 .873.395 3.042 3.042 0 0 0 1.79.991 1.24 1.24 0 0 1-1.08.652.984.984 0 0 1-.327-.055c-.636-.213-.865-1.185-1.975-1.766.217-.14.468-.217.727-.221m-.664 5.642c-.324-2.604-2.212-4.484-4.314-5.626a14.273 14.273 0 0 0-.55-.277 3.033 3.033 0 0 0 2.47-.58s-1.217.897-3.714.083c.692.446 2.03 1.078 3.26 2.105 3.061 2.69.872 5.318.872 5.318a3.219 3.219 0 0 0 .822-3.386 6.293 6.293 0 0 1 .893 3.58c-.083 2.07-1.22 3.855-2.418 5.293a3.556 3.556 0 0 0-.703 1.553 4.805 4.805 0 0 1 .905-1.513c1.28-1.502 2.37-3.058 2.52-5.306.135.395.68 1.54 1.545 1.975 0 0-1.09-.655-1.58-3.212m-16.312 9.628a3.069 3.069 0 0 1-.296-1.292 3.074 3.074 0 0 0-.928-2.16 1.656 1.656 0 0 0 .916-1.493l-.024-.352h-.355a2.642 2.642 0 0 1-2.133-.917 2.878 2.878 0 0 1-.34-.446c.35.106.713.159 1.078.158h.36a2.118 2.118 0 0 0 1.161-.498l.368-.336-.42-.269c-.935-.6-1.895-1.738-1.16-3.729.478-1.296 1.58-2.47 3.37-3.595.604-.395.936-.834.936-1.26 0-.664-.553-.925-.96-1.114a1.688 1.688 0 0 1-.506-.305c-.316-.363-.051-1.062.24-1.441l.376-.49-.608-.119a2.653 2.653 0 0 0-.419-.031 2.801 2.801 0 0 0-2.027.841 2.137 2.137 0 0 0-.604 1.655h-.237c-.889 0-1.308-.94-1.323-.976l-.25-.588-.395.494a2.347 2.347 0 0 0-.47 1.687 2.337 2.337 0 0 0 1.142 1.58c.056.035.109.075.158.118-1.248.395-1.944 1.296-2.678 2.229l-.107.134a3.857 3.857 0 0 1-2.904 1.47l-.56-.016.165.513c0 .063.498 1.525 1.936 1.525h.071c.133-.005.265-.021.395-.047-.06.79-.351 2.271-1.675 2.82l-.395.166.217.396a1.9 1.9 0 0 0 1.624.865c.398.004.791-.088 1.146-.269.055.457.157.907.304 1.343a2.979 2.979 0 0 1 0 2.07l-.198.42.45.118c.208.049.42.074.633.075a1.876 1.876 0 0 0 1.213-.442c.136.442.373.848.691 1.184.616.635 1.504.953 2.663.953h.703l-.344-.629zm-.34.218c-3.192 0-3.109-2.738-3.109-2.738a1.55 1.55 0 0 1-1.445 1.063 2.284 2.284 0 0 1-.534-.068 3.362 3.362 0 0 0 0-2.37 5.598 5.598 0 0 1-.32-1.975 1.793 1.793 0 0 1-1.497.656 1.502 1.502 0 0 1-1.276-.672c2.125-.885 1.92-3.733 1.92-3.733-.245.15-.527.227-.814.225h-.09c-1.186 0-1.581-1.256-1.581-1.256h.024a4.243 4.243 0 0 0 3.188-1.616c.81-1.031 1.477-1.936 2.789-2.292l.13-.023.028-.13c.035-.202-.103-.396-.395-.593-1.81-1.185-.58-2.699-.58-2.699s.513 1.21 1.674 1.21h.083a2.74 2.74 0 0 0 .395-.04l.214-.044a1.719 1.719 0 0 1 .466-1.722 2.408 2.408 0 0 1 1.75-.727 1.9 1.9 0 0 1 .347.028c-.395.521-.687 1.39-.225 1.928.395.462 1.375.481 1.375 1.185 0 .292-.273.628-.758.932-1.466.925-2.92 2.15-3.528 3.789-.755 2.046.098 3.405 1.315 4.187a1.715 1.715 0 0 1-.936.395h-.328a2.742 2.742 0 0 1-1.77-.549 3.1 3.1 0 0 0 .703 1.458 3.026 3.026 0 0 0 2.422 1.047 1.297 1.297 0 0 1-.482.976 2.446 2.446 0 0 1-1.055.395s1.375.28 1.53 2.31a3.106 3.106 0 0 0 .359 1.482l.011-.02z" fill="#222220"/><path d="M7.621 16.53c.152.002.303-.022.447-.07.379-.167.7-.442.924-.79.298-.413.68-.756 1.122-1.008l.553-.296-.514-.36a1.801 1.801 0 0 0-.948-.288 1.579 1.579 0 0 0-1.15.51 2.653 2.653 0 0 1-1.536.876l-.557.056.229.51a1.612 1.612 0 0 0 1.43.873m.707-2.027a1.185 1.185 0 0 1 .877-.395c.264-.003.523.07.747.21-1.118.596-1.347 1.552-1.975 1.765a.964.964 0 0 1-.324.055 1.237 1.237 0 0 1-1.079-.652 3.041 3.041 0 0 0 1.786-.991m1.77 6.475a6.27 6.27 0 0 1 .893-3.58 3.22 3.22 0 0 0 .822 3.386s-2.193-2.627.873-5.317c1.225-1.023 2.564-1.655 3.255-2.106-2.493.814-3.713-.083-3.713-.083a3.031 3.031 0 0 0 2.465.58 14.42 14.42 0 0 0-.55.277c-2.105 1.142-3.994 3.023-4.317 5.626v-.02c-.49 2.556-1.58 3.212-1.58 3.212.865-.426 1.41-1.56 1.544-1.975.146 2.248 1.24 3.804 2.525 5.306.392.45.697.97.9 1.532a3.555 3.555 0 0 0-.707-1.552c-1.185-1.438-2.33-3.228-2.414-5.294m9.781-5.258v.517a.637.637 0 0 1 .522-.174v.743a1.106 1.106 0 0 1-.142.526h.726a1.125 1.125 0 0 1-.142-.526v-.742a.635.635 0 0 1 .522.173v-.517h-1.486zm-.32-3.062c.116.1.25.176.395.225l.095.044v-.49l-.873-.368a.878.878 0 0 0 .395.589m2.067 0a.873.873 0 0 0 .395-.589l-.873.368v.486l.09-.044a1.16 1.16 0 0 0 .395-.225" fill="#222220"/><path d="M23.242 10.676c0-.739-1.24-1.403-2.611-1.403-1.371 0-2.612.664-2.612 1.403l.028.182.549 3.16-.55.32-1.433.822s-.32.166-.47.264c-.542.396-.656.925-.344 1.15a1.071 1.071 0 0 1 1.094-.916 1.423 1.423 0 0 1 1.134.616c.077.095.149.196.213.3.083.134.166.253.245.368h-3.65a3.93 3.93 0 0 1 .525 1.738v8.095c0 1.975 1.51 2.9 3.16 2.9 1.261 0 1.431-.06 2.13.636.692-.696.862-.637 2.126-.637 1.631 0 3.14-.936 3.14-2.9v-8.106a3.95 3.95 0 0 1 .526-1.738h-3.686a4.52 4.52 0 0 0 .245-.368 3.39 3.39 0 0 1 .213-.3 1.426 1.426 0 0 1 1.134-.616 1.075 1.075 0 0 1 1.094.916c.316-.225.202-.79-.343-1.15a3.412 3.412 0 0 0-.463-.252l-1.422-.83-.549-.32.55-3.16.027-.174zm-4.694.363l1.925.652v3.022l-1.435-.738-.49-2.936zm.396 6.42c.258.27.572.48.92.616a1.18 1.18 0 0 0 .052.79c.128.265.353.47.628.573a1.185 1.185 0 0 0 .79.984l-.577.545-2.205-.035a.395.395 0 0 1-.173-.162v-.028l.36.06h.023a.142.142 0 0 0 .142-.12.146.146 0 0 0-.118-.165l-.443-.071.49-1.695-.466-.98-.747.79-.047 1.762-.51-.079a.141.141 0 0 0-.146.066.146.146 0 0 0 .1.219l.208.031a.831.831 0 0 0-.13.083l-.032.048v.051a1.158 1.158 0 0 0 .45 1.185v.064a.289.289 0 0 0 .237.327h.048a.28.28 0 0 0 .273-.22c.093.005.187.005.28 0h.06l2.891.52.047-.031c.23-.162 1.11-.79 1.399-1.015.084.072.177.134.277.181a1.185 1.185 0 0 0 .268 1.186h-7.415v-4.271a3.532 3.532 0 0 0-.265-1.209h3.33zm3.555 3.892c-.292.217-1.047.766-1.32.956l-2.627-.475v-.07c.046-.178.07-.36.072-.542l2.208.036.043-.044c.032-.031.735-.71 1.09-1.098.094.117.206.217.333.296-.061.325.005.66.185.936m-4.361-.45a.672.672 0 0 0 .253.269 3.2 3.2 0 0 1-.048.478c0 .035 0 .07-.027.107v.055c-.18 0-.359-.028-.53-.083a.857.857 0 0 1-.442-.873 1.04 1.04 0 0 1 .47-.158.332.332 0 0 1 .32.221m-.265-.541l.044-1.695.395-.395.237.498-.47 1.623-.206-.031zm4.646 8.778h-.395l.312-.952c.048-.134-.197-.308-.3-.462.242.144.491.276.747.395 0 .031-.364 1.035-.364 1.035m.984-1.106l-.206 1.066c-.13 0-.268.028-.395.032l.218-1.023c.063-.305-.755-.395-1.158-1a1.268 1.268 0 0 1-.94.289 4.817 4.817 0 0 1-.889-.095.94.94 0 0 0-.15 0 .324.324 0 0 0-.304.162l-.06.099-1.114-.261-.276.458a.162.162 0 0 0 .02.205l.075.083c-.074.146-.17.28-.285.395l-.166-.22a.601.601 0 0 1 0-.665l.443-.746.944.134-.146-.336c-.198-.442.102-1.003.134-1.327 0 .099-.103.118-.205.118h-.273a.115.115 0 0 0-.063 0l-.257.155-.182-.178a.146.146 0 0 1 .028-.174l.466-.526-.553-.643.79.395.237-.285c.063.063.036.23.036.23a1.26 1.26 0 0 1 .952 1.252v.114a.566.566 0 0 0 .348.25l1.066.106a3.74 3.74 0 0 1 .648-.138c.191 0 .378.057.537.162a.478.478 0 0 1 .253-.083h.036c.478 0 .68.434.936.79.194.272.45.68.45.68a.395.395 0 0 1-.331.177.695.695 0 0 1-.139 0c-.513-.095-.588-1.15-.88-1.233h-.048a.157.157 0 0 0-.134.083c.134.36.055.506.201.79.108.171.241.324.395.455 0 0-.02.154-.043.272m-5.756-1.043l.047.123c-.032.107-.395.26-.395.26l-.08-.173a.58.58 0 0 1 .19-.692l.601-.363.636.134a.565.565 0 0 0 .11.352l-.667-.127-.395.277a.166.166 0 0 0-.035.213m5.838 2.015l.186-.956c0-.055.02-.122.028-.178.053.023.109.04.166.052.063.006.126.006.19 0a.694.694 0 0 0 .549-.273l.142-.162-.115-.178s-.265-.418-.458-.695l-.11-.166a1.289 1.289 0 0 0-1.06-.75h-.05a.81.81 0 0 0-.234.047 1.272 1.272 0 0 0-.545-.127 1.69 1.69 0 0 0-.553.107l-.095.028-1.043-.103a.28.28 0 0 1-.107-.09l.225-.092c-.063-.75-.79-1.213-1.185-1.37a.425.425 0 0 0-.118-.214l-.225-.213-.198.237-.099.118-1.461-.6.948 1.185-.375.569a.203.203 0 0 0-.062.146.206.206 0 0 0 .061.146l.395.269.396-.15h.04c0 .06-.044.3-.064.367l-.695-.138-.731.395a.865.865 0 0 0-.273 1.098l.083.178.115.249.256-.107a.79.79 0 0 0 .111.759l.154.193.206.261.229-.245c.15-.148.269-.324.351-.517l.048-.158-.11-.123v-.024l.125-.205.91.213.205.048.11-.182.06-.099c0-.02 0-.023.055-.023h.099c.31.061.624.094.94.098a1.83 1.83 0 0 0 .628-.075l.478.593-.312.92v.056a1.58 1.58 0 0 0-1.185.501c-.486-.482-.826-.529-2.13-.529-1.556 0-2.611-.912-2.611-2.37v-3.556h9.481v3.556a2.228 2.228 0 0 1-1.785 2.275m2.05-11.59c-.16.383-.25.793-.265 1.208v2.659a.79.79 0 0 1-.624-.72v-.122h-.118a.846.846 0 0 1-.538-.256 1.126 1.126 0 0 1-.276-.723.79.79 0 0 0 .043.888.949.949 0 0 0 .625.356 1.039 1.039 0 0 0 .888.873v1.304h-1.631a.913.913 0 0 1-.423-1.185l.063-.143-.146-.055a.933.933 0 0 1-.58-1.157l.031-.119-.11-.051a1.185 1.185 0 0 1-.577-1.185.727.727 0 0 0-.139.849 8.915 8.915 0 0 1-.296.312.92.92 0 0 1-.723-.853v-.111l-.09-.036a.916.916 0 0 1-.554-.478.896.896 0 0 1-.04-.576 1.694 1.694 0 0 0 .479.035 2.254 2.254 0 0 0 1.675-.75l3.326.035zm-2.548-2.695l.648.395.162.095a1.91 1.91 0 0 0-.881.525l-.016.012c-.055.06-.107.119-.158.182l-.032.04a2.7 2.7 0 0 0-.142.197l-.023.035a3.91 3.91 0 0 0-.159.253 2.328 2.328 0 0 1-1.856 1.272 2.327 2.327 0 0 1-1.85-1.272 6.868 6.868 0 0 0-.153-.249l-.032-.043-.138-.19-.036-.043a3.566 3.566 0 0 0-.154-.178l-.008-.032a1.91 1.91 0 0 0-.88-.521l.165-.095.648-.395.664-.395 1.774 1 1.777-.969.68.376zm-.877-.79l-1.418.746v-3.03l1.924-.652-.506 2.936zm-1.58-2.608l-2.106-.833c.178-.423 1.007-.79 2.106-.79 1.098 0 1.928.363 2.11.79l-2.11.833z" fill="#222220"/></g><defs><clipPath id="clip0_2057_47834"><rect x="4.5" y="5.777" width="32" height="28.444" rx="14.222" fill="#fff"/></clipPath></defs></svg>